<?xml version="1.0" encoding="UTF-8" standalone="no"?>
<!-- Created with Inkscape (http://www.inkscape.org/) -->

<svg
   xmlns:dc="http://purl.org/dc/elements/1.1/"
   xmlns:cc="http://creativecommons.org/ns#"
   xmlns:rdf="http://www.w3.org/1999/02/22-rdf-syntax-ns#"
   xmlns:svg="http://www.w3.org/2000/svg"
   xmlns="http://www.w3.org/2000/svg"
   xmlns:inkscape="http://www.inkscape.org/namespaces/inkscape"
   version="1.0"
   width="11mm"
   height="10.4mm"
   id="svg2">
  <metadata
     id="metadata34">
    <rdf:RDF>
      <cc:Work
         rdf:about="">
        <dc:format>image/svg+xml</dc:format>
        <dc:type
           rdf:resource="http://purl.org/dc/dcmitype/StillImage" />
      </cc:Work>
    </rdf:RDF>
  </metadata>
  <defs
     id="defs4" />
  <g
     id="g6">
    <path
       d="m 38.799214,10.452756 0.08858,-0.7529526 -1.860236,-0.5314961 0,-0.3100393 0,-0.2657481 -0.04429,-0.3543307 -0.04429,-0.265748 L 38.754922,7.2637797 38.577757,6.510827 36.673229,6.776575 36.540355,6.4665356 36.407481,6.2007876 36.274607,5.9350395 36.141733,5.6692915 37.514765,4.29626 37.071851,3.6761812 35.388781,4.6505907 35.255906,4.5177167 35.123032,4.3848426 35.03445,4.29626 34.857284,4.1633859 l -0.66437,0.7529528 0.487205,0.4429134 0.398622,0.5314961 0.354331,0.5757874 0.265748,0.5757874 0.221457,0.6643701 0.132874,0.6643701 0,0.6643701 -0.04429,0.7086615 -0.08858,0.5314962 -0.177166,0.531496 -0.177165,0.442913 -0.265748,0.442914 -0.265748,0.442913 -0.354331,0.398622 -0.354331,0.354331 -0.35433,0.310039 -0.442914,0.31004 -0.442913,0.221456 -0.487205,0.177166 -0.487205,0.177165 -0.531496,0.08858 -0.487204,0.04429 -0.531497,0.04429 -0.531496,-0.04429 -0.442913,-0.08858 -0.442913,-0.132874 -0.354331,-0.132874 -0.398622,-0.177165 -0.354331,-0.177165 -0.354331,-0.221457 -0.310039,-0.265748 -0.310039,-0.265748 -0.620079,0.708661 0.132874,0.132874 0.132874,0.08858 0.132874,0.132874 0.132874,0.08858 -0.752953,1.815945 0.620079,0.35433 1.240157,-1.550197 0.132874,0.08858 0.132874,0.04429 0.132875,0.04429 0.132874,0.08858 0.177165,0.04429 0.132874,0.04429 0.132874,0.04429 0.132874,0.04429 -0.04429,1.948819 0.752952,0.132874 0.531496,-1.904528 0.177166,0 0.132874,0 0.177165,0 0.132874,0 0.177166,0 0.132874,-0.04429 0.132874,0 0.177165,-0.04429 0.708661,1.860236 0.752953,-0.177166 -0.265748,-1.99311 0.132874,-0.04429 0.132874,-0.04429 0.177166,-0.08858 0.132874,-0.04429 0.132874,-0.04429 0.132874,-0.08858 0.132874,-0.04429 0.132874,-0.08858 1.373031,1.417323 0.575788,-0.442913 -0.97441,-1.727362 0.132874,-0.08858 0.132874,-0.08858 0.08858,-0.132874 0.08858,-0.08858 0.132874,-0.132874 0.08858,-0.132874 0.08858,-0.08858 0.08858,-0.132874 1.815945,0.797244 0.35433,-0.66437 -1.550197,-1.195866 0.132874,-0.265748 0.132874,-0.31004 0.08858,-0.265748 0.08858,-0.310039 1.948819,0.04429 z"
       inkscape:connector-curvature="0"
       id="path8"
       style="fill:#f2f2f2;fill-opacity:1;fill-rule:evenodd;stroke:none" />
    <path
       d="m 25.556103,8.2381892 0.08858,-0.5314961 0.132874,-0.5314961 0.221456,-0.4872047 0.221457,-0.4429134 0.31004,-0.4429134 0.35433,-0.398622 0.354331,-0.3543308 0.354331,-0.3100393 0.442913,-0.2657481 0.442914,-0.265748 0.487204,-0.2214567 0.487205,-0.132874 0.487205,-0.088583 0.531496,-0.088583 0.531496,0 0.531496,0.088583 0.398622,0.044291 0.354331,0.088583 0.35433,0.132874 0.31004,0.132874 0.354331,0.1328741 0.310039,0.2214567 0.265748,0.1771653 0.310039,0.2214567 0.66437,-0.7529528 -0.08858,-0.088583 -0.08858,-0.088583 -0.08858,-0.088583 -0.132874,-0.088583 0.797244,-1.7273622 -0.66437,-0.3986221 -1.195866,1.5059056 -0.132874,-0.044291 -0.132874,-0.044291 -0.132874,-0.088583 -0.132874,-0.044291 -0.177165,-0.044291 -0.132874,-0.044291 -0.132874,-0.044291 -0.177166,-0.044291 0.04429,-1.94881894 -0.752953,-0.13287402 -0.487205,1.90452756 -0.177165,0 -0.177166,0 -0.132874,0 -0.177165,0 -0.132874,0 -0.177165,0 -0.132874,0.044291 -0.132874,0 -0.708662,-1.7716536 -0.752953,0.1771654 0.265749,1.9045276 -0.132874,0.044291 -0.177166,0.088583 -0.132874,0.044291 -0.132874,0.044291 -0.132874,0.088583 -0.132874,0.088583 -0.177165,0.044291 -0.132874,0.088583 -1.328741,-1.4173228 -0.620078,0.4872047 0.974409,1.6830709 -0.132874,0.088583 -0.08858,0.132874 -0.08858,0.088583 -0.132874,0.088583 -0.08858,0.132874 -0.08858,0.132874 -0.132874,0.132874 -0.08858,0.088583 -1.771654,-0.7529528 -0.398622,0.6200788 1.550197,1.1958662 -0.132874,0.3100394 -0.08858,0.265748 -0.08858,0.3100394 -0.08858,0.3100393 -1.948819,-0.044291 -0.132874,0.7086614 1.904528,0.5314961 0,0.3100394 0,0.3100394 0.04429,0.3100394 0,0.3100393 -1.815945,0.7086616 0.177165,0.752953 1.993111,-0.265748 0.08858,0.265748 0.132874,0.310039 0.132874,0.265748 0.132874,0.265748 -1.417323,1.373032 0.442914,0.575787 1.727362,-0.974409 0.08858,0.08858 0.08858,0.08858 0.08858,0.08858 0.08858,0.08858 0.620079,-0.708661 -0.398622,-0.442914 -0.354331,-0.487204 -0.31004,-0.531496 -0.221456,-0.575788 -0.177166,-0.620079 -0.08858,-0.6200783 -0.04429,-0.6200787 0.08858,-0.6200788 z"
       inkscape:connector-curvature="0"
       id="path10"
       style="fill:#f2f2f2;fill-opacity:1;fill-rule:evenodd;stroke:none" />
    <path
       d="M 33.39567,9.3454727 33.439962,8.991142 33.39567,8.6368113 33.351379,8.2824805 33.218505,7.9724412 33.085631,7.6624018 32.908465,7.3966537 l -0.265748,-0.265748 -0.221456,-0.265748 -3.587599,3.9419293 0.177166,0.132874 0.177165,0.132874 0.177165,0.132874 0.177166,0.08858 0.177165,0.132874 0.221457,0.04429 0.221456,0.08858 0.221457,0.04429 0.531496,0 0.531496,-0.08858 0.487205,-0.177165 0.442913,-0.221457 0.354331,-0.35433 0.31004,-0.398622 0.221456,-0.4872052 0.132874,-0.5314961 z"
       inkscape:connector-curvature="0"
       id="path12"
       style="fill:#f2f2f2;fill-opacity:1;fill-rule:evenodd;stroke:none" />
    <path
       d="m 31.181103,6.3336616 -0.531496,0 -0.531496,0.088583 -0.487205,0.1771653 -0.442913,0.2657481 -0.354331,0.3543307 -0.310039,0.3543307 -0.221457,0.4872047 -0.132874,0.5314961 -0.04429,0.3100394 0,0.3100394 0.04429,0.3100394 0.08858,0.265748 0.08858,0.2657479 0.132875,0.265748 0.177165,0.265748 0.177165,0.221457 L 32.421261,6.8651577 32.244095,6.776575 32.111221,6.6879923 31.978347,6.643701 31.845473,6.5551183 31.668308,6.510827 31.491143,6.4222443 31.358269,6.3779529 31.181103,6.3336616 z"
       inkscape:connector-curvature="0"
       id="path14"
       style="fill:#f2f2f2;fill-opacity:1;fill-rule:evenodd;stroke:none" />
    <path
       d="m 18.868111,11.205709 1.373031,-0.575787 -0.221456,-1.0187013 -1.461615,0 L 18.51378,9.389764 18.425197,9.2125987 18.380906,8.991142 18.292323,8.8139766 18.203741,8.6368113 18.115158,8.4153546 18.026575,8.2381892 17.937993,8.0610238 18.912402,7.042323 18.336615,6.2007876 17.052166,6.6879923 16.919292,6.510827 16.742126,6.3336616 16.609252,6.2007876 16.476378,6.0236222 16.343504,5.8907482 16.21063,5.7578742 16.033465,5.6250002 15.900591,5.4921261 16.387796,4.1633859 15.54626,3.6318899 14.527559,4.562008 l -0.08858,-0.044291 -0.08858,-0.044291 -0.08858,-0.044291 -0.08858,-0.044291 -0.08858,-0.044291 -0.08858,-0.044291 -0.08858,-0.044291 -0.08858,-0.044291 -0.66437,1.4616142 0.487205,0.2214567 0.442913,0.265748 0.398622,0.2657481 0.398622,0.265748 0.354331,0.3543307 0.354331,0.3543307 0.310039,0.3986221 0.310039,0.3986221 0.265748,0.398622 0.221457,0.4429134 0.221457,0.4872048 0.177165,0.4429134 0.132874,0.4872045 0.08858,0.531496 0.04429,0.531496 0.04429,0.531496 -0.04429,0.708662 -0.08858,0.66437 -0.177166,0.66437 -0.265748,0.620079 -0.265748,0.620079 -0.354331,0.575787 -0.398622,0.531496 -0.442913,0.487205 -0.487205,0.442913 -0.531496,0.398622 -0.575787,0.354331 -0.620079,0.265748 -0.620079,0.265748 -0.66437,0.177165 -0.66437,0.08858 -0.708661,0.04429 -0.354331,0 -0.3543309,-0.04429 -0.3543307,-0.04429 -0.3543307,-0.04429 -0.3543308,-0.08858 -0.3100393,-0.08858 -0.3100394,-0.132874 -0.3100394,-0.132874 -0.5757874,1.373032 0.088583,0.04429 0.088583,0.04429 0.088583,0 0.132874,0.04429 0.044291,0.04429 0.132874,0.04429 0.088583,0.04429 0.088583,0 0.044291,1.284448 0.9744095,0.177166 0.6200787,-1.107284 0.1771654,0 0.2214569,0 0.177165,0.04429 0.221457,0 0.221457,0 0.177165,0 0.221457,-0.04429 0.221456,0 0.487205,1.062992 0.97441,-0.177165 0.177165,-1.195866 0.177165,-0.04429 0.221457,-0.08858 0.177165,-0.08858 0.177166,-0.04429 0.177165,-0.08858 0.221457,-0.08858 0.177165,-0.08858 0.177165,-0.08858 1.018701,0.97441 0.841536,-0.575788 -0.487205,-1.32874 0.177165,-0.132874 0.132874,-0.132874 0.177166,-0.132874 0.132874,-0.132874 0.177165,-0.177165 0.132874,-0.132874 0.132874,-0.132874 0.132874,-0.177166 1.240158,0.442914 0.531496,-0.841536 -0.841536,-0.974409 0.08858,-0.177166 0.08858,-0.177165 0.08858,-0.177165 0.08858,-0.221457 0.08858,-0.177165 0.04429,-0.177166 0.08858,-0.177165 0.04429,-0.221457 1.373032,-0.08858 0.221456,-0.974409 -1.284449,-0.575787 0.04429,-0.354331 0.04429,-0.442914 0,-0.398622 -0.04429,-0.442913 z"
       inkscape:connector-curvature="0"
       id="path16"
       style="fill:#f2f2f2;fill-opacity:1;fill-rule:evenodd;stroke:none" />
    <path
       d="M 3.5433072,12.047244 3.5875985,11.338583 3.6761812,10.629922 3.8533466,9.9655515 4.1190946,9.3454727 4.3848426,8.7253939 4.7391734,8.1938979 5.1377954,7.6624018 5.5807088,7.175197 6.0679136,6.7322837 6.5994096,6.3336616 7.175197,5.9793309 7.7952758,5.6692915 8.4153546,5.4478348 9.0797247,5.2706694 l 0.7086614,-0.088583 0.7086619,-0.044291 0.35433,0 0.354331,0.044291 0.310039,0.044291 0.354331,0.044291 0.354331,0.088583 0.310039,0.088583 0.31004,0.132874 0.310039,0.088583 0.66437,-1.4616142 -0.132874,-0.044291 -0.08858,-0.044291 -0.132874,0 -0.08858,-0.044291 -0.08858,-0.044291 -0.08858,-0.044291 -0.132874,-0.044291 -0.08858,-0.044291 0,-1.3730315 -1.018701,-0.1771654 -0.620079,1.2401575 -0.221457,-0.044291 -0.177165,0 -0.221457,0 -0.177165,0 -0.221457,0 -0.221457,0 -0.2214562,0 -0.1771654,0.044291 -0.6200787,-1.3287402 -1.0187009,0.2214567 0,1.4173229 L 7.8395671,3.9419292 7.6181104,4.0305119 7.4409451,4.0748033 7.2637797,4.1633859 7.0866144,4.2519686 6.8651577,4.3405513 6.6879923,4.429134 6.510827,4.5177167 5.3592521,3.4547245 4.5177167,4.0305119 5.1377954,5.4478348 4.9606301,5.5807088 4.827756,5.7135828 4.6505907,5.8464569 4.5177167,5.9793309 4.3405513,6.1564962 4.2076773,6.2893703 4.0748033,6.4665356 3.9419292,6.5994096 2.5246064,6.0236222 1.948819,6.8651577 3.0118111,7.9724412 2.9232284,8.1496065 2.8346457,8.3710632 2.7460631,8.5482286 2.6574804,8.7253939 2.5688977,8.9025593 2.5246064,9.124016 2.4360237,9.3011814 2.3917323,9.5226381 0.93011814,9.4783467 l -0.2214567,0.9744093 1.32874016,0.66437 0,0.442914 0,0.398622 0,0.398622 0,0.442913 -1.32874016,0.575788 0.2214567,0.974409 1.46161416,0.04429 0.044291,0.177166 0.044291,0.221456 0.088583,0.177166 0.088583,0.221457 0.088583,0.177165 0.044291,0.177165 0.088583,0.177166 0.088583,0.177165 -0.8858268,1.018701 0.531496,0.841535 1.2844489,-0.442913 0.132874,0.132874 0.132874,0.177165 0.1771654,0.132874 0.132874,0.177166 0.132874,0.132874 0.1328741,0.132874 0.1771653,0.132874 0.132874,0.132874 -0.4872047,1.284449 0.8415355,0.575787 1.0629921,-0.930118 0.088583,0.04429 0.088583,0.04429 0.088583,0.04429 0.088583,0.04429 0.088583,0.04429 0.088583,0.04429 0.088583,0.04429 0.132874,0.04429 L 7.7952758,18.380906 7.3080711,18.159449 6.909449,17.937993 6.4665356,17.672245 6.0679136,17.362205 5.7135828,17.052166 5.3592521,16.653544 5.0492127,16.299213 4.7391734,15.900591 4.4734253,15.457678 4.2519686,15.014764 4.0305119,14.571851 3.8533466,14.084646 3.7204725,13.597441 3.6318899,13.065945 3.5875985,12.578741 3.5433072,12.047244 z"
       inkscape:connector-curvature="0"
       id="path18"
       style="fill:#f2f2f2;fill-opacity:1;fill-rule:evenodd;stroke:none" />
    <path
       d="M 13.951772,12.047244 13.907481,11.515748 13.774607,11.028544 13.597441,10.541339 13.331693,10.098425 13.065945,9.7440948 12.667323,9.389764 12.268701,9.0797247 11.825788,8.858268 l -2.701772,6.377953 0.1771654,0.04429 0.132874,0.04429 0.1771653,0.04429 0.1771654,0.04429 0.1771654,0.04429 0.1771655,0 0.177165,0.04429 0.177166,0 0.35433,-0.04429 0.31004,-0.04429 0.35433,-0.08858 0.31004,-0.08858 0.310039,-0.177165 0.265748,-0.177166 0.265748,-0.177165 0.265748,-0.221457 0.221457,-0.265748 0.177165,-0.265748 0.177166,-0.265748 0.132874,-0.310039 0.132874,-0.31004 0.08858,-0.35433 0.04429,-0.31004 0.04429,-0.354331 z"
       inkscape:connector-curvature="0"
       id="path20"
       style="fill:#f2f2f2;fill-opacity:1;fill-rule:evenodd;stroke:none" />
    <path
       d="m 10.497048,8.5925199 -0.354331,0 L 9.7883861,8.6811026 9.4340554,8.7253939 9.124016,8.858268 8.8139766,8.991142 8.5482286,9.1683073 8.2824805,9.389764 8.0167325,9.6112207 7.7952758,9.8326774 7.6181104,10.098425 l -0.1771653,0.31004 -0.1771654,0.310039 -0.088583,0.31004 -0.088583,0.310039 -0.044291,0.354331 -0.044291,0.35433 0.044291,0.531497 0.132874,0.487204 0.1771654,0.442914 0.265748,0.442913 0.3100394,0.398622 0.3543307,0.354331 0.3986221,0.265748 0.4429134,0.265748 2.701772,-6.377953 -0.132874,-0.044291 -0.177166,-0.088583 -0.177165,0 -0.177165,-0.044291 -0.132874,-0.044291 -0.177166,-0.044291 -0.177165,0 -0.177165,0 z"
       inkscape:connector-curvature="0"
       id="path22"
       style="fill:#f2f2f2;fill-opacity:1;fill-rule:evenodd;stroke:none" />
    <path
       d="m 30.206694,20.994095 0,-0.66437 -1.63878,-0.177165 -0.04429,-0.265748 -0.04429,-0.221457 -0.04429,-0.265748 -0.04429,-0.265748 1.373031,-0.797244 -0.221456,-0.575788 -1.550197,0.442914 -0.132874,-0.221457 -0.132874,-0.221457 -0.132874,-0.221456 -0.177166,-0.221457 0.97441,-1.240158 -0.442914,-0.487204 -1.240157,1.0187 -0.132874,-0.08858 -0.132874,-0.08858 -0.132874,-0.08858 -0.08858,-0.08858 -0.487205,0.708661 0.442914,0.31004 0.398622,0.398622 0.354331,0.398622 0.310039,0.487204 0.221457,0.487205 0.177165,0.531496 0.132874,0.575788 0.04429,0.575787 -0.04429,0.442913 -0.04429,0.442914 -0.132874,0.442913 -0.132874,0.354331 -0.177166,0.398622 -0.221456,0.398622 -0.265748,0.310039 -0.265748,0.31004 -0.31004,0.310039 -0.354331,0.265748 -0.35433,0.221457 -0.398622,0.177165 -0.398622,0.132874 -0.398622,0.08858 -0.487205,0.08858 -0.442914,0 -0.35433,0 -0.354331,-0.04429 -0.354331,-0.08858 -0.310039,-0.08858 -0.310039,-0.08858 -0.31004,-0.177165 -0.310039,-0.177165 -0.265748,-0.177166 -0.442914,0.66437 0.132874,0.08858 0.08858,0.08858 0.132874,0.08858 0.177165,0.08858 -0.442913,1.550197 0.575787,0.265748 0.797245,-1.461614 0.132874,0.04429 0.132874,0.04429 0.08858,0.04429 0.132874,0 0.132874,0.04429 0.132874,0 0.132874,0 0.08858,0.04429 0.221457,1.63878 0.620078,0 0.221457,-1.63878 0.132874,-0.04429 0.132874,0 0.08858,0 0.132874,-0.04429 0.132874,0 0.132874,-0.04429 0.132874,-0.04429 0.08858,-0.04429 0.841535,1.461614 0.575788,-0.265748 -0.442914,-1.550197 0.132874,-0.08858 0.08858,-0.04429 0.132874,-0.08858 0.08858,-0.04429 0.08858,-0.08858 0.08858,-0.08858 0.132874,-0.04429 0.08858,-0.08858 1.284448,0.974409 0.442914,-0.398622 -0.97441,-1.32874 0.132874,-0.177166 0.177166,-0.221456 0.132874,-0.221457 0.08858,-0.221457 1.594489,0.442914 0.221456,-0.575788 -1.417323,-0.797244 0.08858,-0.265748 0.04429,-0.221456 0.04429,-0.265749 0.04429,-0.265748 1.63878,-0.177165 z"
       inkscape:connector-curvature="0"
       id="path24"
       style="fill:#f2f2f2;fill-opacity:1;fill-rule:evenodd;stroke:none" />
    <path
       d="m 19.000985,20.728347 0,-0.442913 0.08858,-0.442914 0.08858,-0.442913 0.177165,-0.398622 0.132875,-0.354331 0.221456,-0.398622 0.265748,-0.310039 0.31004,-0.31004 0.310039,-0.310039 0.310039,-0.265748 0.398622,-0.221457 0.398623,-0.177165 0.398622,-0.132874 0.398622,-0.08858 0.442913,-0.08858 0.442913,-0.04429 0.31004,0.04429 0.310039,0 0.31004,0.08858 0.310039,0.04429 0.265748,0.132874 0.310039,0.08858 0.265748,0.132874 0.265748,0.132874 0.487205,-0.708661 -0.132874,-0.04429 -0.04429,-0.08858 -0.132874,-0.04429 -0.08858,-0.04429 0.442914,-1.550197 -0.575788,-0.265748 -0.841535,1.417323 -0.08858,-0.04429 -0.132874,0 -0.132874,-0.04429 -0.132874,-0.04429 -0.08858,0 -0.132874,-0.04429 -0.132874,0 -0.132874,-0.04429 -0.221457,-1.550197 -0.620078,0 -0.221457,1.550197 -0.08858,0.04429 -0.132874,0 -0.132874,0.04429 -0.132874,0 -0.132874,0.04429 -0.132874,0.04429 -0.132874,0 -0.08858,0.04429 -0.797245,-1.417323 -0.575787,0.265748 0.398622,1.550197 -0.132874,0.04429 -0.08858,0.08858 -0.08858,0.08858 -0.132874,0.04429 -0.08858,0.08858 -0.132874,0.04429 -0.08858,0.08858 -0.08858,0.08858 -1.284449,-1.0187 -0.442914,0.487204 1.018701,1.240158 -0.177165,0.221457 -0.132874,0.221456 -0.177166,0.221457 -0.08858,0.221457 -1.550197,-0.442914 -0.265748,0.575788 1.417323,0.797244 -0.04429,0.265748 -0.04429,0.221457 -0.08858,0.265748 0,0.265748 -1.638779,0.177165 0,0.66437 1.638779,0.177165 0.04429,0.265748 0.04429,0.265749 0.04429,0.221456 0.04429,0.265748 -1.417323,0.797244 0.265748,0.575788 1.550197,-0.442914 0.132874,0.221457 0.132874,0.221457 0.132874,0.221456 0.177165,0.177166 -1.018701,1.32874 0.442914,0.398622 1.284449,-0.974409 0.08858,0.04429 0.08858,0.04429 0.08858,0.08858 0.08858,0.04429 0.442914,-0.66437 -0.398622,-0.354331 -0.354331,-0.310039 -0.310039,-0.442913 -0.265748,-0.442914 -0.221457,-0.442913 -0.132874,-0.487205 -0.132874,-0.531496 0,-0.531496 z"
       inkscape:connector-curvature="0"
       id="path26"
       style="fill:#f2f2f2;fill-opacity:1;fill-rule:evenodd;stroke:none" />
    <path
       d="m 25.600394,20.728347 0,-0.310039 -0.04429,-0.265748 -0.132874,-0.31004 -0.132874,-0.221456 -0.177165,-0.265749 -0.177166,-0.177165 -0.221456,-0.221457 -0.221457,-0.132874 -2.436024,3.63189 0.132874,0.08858 0.132874,0.08858 0.177166,0.08858 0.177165,0.08858 0.177165,0.04429 0.177166,0.04429 0.177165,0 0.177165,0 0.442914,0 0.442913,-0.177166 0.354331,-0.177165 0.354331,-0.265748 0.265748,-0.310039 0.177165,-0.398623 0.132874,-0.398622 0.04429,-0.442913 z"
       inkscape:connector-curvature="0"
       id="path28"
       style="fill:#f2f2f2;fill-opacity:1;fill-rule:evenodd;stroke:none" />
    <path
       d="m 23.385827,18.51378 -0.442913,0.04429 -0.398622,0.132874 -0.398622,0.177166 -0.310039,0.310039 -0.265749,0.31004 -0.177165,0.35433 -0.177165,0.442914 0,0.442913 0,0.265748 0.04429,0.221457 0.08858,0.265748 0.08858,0.221457 0.132874,0.177165 0.132875,0.221457 0.177165,0.177165 0.177165,0.177165 2.436024,-3.63189 -0.132874,-0.08858 -0.132874,-0.04429 -0.132874,-0.04429 -0.132874,-0.04429 -0.132874,-0.04429 -0.132874,-0.04429 -0.177166,0 -0.132874,0 z"
       inkscape:connector-curvature="0"
       id="path30"
       style="fill:#f2f2f2;fill-opacity:1;fill-rule:evenodd;stroke:none" />
  </g>
</svg>
