<?xml version="1.0" encoding="UTF-8" standalone="no"?>
<!-- Created with Inkscape (http://www.inkscape.org/) -->

<svg
   xmlns:dc="http://purl.org/dc/elements/1.1/"
   xmlns:cc="http://creativecommons.org/ns#"
   xmlns:rdf="http://www.w3.org/1999/02/22-rdf-syntax-ns#"
   xmlns:svg="http://www.w3.org/2000/svg"
   xmlns="http://www.w3.org/2000/svg"
   xmlns:inkscape="http://www.inkscape.org/namespaces/inkscape"
   version="1.0"
   width="16.5mm"
   height="10.2mm"
   id="svg2">
  <metadata
     id="metadata214">
    <rdf:RDF>
      <cc:Work
         rdf:about="">
        <dc:format>image/svg+xml</dc:format>
        <dc:type
           rdf:resource="http://purl.org/dc/dcmitype/StillImage" />
      </cc:Work>
    </rdf:RDF>
  </metadata>
  <defs
     id="defs4" />
  <g
     id="g6">
    <path
       d="m 0.5905512,0.5905512 0,2.952756 57.2834658,0 0,-2.952756 -57.2834658,0 z"
       inkscape:connector-curvature="0"
       id="path8"
       style="fill:#21b1ff;fill-opacity:1;fill-rule:evenodd;stroke:none" />
    <path
       d="m 0.5905512,3.5433072 0,0.5905512 57.2834658,0 0,-0.5905512 -57.2834658,0 z"
       inkscape:connector-curvature="0"
       id="path10"
       style="fill:#20b0fe;fill-opacity:1;fill-rule:evenodd;stroke:none" />
    <path
       d="m 0.5905512,4.1338584 0,0.5905512 57.2834658,0 0,-0.5905512 -57.2834658,0 z"
       inkscape:connector-curvature="0"
       id="path12"
       style="fill:#20b0fd;fill-opacity:1;fill-rule:evenodd;stroke:none" />
    <path
       d="m 0.5905512,4.7244096 0,0.5905512 57.2834658,0 0,-0.5905512 -57.2834658,0 z"
       inkscape:connector-curvature="0"
       id="path14"
       style="fill:#20affc;fill-opacity:1;fill-rule:evenodd;stroke:none" />
    <path
       d="m 0.5905512,5.3149608 0,0.5905512 57.2834658,0 0,-0.5905512 -57.2834658,0 z"
       inkscape:connector-curvature="0"
       id="path16"
       style="fill:#1faefa;fill-opacity:1;fill-rule:evenodd;stroke:none" />
    <path
       d="m 0.5905512,5.905512 0,0.5905512 57.2834658,0 0,-0.5905512 -57.2834658,0 z"
       inkscape:connector-curvature="0"
       id="path18"
       style="fill:#1eacf9;fill-opacity:1;fill-rule:evenodd;stroke:none" />
    <path
       d="m 0.5905512,6.4960632 0,0.5905512 57.2834658,0 0,-0.5905512 -57.2834658,0 z"
       inkscape:connector-curvature="0"
       id="path20"
       style="fill:#1eabf7;fill-opacity:1;fill-rule:evenodd;stroke:none" />
    <path
       d="m 0.5905512,7.0866144 0,0.5905512 57.2834658,0 0,-0.5905512 -57.2834658,0 z"
       inkscape:connector-curvature="0"
       id="path22"
       style="fill:#1daaf5;fill-opacity:1;fill-rule:evenodd;stroke:none" />
    <path
       d="m 0.5905512,7.6771656 0,0.5905512 57.2834658,0 0,-0.5905512 -57.2834658,0 z"
       inkscape:connector-curvature="0"
       id="path24"
       style="fill:#1ca8f4;fill-opacity:1;fill-rule:evenodd;stroke:none" />
    <path
       d="m 0.5905512,8.2677168 0,0.5905512 57.2834658,0 0,-0.5905512 -57.2834658,0 z"
       inkscape:connector-curvature="0"
       id="path26"
       style="fill:#1ba7f2;fill-opacity:1;fill-rule:evenodd;stroke:none" />
    <path
       d="m 0.5905512,8.858268 0,0.5905512 57.2834658,0 0,-0.5905512 -57.2834658,0 z"
       inkscape:connector-curvature="0"
       id="path28"
       style="fill:#1aa6f0;fill-opacity:1;fill-rule:evenodd;stroke:none" />
    <path
       d="m 0.5905512,9.4488192 0,0.5905508 57.2834658,0 0,-0.5905508 -57.2834658,0 z"
       inkscape:connector-curvature="0"
       id="path30"
       style="fill:#19a4ef;fill-opacity:1;fill-rule:evenodd;stroke:none" />
    <path
       d="m 0.5905512,10.03937 0,0.590552 57.2834658,0 0,-0.590552 -57.2834658,0 z"
       inkscape:connector-curvature="0"
       id="path32"
       style="fill:#19a3ed;fill-opacity:1;fill-rule:evenodd;stroke:none" />
    <path
       d="m 0.5905512,10.629922 0,0.590551 57.2834658,0 0,-0.590551 -57.2834658,0 z"
       inkscape:connector-curvature="0"
       id="path34"
       style="fill:#18a2eb;fill-opacity:1;fill-rule:evenodd;stroke:none" />
    <path
       d="m 0.5905512,11.220473 0,0.590551 57.2834658,0 0,-0.590551 -57.2834658,0 z"
       inkscape:connector-curvature="0"
       id="path36"
       style="fill:#17a0ea;fill-opacity:1;fill-rule:evenodd;stroke:none" />
    <path
       d="m 0.5905512,11.811024 0,0.590551 57.2834658,0 0,-0.590551 -57.2834658,0 z"
       inkscape:connector-curvature="0"
       id="path38"
       style="fill:#179fe8;fill-opacity:1;fill-rule:evenodd;stroke:none" />
    <path
       d="m 0.5905512,12.401575 0,0.590551 57.2834658,0 0,-0.590551 -57.2834658,0 z"
       inkscape:connector-curvature="0"
       id="path40"
       style="fill:#169ee6;fill-opacity:1;fill-rule:evenodd;stroke:none" />
    <path
       d="m 0.5905512,12.992126 0,0.590552 57.2834658,0 0,-0.590552 -57.2834658,0 z"
       inkscape:connector-curvature="0"
       id="path42"
       style="fill:#159ce5;fill-opacity:1;fill-rule:evenodd;stroke:none" />
    <path
       d="m 0.5905512,13.582678 0,0.590551 57.2834658,0 0,-0.590551 -57.2834658,0 z"
       inkscape:connector-curvature="0"
       id="path44"
       style="fill:#159be3;fill-opacity:1;fill-rule:evenodd;stroke:none" />
    <path
       d="m 0.5905512,14.173229 0,0.590551 57.2834658,0 0,-0.590551 -57.2834658,0 z"
       inkscape:connector-curvature="0"
       id="path46"
       style="fill:#149ae2;fill-opacity:1;fill-rule:evenodd;stroke:none" />
    <path
       d="m 0.5905512,14.76378 0,0.590551 57.2834658,0 0,-0.590551 -57.2834658,0 z"
       inkscape:connector-curvature="0"
       id="path48"
       style="fill:#1398e0;fill-opacity:1;fill-rule:evenodd;stroke:none" />
    <path
       d="m 0.5905512,15.354331 0,0.590551 57.2834658,0 0,-0.590551 -57.2834658,0 z"
       inkscape:connector-curvature="0"
       id="path50"
       style="fill:#1397df;fill-opacity:1;fill-rule:evenodd;stroke:none" />
    <path
       d="m 0.5905512,15.944882 0,0.590552 57.2834658,0 0,-0.590552 -57.2834658,0 z"
       inkscape:connector-curvature="0"
       id="path52"
       style="fill:#1296dd;fill-opacity:1;fill-rule:evenodd;stroke:none" />
    <path
       d="m 0.5905512,16.535434 0,0.590551 57.2834658,0 0,-0.590551 -57.2834658,0 z"
       inkscape:connector-curvature="0"
       id="path54"
       style="fill:#1194dc;fill-opacity:1;fill-rule:evenodd;stroke:none" />
    <path
       d="m 0.5905512,17.125985 0,0.590551 57.2834658,0 0,-0.590551 -57.2834658,0 z"
       inkscape:connector-curvature="0"
       id="path56"
       style="fill:#1093da;fill-opacity:1;fill-rule:evenodd;stroke:none" />
    <path
       d="m 0.5905512,17.716536 0,0.590551 57.2834658,0 0,-0.590551 -57.2834658,0 z"
       inkscape:connector-curvature="0"
       id="path58"
       style="fill:#0f92d8;fill-opacity:1;fill-rule:evenodd;stroke:none" />
    <path
       d="m 0.5905512,18.307087 0,0.590551 57.2834658,0 0,-0.590551 -57.2834658,0 z"
       inkscape:connector-curvature="0"
       id="path60"
       style="fill:#0e90d7;fill-opacity:1;fill-rule:evenodd;stroke:none" />
    <path
       d="m 0.5905512,18.897638 0,0.590552 57.2834658,0 0,-0.590552 -57.2834658,0 z"
       inkscape:connector-curvature="0"
       id="path62"
       style="fill:#0e8fd5;fill-opacity:1;fill-rule:evenodd;stroke:none" />
    <path
       d="m 0.5905512,19.48819 0,0.590551 57.2834658,0 0,-0.590551 -57.2834658,0 z"
       inkscape:connector-curvature="0"
       id="path64"
       style="fill:#0d8ed3;fill-opacity:1;fill-rule:evenodd;stroke:none" />
    <path
       d="m 0.5905512,20.078741 0,0.590551 57.2834658,0 0,-0.590551 -57.2834658,0 z"
       inkscape:connector-curvature="0"
       id="path66"
       style="fill:#0c8cd2;fill-opacity:1;fill-rule:evenodd;stroke:none" />
    <path
       d="m 0.5905512,20.669292 0,0.590551 57.2834658,0 0,-0.590551 -57.2834658,0 z"
       inkscape:connector-curvature="0"
       id="path68"
       style="fill:#0c8bd0;fill-opacity:1;fill-rule:evenodd;stroke:none" />
    <path
       d="m 0.5905512,21.259843 0,0.590551 57.2834658,0 0,-0.590551 -57.2834658,0 z"
       inkscape:connector-curvature="0"
       id="path70"
       style="fill:#0b8ace;fill-opacity:1;fill-rule:evenodd;stroke:none" />
    <path
       d="m 0.5905512,21.850394 0,0.590552 57.2834658,0 0,-0.590552 -57.2834658,0 z"
       inkscape:connector-curvature="0"
       id="path72"
       style="fill:#0a88cd;fill-opacity:1;fill-rule:evenodd;stroke:none" />
    <path
       d="m 0.5905512,22.440946 0,0.590551 57.2834658,0 0,-0.590551 -57.2834658,0 z"
       inkscape:connector-curvature="0"
       id="path74"
       style="fill:#0a87cb;fill-opacity:1;fill-rule:evenodd;stroke:none" />
    <path
       d="m 0.5905512,23.031497 0,0.590551 57.2834658,0 0,-0.590551 -57.2834658,0 z"
       inkscape:connector-curvature="0"
       id="path76"
       style="fill:#0986c9;fill-opacity:1;fill-rule:evenodd;stroke:none" />
    <path
       d="m 0.5905512,23.622048 0,0.590551 57.2834658,0 0,-0.590551 -57.2834658,0 z"
       inkscape:connector-curvature="0"
       id="path78"
       style="fill:#0884c8;fill-opacity:1;fill-rule:evenodd;stroke:none" />
    <path
       d="m 0.5905512,24.212599 0,0.590551 57.2834658,0 0,-0.590551 -57.2834658,0 z"
       inkscape:connector-curvature="0"
       id="path80"
       style="fill:#0783c6;fill-opacity:1;fill-rule:evenodd;stroke:none" />
    <path
       d="m 0.5905512,24.80315 0,0.590551 57.2834658,0 0,-0.590551 -57.2834658,0 z"
       inkscape:connector-curvature="0"
       id="path82"
       style="fill:#0682c4;fill-opacity:1;fill-rule:evenodd;stroke:none" />
    <path
       d="m 0.5905512,25.393701 0,0.590552 57.2834658,0 0,-0.590552 -57.2834658,0 z"
       inkscape:connector-curvature="0"
       id="path84"
       style="fill:#0580c3;fill-opacity:1;fill-rule:evenodd;stroke:none" />
    <path
       d="m 0.5905512,25.984253 0,0.590551 57.2834658,0 0,-0.590551 -57.2834658,0 z"
       inkscape:connector-curvature="0"
       id="path86"
       style="fill:#057fc1;fill-opacity:1;fill-rule:evenodd;stroke:none" />
    <path
       d="m 0.5905512,26.574804 0,0.590551 57.2834658,0 0,-0.590551 -57.2834658,0 z"
       inkscape:connector-curvature="0"
       id="path88"
       style="fill:#047ebf;fill-opacity:1;fill-rule:evenodd;stroke:none" />
    <path
       d="m 0.5905512,27.165355 0,0.590551 57.2834658,0 0,-0.590551 -57.2834658,0 z"
       inkscape:connector-curvature="0"
       id="path90"
       style="fill:#037cbe;fill-opacity:1;fill-rule:evenodd;stroke:none" />
    <path
       d="m 0.5905512,27.755906 0,0.590551 57.2834658,0 0,-0.590551 -57.2834658,0 z"
       inkscape:connector-curvature="0"
       id="path92"
       style="fill:#037bbc;fill-opacity:1;fill-rule:evenodd;stroke:none" />
    <path
       d="m 0.5905512,28.346457 0,0.590552 57.2834658,0 0,-0.590552 -57.2834658,0 z"
       inkscape:connector-curvature="0"
       id="path94"
       style="fill:#027aba;fill-opacity:1;fill-rule:evenodd;stroke:none" />
    <path
       d="m 0.5905512,28.937009 0,0.590551 57.2834658,0 0,-0.590551 -57.2834658,0 z"
       inkscape:connector-curvature="0"
       id="path96"
       style="fill:#0178b9;fill-opacity:1;fill-rule:evenodd;stroke:none" />
    <path
       d="m 4.761319,28.973918 -0.1107283,0 49.6063003,0 -0.07382,0 1.36565,-0.295275 -0.184547,0.07382 1.144193,-0.738189 -0.147638,0.147638 0.738189,-1.144193 -0.07382,0.184548 0.295276,-1.36565 0,0.07382 0,-21.2598433 0,0.1107283 -0.295276,-1.3656496 0.07382,0.1845472 -0.738189,-1.1441929 0.147638,0.1476378 -1.144193,-0.738189 0.184547,0.073819 -1.36565,-0.2952756 0.07382,0 -49.6063003,0 0.1107283,0 -1.3656496,0.2952756 0.1845472,-0.073819 -1.1441929,0.738189 0.1476378,-0.1476378 -0.738189,1.1441929 0.073819,-0.1845472 -0.2952756,1.3656496 0,-0.1107283 0,21.2598433 0,-0.07382 0.2952756,1.36565 -0.073819,-0.184548 0.738189,1.144193 -0.1476378,-0.147638 1.1441929,0.738189 -0.1845472,-0.07382 z m -1.5501969,0.70128 c -0.073819,-0.03691 -0.1107283,-0.03691 -0.1845472,-0.07382 L 1.8823819,28.86319 C 1.8454725,28.82628 1.7716536,28.752461 1.7347441,28.715552 L 0.99655515,27.571359 C 0.9596457,27.49754 0.9596457,27.460631 0.92273625,27.386812 l -0.2952756,-1.36565 c 0,-0.03691 0,-0.07382 0,-0.110728 l 0,-21.2598433 c 0,0 0,-0.03691 0,-0.073819 L 0.92273625,3.2111221 C 0.9596457,3.1373032 0.9596457,3.1003938 0.99655515,3.0265749 L 1.7347441,1.8823819 C 1.7716536,1.8454725 1.8454725,1.7716536 1.8823819,1.7347441 L 3.0265749,0.99655515 C 3.1003938,0.9596457 3.1373032,0.9596457 3.2111221,0.92273625 l 1.3656497,-0.2952756 c 0.036909,0 0.073819,0 0.073819,0 l 49.6063003,0 c 0.03691,0 0.07382,0 0.110729,0 l 1.365649,0.2952756 c 0.07382,0.0369095 0.110729,0.0369095 0.184548,0.0738189 l 1.144192,0.73818895 c 0.03691,0.03691 0.110729,0.1107284 0.147638,0.1476378 l 0.738189,1.144193 c 0.03691,0.073819 0.03691,0.1107283 0.07382,0.1845472 l 0.295276,1.3656497 c 0,0.036909 0,0.073819 0,0.073819 l 0,21.2598433 c 0,0.03691 0,0.07382 0,0.110728 l -0.295276,1.36565 c -0.03691,0.07382 -0.03691,0.110728 -0.07382,0.184547 l -0.738189,1.144193 c -0.03691,0.03691 -0.110728,0.110728 -0.147638,0.147638 l -1.144192,0.738189 c -0.07382,0.03691 -0.110729,0.03691 -0.184548,0.07382 l -1.365649,0.295275 c -0.03691,0 -0.07382,0 -0.110729,0 l -49.6063003,0 c 0,0 -0.03691,0 -0.073819,0 z"
       inkscape:connector-curvature="0"
       id="path98"
       style="fill:#0069a2;fill-opacity:1;fill-rule:nonzero;stroke:none" />
    <path
       d="m 14.76378,10.150099 0,4.761319 -2.066929,2.066929"
       inkscape:connector-curvature="0"
       id="path100"
       style="fill:none;stroke:#ffffff;stroke-width:1.1811024px;stroke-linecap:round;stroke-linejoin:round;stroke-opacity:1;stroke-dasharray:none" />
    <path
       d="m 14.76378,14.911418 2.140748,2.140748"
       inkscape:connector-curvature="0"
       id="path102"
       style="fill:none;stroke:#ffffff;stroke-width:1.1811024px;stroke-linecap:round;stroke-linejoin:round;stroke-opacity:1;stroke-dasharray:none" />
    <path
       d="m 12.623032,12.659941 4.318405,0"
       inkscape:connector-curvature="0"
       id="path104"
       style="fill:none;stroke:#ffffff;stroke-width:1.1811024px;stroke-linecap:round;stroke-linejoin:round;stroke-opacity:1;stroke-dasharray:none" />
    <path
       d="m 16.12943,8.8213585 c 0,-0.7750984 -0.590552,-1.3656496 -1.36565,-1.3656496 -0.738189,0 -1.32874,0.5905512 -1.32874,1.3656496 0,0.738189 0.590551,1.3287405 1.32874,1.3287405 0.775098,0 1.36565,-0.5905515 1.36565,-1.3287405"
       inkscape:connector-curvature="0"
       id="path106"
       style="fill:none;stroke:#ffffff;stroke-width:1.1811024px;stroke-linecap:round;stroke-linejoin:round;stroke-opacity:1;stroke-dasharray:none" />
    <path
       d="m 24.17569,23.437501 0.03691,-0.147638 0.03691,-0.147638 0.03691,-0.147638 0,-0.147638 0.03691,-0.147637 0.03691,-0.110729 0,-0.147637 0,-0.110729 0,-0.07382 0,-0.110728 0,-0.07382 -0.03691,-0.07382 -0.03691,-0.03691 -0.03691,-0.03691 -0.03691,-0.03691 -0.07382,-0.03691 -0.221457,0 -0.332185,0 -0.369094,0.03691 -0.406004,0.03691 -0.369094,0.03691 -0.295276,0.03691 -0.221457,0.03691 -0.07382,0 0,0 0,-0.07382 0.03691,-0.07382 0,-0.110729 0.03691,-0.110728 0.03691,-0.184547 0,-0.147638 0.03691,-0.184547 0.03691,-0.184547 0,-0.184548 0.03691,-0.184547 0,-0.184547 0,-0.147638 -0.03691,-0.147638 0,-0.147638 -0.03691,-0.110728 -0.110728,-0.147638 -0.110729,-0.110728 -0.147637,-0.03691 -0.184548,0 -0.221456,0.03691 -0.221457,0.03691 -0.258366,0.07382 -0.295276,0.110729 -0.147638,0 -0.110728,-0.03691 -0.110728,-0.07382 -0.07382,-0.110728 -0.07382,-0.147638 -0.03691,-0.184547 -0.03691,-0.184547 -0.03691,-0.184548 0,-0.221456 0,-0.184548 0.03691,-0.221456 0,-0.184548 0.03691,-0.147637 0.03691,-0.147638 0.07382,-0.110729 0.03691,-0.03691 0.221457,-0.07382 0.221457,-0.03691 0.221456,0.03691 0.221457,0.07382 0.258366,0.07382 0.221457,0.03691 0.221457,0.03691 0.221456,-0.03691 0.07382,-0.03691 0.03691,-0.110728 0.07382,-0.110729 0,-0.147638 0.03691,-0.184547 0,-0.184547 0,-0.184547 -0.03691,-0.184548 0,-0.184547 -0.03691,-0.184547 -0.03691,-0.184547 0,-0.147638 -0.03691,-0.147638 0,-0.07382 -0.03691,-0.07382 0,-0.03691 0.07382,0.03691 0.184547,0.03691 0.295276,0.03691 0.369094,0.03691 0.369095,0.03691 0.332185,0 0.295275,0 0.221457,-0.07382 0.07382,-0.03691 0.07382,-0.03691 0.03691,0 0.03691,-0.03691 0,-0.03691 0,-0.07382 0,-0.03691 0,-0.07382 0,-0.07382 -0.03691,-0.07382 -0.03691,-0.07382 -0.03691,-0.110728 -0.03691,-0.147638 -0.03691,-0.147638 -0.03691,-0.147637 -0.03691,-0.221457 0,-0.184547 0.03691,-0.147638 0.07382,-0.147638 0.110728,-0.110728 0.147638,-0.110729 0.147638,-0.07382 0.184547,-0.03691 0.184547,-0.03691 0.221457,0 0.184547,0 0.221457,0 0.184547,0.03691 0.147638,0.07382 0.147638,0.03691 0.147637,0.07382 0.110729,0.110729 0.03691,0.07382 0.03691,0.110728 0.03691,0.110728 0,0.110729 0,0.110728 -0.03691,0.110728 -0.03691,0.147638 -0.03691,0.110728 -0.03691,0.110729 -0.03691,0.147638 0,0.110728 -0.03691,0.110728 0,0.110729 0,0.110728 0.03691,0.07382 0.07382,0.07382 0.184547,0.110728 0.258366,0.03691 0.332185,0 0.332185,-0.03691 0.332185,-0.07382 0.258367,-0.07382 0.184547,-0.03691 0.07382,-0.03691 0,0 0,0.03691 0.03691,0 0,0.03691 0,0.07382 0.03691,0.03691 0,0.07382 0.03691,0.07382 0,0.07382 0.03691,0.110729 0,0.07382 0.03691,0.07382 0,0.110728 0.03691,0.110728 0,0.110729 0.03691,0.07382 0,0.110728 0.03691,0.110728 0,0.07382 0,0.110728 0,0.07382 0.03691,0.110729 0,0.07382 0,0.110728 0,0.07382 -0.03691,0.07382 0,0.07382 0,0.07382 -0.03691,0.07382 0,0.03691 -0.03691,0.03691 -0.03691,0.07382 -0.07382,0.03691 -0.07382,0.07382 -0.110728,0 -0.110729,0 -0.110728,-0.03691 -0.147638,0 -0.110728,-0.03691 -0.147638,-0.03691 -0.147638,-0.07382 -0.147637,-0.03691 -0.184548,0 -0.147638,-0.03691 -0.147637,0 -0.184548,0 -0.147637,0.03691 -0.147638,0.07382 -0.147638,0.07382 -0.147638,0.110728 -0.07382,0.110728 -0.07382,0.147638 -0.07382,0.147638 -0.03691,0.147638 0,0.147638 0,0.184547 0,0.147638 0.03691,0.147637 0.03691,0.147638 0.03691,0.147638 0.07382,0.110728 0.07382,0.110729 0.110729,0.110728 0.07382,0.07382 0.258367,0.07382 0.332185,0.03691 0.295275,-0.03691 0.332185,-0.03691 0.332185,-0.110728 0.258367,-0.07382 0.258366,-0.07382 0.184547,0 0.07382,0 0.03691,0.110729 0.03691,0.110728 0.03691,0.184547 0,0.184548 0,0.221456 -0.03691,0.221457 0,0.221457 -0.03691,0.258366 -0.03691,0.221456 -0.03691,0.221457 -0.03691,0.184547 0,0.147638 -0.03691,0.147638 0,0.07382 -0.03691,0.03691 -0.07382,-0.03691 -0.184547,0 -0.295276,-0.03691 -0.332185,-0.03691 -0.406004,-0.03691 -0.332185,-0.03691 -0.295275,0 -0.221457,0 -0.07382,0 -0.07382,0.03691 -0.03691,0.03691 -0.03691,0.03691 0,0.07382 0,0.110729 0,0.07382 0,0.110728 0.03691,0.110728 0.03691,0.110729 0,0.147637 0.07382,0.147638 0.03691,0.110729 0.03691,0.147637 0.07382,0.147638 0.03691,0.147638 0.03691,0.147638 -0.03691,0.110728 -0.07382,0.110728 -0.147637,0.07382 -0.184548,0.07382 -0.184547,0.03691 -0.184547,0.03691 -0.221457,0 -0.221457,-0.03691 -0.221456,-0.03691 -0.221457,-0.03691 -0.147638,-0.07382 -0.147638,-0.110728 -0.110728,-0.110729 -0.03691,-0.110728 0,-0.184547 z"
       inkscape:connector-curvature="0"
       id="path108"
       style="fill:#ffffff;fill-opacity:1;fill-rule:evenodd;stroke:none" />
    <path
       d="m 39.234745,12.77067 0.07382,-0.479823 -1.254921,-0.369095 0,-0.221456 0,-0.184548 0,-0.184547 -0.03691,-0.221457 1.181103,-0.442913 -0.110729,-0.516732 -1.254921,0.184547 -0.07382,-0.221457 L 37.647639,9.928642 37.57382,9.7810042 37.463092,9.596457 38.385828,8.6737207 38.090552,8.2677168 36.983269,8.9320869 36.90945,8.8213585 l -0.110729,-0.073819 -0.07382,-0.073819 -0.07382,-0.073819 -0.479823,0.5167323 0.332185,0.2952756 0.258366,0.3321851 0.221457,0.3690942 0.221456,0.406004 0.110729,0.406004 0.07382,0.442914 0.03691,0.479822 -0.03691,0.442914 -0.07382,0.369094 -0.110729,0.332185 -0.110728,0.295276 -0.184547,0.332185 -0.184547,0.258366 -0.221457,0.258366 -0.221457,0.258366 -0.258366,0.184548 -0.295276,0.221456 -0.295275,0.147638 -0.295276,0.110729 -0.332185,0.110728 -0.332185,0.07382 -0.369094,0.03691 -0.332185,0 -0.369095,-0.03691 -0.295275,-0.03691 -0.258367,-0.07382 -0.258366,-0.110728 -0.258366,-0.110728 -0.258366,-0.110729 -0.221457,-0.147637 -0.184547,-0.184548 -0.221457,-0.184547 -0.406004,0.479823 0.07382,0.07382 0.110729,0.110728 0.07382,0.07382 0.110729,0.03691 -0.553642,1.218011 0.442913,0.258367 0.812008,-1.033465 0.07382,0.03691 0.110729,0.03691 0.07382,0.03691 0.110728,0.03691 0.110728,0.03691 0.07382,0.03691 0.110728,0 0.07382,0.03691 0,1.291831 0.479823,0.110728 0.369095,-1.291831 0.110728,0 0.07382,0 0.110728,0 0.110729,0 0.07382,0 0.110728,0 0.110728,0 0.110729,-0.03691 0.442913,1.218012 0.516732,-0.110729 -0.184547,-1.29183 0.110728,-0.03691 0.07382,-0.03691 0.110729,-0.07382 0.07382,-0.03691 0.110728,-0.03691 0.07382,-0.03691 0.110728,-0.03691 0.07382,-0.07382 0.922736,0.959646 0.406004,-0.295276 -0.66437,-1.144193 0.07382,-0.03691 0.07382,-0.07382 0.07382,-0.07382 0.07382,-0.07382 0.07382,-0.07382 0.07382,-0.110728 0.03691,-0.07382 0.07382,-0.07382 1.181102,0.516732 0.258366,-0.406003 -1.033464,-0.812008 0.110728,-0.184548 0.07382,-0.184547 0.03691,-0.184547 0.07382,-0.221457 1.291831,0.03691 z"
       inkscape:connector-curvature="0"
       id="path110"
       style="fill:#ffffff;fill-opacity:1;fill-rule:evenodd;stroke:none" />
    <path
       d="m 30.413387,11.294292 0.07382,-0.369095 0.110728,-0.332185 0.147638,-0.332185 0.147638,-0.2952755 0.184547,-0.2952756 0.221456,-0.2583662 0.258367,-0.2214567 0.258366,-0.2214567 0.295275,-0.1845472 0.258367,-0.1845473 0.332185,-0.1107283 0.332185,-0.1107284 0.332185,-0.073819 0.332185,-0.036909 0.369094,0 0.332185,0.036909 0.258366,0.03691 0.258367,0.073819 0.221456,0.073819 0.221457,0.1107283 0.221457,0.1107284 0.221456,0.1107283 0.184548,0.1476378 0.184547,0.1476378 0.479823,-0.5167323 -0.07382,-0.073819 -0.07382,-0.036909 -0.07382,-0.073819 -0.07382,-0.03691 0.516732,-1.1811024 -0.406004,-0.2583661 -0.812007,0.9965551 -0.07382,-0.036909 -0.110729,-0.03691 -0.07382,-0.036909 -0.110728,-0.03691 -0.110728,-0.036909 -0.07382,-0.03691 -0.110729,0 -0.110728,-0.036909 0.03691,-1.2918308 -0.516733,-0.073819 -0.332185,1.2549213 -0.110728,0 -0.07382,0 -0.110728,0 -0.110729,0 -0.110728,0 -0.110728,0 -0.07382,0.03691 -0.110729,0 -0.479823,-1.1811024 -0.479822,0.1107283 0.147637,1.2549213 -0.07382,0.03691 -0.110729,0.036909 -0.07382,0.03691 -0.110728,0.036909 -0.07382,0.073819 -0.110728,0.03691 -0.07382,0.036909 -0.110729,0.073819 -0.885826,-0.9227362 -0.406004,0.2952756 0.62746,1.1072835 -0.07382,0.073819 -0.07382,0.073819 -0.03691,0.073819 -0.07382,0.073819 -0.07382,0.073819 -0.07382,0.073819 -0.07382,0.1107283 -0.03691,0.073819 -1.218012,-0.5167323 -0.221457,0.406004 0.996556,0.8120079 -0.07382,0.1845475 -0.07382,0.184547 -0.03691,0.184547 -0.07382,0.221457 -1.29183,-0.03691 -0.07382,0.479823 1.254921,0.369095 0,0.221457 0,0.184547 0,0.184547 0.03691,0.221457 -1.218012,0.442913 0.110728,0.516732 1.32874,-0.184547 0.07382,0.221457 0.07382,0.147638 0.07382,0.184547 0.110728,0.184547 -0.959645,0.922736 0.332185,0.369095 1.107283,-0.627461 0.07382,0.03691 0.03691,0.07382 0.07382,0.07382 0.07382,0.03691 0.406004,-0.479823 -0.258366,-0.295276 -0.258366,-0.332185 -0.184547,-0.332185 -0.147638,-0.369094 -0.147638,-0.406004 -0.03691,-0.406004 -0.03691,-0.442913 0.03691,-0.406004 z"
       inkscape:connector-curvature="0"
       id="path112"
       style="fill:#ffffff;fill-opacity:1;fill-rule:evenodd;stroke:none" />
    <path
       d="m 35.654529,12.032481 0,-0.221457 0,-0.258366 -0.03691,-0.221457 -0.07382,-0.221457 -0.110728,-0.184547 -0.110728,-0.184547 -0.147638,-0.184547 -0.184548,-0.147638 -2.362204,2.583661 0.110728,0.110729 0.110728,0.07382 0.110729,0.07382 0.110728,0.110729 0.147638,0.03691 0.147638,0.07382 0.147637,0.03691 0.147638,0 0.369095,0.03691 0.332185,-0.07382 0.332185,-0.110728 0.258366,-0.147638 0.258366,-0.258366 0.221457,-0.258366 0.147638,-0.295276 0.07382,-0.369094 z"
       inkscape:connector-curvature="0"
       id="path114"
       style="fill:#ffffff;fill-opacity:1;fill-rule:evenodd;stroke:none" />
    <path
       d="m 34.178151,10.03937 -0.369095,0 -0.332185,0.03691 -0.332185,0.147638 -0.295276,0.147637 -0.258366,0.221457 -0.184547,0.295276 -0.147638,0.295275 -0.07382,0.369095 -0.03691,0.184547 0,0.221457 0.03691,0.184547 0.03691,0.184547 0.07382,0.184547 0.110728,0.184548 0.110728,0.147638 0.110729,0.147637 2.362204,-2.583661 -0.07382,-0.07382 -0.110729,-0.03691 -0.110728,-0.07382 -0.07382,-0.03691 -0.110728,-0.03691 -0.110729,-0.03691 -0.110728,-0.03691 -0.110728,-0.03691 z"
       inkscape:connector-curvature="0"
       id="path116"
       style="fill:#ffffff;fill-opacity:1;fill-rule:evenodd;stroke:none" />
    <path
       d="m 42.519686,11.220473 0,1.181102 5.905512,0 0,-1.181102 -5.905512,0 z"
       inkscape:connector-curvature="0"
       id="path118"
       style="fill:#1eb0ff;fill-opacity:1;fill-rule:evenodd;stroke:none" />
    <path
       d="m 42.519686,12.401575 0,0.590551 5.905512,0 0,-0.590551 -5.905512,0 z"
       inkscape:connector-curvature="0"
       id="path120"
       style="fill:#1daffe;fill-opacity:1;fill-rule:evenodd;stroke:none" />
    <path
       d="m 42.519686,12.992126 0,0.590552 5.905512,0 0,-0.590552 -5.905512,0 z"
       inkscape:connector-curvature="0"
       id="path122"
       style="fill:#1badfb;fill-opacity:1;fill-rule:evenodd;stroke:none" />
    <path
       d="m 42.519686,13.582678 0,0.590551 5.905512,0 0,-0.590551 -5.905512,0 z"
       inkscape:connector-curvature="0"
       id="path124"
       style="fill:#19aaf8;fill-opacity:1;fill-rule:evenodd;stroke:none" />
    <path
       d="m 42.519686,14.173229 0,0.590551 5.905512,0 0,-0.590551 -5.905512,0 z"
       inkscape:connector-curvature="0"
       id="path126"
       style="fill:#17a8f6;fill-opacity:1;fill-rule:evenodd;stroke:none" />
    <path
       d="m 42.519686,14.76378 0,0.590551 5.905512,0 0,-0.590551 -5.905512,0 z"
       inkscape:connector-curvature="0"
       id="path128"
       style="fill:#15a5f3;fill-opacity:1;fill-rule:evenodd;stroke:none" />
    <path
       d="m 42.519686,15.354331 0,0.590551 5.905512,0 0,-0.590551 -5.905512,0 z"
       inkscape:connector-curvature="0"
       id="path130"
       style="fill:#13a2ef;fill-opacity:1;fill-rule:evenodd;stroke:none" />
    <path
       d="m 42.519686,15.944882 0,0.590552 5.905512,0 0,-0.590552 -5.905512,0 z"
       inkscape:connector-curvature="0"
       id="path132"
       style="fill:#109fec;fill-opacity:1;fill-rule:evenodd;stroke:none" />
    <path
       d="m 42.519686,16.535434 0,0.590551 5.905512,0 0,-0.590551 -5.905512,0 z"
       inkscape:connector-curvature="0"
       id="path134"
       style="fill:#0e9de9;fill-opacity:1;fill-rule:evenodd;stroke:none" />
    <path
       d="m 42.519686,17.125985 0,0.590551 5.905512,0 0,-0.590551 -5.905512,0 z"
       inkscape:connector-curvature="0"
       id="path136"
       style="fill:#0c9ae7;fill-opacity:1;fill-rule:evenodd;stroke:none" />
    <path
       d="m 42.519686,17.716536 0,0.590551 5.905512,0 0,-0.590551 -5.905512,0 z"
       inkscape:connector-curvature="0"
       id="path138"
       style="fill:#0a97e3;fill-opacity:1;fill-rule:evenodd;stroke:none" />
    <path
       d="m 42.519686,18.307087 0,0.590551 5.905512,0 0,-0.590551 -5.905512,0 z"
       inkscape:connector-curvature="0"
       id="path140"
       style="fill:#0895e0;fill-opacity:1;fill-rule:evenodd;stroke:none" />
    <path
       d="m 42.519686,18.897638 0,0.590552 5.905512,0 0,-0.590552 -5.905512,0 z"
       inkscape:connector-curvature="0"
       id="path142"
       style="fill:#0592dd;fill-opacity:1;fill-rule:evenodd;stroke:none" />
    <path
       d="m 42.519686,19.48819 0,0.590551 5.905512,0 0,-0.590551 -5.905512,0 z"
       inkscape:connector-curvature="0"
       id="path144"
       style="fill:#038fda;fill-opacity:1;fill-rule:evenodd;stroke:none" />
    <path
       d="m 42.888781,20.410926 5.794783,0 0,-8.673721 -5.794783,0 0,8.673721 z"
       inkscape:connector-curvature="0"
       id="path146"
       style="fill:none;stroke:#ffffff;stroke-width:1.1811024px;stroke-linecap:round;stroke-linejoin:round;stroke-opacity:1;stroke-dasharray:none" />
    <path
       d="m 41.929135,12.401575 0,1.181103 5.905512,0 0,-1.181103 -5.905512,0 z"
       inkscape:connector-curvature="0"
       id="path148"
       style="fill:#1eb0ff;fill-opacity:1;fill-rule:evenodd;stroke:none" />
    <path
       d="m 41.929135,13.582678 0,0.590551 5.905512,0 0,-0.590551 -5.905512,0 z"
       inkscape:connector-curvature="0"
       id="path150"
       style="fill:#1daffd;fill-opacity:1;fill-rule:evenodd;stroke:none" />
    <path
       d="m 41.929135,14.173229 0,0.590551 5.905512,0 0,-0.590551 -5.905512,0 z"
       inkscape:connector-curvature="0"
       id="path152"
       style="fill:#1aacfa;fill-opacity:1;fill-rule:evenodd;stroke:none" />
    <path
       d="m 41.929135,14.76378 0,0.590551 5.905512,0 0,-0.590551 -5.905512,0 z"
       inkscape:connector-curvature="0"
       id="path154"
       style="fill:#18a9f7;fill-opacity:1;fill-rule:evenodd;stroke:none" />
    <path
       d="m 41.929135,15.354331 0,0.590551 5.905512,0 0,-0.590551 -5.905512,0 z"
       inkscape:connector-curvature="0"
       id="path156"
       style="fill:#16a7f5;fill-opacity:1;fill-rule:evenodd;stroke:none" />
    <path
       d="m 41.929135,15.944882 0,0.590552 5.905512,0 0,-0.590552 -5.905512,0 z"
       inkscape:connector-curvature="0"
       id="path158"
       style="fill:#14a4f1;fill-opacity:1;fill-rule:evenodd;stroke:none" />
    <path
       d="m 41.929135,16.535434 0,0.590551 5.905512,0 0,-0.590551 -5.905512,0 z"
       inkscape:connector-curvature="0"
       id="path160"
       style="fill:#12a1ee;fill-opacity:1;fill-rule:evenodd;stroke:none" />
    <path
       d="m 41.929135,17.125985 0,0.590551 5.905512,0 0,-0.590551 -5.905512,0 z"
       inkscape:connector-curvature="0"
       id="path162"
       style="fill:#109feb;fill-opacity:1;fill-rule:evenodd;stroke:none" />
    <path
       d="m 41.929135,17.716536 0,0.590551 5.905512,0 0,-0.590551 -5.905512,0 z"
       inkscape:connector-curvature="0"
       id="path164"
       style="fill:#0d9ce8;fill-opacity:1;fill-rule:evenodd;stroke:none" />
    <path
       d="m 41.929135,18.307087 0,0.590551 5.905512,0 0,-0.590551 -5.905512,0 z"
       inkscape:connector-curvature="0"
       id="path166"
       style="fill:#0b99e5;fill-opacity:1;fill-rule:evenodd;stroke:none" />
    <path
       d="m 41.929135,18.897638 0,0.590552 5.905512,0 0,-0.590552 -5.905512,0 z"
       inkscape:connector-curvature="0"
       id="path168"
       style="fill:#0996e2;fill-opacity:1;fill-rule:evenodd;stroke:none" />
    <path
       d="m 41.929135,19.48819 0,0.590551 5.905512,0 0,-0.590551 -5.905512,0 z"
       inkscape:connector-curvature="0"
       id="path170"
       style="fill:#0794df;fill-opacity:1;fill-rule:evenodd;stroke:none" />
    <path
       d="m 41.929135,20.078741 0,0.590551 5.905512,0 0,-0.590551 -5.905512,0 z"
       inkscape:connector-curvature="0"
       id="path172"
       style="fill:#0591dd;fill-opacity:1;fill-rule:evenodd;stroke:none" />
    <path
       d="m 41.929135,20.669292 0,0.590551 5.905512,0 0,-0.590551 -5.905512,0 z"
       inkscape:connector-curvature="0"
       id="path174"
       style="fill:#038ed9;fill-opacity:1;fill-rule:evenodd;stroke:none" />
    <path
       d="m 41.929135,21.407481 5.794784,0 0,-8.71063 -5.794784,0 0,8.71063 z"
       inkscape:connector-curvature="0"
       id="path176"
       style="fill:none;stroke:#ffffff;stroke-width:1.1811024px;stroke-linecap:round;stroke-linejoin:round;stroke-opacity:1;stroke-dasharray:none" />
    <path
       d="m 40.748033,13.582678 0,0.590551 5.905512,0 0,-0.590551 -5.905512,0 z"
       inkscape:connector-curvature="0"
       id="path178"
       style="fill:#1eb0ff;fill-opacity:1;fill-rule:evenodd;stroke:none" />
    <path
       d="m 40.748033,14.173229 0,0.590551 5.905512,0 0,-0.590551 -5.905512,0 z"
       inkscape:connector-curvature="0"
       id="path180"
       style="fill:#1daffe;fill-opacity:1;fill-rule:evenodd;stroke:none" />
    <path
       d="m 40.748033,14.76378 0,0.590551 5.905512,0 0,-0.590551 -5.905512,0 z"
       inkscape:connector-curvature="0"
       id="path182"
       style="fill:#1caefc;fill-opacity:1;fill-rule:evenodd;stroke:none" />
    <path
       d="m 40.748033,15.354331 0,0.590551 5.905512,0 0,-0.590551 -5.905512,0 z"
       inkscape:connector-curvature="0"
       id="path184"
       style="fill:#1aabf9;fill-opacity:1;fill-rule:evenodd;stroke:none" />
    <path
       d="m 40.748033,15.944882 0,0.590552 5.905512,0 0,-0.590552 -5.905512,0 z"
       inkscape:connector-curvature="0"
       id="path186"
       style="fill:#17a8f6;fill-opacity:1;fill-rule:evenodd;stroke:none" />
    <path
       d="m 40.748033,16.535434 0,0.590551 5.905512,0 0,-0.590551 -5.905512,0 z"
       inkscape:connector-curvature="0"
       id="path188"
       style="fill:#15a5f3;fill-opacity:1;fill-rule:evenodd;stroke:none" />
    <path
       d="m 40.748033,17.125985 0,0.590551 5.905512,0 0,-0.590551 -5.905512,0 z"
       inkscape:connector-curvature="0"
       id="path190"
       style="fill:#13a3f0;fill-opacity:1;fill-rule:evenodd;stroke:none" />
    <path
       d="m 40.748033,17.716536 0,0.590551 5.905512,0 0,-0.590551 -5.905512,0 z"
       inkscape:connector-curvature="0"
       id="path192"
       style="fill:#11a0ed;fill-opacity:1;fill-rule:evenodd;stroke:none" />
    <path
       d="m 40.748033,18.307087 0,0.590551 5.905512,0 0,-0.590551 -5.905512,0 z"
       inkscape:connector-curvature="0"
       id="path194"
       style="fill:#0f9eea;fill-opacity:1;fill-rule:evenodd;stroke:none" />
    <path
       d="m 40.748033,18.897638 0,0.590552 5.905512,0 0,-0.590552 -5.905512,0 z"
       inkscape:connector-curvature="0"
       id="path196"
       style="fill:#0d9be7;fill-opacity:1;fill-rule:evenodd;stroke:none" />
    <path
       d="m 40.748033,19.48819 0,0.590551 5.905512,0 0,-0.590551 -5.905512,0 z"
       inkscape:connector-curvature="0"
       id="path198"
       style="fill:#0a98e4;fill-opacity:1;fill-rule:evenodd;stroke:none" />
    <path
       d="m 40.748033,20.078741 0,0.590551 5.905512,0 0,-0.590551 -5.905512,0 z"
       inkscape:connector-curvature="0"
       id="path200"
       style="fill:#0895e1;fill-opacity:1;fill-rule:evenodd;stroke:none" />
    <path
       d="m 40.748033,20.669292 0,0.590551 5.905512,0 0,-0.590551 -5.905512,0 z"
       inkscape:connector-curvature="0"
       id="path202"
       style="fill:#0693de;fill-opacity:1;fill-rule:evenodd;stroke:none" />
    <path
       d="m 40.748033,21.259843 0,0.590551 5.905512,0 0,-0.590551 -5.905512,0 z"
       inkscape:connector-curvature="0"
       id="path204"
       style="fill:#0490db;fill-opacity:1;fill-rule:evenodd;stroke:none" />
    <path
       d="m 40.748033,21.850394 0,0.590552 5.905512,0 0,-0.590552 -5.905512,0 z"
       inkscape:connector-curvature="0"
       id="path206"
       style="fill:#028dd8;fill-opacity:1;fill-rule:evenodd;stroke:none" />
    <path
       d="m 40.969489,22.367127 5.794784,0 0,-8.710631 -5.794784,0 0,8.710631 z"
       inkscape:connector-curvature="0"
       id="path208"
       style="fill:none;stroke:#ffffff;stroke-width:1.1811024px;stroke-linecap:round;stroke-linejoin:round;stroke-opacity:1;stroke-dasharray:none" />
    <path
       d="m 6.1269687,5.8316931 0,8.2677169 c 0,0.332185 -0.2583662,0.590551 -0.5905512,0.590551 -0.3321851,0 -0.5905512,-0.258366 -0.5905512,-0.590551 l 0,-8.2677169 c 0,-0.3321851 0.2583661,-0.5905512 0.5905512,-0.5905512 0.332185,0 0.5905512,0.2583661 0.5905512,0.5905512 z m 0,14.1732289 0,5.905512 -0.5905512,-0.590551 2.3622048,0 c 0.332185,0 0.5905512,0.258366 0.5905512,0.590551 0,0.332185 -0.2583662,0.590551 -0.5905512,0.590551 l -2.3622048,0 c -0.3321851,0 -0.5905512,-0.258366 -0.5905512,-0.590551 l 0,-5.905512 c 0,-0.332185 0.2583661,-0.590551 0.5905512,-0.590551 0.332185,0 0.5905512,0.258366 0.5905512,0.590551 z m 7.6771653,5.314961 8.267717,0 c 0.332185,0 0.590551,0.258366 0.590551,0.590551 0,0.332185 -0.258366,0.590551 -0.590551,0.590551 l -8.267717,0 c -0.332185,0 -0.590551,-0.258366 -0.590551,-0.590551 0,-0.332185 0.258366,-0.590551 0.590551,-0.590551 z m 14.173229,0 8.267717,0 c 0.332185,0 0.590551,0.258366 0.590551,0.590551 0,0.332185 -0.258366,0.590551 -0.590551,0.590551 l -8.267717,0 c -0.332185,0 -0.590551,-0.258366 -0.590551,-0.590551 0,-0.332185 0.258366,-0.590551 0.590551,-0.590551 z m 14.173229,0 8.267716,0 c 0.332186,0 0.590552,0.258366 0.590552,0.590551 0,0.332185 -0.258366,0.590551 -0.590552,0.590551 l -8.267716,0 c -0.332185,0 -0.590551,-0.258366 -0.590551,-0.590551 0,-0.332185 0.258366,-0.590551 0.590551,-0.590551 z m 10.629921,-2.362205 0,-8.267717 c 0,-0.332185 0.258366,-0.590551 0.590551,-0.590551 0.332186,0 0.590552,0.258366 0.590552,0.590551 l 0,8.267717 c 0,0.332185 -0.258366,0.590551 -0.590552,0.590551 -0.332185,0 -0.590551,-0.258366 -0.590551,-0.590551 z m 0,-14.1732289 0,-4.1338584 0.590551,0.5905512 -4.133858,0 c -0.332185,0 -0.590551,-0.2583662 -0.590551,-0.5905512 0,-0.3321851 0.258366,-0.5905512 0.590551,-0.5905512 l 4.133858,0 c 0.332186,0 0.590552,0.2583661 0.590552,0.5905512 l 0,4.1338584 c 0,0.332185 -0.258366,0.5905512 -0.590552,0.5905512 -0.332185,0 -0.590551,-0.2583662 -0.590551,-0.5905512 z m -9.448819,-3.5433072 -8.267717,0 c -0.332185,0 -0.590551,-0.2583662 -0.590551,-0.5905512 0,-0.3321851 0.258366,-0.5905512 0.590551,-0.5905512 l 8.267717,0 c 0.332185,0 0.590551,0.2583661 0.590551,0.5905512 0,0.332185 -0.258366,0.5905512 -0.590551,0.5905512 z m -14.173229,0 -8.267716,0 c -0.332185,0 -0.590552,-0.2583662 -0.590552,-0.5905512 0,-0.3321851 0.258367,-0.5905512 0.590552,-0.5905512 l 8.267716,0 c 0.332185,0 0.590552,0.2583661 0.590552,0.5905512 0,0.332185 -0.258367,0.5905512 -0.590552,0.5905512 z m -14.173228,0 -8.2677171,0 c -0.3321851,0 -0.5905512,-0.2583662 -0.5905512,-0.5905512 0,-0.3321851 0.2583661,-0.5905512 0.5905512,-0.5905512 l 8.2677171,0 c 0.332185,0 0.590551,0.2583661 0.590551,0.5905512 0,0.332185 -0.258366,0.5905512 -0.590551,0.5905512 z"
       inkscape:connector-curvature="0"
       id="path210"
       style="fill:#ffffff;fill-opacity:1;fill-rule:nonzero;stroke:#ffffff;stroke-width:0.03690945px;stroke-linecap:butt;stroke-linejoin:round;stroke-opacity:1;stroke-dasharray:none" />
  </g>
</svg>
