<?xml version="1.0" encoding="UTF-8" standalone="no"?>
<!-- Created with Inkscape (http://www.inkscape.org/) -->

<svg
   xmlns:dc="http://purl.org/dc/elements/1.1/"
   xmlns:cc="http://creativecommons.org/ns#"
   xmlns:rdf="http://www.w3.org/1999/02/22-rdf-syntax-ns#"
   xmlns:svg="http://www.w3.org/2000/svg"
   xmlns="http://www.w3.org/2000/svg"
   xmlns:inkscape="http://www.inkscape.org/namespaces/inkscape"
   version="1.0"
   width="6.8299999mm"
   height="7.8000002mm"
   id="svg2">
  <metadata
     id="metadata22">
    <rdf:RDF>
      <cc:Work
         rdf:about="">
        <dc:format>image/svg+xml</dc:format>
        <dc:type
           rdf:resource="http://purl.org/dc/dcmitype/StillImage" />
      </cc:Work>
    </rdf:RDF>
  </metadata>
  <defs
     id="defs4" />
  <g
     id="g6">
    <path
       d="m 5.4256891,11.257382 0.03691,-0.184547 0.036909,-0.147638 0.03691,-0.184547 0,-0.147638 0.036909,-0.147638 0.03691,-0.110728 0,-0.110728 0.036909,-0.110729 0,-0.110728 -0.036909,-0.1107284 0,-0.073819 -0.03691,-0.073819 -0.036909,-0.036909 -0.03691,-0.073819 -0.036909,0 -0.1107284,-0.036909 -0.2214567,0 -0.332185,0 -0.3690945,0.036909 -0.406004,0.03691 -0.4060039,0.036909 -0.3321851,0.036909 -0.2214567,0.036909 -0.073819,0 0,0 0,-0.073819 0.03691,-0.073819 0.036909,-0.1107283 0,-0.1476378 0.03691,-0.1476378 0.036909,-0.1845473 0.03691,-0.1845472 0,-0.1845473 0.036909,-0.1845472 0,-0.1845473 0,-0.1845472 0,-0.1845473 0,-0.1845472 -0.036909,-0.1476378 -0.03691,-0.1107284 -0.073819,-0.1476378 -0.1476378,-0.073819 -0.1476378,-0.073819 -0.1845472,0 -0.2214567,0.03691 L 2.1038386,7.3080711 1.8454725,7.38189 1.5501969,7.4557089 1.4025591,7.4926183 1.2918307,7.4557089 1.1811024,7.38189 1.1072835,7.2342522 1.0334646,7.0866144 0.9596457,6.9020671 0.92273625,6.7175199 l 0,-0.2214567 -0.0369095,-0.1845473 0,-0.2214567 0.0369095,-0.2214567 0.0369095,-0.1845472 0.0369094,-0.1845473 0.0369095,-0.1107283 0.036909,-0.1107284 0.073819,-0.073819 0.1845473,-0.073819 0.2583661,-0.036909 0.2214567,0.073819 0.2583662,0.036909 0.2583661,0.073819 0.2214567,0.073819 0.2214567,0 0.2214567,-0.036909 0.073819,-0.03691 0.073819,-0.1107283 0.03691,-0.1107284 0.036909,-0.1476378 0,-0.1845472 0,-0.1845473 0,-0.2214567 0,-0.1845472 -0.036909,-0.2214567 0,-0.1845473 -0.03691,-0.1845472 -0.036909,-0.1476378 0,-0.1476378 -0.03691,-0.073819 0,-0.073819 0,-0.03691 0.073819,0.03691 0.1845473,0.036909 0.2952756,0.03691 0.3690945,0.036909 0.3690945,0.03691 0.3690945,0 0.332185,0 0.2214567,-0.073819 0.073819,-0.03691 0.073819,-0.036909 0.03691,-0.03691 0.036909,-0.036909 0,-0.03691 0.03691,-0.036909 0,-0.03691 -0.03691,-0.073819 0,-0.073819 -0.036909,-0.073819 -0.03691,-0.1107283 -0.036909,-0.1107284 -0.03691,-0.1476378 -0.036909,-0.1476378 -0.03691,-0.1845472 -0.036909,-0.1845473 0,-0.1845472 L 5.2780513,1.4394685 5.3518702,1.2918307 5.4625986,1.1811024 5.6102364,1.070374 5.7947836,0.99655515 5.9793309,0.9596457 6.1638781,0.92273625 6.3853348,0.8858268 l 0.1845473,0 0.2214567,0.0369095 0.1845472,0.0369095 0.1845473,0.0369094 0.1476378,0.0738189 0.1476378,0.073819 0.1107283,0.1107284 0.073819,0.073819 0.03691,0.1107283 0,0.1107284 0,0.1476378 0,0.1107283 -0.03691,0.1107284 -0.036909,0.1476378 -0.03691,0.1107283 -0.036909,0.1476378 -0.03691,0.1107284 0,0.1107283 -0.036909,0.1107284 0,0.1107283 0,0.1107284 0.036909,0.1107283 0.073819,0.073819 0.1845473,0.1107284 0.2952756,0.073819 0.332185,-0.03691 0.3321851,-0.036909 0.3690945,-0.073819 0.2583661,-0.073819 0.2214567,-0.073819 0.073819,0 0,0 0,0 0,0.036909 0,0.03691 0.03691,0.073819 0,0.036909 0.036909,0.073819 0,0.073819 0.036909,0.073819 0,0.1107284 0.036909,0.073819 0,0.1107283 0.03691,0.1107284 0,0.1107283 0.036909,0.073819 0,0.1107284 0.036909,0.1107283 0,0.1107284 0,0.1107283 0.036909,0.073819 0,0.1107284 0,0.1107283 0,0.073819 0,0.1107284 0,0.073819 0,0.073819 0,0.073819 -0.036909,0.073819 0,0.073819 -0.036909,0.036909 0,0.073819 -0.036909,0.03691 -0.073819,0.073819 -0.1107284,0.036909 -0.1107283,0 -0.1107284,0 -0.1107283,0 L 9.1535436,5.4625986 9.0059058,5.4256891 8.858268,5.3887797 8.7106302,5.3518702 8.5629924,5.3149608 8.3784451,5.2780513 8.2308073,5.2411419 l -0.1845472,0 -0.1476378,0.036909 -0.1845473,0.03691 -0.1476378,0.036909 -0.1476378,0.1107284 -0.1476378,0.073819 -0.1107283,0.1476378 -0.073819,0.1476378 -0.03691,0.1476378 -0.036909,0.1476378 -0.03691,0.1845472 0,0.1476378 0.03691,0.1845473 0,0.1476378 0.073819,0.1476378 0.036909,0.1476378 0.073819,0.1107283 0.073819,0.1476378 0.1107284,0.073819 0.073819,0.073819 0.2952756,0.1107284 0.2952756,0.036909 0.332185,-0.036909 0.3321851,-0.073819 0.332185,-0.073819 0.2952756,-0.073819 0.2583662,-0.073819 0.2214567,-0.03691 0.073819,0.03691 0.036909,0.073819 0.03691,0.1476378 0,0.1476378 0.03691,0.2214567 -0.03691,0.2214567 0,0.2214567 -0.03691,0.2583661 -0.036909,0.2583662 0,0.2214567 -0.036909,0.2214567 -0.036909,0.1845472 -0.03691,0.1845473 0,0.1476378 -0.036909,0.073819 0,0.036909 -0.073819,0 -0.2214567,-0.036909 -0.2952756,-0.036909 -0.3690945,-0.036909 -0.3690945,-0.03691 -0.3690945,-0.036909 -0.3321851,0 -0.2214567,0 -0.073819,0 -0.073819,0.036909 -0.036909,0.03691 -0.03691,0.036909 0,0.073819 0,0.110728 0,0.07382 0,0.110729 0.03691,0.147637 0.036909,0.110729 0,0.147638 0.073819,0.110728 0.03691,0.147638 0.036909,0.184547 0.073819,0.147638 0.073819,0.147638 0,0.147637 -0.036909,0.110729 -0.073819,0.110728 -0.1476378,0.07382 -0.1845473,0.07382 -0.1845472,0.03691 -0.2214567,0.03691 -0.2214567,0 -0.2583662,-0.03691 -0.2214567,-0.03691 -0.1845472,-0.03691 -0.1845473,-0.07382 -0.1476378,-0.110729 -0.1107283,-0.110728 -0.03691,-0.147638 0,-0.147638 z"
       inkscape:connector-curvature="0"
       id="path8"
       style="fill:#f2f2f2;fill-opacity:1;fill-rule:evenodd;stroke:none" />
    <path
       d="m 5.4256891,11.257382 0.03691,-0.184547 0.036909,-0.147638 0.03691,-0.184547 0,-0.147638 0.036909,-0.147638 0.03691,-0.110728 0,-0.110728 0.036909,-0.110729 0,-0.110728 -0.036909,-0.1107284 0,-0.073819 -0.03691,-0.073819 -0.036909,-0.036909 -0.03691,-0.073819 -0.036909,0 -0.1107284,-0.036909 -0.2214567,0 -0.332185,0 -0.3690945,0.036909 -0.406004,0.03691 -0.4060039,0.036909 -0.3321851,0.036909 -0.2214567,0.036909 -0.073819,0 0,0 0,-0.073819 0.03691,-0.073819 0.036909,-0.1107283 0,-0.1476378 0.03691,-0.1476378 0.036909,-0.1845473 0.03691,-0.1845472 0,-0.1845473 0.036909,-0.1845472 0,-0.1845473 0,-0.1845472 0,-0.1845473 0,-0.1845472 -0.036909,-0.1476378 -0.03691,-0.1107284 -0.073819,-0.1476378 -0.1476378,-0.073819 -0.1476378,-0.073819 -0.1845472,0 -0.2214567,0.03691 L 2.1038386,7.3080711 1.8454725,7.38189 1.5501969,7.4557089 1.4025591,7.4926183 1.2918307,7.4557089 1.1811024,7.38189 1.1072835,7.2342522 1.0334646,7.0866144 0.9596457,6.9020671 0.92273625,6.7175199 l 0,-0.2214567 -0.0369095,-0.1845473 0,-0.2214567 0.0369095,-0.2214567 0.0369095,-0.1845472 0.0369094,-0.1845473 0.0369095,-0.1107283 0.036909,-0.1107284 0.073819,-0.073819 0.1845473,-0.073819 0.2583661,-0.036909 0.2214567,0.073819 0.2583662,0.036909 0.2583661,0.073819 0.2214567,0.073819 0.2214567,0 0.2214567,-0.036909 0.073819,-0.03691 0.073819,-0.1107283 0.03691,-0.1107284 0.036909,-0.1476378 0,-0.1845472 0,-0.1845473 0,-0.2214567 0,-0.1845472 -0.036909,-0.2214567 0,-0.1845473 -0.03691,-0.1845472 -0.036909,-0.1476378 0,-0.1476378 -0.03691,-0.073819 0,-0.073819 0,-0.03691 0.073819,0.03691 0.1845473,0.036909 0.2952756,0.03691 0.3690945,0.036909 0.3690945,0.03691 0.3690945,0 0.332185,0 0.2214567,-0.073819 0.073819,-0.03691 0.073819,-0.036909 0.03691,-0.03691 0.036909,-0.036909 0,-0.03691 0.03691,-0.036909 0,-0.03691 -0.03691,-0.073819 0,-0.073819 -0.036909,-0.073819 -0.03691,-0.1107283 -0.036909,-0.1107284 -0.03691,-0.1476378 -0.036909,-0.1476378 -0.03691,-0.1845472 -0.036909,-0.1845473 0,-0.1845472 L 5.2780513,1.4394685 5.3518702,1.2918307 5.4625986,1.1811024 5.6102364,1.070374 5.7947836,0.99655515 5.9793309,0.9596457 6.1638781,0.92273625 6.3853348,0.8858268 l 0.1845473,0 0.2214567,0.0369095 0.1845472,0.0369095 0.1845473,0.0369094 0.1476378,0.0738189 0.1476378,0.073819 0.1107283,0.1107284 0.073819,0.073819 0.03691,0.1107283 0,0.1107284 0,0.1476378 0,0.1107283 -0.03691,0.1107284 -0.036909,0.1476378 -0.03691,0.1107283 -0.036909,0.1476378 -0.03691,0.1107284 0,0.1107283 -0.036909,0.1107284 0,0.1107283 0,0.1107284 0.036909,0.1107283 0.073819,0.073819 0.1845473,0.1107284 0.2952756,0.073819 0.332185,-0.03691 0.3321851,-0.036909 0.3690945,-0.073819 0.2583661,-0.073819 0.2214567,-0.073819 0.073819,0 0,0 0,0 0,0.036909 0,0.03691 0.03691,0.073819 0,0.036909 0.036909,0.073819 0,0.073819 0.036909,0.073819 0,0.1107284 0.036909,0.073819 0,0.1107283 0.03691,0.1107284 0,0.1107283 0.036909,0.073819 0,0.1107284 0.036909,0.1107283 0,0.1107284 0,0.1107283 0.036909,0.073819 0,0.1107284 0,0.1107283 0,0.073819 0,0.1107284 0,0.073819 0,0.073819 0,0.073819 -0.036909,0.073819 0,0.073819 -0.036909,0.036909 0,0.073819 -0.036909,0.03691 -0.073819,0.073819 -0.1107284,0.036909 -0.1107283,0 -0.1107284,0 -0.1107283,0 L 9.1535436,5.4625986 9.0059058,5.4256891 8.858268,5.3887797 8.7106302,5.3518702 8.5629924,5.3149608 8.3784451,5.2780513 8.2308073,5.2411419 l -0.1845472,0 -0.1476378,0.036909 -0.1845473,0.03691 -0.1476378,0.036909 -0.1476378,0.1107284 -0.1476378,0.073819 -0.1107283,0.1476378 -0.073819,0.1476378 -0.03691,0.1476378 -0.036909,0.1476378 -0.03691,0.1845472 0,0.1476378 0.03691,0.1845473 0,0.1476378 0.073819,0.1476378 0.036909,0.1476378 0.073819,0.1107283 0.073819,0.1476378 0.1107284,0.073819 0.073819,0.073819 0.2952756,0.1107284 0.2952756,0.036909 0.332185,-0.036909 0.3321851,-0.073819 0.332185,-0.073819 0.2952756,-0.073819 0.2583662,-0.073819 0.2214567,-0.03691 0.073819,0.03691 0.036909,0.073819 0.03691,0.1476378 0,0.1476378 0.03691,0.2214567 -0.03691,0.2214567 0,0.2214567 -0.03691,0.2583661 -0.036909,0.2583662 0,0.2214567 -0.036909,0.2214567 -0.036909,0.1845472 -0.03691,0.1845473 0,0.1476378 -0.036909,0.073819 0,0.036909 -0.073819,0 -0.2214567,-0.036909 -0.2952756,-0.036909 -0.3690945,-0.036909 -0.3690945,-0.03691 -0.3690945,-0.036909 -0.3321851,0 -0.2214567,0 -0.073819,0 -0.073819,0.036909 -0.036909,0.03691 -0.03691,0.036909 0,0.073819 0,0.110728 0,0.07382 0,0.110729 0.03691,0.147637 0.036909,0.110729 0,0.147638 0.073819,0.110728 0.03691,0.147638 0.036909,0.184547 0.073819,0.147638 0.073819,0.147638 0,0.147637 -0.036909,0.110729 -0.073819,0.110728 -0.1476378,0.07382 -0.1845473,0.07382 -0.1845472,0.03691 -0.2214567,0.03691 -0.2214567,0 -0.2583662,-0.03691 -0.2214567,-0.03691 -0.1845472,-0.03691 -0.1845473,-0.07382 -0.1476378,-0.110729 -0.1107283,-0.110728 -0.03691,-0.147638 0,-0.147638 z"
       inkscape:connector-curvature="0"
       id="path10"
       style="fill:none;stroke:#f2f2f2;stroke-width:0.5905512px;stroke-linecap:round;stroke-linejoin:round;stroke-opacity:1;stroke-dasharray:none" />
    <path
       d="m 19.303642,13.914863 0.03691,-0.184548 0.03691,-0.147637 0.03691,-0.184548 0,-0.147638 0.03691,-0.147637 0.03691,-0.110729 0,-0.110728 0.03691,-0.110728 0,-0.110729 -0.03691,-0.110728 0,-0.07382 -0.03691,-0.07382 -0.03691,-0.03691 -0.03691,-0.07382 -0.03691,0 -0.110729,-0.03691 -0.221456,0 -0.332185,0 -0.369095,0.03691 -0.406004,0.03691 -0.406004,0.03691 -0.332185,0.03691 -0.221457,0.03691 -0.07382,0 0,0 0,-0.07382 0.03691,-0.07382 0.03691,-0.110729 0,-0.147637 0.03691,-0.147638 0.03691,-0.184547 0.03691,-0.184548 0,-0.184547 0.03691,-0.184547 0,-0.184547 0,-0.184548 0,-0.184547 0,-0.184547 -0.03691,-0.147638 -0.03691,-0.110728 -0.07382,-0.147638 -0.147637,-0.073819 -0.147638,-0.073819 -0.184547,0 -0.221457,0.036909 -0.258366,0.073819 -0.258366,0.073818 -0.295276,0.07382 -0.147638,0.03691 -0.110728,-0.03691 -0.110728,-0.07382 -0.07382,-0.1476374 -0.07382,-0.1476378 -0.07382,-0.1845473 -0.03691,-0.1845472 0,-0.2214567 -0.03691,-0.1845473 0,-0.2214567 0.03691,-0.2214567 0.03691,-0.1845472 0.03691,-0.1845473 0.03691,-0.1107283 0.03691,-0.1107284 0.07382,-0.073819 0.184547,-0.073819 0.221457,-0.036909 0.258366,0.073819 0.258366,0.036909 0.258366,0.073819 0.221457,0.073819 0.221457,0 0.221457,-0.036909 0.07382,-0.036909 0.07382,-0.1107283 0.03691,-0.1107284 0.03691,-0.1476378 0,-0.1845472 0,-0.1845473 0,-0.2214567 0,-0.1845472 -0.03691,-0.2214567 0,-0.1845473 -0.03691,-0.1845472 -0.03691,-0.1476378 0,-0.1476378 -0.03691,-0.073819 0,-0.073819 0,-0.03691 0.07382,0.03691 0.184548,0.036909 0.295275,0.03691 0.369095,0.036909 0.369094,0.03691 0.369095,0 0.332185,0 0.221456,-0.073819 0.07382,-0.03691 0.07382,-0.036909 0.03691,-0.03691 0.03691,-0.036909 0,-0.03691 0,-0.036909 0,-0.03691 0,-0.073819 0,-0.073819 -0.03691,-0.073819 -0.03691,-0.1107283 -0.03691,-0.1107284 -0.03691,-0.1476378 -0.03691,-0.1476378 -0.03691,-0.1845472 -0.03691,-0.1845473 0,-0.1845472 0.03691,-0.1845473 0.07382,-0.1476378 0.110729,-0.1107283 0.147638,-0.1107284 0.147637,-0.073819 0.221457,-0.036909 0.184547,-0.03691 0.221457,-0.036909 0.184547,0 0.221457,0.036909 0.184547,0.03691 0.184547,0.036909 0.147638,0.073819 0.147638,0.073819 0.110728,0.1107284 0.03691,0.073819 0.07382,0.1107283 0,0.1107284 0,0.1476378 0,0.1107283 -0.03691,0.1107284 -0.03691,0.1476378 -0.03691,0.1107283 -0.03691,0.1476378 -0.03691,0.1107284 0,0.1107283 -0.03691,0.1107284 0,0.1107283 0,0.1107284 0.03691,0.1107283 0.07382,0.073819 0.184548,0.1107284 0.295275,0.073819 0.332185,-0.03691 0.332185,-0.036909 0.369095,-0.073819 0.258366,-0.073819 0.221457,-0.073819 0.07382,0 0,0 0,0 0,0.036909 0,0.03691 0.03691,0.073819 0,0.036909 0.03691,0.073819 0,0.073819 0.03691,0.073819 0,0.1107284 0.03691,0.073819 0,0.1107283 0.03691,0.1107284 0,0.1107283 0.03691,0.073819 0,0.1107284 0.03691,0.1107283 0,0.1107284 0,0.1107283 0.03691,0.073819 0,0.1107284 0,0.1107283 0,0.073819 0,0.1107284 0,0.073819 0,0.073819 0,0.073819 -0.03691,0.073819 0,0.073819 -0.03691,0.036909 0,0.073819 -0.03691,0.03691 -0.07382,0.073819 -0.110728,0.036909 -0.110729,0 -0.110728,0 -0.110728,0 -0.147638,-0.036909 -0.147638,-0.03691 -0.147638,-0.036909 -0.147638,-0.03691 -0.147637,-0.036909 -0.184548,-0.036909 -0.147638,-0.036909 -0.184547,0 -0.147638,0.036909 -0.184547,0.036909 -0.147638,0.036909 -0.147637,0.1107284 -0.147638,0.073819 -0.110729,0.1476378 -0.07382,0.1476378 -0.03691,0.1476378 -0.03691,0.1476378 -0.03691,0.1845472 0,0.1476378 0.03691,0.1845473 0,0.1476378 0.07382,0.1476378 0.03691,0.1476378 0.07382,0.1107283 0.07382,0.1476379 0.110728,0.07382 0.07382,0.07382 0.295276,0.110728 0.295275,0.03691 0.332185,-0.03691 0.332185,-0.07382 0.332185,-0.07382 0.295276,-0.07382 0.258366,-0.073818 0.221457,-0.03691 0.07382,0.03691 0.03691,0.073818 0.03691,0.147638 0,0.147638 0,0.221457 0,0.221456 0,0.221457 -0.03691,0.258366 -0.03691,0.258366 0,0.221457 -0.03691,0.221457 -0.03691,0.184547 -0.03691,0.184547 0,0.147638 -0.03691,0.07382 0,0.03691 -0.07382,0 -0.221457,-0.03691 -0.295275,-0.03691 -0.369095,-0.03691 -0.369094,-0.03691 -0.369095,-0.03691 -0.332185,0 -0.221457,0 -0.07382,0 -0.07382,0.03691 -0.03691,0.03691 -0.03691,0.03691 0,0.07382 0,0.110729 0,0.07382 0,0.110728 0.03691,0.147638 0.03691,0.110728 0,0.147638 0.07382,0.110728 0.03691,0.147638 0.03691,0.184547 0.07382,0.147638 0.03691,0.147638 0.03691,0.147638 -0.03691,0.110728 -0.07382,0.110728 -0.147638,0.07382 -0.184547,0.07382 -0.184547,0.03691 -0.221457,0.03691 -0.221457,0 -0.258366,-0.03691 -0.221457,-0.03691 -0.184547,-0.03691 -0.184547,-0.07382 -0.147638,-0.110728 -0.110728,-0.110729 -0.07382,-0.147638 0.03691,-0.147637 z"
       inkscape:connector-curvature="0"
       id="path12"
       style="fill:#f2f2f2;fill-opacity:1;fill-rule:evenodd;stroke:none" />
    <path
       d="m 19.303642,13.914863 0.03691,-0.184548 0.03691,-0.147637 0.03691,-0.184548 0,-0.147638 0.03691,-0.147637 0.03691,-0.110729 0,-0.110728 0.03691,-0.110728 0,-0.110729 -0.03691,-0.110728 0,-0.07382 -0.03691,-0.07382 -0.03691,-0.03691 -0.03691,-0.07382 -0.03691,0 -0.110729,-0.03691 -0.221456,0 -0.332185,0 -0.369095,0.03691 -0.406004,0.03691 -0.406004,0.03691 -0.332185,0.03691 -0.221457,0.03691 -0.07382,0 0,0 0,-0.07382 0.03691,-0.07382 0.03691,-0.110729 0,-0.147637 0.03691,-0.147638 0.03691,-0.184547 0.03691,-0.184548 0,-0.184547 0.03691,-0.184547 0,-0.184547 0,-0.184548 0,-0.184547 0,-0.184547 -0.03691,-0.147638 -0.03691,-0.110728 -0.07382,-0.147638 -0.147637,-0.073819 -0.147638,-0.073819 -0.184547,0 -0.221457,0.036909 -0.258366,0.073819 -0.258366,0.073818 -0.295276,0.07382 -0.147638,0.03691 -0.110728,-0.03691 -0.110728,-0.07382 -0.07382,-0.1476374 -0.07382,-0.1476378 -0.07382,-0.1845473 -0.03691,-0.1845472 0,-0.2214567 -0.03691,-0.1845473 0,-0.2214567 0.03691,-0.2214567 0.03691,-0.1845472 0.03691,-0.1845473 0.03691,-0.1107283 0.03691,-0.1107284 0.07382,-0.073819 0.184547,-0.073819 0.221457,-0.036909 0.258366,0.073819 0.258366,0.036909 0.258366,0.073819 0.221457,0.073819 0.221457,0 0.221457,-0.036909 0.07382,-0.036909 0.07382,-0.1107283 0.03691,-0.1107284 0.03691,-0.1476378 0,-0.1845472 0,-0.1845473 0,-0.2214567 0,-0.1845472 -0.03691,-0.2214567 0,-0.1845473 -0.03691,-0.1845472 -0.03691,-0.1476378 0,-0.1476378 -0.03691,-0.073819 0,-0.073819 0,-0.03691 0.07382,0.03691 0.184548,0.036909 0.295275,0.03691 0.369095,0.036909 0.369094,0.03691 0.369095,0 0.332185,0 0.221456,-0.073819 0.07382,-0.03691 0.07382,-0.036909 0.03691,-0.03691 0.03691,-0.036909 0,-0.03691 0,-0.036909 0,-0.03691 0,-0.073819 0,-0.073819 -0.03691,-0.073819 -0.03691,-0.1107283 -0.03691,-0.1107284 -0.03691,-0.1476378 -0.03691,-0.1476378 -0.03691,-0.1845472 -0.03691,-0.1845473 0,-0.1845472 0.03691,-0.1845473 0.07382,-0.1476378 0.110729,-0.1107283 0.147638,-0.1107284 0.147637,-0.073819 0.221457,-0.036909 0.184547,-0.03691 0.221457,-0.036909 0.184547,0 0.221457,0.036909 0.184547,0.03691 0.184547,0.036909 0.147638,0.073819 0.147638,0.073819 0.110728,0.1107284 0.03691,0.073819 0.07382,0.1107283 0,0.1107284 0,0.1476378 0,0.1107283 -0.03691,0.1107284 -0.03691,0.1476378 -0.03691,0.1107283 -0.03691,0.1476378 -0.03691,0.1107284 0,0.1107283 -0.03691,0.1107284 0,0.1107283 0,0.1107284 0.03691,0.1107283 0.07382,0.073819 0.184548,0.1107284 0.295275,0.073819 0.332185,-0.03691 0.332185,-0.036909 0.369095,-0.073819 0.258366,-0.073819 0.221457,-0.073819 0.07382,0 0,0 0,0 0,0.036909 0,0.03691 0.03691,0.073819 0,0.036909 0.03691,0.073819 0,0.073819 0.03691,0.073819 0,0.1107284 0.03691,0.073819 0,0.1107283 0.03691,0.1107284 0,0.1107283 0.03691,0.073819 0,0.1107284 0.03691,0.1107283 0,0.1107284 0,0.1107283 0.03691,0.073819 0,0.1107284 0,0.1107283 0,0.073819 0,0.1107284 0,0.073819 0,0.073819 0,0.073819 -0.03691,0.073819 0,0.073819 -0.03691,0.036909 0,0.073819 -0.03691,0.03691 -0.07382,0.073819 -0.110728,0.036909 -0.110729,0 -0.110728,0 -0.110728,0 -0.147638,-0.036909 -0.147638,-0.03691 -0.147638,-0.036909 -0.147638,-0.03691 -0.147637,-0.036909 -0.184548,-0.036909 -0.147638,-0.036909 -0.184547,0 -0.147638,0.036909 -0.184547,0.036909 -0.147638,0.036909 -0.147637,0.1107284 -0.147638,0.073819 -0.110729,0.1476378 -0.07382,0.1476378 -0.03691,0.1476378 -0.03691,0.1476378 -0.03691,0.1845472 0,0.1476378 0.03691,0.1845473 0,0.1476378 0.07382,0.1476378 0.03691,0.1476378 0.07382,0.1107283 0.07382,0.1476379 0.110728,0.07382 0.07382,0.07382 0.295276,0.110728 0.295275,0.03691 0.332185,-0.03691 0.332185,-0.07382 0.332185,-0.07382 0.295276,-0.07382 0.258366,-0.073818 0.221457,-0.03691 0.07382,0.03691 0.03691,0.073818 0.03691,0.147638 0,0.147638 0,0.221457 0,0.221456 0,0.221457 -0.03691,0.258366 -0.03691,0.258366 0,0.221457 -0.03691,0.221457 -0.03691,0.184547 -0.03691,0.184547 0,0.147638 -0.03691,0.07382 0,0.03691 -0.07382,0 -0.221457,-0.03691 -0.295275,-0.03691 -0.369095,-0.03691 -0.369094,-0.03691 -0.369095,-0.03691 -0.332185,0 -0.221457,0 -0.07382,0 -0.07382,0.03691 -0.03691,0.03691 -0.03691,0.03691 0,0.07382 0,0.110729 0,0.07382 0,0.110728 0.03691,0.147638 0.03691,0.110728 0,0.147638 0.07382,0.110728 0.03691,0.147638 0.03691,0.184547 0.07382,0.147638 0.03691,0.147638 0.03691,0.147638 -0.03691,0.110728 -0.07382,0.110728 -0.147638,0.07382 -0.184547,0.07382 -0.184547,0.03691 -0.221457,0.03691 -0.221457,0 -0.258366,-0.03691 -0.221457,-0.03691 -0.184547,-0.03691 -0.184547,-0.07382 -0.147638,-0.110728 -0.110728,-0.110729 -0.07382,-0.147638 0.03691,-0.147637 z"
       inkscape:connector-curvature="0"
       id="path14"
       style="fill:none;stroke:#f2f2f2;stroke-width:0.5905512px;stroke-linecap:round;stroke-linejoin:round;stroke-opacity:1;stroke-dasharray:none" />
    <path
       d="m 11.995571,21.887304 0.03691,-0.184547 0.03691,-0.147638 0.03691,-0.184548 0,-0.147637 0.03691,-0.147638 0.03691,-0.110728 0,-0.110729 0.03691,-0.110728 0,-0.110729 -0.03691,-0.110728 0,-0.07382 -0.03691,-0.07382 -0.03691,-0.03691 -0.03691,-0.07382 -0.07382,0 -0.07382,-0.03691 -0.221456,0 -0.332185,0 -0.369095,0.03691 -0.406004,0.03691 -0.406004,0.03691 -0.3321849,0.03691 -0.2214567,0.03691 -0.073819,0 0,0 0,-0.07382 0.036909,-0.07382 0.036909,-0.110728 0,-0.147638 0.03691,-0.147638 0.036909,-0.184547 0.036909,-0.184547 0,-0.184548 0.036909,-0.184547 0,-0.184547 0,-0.184547 0,-0.184548 0,-0.184547 -0.036909,-0.147638 -0.036909,-0.110728 -0.073819,-0.147638 -0.1476378,-0.07382 -0.1476378,-0.07382 -0.1845472,0 -0.2214567,0.03691 -0.2583662,0.07382 -0.2583661,0.07382 -0.2952756,0.07382 -0.1476378,0.03691 -0.1107284,-0.03691 -0.1107283,-0.07382 -0.073819,-0.147638 -0.073819,-0.147638 -0.073819,-0.184547 -0.03691,-0.184548 0,-0.221456 -0.036909,-0.184548 0,-0.221456 0.036909,-0.221457 0.03691,-0.184547 0,-0.184547 0.073819,-0.110729 0.036909,-0.110728 0.073819,-0.07382 0.1845473,-0.07382 0.2214567,-0.03691 0.2583661,0.07382 0.2583662,0.03691 0.2583661,0.07382 0.2214567,0.07382 0.2214567,0 0.2214567,-0.03691 0.073819,-0.03691 0.073819,-0.110728 0.036909,-0.110729 0.036909,-0.147638 0,-0.184547 0,-0.184547 0,-0.221457 0,-0.184547 -0.036909,-0.221457 0,-0.184547 -0.036909,-0.184547 -0.036909,-0.147638 0,-0.147638 -0.03691,-0.07382 0,-0.07382 0,-0.03691 0.073819,0.03691 0.1845473,0.03691 0.2952754,0.03691 0.369095,0.03691 0.369094,0.03691 0.369095,0 0.332185,0 0.221456,-0.07382 0.07382,-0.03691 0.07382,-0.03691 0.03691,-0.03691 0.03691,-0.03691 0,-0.03691 0,-0.03691 0,-0.03691 0,-0.07382 0,-0.07382 -0.03691,-0.07382 -0.03691,-0.110728 -0.03691,-0.110728 -0.03691,-0.147638 -0.03691,-0.147638 -0.03691,-0.184547 -0.03691,-0.184547 0,-0.184548 0.03691,-0.184547 0.07382,-0.147638 0.110729,-0.110728 0.147637,-0.110728 0.147638,-0.07382 0.221457,-0.03691 0.184547,-0.03691 0.221457,-0.03691 0.184547,0 0.221457,0.03691 0.184547,0.03691 0.184547,0.03691 0.147638,0.07382 0.147638,0.07382 0.110728,0.110728 0.03691,0.07382 0.07382,0.110728 0,0.110728 0,0.147638 0,0.110729 -0.03691,0.110728 -0.03691,0.147638 -0.03691,0.110728 -0.03691,0.147638 -0.03691,0.110728 0,0.110729 -0.03691,0.110728 0,0.110728 0,0.110729 0.03691,0.110728 0.07382,0.07382 0.184548,0.110728 0.295275,0.07382 0.332185,-0.03691 0.332185,-0.03691 0.369095,-0.07382 0.258366,-0.07382 0.221457,-0.07382 0.07382,0 0,0 0,0 0,0.03691 0,0.03691 0.03691,0.07382 0,0.03691 0.03691,0.07382 0,0.07382 0.03691,0.07382 0,0.110729 0.03691,0.07382 0,0.110728 0.03691,0.110728 0,0.110729 0.03691,0.07382 0,0.110728 0.03691,0.110728 0,0.110729 0,0.110728 0.03691,0.07382 0,0.110728 0,0.110729 0,0.07382 0,0.110728 0,0.07382 0,0.07382 0,0.07382 -0.03691,0.07382 0,0.07382 -0.03691,0.03691 0,0.07382 -0.03691,0.03691 -0.07382,0.07382 -0.110729,0.03691 -0.110728,0 -0.110728,0 -0.110729,0 -0.147637,-0.03691 -0.147638,-0.03691 -0.147638,-0.03691 -0.147638,-0.03691 -0.147638,-0.03691 -0.184547,-0.03691 -0.147638,-0.03691 -0.184547,0 -0.147638,0.03691 -0.184547,0.03691 -0.147638,0.03691 -0.147638,0.110728 -0.147637,0.07382 -0.110729,0.147638 -0.07382,0.147638 -0.03691,0.147637 -0.03691,0.147638 -0.03691,0.184547 0,0.147638 0.03691,0.184548 0,0.147637 0.07382,0.147638 0.03691,0.147638 0.07382,0.110728 0.07382,0.147638 0.110728,0.07382 0.07382,0.07382 0.295276,0.110728 0.295275,0.03691 0.332185,-0.03691 0.332185,-0.07382 0.332185,-0.07382 0.295276,-0.07382 0.258366,-0.07382 0.221457,-0.03691 0.07382,0.03691 0.03691,0.07382 0.03691,0.147637 0,0.147638 0,0.221457 0,0.221457 0,0.221456 -0.03691,0.258366 -0.03691,0.258367 0,0.221456 -0.03691,0.221457 -0.03691,0.184547 -0.03691,0.184547 -0.03691,0.147638 0,0.07382 0,0.03691 -0.07382,0 -0.221457,-0.03691 -0.295275,-0.03691 -0.369095,-0.03691 -0.406004,-0.03691 -0.332185,-0.03691 -0.332185,0 -0.221457,0 -0.07382,0 -0.07382,0.03691 -0.03691,0.03691 -0.03691,0.03691 0,0.07382 0,0.110728 0,0.07382 0,0.110728 0.03691,0.147638 0.03691,0.110728 0,0.147638 0.07382,0.110728 0.03691,0.147638 0.03691,0.184548 0.07382,0.147637 0.03691,0.147638 0.03691,0.147638 -0.03691,0.110728 -0.07382,0.110729 -0.147638,0.07382 -0.184547,0.07382 -0.184547,0.03691 -0.221457,0.03691 -0.221457,0 -0.258366,-0.03691 -0.221457,-0.03691 -0.184547,-0.03691 -0.184547,-0.07382 -0.147638,-0.110728 -0.110728,-0.110729 -0.07382,-0.147637 0.03691,-0.147638 z"
       inkscape:connector-curvature="0"
       id="path16"
       style="fill:#f2f2f2;fill-opacity:1;fill-rule:evenodd;stroke:none" />
    <path
       d="m 11.995571,21.887304 0.03691,-0.184547 0.03691,-0.147638 0.03691,-0.184548 0,-0.147637 0.03691,-0.147638 0.03691,-0.110728 0,-0.110729 0.03691,-0.110728 0,-0.110729 -0.03691,-0.110728 0,-0.07382 -0.03691,-0.07382 -0.03691,-0.03691 -0.03691,-0.07382 -0.07382,0 -0.07382,-0.03691 -0.221456,0 -0.332185,0 -0.369095,0.03691 -0.406004,0.03691 -0.406004,0.03691 -0.3321849,0.03691 -0.2214567,0.03691 -0.073819,0 0,0 0,-0.07382 0.036909,-0.07382 0.036909,-0.110728 0,-0.147638 0.03691,-0.147638 0.036909,-0.184547 0.036909,-0.184547 0,-0.184548 0.036909,-0.184547 0,-0.184547 0,-0.184547 0,-0.184548 0,-0.184547 -0.036909,-0.147638 -0.036909,-0.110728 -0.073819,-0.147638 -0.1476378,-0.07382 -0.1476378,-0.07382 -0.1845472,0 -0.2214567,0.03691 -0.2583662,0.07382 -0.2583661,0.07382 -0.2952756,0.07382 -0.1476378,0.03691 -0.1107284,-0.03691 -0.1107283,-0.07382 -0.073819,-0.147638 -0.073819,-0.147638 -0.073819,-0.184547 -0.03691,-0.184548 0,-0.221456 -0.036909,-0.184548 0,-0.221456 0.036909,-0.221457 0.03691,-0.184547 0,-0.184547 0.073819,-0.110729 0.036909,-0.110728 0.073819,-0.07382 0.1845473,-0.07382 0.2214567,-0.03691 0.2583661,0.07382 0.2583662,0.03691 0.2583661,0.07382 0.2214567,0.07382 0.2214567,0 0.2214567,-0.03691 0.073819,-0.03691 0.073819,-0.110728 0.036909,-0.110729 0.036909,-0.147638 0,-0.184547 0,-0.184547 0,-0.221457 0,-0.184547 -0.036909,-0.221457 0,-0.184547 -0.036909,-0.184547 -0.036909,-0.147638 0,-0.147638 -0.03691,-0.07382 0,-0.07382 0,-0.03691 0.073819,0.03691 0.1845473,0.03691 0.2952754,0.03691 0.369095,0.03691 0.369094,0.03691 0.369095,0 0.332185,0 0.221456,-0.07382 0.07382,-0.03691 0.07382,-0.03691 0.03691,-0.03691 0.03691,-0.03691 0,-0.03691 0,-0.03691 0,-0.03691 0,-0.07382 0,-0.07382 -0.03691,-0.07382 -0.03691,-0.110728 -0.03691,-0.110728 -0.03691,-0.147638 -0.03691,-0.147638 -0.03691,-0.184547 -0.03691,-0.184547 0,-0.184548 0.03691,-0.184547 0.07382,-0.147638 0.110729,-0.110728 0.147637,-0.110728 0.147638,-0.07382 0.221457,-0.03691 0.184547,-0.03691 0.221457,-0.03691 0.184547,0 0.221457,0.03691 0.184547,0.03691 0.184547,0.03691 0.147638,0.07382 0.147638,0.07382 0.110728,0.110728 0.03691,0.07382 0.07382,0.110728 0,0.110728 0,0.147638 0,0.110729 -0.03691,0.110728 -0.03691,0.147638 -0.03691,0.110728 -0.03691,0.147638 -0.03691,0.110728 0,0.110729 -0.03691,0.110728 0,0.110728 0,0.110729 0.03691,0.110728 0.07382,0.07382 0.184548,0.110728 0.295275,0.07382 0.332185,-0.03691 0.332185,-0.03691 0.369095,-0.07382 0.258366,-0.07382 0.221457,-0.07382 0.07382,0 0,0 0,0 0,0.03691 0,0.03691 0.03691,0.07382 0,0.03691 0.03691,0.07382 0,0.07382 0.03691,0.07382 0,0.110729 0.03691,0.07382 0,0.110728 0.03691,0.110728 0,0.110729 0.03691,0.07382 0,0.110728 0.03691,0.110728 0,0.110729 0,0.110728 0.03691,0.07382 0,0.110728 0,0.110729 0,0.07382 0,0.110728 0,0.07382 0,0.07382 0,0.07382 -0.03691,0.07382 0,0.07382 -0.03691,0.03691 0,0.07382 -0.03691,0.03691 -0.07382,0.07382 -0.110729,0.03691 -0.110728,0 -0.110728,0 -0.110729,0 -0.147637,-0.03691 -0.147638,-0.03691 -0.147638,-0.03691 -0.147638,-0.03691 -0.147638,-0.03691 -0.184547,-0.03691 -0.147638,-0.03691 -0.184547,0 -0.147638,0.03691 -0.184547,0.03691 -0.147638,0.03691 -0.147638,0.110728 -0.147637,0.07382 -0.110729,0.147638 -0.07382,0.147638 -0.03691,0.147637 -0.03691,0.147638 -0.03691,0.184547 0,0.147638 0.03691,0.184548 0,0.147637 0.07382,0.147638 0.03691,0.147638 0.07382,0.110728 0.07382,0.147638 0.110728,0.07382 0.07382,0.07382 0.295276,0.110728 0.295275,0.03691 0.332185,-0.03691 0.332185,-0.07382 0.332185,-0.07382 0.295276,-0.07382 0.258366,-0.07382 0.221457,-0.03691 0.07382,0.03691 0.03691,0.07382 0.03691,0.147637 0,0.147638 0,0.221457 0,0.221457 0,0.221456 -0.03691,0.258366 -0.03691,0.258367 0,0.221456 -0.03691,0.221457 -0.03691,0.184547 -0.03691,0.184547 -0.03691,0.147638 0,0.07382 0,0.03691 -0.07382,0 -0.221457,-0.03691 -0.295275,-0.03691 -0.369095,-0.03691 -0.406004,-0.03691 -0.332185,-0.03691 -0.332185,0 -0.221457,0 -0.07382,0 -0.07382,0.03691 -0.03691,0.03691 -0.03691,0.03691 0,0.07382 0,0.110728 0,0.07382 0,0.110728 0.03691,0.147638 0.03691,0.110728 0,0.147638 0.07382,0.110728 0.03691,0.147638 0.03691,0.184548 0.07382,0.147637 0.03691,0.147638 0.03691,0.147638 -0.03691,0.110728 -0.07382,0.110729 -0.147638,0.07382 -0.184547,0.07382 -0.184547,0.03691 -0.221457,0.03691 -0.221457,0 -0.258366,-0.03691 -0.221457,-0.03691 -0.184547,-0.03691 -0.184547,-0.07382 -0.147638,-0.110728 -0.110728,-0.110729 -0.07382,-0.147637 0.03691,-0.147638 z"
       inkscape:connector-curvature="0"
       id="path18"
       style="fill:none;stroke:#f2f2f2;stroke-width:0.5905512px;stroke-linecap:round;stroke-linejoin:round;stroke-opacity:1;stroke-dasharray:none" />
  </g>
</svg>
