<?xml version="1.0" encoding="UTF-8" standalone="no"?>
<!-- Created with Inkscape (http://www.inkscape.org/) -->

<svg
   xmlns:dc="http://purl.org/dc/elements/1.1/"
   xmlns:cc="http://creativecommons.org/ns#"
   xmlns:rdf="http://www.w3.org/1999/02/22-rdf-syntax-ns#"
   xmlns:svg="http://www.w3.org/2000/svg"
   xmlns="http://www.w3.org/2000/svg"
   xmlns:inkscape="http://www.inkscape.org/namespaces/inkscape"
   version="1.0"
   width="5.8299999mm"
   height="7.1999998mm"
   id="svg2">
  <metadata
     id="metadata34">
    <rdf:RDF>
      <cc:Work
         rdf:about="">
        <dc:format>image/svg+xml</dc:format>
        <dc:type
           rdf:resource="http://purl.org/dc/dcmitype/StillImage" />
      </cc:Work>
    </rdf:RDF>
  </metadata>
  <defs
     id="defs4" />
  <g
     id="g6">
    <path
       d="m 5.4625986,20.374016 c 2.1776575,-0.03691 3.9124017,-1.771653 3.9493111,-3.949311 0,0 0,-0.03691 0,-0.07382 -0.036909,-2.140748 -1.7716536,-3.912401 -3.9493111,-3.912401 0,0 -0.03691,0 -0.073819,0 -2.1407481,0 -3.9124017,1.771653 -3.9124017,3.912401 0,0.03691 0,0.07382 0,0.07382 0,2.177658 1.7716536,3.912402 3.9124017,3.949311 0.036909,0 0.073819,0 0.073819,0 z m -0.03691,-8.526083 c 2.5098426,0 4.5398624,2.03002 4.5398624,4.539863 0,2.509842 -2.0300198,4.539862 -4.5398624,4.539862 -2.5098426,0 -4.5398623,-2.03002 -4.5398623,-4.539862 0,-2.509843 2.0300197,-4.539863 4.5398623,-4.539863 z m -2.8051182,4.539863 c 0,-0.295276 0.2214567,-0.553642 0.5536418,-0.553642 l 4.5398623,0 c 0.2952756,0 0.5536418,0.258366 0.5536418,0.553642 0,0.332185 -0.2583662,0.590551 -0.5536418,0.590551 l -4.5398623,0 c -0.3321851,0 -0.5536418,-0.258366 -0.5536418,-0.590551 z"
       inkscape:connector-curvature="0"
       id="path8"
       style="fill:#f2f2f2;fill-opacity:1;fill-rule:evenodd;stroke:none" />
    <path
       d="m 5.4625986,20.374016 c 2.1776575,-0.03691 3.9124017,-1.771653 3.9493111,-3.949311 0,0 0,-0.03691 0,-0.07382 -0.036909,-2.140748 -1.7716536,-3.912401 -3.9493111,-3.912401 0,0 -0.03691,0 -0.073819,0 -2.1407481,0 -3.9124017,1.771653 -3.9124017,3.912401 0,0.03691 0,0.07382 0,0.07382 0,2.177658 1.7716536,3.912402 3.9124017,3.949311 0.036909,0 0.073819,0 0.073819,0 z m -0.03691,-8.526083 c 2.5098426,0 4.5398624,2.03002 4.5398624,4.539863 0,2.509842 -2.0300198,4.539862 -4.5398624,4.539862 -2.5098426,0 -4.5398623,-2.03002 -4.5398623,-4.539862 0,-2.509843 2.0300197,-4.539863 4.5398623,-4.539863 z m -2.8051182,4.539863 c 0,-0.295276 0.2214567,-0.553642 0.5536418,-0.553642 l 4.5398623,0 c 0.2952756,0 0.5536418,0.258366 0.5536418,0.553642 0,0.332185 -0.2583662,0.590551 -0.5536418,0.590551 l -4.5398623,0 c -0.3321851,0 -0.5536418,-0.258366 -0.5536418,-0.590551 z"
       inkscape:connector-curvature="0"
       id="path10"
       style="fill:none;stroke:#f2f2f2;stroke-width:0.5905512px;stroke-linecap:butt;stroke-linejoin:miter;stroke-miterlimit:4;stroke-opacity:1;stroke-dasharray:none" />
    <path
       d="m 10.297737,20.374016 c 2.140748,-0.03691 3.912401,-1.771653 3.912401,-3.949311 0,0 0,-0.03691 0,-0.07382 0,-2.140748 -1.771653,-3.912401 -3.912401,-3.912401 -0.03691,0 -0.07382,0 -0.07382,0 -2.1776579,0 -3.9124021,1.771653 -3.9493115,3.912401 0,0.03691 0,0.07382 0,0.07382 0.036909,2.177658 1.7716536,3.912402 3.9493115,3.949311 0,0 0.03691,0 0.07382,0 z m -0.03691,-8.526083 c 2.509843,0 4.539862,2.03002 4.539862,4.539863 0,2.509842 -2.030019,4.539862 -4.539862,4.539862 -2.5098425,0 -4.5398623,-2.03002 -4.5398623,-4.539862 0,-2.509843 2.0300198,-4.539863 4.5398623,-4.539863 z m -2.8420276,4.539863 c 0,-0.295276 0.2583662,-0.553642 0.5536418,-0.553642 l 4.5398618,0 c 0.332186,0 0.553642,0.258366 0.553642,0.553642 0,0.332185 -0.221456,0.590551 -0.553642,0.590551 l -4.5398618,0 c -0.2952756,0 -0.5536418,-0.258366 -0.5536418,-0.590551 z"
       inkscape:connector-curvature="0"
       id="path12"
       style="fill:#f2f2f2;fill-opacity:1;fill-rule:evenodd;stroke:none" />
    <path
       d="m 10.297737,20.374016 c 2.140748,-0.03691 3.912401,-1.771653 3.912401,-3.949311 0,0 0,-0.03691 0,-0.07382 0,-2.140748 -1.771653,-3.912401 -3.912401,-3.912401 -0.03691,0 -0.07382,0 -0.07382,0 -2.1776579,0 -3.9124021,1.771653 -3.9493115,3.912401 0,0.03691 0,0.07382 0,0.07382 0.036909,2.177658 1.7716536,3.912402 3.9493115,3.949311 0,0 0.03691,0 0.07382,0 z m -0.03691,-8.526083 c 2.509843,0 4.539862,2.03002 4.539862,4.539863 0,2.509842 -2.030019,4.539862 -4.539862,4.539862 -2.5098425,0 -4.5398623,-2.03002 -4.5398623,-4.539862 0,-2.509843 2.0300198,-4.539863 4.5398623,-4.539863 z m -2.8420276,4.539863 c 0,-0.295276 0.2583662,-0.553642 0.5536418,-0.553642 l 4.5398618,0 c 0.332186,0 0.553642,0.258366 0.553642,0.553642 0,0.332185 -0.221456,0.590551 -0.553642,0.590551 l -4.5398618,0 c -0.2952756,0 -0.5536418,-0.258366 -0.5536418,-0.590551 z"
       inkscape:connector-curvature="0"
       id="path14"
       style="fill:none;stroke:#f2f2f2;stroke-width:0.5905512px;stroke-linecap:butt;stroke-linejoin:miter;stroke-miterlimit:4;stroke-opacity:1;stroke-dasharray:none" />
    <path
       d="m 15.095965,20.374016 c 2.177658,-0.03691 3.912402,-1.771653 3.949311,-3.949311 0,0 0,-0.03691 0,-0.07382 -0.03691,-2.140748 -1.771653,-3.912401 -3.949311,-3.912401 0,0 -0.03691,0 -0.07382,0 -2.140748,0 -3.875492,1.771653 -3.912402,3.912401 0,0.03691 0,0.07382 0,0.07382 0.03691,2.177658 1.771654,3.912402 3.912402,3.949311 0.03691,0 0.07382,0 0.07382,0 z m -0.03691,-8.526083 c 2.509842,0 4.539862,2.03002 4.539862,4.539863 0,2.509842 -2.03002,4.539862 -4.539862,4.539862 -2.472934,0 -4.502953,-2.03002 -4.502953,-4.539862 0,-2.509843 2.030019,-4.539863 4.502953,-4.539863 z m -2.805119,4.539863 c 0,-0.295276 0.258366,-0.553642 0.553642,-0.553642 l 4.539862,0 c 0.295276,0 0.553642,0.258366 0.553642,0.553642 0,0.332185 -0.258366,0.590551 -0.553642,0.590551 l -4.539862,0 c -0.295276,0 -0.553642,-0.258366 -0.553642,-0.590551 z"
       inkscape:connector-curvature="0"
       id="path16"
       style="fill:#f2f2f2;fill-opacity:1;fill-rule:evenodd;stroke:none" />
    <path
       d="m 15.095965,20.374016 c 2.177658,-0.03691 3.912402,-1.771653 3.949311,-3.949311 0,0 0,-0.03691 0,-0.07382 -0.03691,-2.140748 -1.771653,-3.912401 -3.949311,-3.912401 0,0 -0.03691,0 -0.07382,0 -2.140748,0 -3.875492,1.771653 -3.912402,3.912401 0,0.03691 0,0.07382 0,0.07382 0.03691,2.177658 1.771654,3.912402 3.912402,3.949311 0.03691,0 0.07382,0 0.07382,0 z m -0.03691,-8.526083 c 2.509842,0 4.539862,2.03002 4.539862,4.539863 0,2.509842 -2.03002,4.539862 -4.539862,4.539862 -2.472934,0 -4.502953,-2.03002 -4.502953,-4.539862 0,-2.509843 2.030019,-4.539863 4.502953,-4.539863 z m -2.805119,4.539863 c 0,-0.295276 0.258366,-0.553642 0.553642,-0.553642 l 4.539862,0 c 0.295276,0 0.553642,0.258366 0.553642,0.553642 0,0.332185 -0.258366,0.590551 -0.553642,0.590551 l -4.539862,0 c -0.295276,0 -0.553642,-0.258366 -0.553642,-0.590551 z"
       inkscape:connector-curvature="0"
       id="path18"
       style="fill:none;stroke:#f2f2f2;stroke-width:0.5905512px;stroke-linecap:butt;stroke-linejoin:miter;stroke-miterlimit:4;stroke-opacity:1;stroke-dasharray:none" />
    <path
       d="m 5.7578742,9.4119097 c 2.1407481,-0.036909 3.9124017,-1.7716536 3.9124017,-3.9493111 0,0 0,-0.03691 0,-0.073819 0,-2.1407481 -1.7716536,-3.9124017 -3.9124017,-3.9124017 -0.03691,0 -0.073819,0 -0.073819,0 -2.1776576,0 -3.9124017,1.7716536 -3.9493112,3.9124017 0,0.036909 0,0.073819 0,0.073819 0.03691,2.1776575 1.7716536,3.9124017 3.9493112,3.9493111 0,0 0.036909,0 0.073819,0 z m -0.03691,-8.5260829 c 2.5098426,0 4.5398623,2.0300197 4.5398623,4.5398623 0,2.5098426 -2.0300197,4.5398624 -4.5398623,4.5398624 -2.5098426,0 -4.5398623,-2.0300198 -4.5398623,-4.5398624 0,-2.5098426 2.0300197,-4.5398623 4.5398623,-4.5398623 z M 2.8789371,5.4256891 c 0,-0.2952756 0.2583661,-0.5536417 0.5536417,-0.5536417 l 4.5398624,0 c 0.332185,0 0.5905512,0.2583661 0.5905512,0.5536417 0,0.3321851 -0.2583662,0.5905512 -0.5905512,0.5905512 l -4.5398624,0 c -0.2952756,0 -0.5536417,-0.2583661 -0.5536417,-0.5905512 z"
       inkscape:connector-curvature="0"
       id="path20"
       style="fill:#f2f2f2;fill-opacity:1;fill-rule:evenodd;stroke:none" />
    <path
       d="m 5.7578742,9.4119097 c 2.1407481,-0.036909 3.9124017,-1.7716536 3.9124017,-3.9493111 0,0 0,-0.03691 0,-0.073819 0,-2.1407481 -1.7716536,-3.9124017 -3.9124017,-3.9124017 -0.03691,0 -0.073819,0 -0.073819,0 -2.1776576,0 -3.9124017,1.7716536 -3.9493112,3.9124017 0,0.036909 0,0.073819 0,0.073819 0.03691,2.1776575 1.7716536,3.9124017 3.9493112,3.9493111 0,0 0.036909,0 0.073819,0 z m -0.03691,-8.5260829 c 2.5098426,0 4.5398623,2.0300197 4.5398623,4.5398623 0,2.5098426 -2.0300197,4.5398624 -4.5398623,4.5398624 -2.5098426,0 -4.5398623,-2.0300198 -4.5398623,-4.5398624 0,-2.5098426 2.0300197,-4.5398623 4.5398623,-4.5398623 z M 2.8789371,5.4256891 c 0,-0.2952756 0.2583661,-0.5536417 0.5536417,-0.5536417 l 4.5398624,0 c 0.332185,0 0.5905512,0.2583661 0.5905512,0.5536417 0,0.3321851 -0.2583662,0.5905512 -0.5905512,0.5905512 l -4.5398624,0 c -0.2952756,0 -0.5536417,-0.2583661 -0.5536417,-0.5905512 z"
       inkscape:connector-curvature="0"
       id="path22"
       style="fill:none;stroke:#f2f2f2;stroke-width:0.5905512px;stroke-linecap:butt;stroke-linejoin:miter;stroke-miterlimit:4;stroke-opacity:1;stroke-dasharray:none" />
    <path
       d="m 10.556103,9.4119097 c 2.177657,-0.036909 3.912401,-1.7716536 3.949311,-3.9493111 0,0 0,-0.03691 0,-0.073819 C 14.468504,3.2480316 12.73376,1.476378 10.556103,1.476378 c -0.03691,0 -0.03691,0 -0.07382,0 -2.1407483,0 -3.9124019,1.7716536 -3.9124019,3.9124017 0,0.036909 0,0.073819 0,0.073819 0,2.1776575 1.7716536,3.9124017 3.9124019,3.9493111 0.03691,0 0.03691,0 0.07382,0 z m -0.03691,-8.5260829 c 2.509843,0 4.539863,2.0300197 4.539863,4.5398623 0,2.5098426 -2.03002,4.5398624 -4.539863,4.5398624 -2.5098424,0 -4.5398621,-2.0300198 -4.5398621,-4.5398624 0,-2.5098426 2.0300197,-4.5398623 4.5398621,-4.5398623 z M 7.6771656,5.4256891 c 0,-0.2952756 0.2583661,-0.5536417 0.5905512,-0.5536417 l 4.5398622,0 c 0.295276,0 0.553642,0.2583661 0.553642,0.5536417 0,0.3321851 -0.258366,0.5905512 -0.553642,0.5905512 l -4.5398622,0 c -0.3321851,0 -0.5905512,-0.2583661 -0.5905512,-0.5905512 z"
       inkscape:connector-curvature="0"
       id="path24"
       style="fill:#f2f2f2;fill-opacity:1;fill-rule:evenodd;stroke:none" />
    <path
       d="m 10.556103,9.4119097 c 2.177657,-0.036909 3.912401,-1.7716536 3.949311,-3.9493111 0,0 0,-0.03691 0,-0.073819 C 14.468504,3.2480316 12.73376,1.476378 10.556103,1.476378 c -0.03691,0 -0.03691,0 -0.07382,0 -2.1407483,0 -3.9124019,1.7716536 -3.9124019,3.9124017 0,0.036909 0,0.073819 0,0.073819 0,2.1776575 1.7716536,3.9124017 3.9124019,3.9493111 0.03691,0 0.03691,0 0.07382,0 z m -0.03691,-8.5260829 c 2.509843,0 4.539863,2.0300197 4.539863,4.5398623 0,2.5098426 -2.03002,4.5398624 -4.539863,4.5398624 -2.5098424,0 -4.5398621,-2.0300198 -4.5398621,-4.5398624 0,-2.5098426 2.0300197,-4.5398623 4.5398621,-4.5398623 z M 7.6771656,5.4256891 c 0,-0.2952756 0.2583661,-0.5536417 0.5905512,-0.5536417 l 4.5398622,0 c 0.295276,0 0.553642,0.2583661 0.553642,0.5536417 0,0.3321851 -0.258366,0.5905512 -0.553642,0.5905512 l -4.5398622,0 c -0.3321851,0 -0.5905512,-0.2583661 -0.5905512,-0.5905512 z"
       inkscape:connector-curvature="0"
       id="path26"
       style="fill:none;stroke:#f2f2f2;stroke-width:0.5905512px;stroke-linecap:butt;stroke-linejoin:miter;stroke-miterlimit:4;stroke-opacity:1;stroke-dasharray:none" />
    <path
       d="m 15.391241,9.4119097 c 2.140748,-0.036909 3.912401,-1.7716536 3.912401,-3.9493111 0,0 0,-0.03691 0,-0.073819 0,-2.1407481 -1.771653,-3.9124017 -3.912401,-3.9124017 -0.03691,0 -0.03691,0 -0.07382,0 -2.177658,0 -3.912402,1.7716536 -3.949311,3.9124017 0,0.036909 0,0.073819 0,0.073819 0.03691,2.1776575 1.771653,3.9124017 3.949311,3.9493111 0.03691,0 0.03691,0 0.07382,0 z m -0.03691,-8.5260829 c 2.509843,0 4.539862,2.0300197 4.539862,4.5398623 0,2.5098426 -2.030019,4.5398624 -4.539862,4.5398624 -2.509842,0 -4.539862,-2.0300198 -4.539862,-4.5398624 0,-2.5098426 2.03002,-4.5398623 4.539862,-4.5398623 z m -2.842028,4.5398623 c 0,-0.2952756 0.258367,-0.5536417 0.553642,-0.5536417 l 4.539863,0 c 0.332185,0 0.590551,0.2583661 0.590551,0.5536417 0,0.3321851 -0.258366,0.5905512 -0.590551,0.5905512 l -4.539863,0 c -0.295275,0 -0.553642,-0.2583661 -0.553642,-0.5905512 z"
       inkscape:connector-curvature="0"
       id="path28"
       style="fill:#f2f2f2;fill-opacity:1;fill-rule:evenodd;stroke:none" />
    <path
       d="m 15.391241,9.4119097 c 2.140748,-0.036909 3.912401,-1.7716536 3.912401,-3.9493111 0,0 0,-0.03691 0,-0.073819 0,-2.1407481 -1.771653,-3.9124017 -3.912401,-3.9124017 -0.03691,0 -0.03691,0 -0.07382,0 -2.177658,0 -3.912402,1.7716536 -3.949311,3.9124017 0,0.036909 0,0.073819 0,0.073819 0.03691,2.1776575 1.771653,3.9124017 3.949311,3.9493111 0.03691,0 0.03691,0 0.07382,0 z m -0.03691,-8.5260829 c 2.509843,0 4.539862,2.0300197 4.539862,4.5398623 0,2.5098426 -2.030019,4.5398624 -4.539862,4.5398624 -2.509842,0 -4.539862,-2.0300198 -4.539862,-4.5398624 0,-2.5098426 2.03002,-4.5398623 4.539862,-4.5398623 z m -2.842028,4.5398623 c 0,-0.2952756 0.258367,-0.5536417 0.553642,-0.5536417 l 4.539863,0 c 0.332185,0 0.590551,0.2583661 0.590551,0.5536417 0,0.3321851 -0.258366,0.5905512 -0.590551,0.5905512 l -4.539863,0 c -0.295275,0 -0.553642,-0.2583661 -0.553642,-0.5905512 z"
       inkscape:connector-curvature="0"
       id="path30"
       style="fill:none;stroke:#f2f2f2;stroke-width:0.5905512px;stroke-linecap:butt;stroke-linejoin:miter;stroke-miterlimit:4;stroke-opacity:1;stroke-dasharray:none" />
  </g>
</svg>
