<?xml version="1.0" encoding="UTF-8" standalone="no"?>
<!-- Created with Inkscape (http://www.inkscape.org/) -->

<svg
   xmlns:dc="http://purl.org/dc/elements/1.1/"
   xmlns:cc="http://creativecommons.org/ns#"
   xmlns:rdf="http://www.w3.org/1999/02/22-rdf-syntax-ns#"
   xmlns:svg="http://www.w3.org/2000/svg"
   xmlns="http://www.w3.org/2000/svg"
   xmlns:inkscape="http://www.inkscape.org/namespaces/inkscape"
   version="1.0"
   width="7.0599999mm"
   height="11.98mm"
   id="svg2">
  <metadata
     id="metadata22">
    <rdf:RDF>
      <cc:Work
         rdf:about="">
        <dc:format>image/svg+xml</dc:format>
        <dc:type
           rdf:resource="http://purl.org/dc/dcmitype/StillImage" />
      </cc:Work>
    </rdf:RDF>
  </metadata>
  <defs
     id="defs4" />
  <g
     id="g6">
    <path
       d="m 9.6147801,8.2077391 -5.3936571,0 c -0.3908448,0 -0.7035205,0.1563379 -1.0161963,0.3908447 C 2.9704199,8.7549217 2.814082,8.9112596 2.735913,9.1457664 2.5795751,9.3802732 2.5014062,9.6147801 2.5014062,9.9274558 l 0,6.4098532 1.4852099,0 0,4.924644 5.7845018,0 0,-4.924644 1.5633791,0 0,-6.4098532 c 0,-0.3908447 -0.156338,-0.7816894 -0.390845,-1.0161962 C 10.865483,8.6767527 10.630976,8.5204148 10.396469,8.364077 10.161963,8.285908 9.9274558,8.2077391 9.6147801,8.2077391 z M 9.4584422,5.0028124 c 0,-1.3288721 -1.0943652,-2.5014062 -2.5014062,-2.5014062 -1.407041,0 -2.5795752,1.1725341 -2.5795752,2.5014062 0,1.407041 1.1725342,2.5795751 2.5795752,2.5795751 1.407041,0 2.5014062,-1.1725341 2.5014062,-2.5795751 z"
       inkscape:connector-curvature="0"
       id="path8"
       style="fill:#d8d8d8;fill-opacity:1;fill-rule:evenodd;stroke:none" />
    <path
       d="m 9.6147801,8.2077391 -5.3936571,0 c -0.3908448,0 -0.7035205,0.1563379 -1.0161963,0.3908447 C 2.9704199,8.7549217 2.814082,8.9112596 2.735913,9.1457664 2.5795751,9.3802732 2.5014062,9.6147801 2.5014062,9.9274558 l 0,6.4098532 1.4852099,0 0,4.924644 5.7845018,0 0,-4.924644 1.5633791,0 0,-6.4098532 c 0,-0.3908447 -0.156338,-0.7816894 -0.390845,-1.0161962 C 10.865483,8.6767527 10.630976,8.5204148 10.396469,8.364077 10.161963,8.285908 9.9274558,8.2077391 9.6147801,8.2077391 z M 6.957036,21.261953 l 0,-3.908448 m -2.9704199,-1.016196 0,-3.439433 m 5.7845018,3.439433 0,-3.439433 M 9.4584422,5.0028124 c 0,-1.3288721 -1.0943652,-2.5014062 -2.5014062,-2.5014062 -1.407041,0 -2.5795752,1.1725341 -2.5795752,2.5014062 0,1.407041 1.1725342,2.5795751 2.5795752,2.5795751 1.407041,0 2.5014062,-1.1725341 2.5014062,-2.5795751 z"
       inkscape:connector-curvature="0"
       id="path10"
       style="fill:none;stroke:#ffffff;stroke-width:2.50140619px;stroke-linecap:round;stroke-linejoin:round;stroke-opacity:1;stroke-dasharray:none" />
    <path
       d="m 21.183784,8.2077391 -5.393657,0 c -0.390845,0 -0.78169,0.1563379 -1.016197,0.3908447 -0.234507,0.1563379 -0.390844,0.3126758 -0.547182,0.5471826 -0.07817,0.2345068 -0.156338,0.4690137 -0.156338,0.7816894 l 0,6.4098532 1.48521,0 0,4.924644 5.784502,0 0,-4.924644 1.563378,0 0,-6.4098532 c 0,-0.3908447 -0.156337,-0.7816894 -0.390844,-1.0161962 C 22.356318,8.6767527 22.19998,8.5204148 21.965473,8.364077 21.730966,8.285908 21.496459,8.2077391 21.183784,8.2077391 z M 21.027446,5.0028124 c 0,-1.3288721 -1.172534,-2.5014062 -2.579575,-2.5014062 -1.328872,0 -2.501407,1.1725341 -2.501407,2.5014062 0,1.407041 1.172535,2.5795751 2.501407,2.5795751 1.407041,0 2.579575,-1.1725341 2.579575,-2.5795751 z"
       inkscape:connector-curvature="0"
       id="path12"
       style="fill:#d8d8d8;fill-opacity:1;fill-rule:evenodd;stroke:none" />
    <path
       d="m 21.183784,8.2077391 -5.393657,0 c -0.390845,0 -0.78169,0.1563379 -1.016197,0.3908447 -0.234507,0.1563379 -0.390844,0.3126758 -0.547182,0.5471826 -0.07817,0.2345068 -0.156338,0.4690137 -0.156338,0.7816894 l 0,6.4098532 1.48521,0 0,4.924644 5.784502,0 0,-4.924644 1.563378,0 0,-6.4098532 c 0,-0.3908447 -0.156337,-0.7816894 -0.390844,-1.0161962 C 22.356318,8.6767527 22.19998,8.5204148 21.965473,8.364077 21.730966,8.285908 21.496459,8.2077391 21.183784,8.2077391 z m -2.735913,13.0542139 0,-3.908448 m -2.892251,-1.016196 0,-3.439433 m 5.784502,3.439433 0,-3.439433 M 21.027446,5.0028124 c 0,-1.3288721 -1.172534,-2.5014062 -2.579575,-2.5014062 -1.328872,0 -2.501407,1.1725341 -2.501407,2.5014062 0,1.407041 1.172535,2.5795751 2.501407,2.5795751 1.407041,0 2.579575,-1.1725341 2.579575,-2.5795751 z"
       inkscape:connector-curvature="0"
       id="path14"
       style="fill:none;stroke:#ffffff;stroke-width:2.50140619px;stroke-linecap:round;stroke-linejoin:round;stroke-opacity:1;stroke-dasharray:none" />
    <path
       d="m 15.868296,24.857724 -6.3316849,0 c -0.4690137,0 -0.8598584,0.156338 -1.1725341,0.390845 -0.2345069,0.156338 -0.4690137,0.390844 -0.5471826,0.70352 -0.1563379,0.234507 -0.2345069,0.547183 -0.2345069,0.859859 l 0,7.504218 1.7197168,0 0,5.706333 6.7225287,0 0,-5.706333 1.797886,0 0,-7.504218 c 0,-0.469014 -0.156338,-0.859859 -0.390845,-1.250703 -0.156337,-0.234507 -0.390844,-0.390845 -0.70352,-0.547183 -0.234507,-0.07817 -0.547183,-0.156338 -0.859858,-0.156338 z m -0.234507,-3.752109 c 0,-1.563379 -1.328872,-2.892251 -2.892251,-2.892251 -1.641548,0 -2.9704201,1.328872 -2.9704201,2.892251 0,1.641548 1.3288721,2.97042 2.9704201,2.97042 1.563379,0 2.892251,-1.328872 2.892251,-2.97042 z"
       inkscape:connector-curvature="0"
       id="path16"
       style="fill:#f37b49;fill-opacity:1;fill-rule:evenodd;stroke:none" />
    <path
       d="m 15.868296,24.857724 -6.3316849,0 c -0.4690137,0 -0.8598584,0.156338 -1.1725341,0.390845 -0.2345069,0.156338 -0.4690137,0.390844 -0.5471826,0.70352 -0.1563379,0.234507 -0.2345069,0.547183 -0.2345069,0.859859 l 0,7.504218 1.7197168,0 0,5.706333 6.7225287,0 0,-5.706333 1.797886,0 0,-7.504218 c 0,-0.469014 -0.156338,-0.859859 -0.390845,-1.250703 -0.156337,-0.234507 -0.390844,-0.390845 -0.70352,-0.547183 -0.234507,-0.07817 -0.547183,-0.156338 -0.859858,-0.156338 z m -3.126758,15.164775 0,-4.611968 m -3.4394337,-1.094365 0,-3.986616 m 6.7225287,3.986616 0,-3.986616 m -0.390844,-9.223935 c 0,-1.563379 -1.328872,-2.892251 -2.892251,-2.892251 -1.641548,0 -2.9704201,1.328872 -2.9704201,2.892251 0,1.641548 1.3288721,2.97042 2.9704201,2.97042 1.563379,0 2.892251,-1.328872 2.892251,-2.97042 z"
       inkscape:connector-curvature="0"
       id="path18"
       style="fill:none;stroke:#ffffff;stroke-width:2.50140619px;stroke-linecap:round;stroke-linejoin:round;stroke-opacity:1;stroke-dasharray:none" />
  </g>
</svg>
