<?xml version="1.0" encoding="UTF-8" standalone="no"?>
<!-- Created with Inkscape (http://www.inkscape.org/) -->

<svg
   xmlns:dc="http://purl.org/dc/elements/1.1/"
   xmlns:cc="http://creativecommons.org/ns#"
   xmlns:rdf="http://www.w3.org/1999/02/22-rdf-syntax-ns#"
   xmlns:svg="http://www.w3.org/2000/svg"
   xmlns="http://www.w3.org/2000/svg"
   xmlns:inkscape="http://www.inkscape.org/namespaces/inkscape"
   version="1.0"
   width="5.8000002mm"
   height="9.3299999mm"
   id="svg2">
  <metadata
     id="metadata14">
    <rdf:RDF>
      <cc:Work
         rdf:about="">
        <dc:format>image/svg+xml</dc:format>
        <dc:type
           rdf:resource="http://purl.org/dc/dcmitype/StillImage" />
      </cc:Work>
    </rdf:RDF>
  </metadata>
  <defs
     id="defs4" />
  <g
     id="g6">
    <path
       d="m 10.541339,22.588583 0.08858,-0.35433 0.04429,-0.354331 0.08858,-0.31004 0.04429,-0.310039 0.04429,-0.310039 0.08858,-0.221457 0,-0.265748 0.04429,-0.265748 0,-0.221457 0,-0.177165 -0.04429,-0.177165 -0.04429,-0.132874 -0.08858,-0.08858 -0.08858,-0.132874 -0.132874,-0.04429 -0.132874,-0.04429 -0.4872045,0 -0.6643701,0 -0.8415355,0.04429 -0.8415355,0.132874 -0.7972441,0.04429 -0.6643701,0.08858 -0.4872047,0.04429 -0.132874,0.04429 0,-0.04429 0,-0.08858 0.044291,-0.221457 0.044291,-0.221456 0.088583,-0.265748 0.044291,-0.354331 0.044291,-0.354331 0.088583,-0.35433 0.044291,-0.398622 0.044291,-0.398623 0,-0.398622 0.044291,-0.398622 -0.044291,-0.35433 0,-0.354331 -0.044291,-0.265748 -0.088583,-0.265748 -0.1771654,-0.31004 -0.265748,-0.177165 -0.3543308,-0.08858 -0.398622,0 -0.4429134,0.04429 -0.4872048,0.132874 -0.5757874,0.132874 -0.6200787,0.177165 -0.2657481,0.04429 -0.265748,-0.04429 -0.2214567,-0.177165 -0.1771654,-0.265748 -0.132874,-0.31004 -0.132874,-0.35433 -0.044291,-0.398622 -0.044291,-0.442914 -0.044291,-0.442913 0,-0.442914 0.044291,-0.442913 0.044291,-0.398622 0.088583,-0.354331 0.088583,-0.265748 0.088583,-0.221457 0.132874,-0.132874 0.4429134,-0.1771649 0.4429134,0 0.5314961,0.044291 0.4872047,0.1328735 0.5314961,0.177166 0.5314961,0.08858 0.4429134,0.04429 0.4429134,-0.04429 0.132874,-0.132875 0.1771654,-0.177165 0.088583,-0.2657479 0.044291,-0.3100394 0.044291,-0.398622 0,-0.3986221 -0.044291,-0.3986221 0,-0.398622 L 5.9350395,7.4409451 5.8907482,7.042323 5.8464569,6.6879923 5.7578742,6.3779529 5.7135828,6.0679136 5.6692915,5.8464569 l 0,-0.1328741 -0.044291,-0.044291 0.1771653,0.044291 0.4429134,0.088583 0.6200788,0.088583 0.7086614,0.088583 0.7972441,0.088583 0.7529528,0 0.6643701,0 0.4429129,-0.1328741 0.177166,-0.088583 0.132874,-0.088583 0.08858,-0.044291 0.08858,-0.088583 0,-0.088583 0.04429,-0.088583 0,-0.088583 -0.04429,-0.132874 -0.04429,-0.1771654 -0.04429,-0.132874 -0.08858,-0.2214567 -0.04429,-0.265748 -0.08858,-0.2657481 -0.08858,-0.3100393 -0.04429,-0.3543308 -0.08858,-0.4429134 -0.04429,-0.398622 0.08858,-0.3543307 0.177166,-0.3100394 0.221457,-0.2214567 0.310039,-0.2214567 0.354331,-0.132874 0.35433,-0.132874 0.442914,-0.044291 0.398622,-0.044291 0.442913,0 0.442914,0.044291 0.398622,0.088583 0.35433,0.088583 0.354331,0.132874 0.265748,0.1771654 0.221457,0.1771653 0.132874,0.2214567 0.08858,0.2214567 0.04429,0.2214567 0,0.265748 -0.04429,0.2214567 -0.04429,0.2657481 -0.04429,0.265748 -0.08858,0.2657481 -0.08858,0.265748 -0.08858,0.2214567 -0.04429,0.265748 -0.04429,0.2214567 0,0.2657481 0.04429,0.2214567 0.04429,0.1771653 0.132874,0.1771654 0.398622,0.265748 0.575787,0.088583 0.708662,-0.044291 0.708661,-0.088583 0.708662,-0.132874 0.620078,-0.1771654 0.398622,-0.132874 0.132874,-0.044291 0,0.044291 0,0 0.04429,0.088583 0,0.088583 0.04429,0.088583 0.04429,0.1328741 0,0.132874 0.04429,0.1771653 0.04429,0.1771654 0.04429,0.1771654 0.04429,0.1771653 0.04429,0.1771654 0.04429,0.2214567 0.04429,0.2214567 0.04429,0.2214567 0.04429,0.2214567 0,0.2214567 0.04429,0.2214567 0.04429,0.1771653 0,0.2214567 0.04429,0.2214567 0,0.1771654 0,0.1771653 0,0.2214567 0,0.1771654 -0.04429,0.132874 0,0.1771654 -0.04429,0.1328742 -0.04429,0.132874 -0.04429,0.132874 -0.04429,0.08858 -0.04429,0.08858 -0.177166,0.177166 -0.177165,0.08858 -0.221457,0 -0.221457,0 -0.265748,-0.04429 -0.265748,-0.04429 -0.310039,-0.08858 -0.310039,-0.08858 -0.31004,-0.08858 -0.310039,-0.04429 -0.354331,-0.08858 -0.354331,-0.04429 -0.35433,0 -0.354331,0.04429 -0.354331,0.04429 -0.310039,0.132874 -0.31004,0.177165 -0.265748,0.221457 -0.221456,0.265748 -0.177166,0.310039 -0.08858,0.31004 -0.08858,0.310039 -0.04429,0.354331 0,0.354331 0.04429,0.310039 0.04429,0.354331 0.08858,0.310039 0.132874,0.310039 0.132874,0.265748 0.177165,0.221457 0.177166,0.177165 0.177165,0.177166 0.575788,0.221457 0.66437,0.04429 0.708661,-0.04429 0.66437,-0.132874 0.708662,-0.177166 0.620078,-0.177165 0.531496,-0.132874 0.398623,-0.04429 0.132874,0.04429 0.132874,0.177165 0.04429,0.265748 0.04429,0.354331 0,0.398622 0,0.442913 -0.04429,0.531496 -0.04429,0.487205 -0.04429,0.531496 -0.08858,0.487205 -0.04429,0.442913 -0.08858,0.442914 -0.04429,0.35433 -0.04429,0.221457 -0.04429,0.221457 0,0.04429 -0.177166,0 -0.442913,-0.04429 -0.620079,-0.08858 -0.752953,-0.08858 -0.797244,-0.04429 -0.752953,-0.08858 -0.66437,-0.04429 -0.442913,0 -0.132874,0.04429 -0.132874,0.04429 -0.08858,0.08858 -0.08858,0.132874 -0.04429,0.132874 0,0.177165 0,0.221457 0.04429,0.221456 0.04429,0.265748 0.04429,0.221457 0.08858,0.310039 0.08858,0.265748 0.08858,0.31004 0.08858,0.310039 0.132874,0.31004 0.132874,0.310039 0.04429,0.310039 -0.08858,0.265748 -0.177166,0.221457 -0.310039,0.177165 -0.31004,0.132874 -0.442913,0.08858 -0.442913,0.04429 -0.487205,0 -0.487205,-0.04429 -0.442913,-0.04429 -0.442914,-0.132874 -0.35433,-0.177166 -0.31004,-0.177165 -0.221456,-0.265748 -0.132874,-0.265748 0.04429,-0.354331 z"
       inkscape:connector-curvature="0"
       id="path8"
       style="fill:#f2f2f2;fill-opacity:1;fill-rule:evenodd;stroke:none" />
    <path
       d="m 10.541339,22.588583 0.08858,-0.35433 0.04429,-0.354331 0.08858,-0.31004 0.04429,-0.310039 0.04429,-0.310039 0.08858,-0.221457 0,-0.265748 0.04429,-0.265748 0,-0.221457 0,-0.177165 -0.04429,-0.177165 -0.04429,-0.132874 -0.08858,-0.08858 -0.08858,-0.132874 -0.132874,-0.04429 -0.132874,-0.04429 -0.4872045,0 -0.6643701,0 -0.8415355,0.04429 -0.8415355,0.132874 -0.7972441,0.04429 -0.6643701,0.08858 -0.4872047,0.04429 -0.132874,0.04429 0,-0.04429 0,-0.08858 0.044291,-0.221457 0.044291,-0.221456 0.088583,-0.265748 0.044291,-0.354331 0.044291,-0.354331 0.088583,-0.35433 0.044291,-0.398622 0.044291,-0.398623 0,-0.398622 0.044291,-0.398622 -0.044291,-0.35433 0,-0.354331 -0.044291,-0.265748 -0.088583,-0.265748 -0.1771654,-0.31004 -0.265748,-0.177165 -0.3543308,-0.08858 -0.398622,0 -0.4429134,0.04429 -0.4872048,0.132874 -0.5757874,0.132874 -0.6200787,0.177165 -0.2657481,0.04429 -0.265748,-0.04429 -0.2214567,-0.177165 -0.1771654,-0.265748 -0.132874,-0.31004 -0.132874,-0.35433 -0.044291,-0.398622 -0.044291,-0.442914 -0.044291,-0.442913 0,-0.442914 0.044291,-0.442913 0.044291,-0.398622 0.088583,-0.354331 0.088583,-0.265748 0.088583,-0.221457 0.132874,-0.132874 0.4429134,-0.1771649 0.4429134,0 0.5314961,0.044291 0.4872047,0.1328735 0.5314961,0.177166 0.5314961,0.08858 0.4429134,0.04429 0.4429134,-0.04429 0.132874,-0.132875 0.1771654,-0.177165 0.088583,-0.2657479 0.044291,-0.3100394 0.044291,-0.398622 0,-0.3986221 -0.044291,-0.3986221 0,-0.398622 L 5.9350395,7.4409451 5.8907482,7.042323 5.8464569,6.6879923 5.7578742,6.3779529 5.7135828,6.0679136 5.6692915,5.8464569 l 0,-0.1328741 -0.044291,-0.044291 0.1771653,0.044291 0.4429134,0.088583 0.6200788,0.088583 0.7086614,0.088583 0.7972441,0.088583 0.7529528,0 0.6643701,0 0.4429129,-0.1328741 0.177166,-0.088583 0.132874,-0.088583 0.08858,-0.044291 0.08858,-0.088583 0,-0.088583 0.04429,-0.088583 0,-0.088583 -0.04429,-0.132874 -0.04429,-0.1771654 -0.04429,-0.132874 -0.08858,-0.2214567 -0.04429,-0.265748 -0.08858,-0.2657481 -0.08858,-0.3100393 -0.04429,-0.3543308 -0.08858,-0.4429134 -0.04429,-0.398622 0.08858,-0.3543307 0.177166,-0.3100394 0.221457,-0.2214567 0.310039,-0.2214567 0.354331,-0.132874 0.35433,-0.132874 0.442914,-0.044291 0.398622,-0.044291 0.442913,0 0.442914,0.044291 0.398622,0.088583 0.35433,0.088583 0.354331,0.132874 0.265748,0.1771654 0.221457,0.1771653 0.132874,0.2214567 0.08858,0.2214567 0.04429,0.2214567 0,0.265748 -0.04429,0.2214567 -0.04429,0.2657481 -0.04429,0.265748 -0.08858,0.2657481 -0.08858,0.265748 -0.08858,0.2214567 -0.04429,0.265748 -0.04429,0.2214567 0,0.2657481 0.04429,0.2214567 0.04429,0.1771653 0.132874,0.1771654 0.398622,0.265748 0.575787,0.088583 0.708662,-0.044291 0.708661,-0.088583 0.708662,-0.132874 0.620078,-0.1771654 0.398622,-0.132874 0.132874,-0.044291 0,0.044291 0,0 0.04429,0.088583 0,0.088583 0.04429,0.088583 0.04429,0.1328741 0,0.132874 0.04429,0.1771653 0.04429,0.1771654 0.04429,0.1771654 0.04429,0.1771653 0.04429,0.1771654 0.04429,0.2214567 0.04429,0.2214567 0.04429,0.2214567 0.04429,0.2214567 0,0.2214567 0.04429,0.2214567 0.04429,0.1771653 0,0.2214567 0.04429,0.2214567 0,0.1771654 0,0.1771653 0,0.2214567 0,0.1771654 -0.04429,0.132874 0,0.1771654 -0.04429,0.1328742 -0.04429,0.132874 -0.04429,0.132874 -0.04429,0.08858 -0.04429,0.08858 -0.177166,0.177166 -0.177165,0.08858 -0.221457,0 -0.221457,0 -0.265748,-0.04429 -0.265748,-0.04429 -0.310039,-0.08858 -0.310039,-0.08858 -0.31004,-0.08858 -0.310039,-0.04429 -0.354331,-0.08858 -0.354331,-0.04429 -0.35433,0 -0.354331,0.04429 -0.354331,0.04429 -0.310039,0.132874 -0.31004,0.177165 -0.265748,0.221457 -0.221456,0.265748 -0.177166,0.310039 -0.08858,0.31004 -0.08858,0.310039 -0.04429,0.354331 0,0.354331 0.04429,0.310039 0.04429,0.354331 0.08858,0.310039 0.132874,0.310039 0.132874,0.265748 0.177165,0.221457 0.177166,0.177165 0.177165,0.177166 0.575788,0.221457 0.66437,0.04429 0.708661,-0.04429 0.66437,-0.132874 0.708662,-0.177166 0.620078,-0.177165 0.531496,-0.132874 0.398623,-0.04429 0.132874,0.04429 0.132874,0.177165 0.04429,0.265748 0.04429,0.354331 0,0.398622 0,0.442913 -0.04429,0.531496 -0.04429,0.487205 -0.04429,0.531496 -0.08858,0.487205 -0.04429,0.442913 -0.08858,0.442914 -0.04429,0.35433 -0.04429,0.221457 -0.04429,0.221457 0,0.04429 -0.177166,0 -0.442913,-0.04429 -0.620079,-0.08858 -0.752953,-0.08858 -0.797244,-0.04429 -0.752953,-0.08858 -0.66437,-0.04429 -0.442913,0 -0.132874,0.04429 -0.132874,0.04429 -0.08858,0.08858 -0.08858,0.132874 -0.04429,0.132874 0,0.177165 0,0.221457 0.04429,0.221456 0.04429,0.265748 0.04429,0.221457 0.08858,0.310039 0.08858,0.265748 0.08858,0.31004 0.08858,0.310039 0.132874,0.31004 0.132874,0.310039 0.04429,0.310039 -0.08858,0.265748 -0.177166,0.221457 -0.310039,0.177165 -0.31004,0.132874 -0.442913,0.08858 -0.442913,0.04429 -0.487205,0 -0.487205,-0.04429 -0.442913,-0.04429 -0.442914,-0.132874 -0.35433,-0.177166 -0.31004,-0.177165 -0.221456,-0.265748 -0.132874,-0.265748 0.04429,-0.354331 z"
       inkscape:connector-curvature="0"
       id="path10"
       style="fill:none;stroke:#f2f2f2;stroke-width:0.93011814px;stroke-linecap:round;stroke-linejoin:round;stroke-opacity:1;stroke-dasharray:none" />
  </g>
</svg>
