<?xml version="1.0" encoding="UTF-8" standalone="no"?>
<!-- Created with Inkscape (http://www.inkscape.org/) -->

<svg
   xmlns:dc="http://purl.org/dc/elements/1.1/"
   xmlns:cc="http://creativecommons.org/ns#"
   xmlns:rdf="http://www.w3.org/1999/02/22-rdf-syntax-ns#"
   xmlns:svg="http://www.w3.org/2000/svg"
   xmlns="http://www.w3.org/2000/svg"
   xmlns:inkscape="http://www.inkscape.org/namespaces/inkscape"
   version="1.0"
   width="8.5mm"
   height="10.2mm"
   id="svg2">
  <metadata
     id="metadata20">
    <rdf:RDF>
      <cc:Work
         rdf:about="">
        <dc:format>image/svg+xml</dc:format>
        <dc:type
           rdf:resource="http://purl.org/dc/dcmitype/StillImage" />
      </cc:Work>
    </rdf:RDF>
  </metadata>
  <defs
     id="defs4" />
  <g
     id="g6">
    <path
       d="m 4.6505907,28.973918 -0.1107284,0 21.2598427,0 -0.07382,0 1.365649,-0.295275 -0.110728,0.07382 1.144193,-0.738189 -0.110729,0.110729 0.738189,-1.144193 -0.07382,0.110728 0.295275,-1.365649 0,0.07382 0,-21.2598427 0,0.1107284 -0.295275,-1.3656497 0.07382,0.1107284 -0.738189,-1.144193 0.110729,0.1107284 -1.144193,-0.738189 0.110728,0.073819 -1.365649,-0.2952756 0.07382,0 -21.2598427,0 0.1107284,0 -1.3656497,0.2952756 0.1107284,-0.073819 -1.144193,0.738189 0.1107284,-0.1107284 -0.738189,1.144193 0.073819,-0.1107284 -0.2952756,1.3656497 0,-0.1107284 0,21.2598427 0,-0.07382 0.2952756,1.365649 -0.073819,-0.110728 0.738189,1.144193 -0.1107284,-0.110729 1.144193,0.738189 -0.1107284,-0.07382 z m -1.5501969,0.479823 c -0.03691,0 -0.073819,-0.03691 -0.1107284,-0.07382 L 1.8454725,28.641733 c -0.073819,0 -0.1107284,-0.03691 -0.1107284,-0.110728 L 0.99655515,27.386812 c -0.0369094,-0.03691 -0.0738189,-0.07382 -0.0738189,-0.110729 l -0.2952756,-1.365649 c 0,-0.03691 0,-0.07382 0,-0.110729 l 0,-21.2598427 c 0,0 0,-0.036909 0,-0.073819 l 0.2952756,-1.3656496 c 0,-0.03691 0.0369095,-0.073819 0.0738189,-0.1107284 L 1.7347441,1.8454725 c 0,-0.073819 0.03691,-0.1107284 0.1107284,-0.1107284 L 2.9896654,0.99655515 c 0.03691,-0.0369094 0.073819,-0.0738189 0.1107284,-0.0738189 l 1.3656496,-0.2952756 c 0.03691,0 0.073819,0 0.073819,0 l 21.2598427,0 c 0.03691,0 0.07382,0 0.110729,0 l 1.365649,0.2952756 c 0.03691,0 0.07382,0.0369095 0.110729,0.0738189 l 1.144193,0.73818895 c 0.07382,0 0.110728,0.03691 0.110728,0.1107284 l 0.738189,1.1441929 c 0.03691,0.03691 0.07382,0.073819 0.07382,0.1107284 l 0.295276,1.3656496 c 0,0.03691 0,0.073819 0,0.073819 l 0,21.2598427 c 0,0.03691 0,0.07382 0,0.110729 l -0.295276,1.365649 c 0,0.03691 -0.03691,0.07382 -0.07382,0.110729 l -0.738189,1.144193 c 0,0.07382 -0.03691,0.110728 -0.110728,0.110728 l -1.144193,0.738189 c -0.03691,0.03691 -0.07382,0.07382 -0.110729,0.07382 l -1.365649,0.295276 c -0.03691,0 -0.07382,0 -0.110729,0 l -21.2598427,0 c 0,0 -0.036909,0 -0.073819,0 z"
       inkscape:connector-curvature="0"
       id="path8"
       style="fill:#ffffff;fill-opacity:1;fill-rule:nonzero;stroke:none" />
    <path
       d="m 14.09941,23.252953 0.07382,-0.295275 0.03691,-0.295276 0.07382,-0.258366 0.03691,-0.258366 0.03691,-0.258366 0.07382,-0.184547 0,-0.221457 0.03691,-0.221457 0,-0.184547 0,-0.147638 -0.03691,-0.147638 -0.03691,-0.110728 -0.07382,-0.07382 -0.07382,-0.110728 -0.110729,-0.03691 -0.110728,-0.03691 -0.406004,0 -0.553642,0 -0.701279,0.03691 -0.70128,0.110729 -0.66437,0.03691 -0.553642,0.07382 -0.406004,0.03691 -0.110728,0.03691 0,-0.03691 0,-0.07382 0.03691,-0.184547 0.03691,-0.184547 0.07382,-0.221457 0.03691,-0.295275 0.03691,-0.295276 0.07382,-0.295276 0.03691,-0.332185 0.03691,-0.332185 0,-0.332185 0.03691,-0.332185 -0.03691,-0.295275 0,-0.295276 -0.03691,-0.221457 -0.07382,-0.221456 -0.147638,-0.258366 -0.2214563,-0.147638 -0.2952756,-0.07382 -0.3321851,0 -0.3690945,0.03691 L 8.4153546,16.461615 7.9355317,16.572343 7.4187994,16.719981 7.1973427,16.75689 6.975886,16.719981 6.7913388,16.572343 6.643701,16.350886 6.5329726,16.09252 6.4222443,15.797245 l -0.03691,-0.332186 -0.036909,-0.369094 -0.03691,-0.369095 0,-0.369094 0.03691,-0.369095 0.036909,-0.332185 0.073819,-0.295275 0.073819,-0.221457 0.073819,-0.184547 0.1107284,-0.110728 0.3690945,-0.147638 0.3690945,0 0.4429134,0.03691 0.4060039,0.110729 0.4429134,0.147637 0.4429134,0.07382 0.3690945,0.03691 0.3690945,-0.03691 0.110728,-0.110728 0.147638,-0.147638 0.07382,-0.221457 0.03691,-0.258366 0.03691,-0.332185 0,-0.332185 -0.03691,-0.332185 0,-0.332185 -0.03691,-0.369094 -0.03691,-0.332185 -0.03691,-0.295276 -0.07382,-0.2583662 -0.03691,-0.2583662 -0.03691,-0.1845472 0,-0.1107284 -0.03691,-0.036909 0.147638,0.036909 0.369094,0.073819 0.516733,0.073819 0.590551,0.073819 0.66437,0.073819 0.62746,0 0.553642,0 0.369095,-0.1107283 0.147637,-0.073819 0.110729,-0.073819 0.07382,-0.03691 0.07382,-0.073819 0,-0.073819 0.03691,-0.073819 0,-0.073819 L 14.247048,8.7844491 14.210138,8.6368113 14.173229,8.5260829 14.09941,8.3415357 14.0625,8.120079 13.988681,7.8986223 13.914863,7.6402561 13.877953,7.3449805 13.804134,6.975886 13.767225,6.643701 13.841044,6.3484254 13.988681,6.0900592 14.173229,5.905512 14.431595,5.7209647 14.72687,5.6102364 15.022146,5.499508 l 0.369095,-0.036909 0.332185,-0.03691 0.369094,0 0.369095,0.03691 0.332185,0.073819 0.295275,0.073819 0.295276,0.1107283 0.221457,0.1476378 0.184547,0.1476378 0.110728,0.1845473 0.07382,0.1845472 0.03691,0.1845473 0,0.2214567 -0.03691,0.1845472 -0.03691,0.2214567 -0.03691,0.2214567 -0.07382,0.2214567 -0.07382,0.2214567 -0.07382,0.1845473 -0.03691,0.2214567 -0.03691,0.1845472 0,0.2214567 0.03691,0.1845473 0.03691,0.1476378 0.110729,0.1476378 0.332185,0.2214567 0.479823,0.073819 0.590551,-0.03691 0.590551,-0.073819 0.590551,-0.1107283 0.516733,-0.1476378 0.332185,-0.1107284 0.110728,-0.036909 0,0.036909 0,0 0.03691,0.073819 0,0.073819 0.03691,0.073819 0.03691,0.1107284 0,0.1107283 0.03691,0.1476378 0.03691,0.1476378 0.03691,0.1476378 0.03691,0.1476379 0.03691,0.147638 0.03691,0.184547 0.03691,0.184547 0.03691,0.184547 0.03691,0.184548 0,0.184547 0.03691,0.184547 0.03691,0.147638 0,0.184547 0.03691,0.184548 0,0.147637 0,0.147638 0,0.184547 0,0.147638 -0.03691,0.110728 0,0.147638 -0.03691,0.110729 -0.03691,0.110728 -0.03691,0.110728 -0.03691,0.07382 -0.03691,0.07382 -0.147638,0.147638 -0.147638,0.07382 -0.184547,0 -0.184547,0 -0.221457,-0.03691 -0.221456,-0.03691 -0.258367,-0.07382 -0.258366,-0.07382 -0.258366,-0.07382 -0.258366,-0.03691 -0.295276,-0.07382 -0.295275,-0.03691 -0.295276,0 -0.295275,0.03691 -0.295276,0.03691 -0.258366,0.110729 -0.258366,0.147637 -0.221457,0.184548 -0.184547,0.221456 -0.147638,0.258367 -0.07382,0.258366 -0.07382,0.258366 -0.03691,0.295275 0,0.295276 0.03691,0.258366 0.03691,0.295276 0.07382,0.258366 0.110729,0.258366 0.110728,0.221457 0.147638,0.184547 0.147638,0.147638 0.147638,0.147638 0.479822,0.184547 0.553642,0.03691 0.590551,-0.03691 0.553642,-0.110728 0.590551,-0.147638 0.516733,-0.147638 0.442913,-0.110728 0.332185,-0.03691 0.110728,0.03691 0.110729,0.147637 0.03691,0.221457 0.03691,0.295276 0,0.332185 0,0.369094 -0.03691,0.442914 -0.03691,0.406004 -0.03691,0.442913 -0.07382,0.406004 -0.03691,0.369094 -0.07382,0.369095 -0.03691,0.295276 -0.03691,0.184547 -0.03691,0.184547 0,0.03691 -0.147638,0 -0.369095,-0.03691 -0.516732,-0.07382 -0.627461,-0.07382 -0.66437,-0.03691 -0.62746,-0.07382 -0.553642,-0.03691 -0.369095,0 -0.110728,0.03691 -0.110728,0.03691 -0.07382,0.07382 -0.07382,0.110729 -0.03691,0.110728 0,0.147638 0,0.184547 0.03691,0.184547 0.03691,0.221457 0.03691,0.184547 0.07382,0.258366 0.07382,0.221457 0.07382,0.258366 0.07382,0.258366 0.110729,0.258367 0.110728,0.258366 0.03691,0.258366 -0.07382,0.221456 -0.147638,0.184548 -0.258366,0.147638 -0.258366,0.110728 -0.369095,0.07382 -0.369094,0.03691 -0.406004,0 -0.406004,-0.03691 -0.369095,-0.03691 -0.369094,-0.110728 -0.295276,-0.147638 -0.258366,-0.147638 -0.184547,-0.221456 -0.110729,-0.221457 0.03691,-0.295276 z"
       inkscape:connector-curvature="0"
       id="path10"
       style="fill:#ffffff;fill-opacity:1;fill-rule:evenodd;stroke:none" />
    <path
       d="m 14.09941,23.252953 0.07382,-0.295275 0.03691,-0.295276 0.07382,-0.258366 0.03691,-0.258366 0.03691,-0.258366 0.07382,-0.184547 0,-0.221457 0.03691,-0.221457 0,-0.184547 0,-0.147638 -0.03691,-0.147638 -0.03691,-0.110728 -0.07382,-0.07382 -0.07382,-0.110728 -0.110729,-0.03691 -0.110728,-0.03691 -0.406004,0 -0.553642,0 -0.701279,0.03691 -0.70128,0.110729 -0.66437,0.03691 -0.553642,0.07382 -0.406004,0.03691 -0.110728,0.03691 0,-0.03691 0,-0.07382 0.03691,-0.184547 0.03691,-0.184547 0.07382,-0.221457 0.03691,-0.295275 0.03691,-0.295276 0.07382,-0.295276 0.03691,-0.332185 0.03691,-0.332185 0,-0.332185 0.03691,-0.332185 -0.03691,-0.295275 0,-0.295276 -0.03691,-0.221457 -0.07382,-0.221456 -0.147638,-0.258366 -0.2214563,-0.147638 -0.2952756,-0.07382 -0.3321851,0 -0.3690945,0.03691 L 8.4153546,16.461615 7.9355317,16.572343 7.4187994,16.719981 7.1973427,16.75689 6.975886,16.719981 6.7913388,16.572343 6.643701,16.350886 6.5329726,16.09252 6.4222443,15.797245 l -0.03691,-0.332186 -0.036909,-0.369094 -0.03691,-0.369095 0,-0.369094 0.03691,-0.369095 0.036909,-0.332185 0.073819,-0.295275 0.073819,-0.221457 0.073819,-0.184547 0.1107284,-0.110728 0.3690945,-0.147638 0.3690945,0 0.4429134,0.03691 0.4060039,0.110729 0.4429134,0.147637 0.4429134,0.07382 0.3690945,0.03691 0.3690945,-0.03691 0.110728,-0.110728 0.147638,-0.147638 0.07382,-0.221457 0.03691,-0.258366 0.03691,-0.332185 0,-0.332185 -0.03691,-0.332185 0,-0.332185 -0.03691,-0.369094 -0.03691,-0.332185 -0.03691,-0.295276 -0.07382,-0.2583662 -0.03691,-0.2583662 -0.03691,-0.1845472 0,-0.1107284 -0.03691,-0.036909 0.147638,0.036909 0.369094,0.073819 0.516733,0.073819 0.590551,0.073819 0.66437,0.073819 0.62746,0 0.553642,0 0.369095,-0.1107283 0.147637,-0.073819 0.110729,-0.073819 0.07382,-0.03691 0.07382,-0.073819 0,-0.073819 0.03691,-0.073819 0,-0.073819 L 14.247048,8.7844491 14.210138,8.6368113 14.173229,8.5260829 14.09941,8.3415357 14.0625,8.120079 13.988681,7.8986223 13.914863,7.6402561 13.877953,7.3449805 13.804134,6.975886 13.767225,6.643701 13.841044,6.3484254 13.988681,6.0900592 14.173229,5.905512 14.431595,5.7209647 14.72687,5.6102364 15.022146,5.499508 l 0.369095,-0.036909 0.332185,-0.03691 0.369094,0 0.369095,0.03691 0.332185,0.073819 0.295275,0.073819 0.295276,0.1107283 0.221457,0.1476378 0.184547,0.1476378 0.110728,0.1845473 0.07382,0.1845472 0.03691,0.1845473 0,0.2214567 -0.03691,0.1845472 -0.03691,0.2214567 -0.03691,0.2214567 -0.07382,0.2214567 -0.07382,0.2214567 -0.07382,0.1845473 -0.03691,0.2214567 -0.03691,0.1845472 0,0.2214567 0.03691,0.1845473 0.03691,0.1476378 0.110729,0.1476378 0.332185,0.2214567 0.479823,0.073819 0.590551,-0.03691 0.590551,-0.073819 0.590551,-0.1107283 0.516733,-0.1476378 0.332185,-0.1107284 0.110728,-0.036909 0,0.036909 0,0 0.03691,0.073819 0,0.073819 0.03691,0.073819 0.03691,0.1107284 0,0.1107283 0.03691,0.1476378 0.03691,0.1476378 0.03691,0.1476378 0.03691,0.1476379 0.03691,0.147638 0.03691,0.184547 0.03691,0.184547 0.03691,0.184547 0.03691,0.184548 0,0.184547 0.03691,0.184547 0.03691,0.147638 0,0.184547 0.03691,0.184548 0,0.147637 0,0.147638 0,0.184547 0,0.147638 -0.03691,0.110728 0,0.147638 -0.03691,0.110729 -0.03691,0.110728 -0.03691,0.110728 -0.03691,0.07382 -0.03691,0.07382 -0.147638,0.147638 -0.147638,0.07382 -0.184547,0 -0.184547,0 -0.221457,-0.03691 -0.221456,-0.03691 -0.258367,-0.07382 -0.258366,-0.07382 -0.258366,-0.07382 -0.258366,-0.03691 -0.295276,-0.07382 -0.295275,-0.03691 -0.295276,0 -0.295275,0.03691 -0.295276,0.03691 -0.258366,0.110729 -0.258366,0.147637 -0.221457,0.184548 -0.184547,0.221456 -0.147638,0.258367 -0.07382,0.258366 -0.07382,0.258366 -0.03691,0.295275 0,0.295276 0.03691,0.258366 0.03691,0.295276 0.07382,0.258366 0.110729,0.258366 0.110728,0.221457 0.147638,0.184547 0.147638,0.147638 0.147638,0.147638 0.479822,0.184547 0.553642,0.03691 0.590551,-0.03691 0.553642,-0.110728 0.590551,-0.147638 0.516733,-0.147638 0.442913,-0.110728 0.332185,-0.03691 0.110728,0.03691 0.110729,0.147637 0.03691,0.221457 0.03691,0.295276 0,0.332185 0,0.369094 -0.03691,0.442914 -0.03691,0.406004 -0.03691,0.442913 -0.07382,0.406004 -0.03691,0.369094 -0.07382,0.369095 -0.03691,0.295276 -0.03691,0.184547 -0.03691,0.184547 0,0.03691 -0.147638,0 -0.369095,-0.03691 -0.516732,-0.07382 -0.627461,-0.07382 -0.66437,-0.03691 -0.62746,-0.07382 -0.553642,-0.03691 -0.369095,0 -0.110728,0.03691 -0.110728,0.03691 -0.07382,0.07382 -0.07382,0.110729 -0.03691,0.110728 0,0.147638 0,0.184547 0.03691,0.184547 0.03691,0.221457 0.03691,0.184547 0.07382,0.258366 0.07382,0.221457 0.07382,0.258366 0.07382,0.258366 0.110729,0.258367 0.110728,0.258366 0.03691,0.258366 -0.07382,0.221456 -0.147638,0.184548 -0.258366,0.147638 -0.258366,0.110728 -0.369095,0.07382 -0.369094,0.03691 -0.406004,0 -0.406004,-0.03691 -0.369095,-0.03691 -0.369094,-0.110728 -0.295276,-0.147638 -0.258366,-0.147638 -0.184547,-0.221456 -0.110729,-0.221457 0.03691,-0.295276 z"
       inkscape:connector-curvature="0"
       id="path12"
       style="fill:none;stroke:#ffffff;stroke-width:0.77509844px;stroke-linecap:round;stroke-linejoin:round;stroke-opacity:1;stroke-dasharray:none" />
    <path
       d="M 27.571359,4.5398623 26.279528,5.8686025"
       inkscape:connector-curvature="0"
       id="path14"
       style="fill:none;stroke:#ffffff;stroke-width:0.77509844px;stroke-linecap:round;stroke-linejoin:round;stroke-opacity:1;stroke-dasharray:none" />
    <path
       d="m 27.977363,6.8651577 -4.096949,1.3656496 1.36565,-4.0600395 2.731299,2.6943899 z"
       inkscape:connector-curvature="0"
       id="path16"
       style="fill:#ffffff;fill-opacity:1;fill-rule:evenodd;stroke:none" />
  </g>
</svg>
