<?xml version="1.0" encoding="UTF-8" standalone="no"?>
<!-- Created with Inkscape (http://www.inkscape.org/) -->

<svg
   xmlns:dc="http://purl.org/dc/elements/1.1/"
   xmlns:cc="http://creativecommons.org/ns#"
   xmlns:rdf="http://www.w3.org/1999/02/22-rdf-syntax-ns#"
   xmlns:svg="http://www.w3.org/2000/svg"
   xmlns="http://www.w3.org/2000/svg"
   xmlns:inkscape="http://www.inkscape.org/namespaces/inkscape"
   version="1.0"
   width="5mm"
   height="7.1999998mm"
   id="svg2">
  <metadata
     id="metadata12">
    <rdf:RDF>
      <cc:Work
         rdf:about="">
        <dc:format>image/svg+xml</dc:format>
        <dc:type
           rdf:resource="http://purl.org/dc/dcmitype/StillImage" />
      </cc:Work>
    </rdf:RDF>
  </metadata>
  <defs
     id="defs4" />
  <g
     id="g6">
    <path
       d="m 8.9689963,19.008367 0.073819,-0.295276 0.073819,-0.258366 0.03691,-0.295276 0.036909,-0.258366 0.073819,-0.221457 0.03691,-0.221456 0.036909,-0.221457 0,-0.184547 0,-0.184547 0,-0.147638 -0.036909,-0.147638 -0.03691,-0.110728 -0.073819,-0.110729 -0.073819,-0.07382 -0.073819,-0.07382 -0.1476378,0 -0.4060039,-0.03691 -0.5536418,0.03691 -0.6643701,0.03691 -0.7012795,0.07382 -0.6643701,0.07382 -0.5905512,0.03691 -0.3690945,0.07382 -0.1476378,0 0,0 0.036909,-0.110728 0.036909,-0.147638 0.036909,-0.221457 0.036909,-0.221456 0.036909,-0.258367 0.073819,-0.295275 0.036909,-0.332185 0.036909,-0.332185 0.036909,-0.332185 0.036909,-0.332185 0,-0.295276 0,-0.332185 L 5.167323,13.029036 5.1304135,12.77067 5.0565946,12.549213 4.9089568,12.290847 4.6875001,12.143209 4.429134,12.06939 l -0.3321851,0 -0.3690945,0.03691 -0.4429134,0.110728 -0.4798228,0.110728 -0.4798229,0.184547 -0.2583661,0 -0.2214567,-0.03691 -0.1845473,-0.147638 -0.1476378,-0.184547 -0.1107283,-0.258366 -0.073819,-0.332185 -0.073819,-0.332185 -0.036909,-0.369095 -0.036909,-0.369094 0,-0.369095 0.036909,-0.3321848 0.073819,-0.3690945 0.036909,-0.2583661 0.073819,-0.2583662 0.1107283,-0.1845472 0.1107284,-0.1107284 0.332185,-0.1476378 0.406004,0 0.4060039,0.073819 0.4429134,0.1107284 0.4429134,0.1107283 0.406004,0.1107284 0.3690945,0.036909 0.3690945,-0.073819 0.1476378,-0.1107283 0.1107283,-0.1476378 0.073819,-0.2214567 0.036909,-0.2583662 0.036909,-0.2952756 0,-0.332185 0,-0.3321851 L 5.167323,6.7544293 5.1304135,6.4222443 5.0935041,6.0900592 5.0565946,5.7578742 5.0196852,5.499508 4.9827757,5.2780513 4.9458663,5.0935041 4.9089568,4.9827757 l 0,-0.036909 0.1107284,0 0.3690945,0.073819 0.5167323,0.073819 0.6274606,0.073819 0.6274607,0.073819 0.6274606,0.036909 0.5536418,-0.036909 0.4060039,-0.1107284 0.1107284,-0.036909 0.1107283,-0.073819 0.073819,-0.073819 0.073819,-0.073819 0.03691,-0.036909 0,-0.1107283 0,-0.073819 L 9.1166341,4.5398623 9.0797247,4.429134 9.0428152,4.2814962 9.0059058,4.0969489 8.9320869,3.9124017 8.858268,3.690945 8.8213585,3.3956694 8.7475396,3.1003938 8.6737207,2.7682087 l 0,-0.332185 0.03691,-0.2952756 L 8.858268,1.8823819 9.0428152,1.6609252 9.3011814,1.5132874 9.596457,1.3656496 l 0.332185,-0.073819 0.332185,-0.073819 0.369095,-0.036909 0.369094,0 0.332185,0.073819 0.332185,0.036909 0.332185,0.1107284 0.258366,0.1107283 0.221457,0.1107284 0.184547,0.1476378 0.110729,0.1845472 0.07382,0.1845473 0.03691,0.1845472 0,0.2214567 0,0.2214567 -0.07382,0.1845473 -0.03691,0.2214567 -0.07382,0.2214567 -0.03691,0.2214567 -0.07382,0.2214567 -0.07382,0.1845472 0,0.2214567 -0.03691,0.1845473 0.03691,0.1845472 0.03691,0.1845473 0.110728,0.1476378 0.332185,0.1845472 0.516733,0.073819 0.553641,0 0.627461,-0.1107283 0.590551,-0.1107284 0.479823,-0.1107283 0.332185,-0.1107284 0.110728,-0.036909 0,0 0.03691,0.036909 0,0.036909 0.03691,0.073819 0,0.073819 0.03691,0.1107283 0.03691,0.1107284 0.03691,0.1476378 0.03691,0.1476378 0,0.1476378 0.03691,0.1476378 0.03691,0.1845472 0.03691,0.1845473 0.03691,0.1845472 0.03691,0.1476378 0.03691,0.2214567 0.03691,0.1476378 0,0.1845473 0.03691,0.1845472 0,0.1476378 0.03691,0.1845473 0,0.1845472 0,0.1476378 0,0.1476378 0,0.1476378 0,0.1476378 -0.03691,0.1107284 0,0.1476378 -0.03691,0.1107283 -0.03691,0.073819 -0.03691,0.1107284 -0.07382,0.073819 -0.110729,0.1107283 -0.184547,0.073819 -0.184547,0.03691 -0.184548,-0.03691 -0.221456,0 -0.221457,-0.073819 -0.258366,-0.036909 -0.221457,-0.073819 -0.295275,-0.073819 -0.258367,-0.073819 -0.295275,-0.073819 -0.295276,-0.03691 -0.258366,0 -0.295276,0.03691 -0.295275,0.073819 -0.295276,0.1107283 -0.258366,0.1476378 -0.221457,0.1845473 -0.184547,0.1845472 -0.110728,0.2583662 -0.110728,0.2583661 -0.07382,0.258366 -0.03691,0.295276 0,0.295275 0.03691,0.295276 0.03691,0.258366 0.07382,0.258366 0.110728,0.258366 0.110729,0.221457 0.147637,0.184547 0.147638,0.184548 0.184547,0.110728 0.479823,0.184547 0.516733,0.07382 0.590551,-0.07382 0.590551,-0.110728 0.553642,-0.147638 0.516732,-0.147638 0.442913,-0.110728 0.332186,-0.03691 0.147637,0.03691 0.07382,0.147638 0.03691,0.221456 0.03691,0.295276 0,0.332185 0,0.406004 -0.03691,0.406004 -0.03691,0.442913 -0.03691,0.406004 -0.03691,0.406004 -0.07382,0.406004 -0.07382,0.332185 -0.03691,0.295276 -0.03691,0.221457 -0.03691,0.147637 0,0.03691 -0.110728,0 -0.369095,-0.03691 -0.553641,-0.07382 -0.627461,-0.03691 -0.66437,-0.07382 -0.627461,-0.03691 -0.516732,-0.03691 -0.406004,-0.03691 -0.110728,0.03691 -0.110729,0.03691 -0.07382,0.07382 -0.07382,0.110728 0,0.147638 -0.03691,0.110728 0,0.184547 0.03691,0.184548 0.03691,0.221456 0.07382,0.221457 0.03691,0.221457 0.07382,0.221456 0.07382,0.258366 0.110728,0.258367 0.07382,0.258366 0.110729,0.295275 0.03691,0.221457 -0.03691,0.221457 -0.184548,0.184547 -0.221456,0.147638 -0.295276,0.110728 -0.369094,0.07382 -0.369095,0.03691 -0.369094,0 -0.406004,0 -0.406004,-0.07382 -0.3321853,-0.110729 -0.3321851,-0.110728 -0.2583661,-0.184547 -0.1845473,-0.221457 -0.073819,-0.221457 0,-0.295275 z"
       inkscape:connector-curvature="0"
       id="path8"
       style="fill:none;stroke:#f2f2f2;stroke-width:1.1811024px;stroke-linecap:round;stroke-linejoin:round;stroke-opacity:1;stroke-dasharray:none" />
  </g>
</svg>
