<?xml version="1.0" encoding="UTF-8" standalone="no"?>
<!-- Created with Inkscape (http://www.inkscape.org/) -->

<svg
   xmlns:dc="http://purl.org/dc/elements/1.1/"
   xmlns:cc="http://creativecommons.org/ns#"
   xmlns:rdf="http://www.w3.org/1999/02/22-rdf-syntax-ns#"
   xmlns:svg="http://www.w3.org/2000/svg"
   xmlns="http://www.w3.org/2000/svg"
   xmlns:inkscape="http://www.inkscape.org/namespaces/inkscape"
   version="1.0"
   width="19.799999mm"
   height="10.2mm"
   id="svg2">
  <metadata
     id="metadata42">
    <rdf:RDF>
      <cc:Work
         rdf:about="">
        <dc:format>image/svg+xml</dc:format>
        <dc:type
           rdf:resource="http://purl.org/dc/dcmitype/StillImage" />
      </cc:Work>
    </rdf:RDF>
  </metadata>
  <defs
     id="defs4" />
  <g
     id="g6">
    <path
       d="m 5.5807088,34.768702 -0.132874,0 59.5275612,0 -0.08858,0 1.638779,-0.354331 -0.132874,0.08858 1.373032,-0.885827 -0.132874,0.132874 0.885827,-1.373032 -0.08858,0.132874 0.354331,-1.638779 0,0.08858 0,-25.5118122 0,0.132874 -0.354331,-1.6387796 0.08858,0.1328741 -0.885827,-1.3730316 0.132874,0.132874 -1.373032,-0.8858267 0.132874,0.088583 -1.638779,-0.3543307 0.08858,0 -59.5275612,0 0.132874,0 L 3.9419292,2.0374016 4.0748033,1.948819 2.7017717,2.8346457 2.8346457,2.7017717 1.948819,4.0748033 2.0374016,3.9419292 1.6830709,5.5807088 l 0,-0.132874 0,25.5118122 0,-0.08858 0.3543307,1.638779 -0.088583,-0.132874 0.8858267,1.373032 -0.132874,-0.132874 1.3730316,0.885827 -0.1328741,-0.08858 z m -1.8602363,0.575787 c -0.044291,0 -0.088583,-0.04429 -0.132874,-0.08858 L 2.214567,34.37008 c -0.088583,0 -0.132874,-0.04429 -0.132874,-0.132874 L 1.1958662,32.864174 C 1.1515748,32.819883 1.1072835,32.775591 1.1072835,32.7313 L 0.75295278,31.092521 c 0,-0.04429 0,-0.08858 0,-0.132874 l 0,-25.5118122 c 0,0 0,-0.044291 0,-0.088583 L 1.1072835,3.7204725 c 0,-0.044291 0.044291,-0.088583 0.088583,-0.132874 L 2.081693,2.214567 c 0,-0.088583 0.044291,-0.132874 0.132874,-0.132874 L 3.5875985,1.1958662 c 0.044291,-0.044291 0.088583,-0.088583 0.132874,-0.088583 L 5.3592521,0.75295278 c 0.044291,0 0.088583,0 0.088583,0 l 59.5275612,0 c 0.04429,0 0.08858,0 0.132874,0 l 1.638779,0.35433072 c 0.04429,0 0.08858,0.044291 0.132874,0.088583 l 1.373032,0.8858268 c 0.08858,0 0.132874,0.044291 0.132874,0.132874 l 0.885826,1.3730315 c 0.04429,0.044291 0.08858,0.088583 0.08858,0.132874 l 0.354331,1.6387796 c 0,0.044291 0,0.088583 0,0.088583 l 0,25.5118122 c 0,0.04429 0,0.08858 0,0.132874 L 69.360238,32.7313 c 0,0.04429 -0.04429,0.08858 -0.08858,0.132874 l -0.885826,1.373032 c 0,0.08858 -0.04429,0.132874 -0.132874,0.132874 l -1.373032,0.885826 c -0.04429,0.04429 -0.08858,0.08858 -0.132874,0.08858 L 65.10827,35.69882 c -0.04429,0 -0.08858,0 -0.132874,0 l -59.5275612,0 c 0,0 -0.044291,0 -0.088583,0 z"
       inkscape:connector-curvature="0"
       id="path8"
       style="fill:#ffffff;fill-opacity:1;fill-rule:nonzero;stroke:none" />
    <path
       d="m 26.707678,30.959647 12.755906,0 0,-12.755906 -12.755906,0 0,12.755906 z"
       inkscape:connector-curvature="0"
       id="path10"
       style="fill:none;stroke:#ffffff;stroke-width:1.41732287px;stroke-linecap:round;stroke-linejoin:round;stroke-opacity:1;stroke-dasharray:none" />
    <path
       d="m 26.707678,18.203741 4.251969,-4.783465"
       inkscape:connector-curvature="0"
       id="path12"
       style="fill:none;stroke:#ffffff;stroke-width:1.41732287px;stroke-linecap:round;stroke-linejoin:round;stroke-opacity:1;stroke-dasharray:none" />
    <path
       d="m 39.463584,18.203741 4.694882,-4.694882 -13.198819,-0.08858"
       inkscape:connector-curvature="0"
       id="path14"
       style="fill:none;stroke:#ffffff;stroke-width:1.41732287px;stroke-linecap:round;stroke-linejoin:round;stroke-opacity:1;stroke-dasharray:none" />
    <path
       d="m 39.463584,30.959647 5.226378,-5.226379 0,-11.781496"
       inkscape:connector-curvature="0"
       id="path16"
       style="fill:none;stroke:#ffffff;stroke-width:1.41732287px;stroke-linecap:round;stroke-linejoin:round;stroke-opacity:1;stroke-dasharray:none" />
    <path
       d="M 44.158466,13.508859 45.841537,9.6998034"
       inkscape:connector-curvature="0"
       id="path18"
       style="fill:none;stroke:#ffffff;stroke-width:0.93011814px;stroke-linecap:round;stroke-linejoin:round;stroke-opacity:1;stroke-dasharray:none" />
    <path
       d="m 30.959647,13.420276 0,-3.7204726"
       inkscape:connector-curvature="0"
       id="path20"
       style="fill:none;stroke:#ffffff;stroke-width:0.93011814px;stroke-linecap:round;stroke-linejoin:round;stroke-opacity:1;stroke-dasharray:none" />
    <path
       d="m 45.841537,9.6998034 -14.88189,0"
       inkscape:connector-curvature="0"
       id="path22"
       style="fill:none;stroke:#ffffff;stroke-width:1.41732287px;stroke-linecap:round;stroke-linejoin:round;stroke-opacity:1;stroke-dasharray:none" />
    <path
       d="M 26.707678,18.203741 22.455709,15.812008"
       inkscape:connector-curvature="0"
       id="path24"
       style="fill:none;stroke:#ffffff;stroke-width:1.41732287px;stroke-linecap:round;stroke-linejoin:round;stroke-opacity:1;stroke-dasharray:none" />
    <path
       d="M 30.959647,13.420276 28.833662,9.6998034 22.455709,15.812008"
       inkscape:connector-curvature="0"
       id="path26"
       style="fill:none;stroke:#ffffff;stroke-width:1.41732287px;stroke-linecap:round;stroke-linejoin:round;stroke-opacity:1;stroke-dasharray:none" />
    <path
       d="m 44.689962,13.951772 3.277559,-2.347441"
       inkscape:connector-curvature="0"
       id="path28"
       style="fill:none;stroke:#007ec2;stroke-width:0.93011814px;stroke-linecap:round;stroke-linejoin:round;stroke-opacity:1;stroke-dasharray:none" />
    <path
       d="m 39.463584,18.203741 2.037401,-2.037402 6.466536,-4.562008"
       inkscape:connector-curvature="0"
       id="path30"
       style="fill:none;stroke:#ffffff;stroke-width:1.41732287px;stroke-linecap:round;stroke-linejoin:round;stroke-opacity:1;stroke-dasharray:none" />
    <path
       d="m 30.605316,15.014764 -0.708662,-0.708661 5.049213,0 -0.708661,0.708661 0,-3.720472 0.708661,0.708661 -5.049213,0 0.708662,-0.708661 z m -1.417323,-3.720472 c 0,-0.398622 0.310039,-0.708662 0.708661,-0.708662 l 5.049213,0 c 0.398622,0 0.708662,0.31004 0.708662,0.708662 l 0,3.720472 c 0,0.398622 -0.31004,0.708662 -0.708662,0.708662 l -5.049213,0 c -0.398622,0 -0.708661,-0.31004 -0.708661,-0.708662 z"
       inkscape:connector-curvature="0"
       id="path32"
       style="fill:#ffffff;fill-opacity:1;fill-rule:nonzero;stroke:none" />
    <path
       d="m 37.780513,16.609252 -0.708662,-0.708661 2.391733,0 -0.708662,0.708661 0,-3.188976 0.708662,0.708661 -2.391733,0 0.708662,-0.708661 z M 36.36319,13.420276 c 0,-0.398622 0.310039,-0.708661 0.708661,-0.708661 l 2.391733,0 c 0.398622,0 0.708661,0.310039 0.708661,0.708661 l 0,3.188976 c 0,0.398622 -0.310039,0.708662 -0.708661,0.708662 l -2.391733,0 c -0.398622,0 -0.708661,-0.31004 -0.708661,-0.708662 z"
       inkscape:connector-curvature="0"
       id="path34"
       style="fill:#ffffff;fill-opacity:1;fill-rule:nonzero;stroke:none" />
    <path
       d="m 31.358269,15.590552 0,0.487204 -0.177166,-0.487204 0.221457,0.310039 -0.531496,-0.442913 0.310039,0.132874 -1.683071,-0.398622 0.31004,0 -1.683071,0.398622 0.310039,-0.132874 -0.531496,0.442913 0.221457,-0.310039 -0.177166,0.487204 0,-0.487204 0.177166,0.531496 -0.265748,-0.31004 0.531496,0.398622 -0.265748,-0.132874 1.683071,0.398622 -0.31004,0 1.683071,-0.398622 -0.265748,0.132874 0.531496,-0.398622 -0.265748,0.31004 z m 1.195866,1.0187 c -0.04429,0.132874 -0.132874,0.221457 -0.265748,0.31004 l -0.531496,0.398622 c -0.08858,0.08858 -0.177166,0.132874 -0.265748,0.132874 l -1.683071,0.398622 c -0.08858,0.04429 -0.221457,0.04429 -0.31004,0 l -1.683071,-0.398622 c -0.08858,0 -0.177165,-0.04429 -0.265748,-0.132874 l -0.531496,-0.398622 c -0.132874,-0.08858 -0.221456,-0.177166 -0.265748,-0.31004 l -0.177165,-0.531496 c -0.04429,-0.177165 -0.04429,-0.35433 0,-0.487204 l 0.177165,-0.487205 c 0.04429,-0.132874 0.132874,-0.221457 0.221457,-0.31004 l 0.531496,-0.442913 c 0.08858,-0.04429 0.177165,-0.132874 0.310039,-0.132874 l 1.683071,-0.398622 c 0.08858,-0.04429 0.221457,-0.04429 0.31004,0 l 1.683071,0.398622 c 0.132874,0 0.221456,0.08858 0.310039,0.132874 l 0.531496,0.442913 c 0.08858,0.08858 0.177165,0.177166 0.221457,0.31004 l 0.177165,0.487205 c 0.04429,0.132874 0.04429,0.310039 0,0.487204 z"
       inkscape:connector-curvature="0"
       id="path36"
       style="fill:#ffffff;fill-opacity:1;fill-rule:nonzero;stroke:none" />
    <path
       d="m 34.857284,16.786418 0,0.487205 -0.265748,-0.664371 0.398622,0.398622 -0.66437,-0.265748 0.487205,0 -0.66437,0.265748 0.398622,-0.398622 -0.265748,0.664371 0,-0.487205 0.265748,0.66437 -0.398622,-0.398622 0.66437,0.265748 -0.487205,0 0.66437,-0.265748 -0.398622,0.398622 z m 1.018701,1.151575 c -0.04429,0.177165 -0.221456,0.35433 -0.398622,0.398622 l -0.66437,0.265748 c -0.132874,0.08858 -0.354331,0.08858 -0.487205,0 l -0.66437,-0.265748 c -0.221456,-0.04429 -0.35433,-0.221457 -0.398622,-0.398622 l -0.265748,-0.66437 c -0.08858,-0.132874 -0.08858,-0.354331 0,-0.487205 l 0.265748,-0.66437 c 0.04429,-0.221457 0.177166,-0.354331 0.398622,-0.398622 l 0.66437,-0.265748 c 0.132874,-0.08858 0.354331,-0.08858 0.487205,0 l 0.66437,0.265748 c 0.177166,0.04429 0.354331,0.177165 0.398622,0.398622 l 0.265748,0.66437 c 0.08858,0.132874 0.08858,0.354331 0,0.487205 z"
       inkscape:connector-curvature="0"
       id="path38"
       style="fill:#ffffff;fill-opacity:1;fill-rule:nonzero;stroke:none" />
  </g>
</svg>
