<?xml version="1.0" encoding="UTF-8" standalone="no"?>
<!-- Created with Inkscape (http://www.inkscape.org/) -->

<svg
   xmlns:dc="http://purl.org/dc/elements/1.1/"
   xmlns:cc="http://creativecommons.org/ns#"
   xmlns:rdf="http://www.w3.org/1999/02/22-rdf-syntax-ns#"
   xmlns:svg="http://www.w3.org/2000/svg"
   xmlns="http://www.w3.org/2000/svg"
   xmlns:inkscape="http://www.inkscape.org/namespaces/inkscape"
   version="1.0"
   width="4.6700001mm"
   height="5.4000001mm"
   id="svg2">
  <metadata
     id="metadata14">
    <rdf:RDF>
      <cc:Work
         rdf:about="">
        <dc:format>image/svg+xml</dc:format>
        <dc:type
           rdf:resource="http://purl.org/dc/dcmitype/StillImage" />
      </cc:Work>
    </rdf:RDF>
  </metadata>
  <defs
     id="defs4" />
  <g
     id="g6">
    <path
       d="M 4.6875001,4.02313 4.8351379,3.7647639 C 4.8720474,3.690945 4.9089568,3.6171261 4.9458663,3.5433072 l 0,-0.073819 c 0,0 0.036909,-0.03691 0.036909,-0.03691 l 0,-0.073819 c 0.036909,-0.073819 0.036909,-0.1476378 0.073819,-0.2214567 l 0,0 c 0,-0.036909 0,-0.1107283 0,-0.1845472 l 0,0 c 0,-0.073819 0,-0.1476378 0,-0.1845473 0,-0.073819 0,-0.1476378 -0.036909,-0.1845472 l 0,-0.036909 c 0,-0.036909 0,-0.1107283 -0.036909,-0.1476378 0,-0.073819 -0.036909,-0.1107283 -0.036909,-0.1476378 C 4.9089568,2.1776575 4.8720474,2.1038386 4.8351379,2.0669292 l -0.036909,-0.03691 c 0,-0.036909 -0.036909,-0.073819 -0.036909,-0.073819 L 4.7244096,1.9192914 C 4.6875001,1.8823819 4.6505907,1.8454725 4.6136812,1.808563 l 0,0 C 4.5767718,1.7716536 4.5029529,1.7347441 4.4660434,1.6978347 l 0,0 C 4.3922245,1.6609252 4.3553151,1.6609252 4.3184056,1.6240158 l -0.036909,0 C 4.2445867,1.5871063 4.1707678,1.5871063 4.1338584,1.5501969 l 0,0 c -0.073819,0 -0.1107284,-0.036909 -0.1845473,-0.036909 -0.036909,0 -0.1107283,0 -0.1476378,0 l -0.036909,0 c -0.073819,0 -0.1476378,0 -0.2214567,0 -0.03691,0.036909 -0.03691,0.036909 -0.03691,0.073819 0,0.036909 0,0.036909 0,0.036909 L 4.4660434,2.546752 c 0,0 0,0 0,0.036909 0,0 0,0.036909 -0.036909,0.036909 l -0.03691,0.1107284 C 4.3553151,2.8420276 4.3184056,2.952756 4.2814962,3.0265749 l 0,0 C 4.2445867,3.1373032 4.2076773,3.2111221 4.1338584,3.284941 l 0,0.03691 C 4.0600395,3.3956694 4.02313,3.4694883 3.9493111,3.5802166 3.8754922,3.6540355 3.8385828,3.7278544 3.7647639,3.8016733 l -0.03691,0 C 3.6540355,3.8754922 3.5802166,3.9493111 3.5063977,4.02313 3.4325788,4.0969489 3.3587599,4.1338584 3.284941,4.2076773 l -0.036909,0 C 3.1742127,4.2445867 3.1003938,4.3184056 2.9896654,4.3553151 2.8789371,4.3922245 2.8051182,4.429134 2.6943898,4.4660434 2.6205709,4.5029529 2.5098426,4.5029529 2.4360237,4.429134 L 1.5871063,3.6171261 c -0.036909,-0.03691 -0.036909,-0.03691 -0.073819,0 0,0 0,0 0,0.036909 -0.036909,0.073819 -0.036909,0.1107284 -0.036909,0.1845473 l 0,0.036909 c 0.036909,0.073819 0.036909,0.1107284 0.036909,0.1845473 0.036909,0.036909 0.036909,0.1107283 0.036909,0.1476378 l 0,0 c 0.036909,0.073819 0.073819,0.1107283 0.073819,0.1845472 0.036909,0.03691 0.073819,0.1107284 0.1107283,0.1476378 l 0,0 c 0.03691,0.03691 0.073819,0.1107284 0.073819,0.1476378 0.03691,0.03691 0.1107284,0.073819 0.1476378,0.1107284 0.036909,0.036909 0.073819,0.073819 0.1476378,0.1107283 l 0,0 c 0.03691,0.036909 0.1107284,0.073819 0.1476378,0.073819 l 0,0 c 0.073819,0.036909 0.1107284,0.036909 0.1845473,0.073819 0.036909,0 0.1107283,0 0.1476378,0.036909 l 0.036909,0 c 0.036909,0 0.1107284,0 0.1845473,0 0.036909,0 0.1107283,0 0.1845472,0 l 0,0 c 0.073819,0 0.1476378,0 0.1845473,-0.036909 0.073819,0 0.1476378,0 0.2214567,-0.036909 l 0.073819,-0.036909 c 0,0 0.036909,0 0.073819,-0.036909 l 0.036909,0 c 0.073819,-0.036909 0.1476378,-0.073819 0.1845473,-0.1107284 l 0.073819,-0.036909 c 0.036909,0 0.036909,0 0.073819,-0.036909 0.036909,0 0.073819,0 0.1107283,0.036909 0,0 0,0.036909 0,0.036909 L 3.8754922,5.7209647 c 0,0.073819 -0.036909,0.1107284 -0.073819,0.1107284 l -0.036909,0.036909 c -0.03691,0 -0.03691,0 -0.073819,0 L 3.5802166,5.905512 C 3.4694883,5.9424214 3.3956694,5.9424214 3.284941,5.9793309 l 0,0 c -0.1107283,0 -0.2214567,0 -0.332185,0.036909 l 0,0 c -0.073819,0 -0.1845473,0 -0.2952756,-0.036909 l 0,0 c -0.073819,0 -0.1845473,0 -0.2583662,-0.03691 l 0,0 c -0.1107283,0 -0.1845472,-0.036909 -0.2952756,-0.036909 l 0,0 C 2.0300197,5.8686025 1.9192914,5.8316931 1.8454725,5.7947836 l 0,0 C 1.7716536,5.7578742 1.6978347,5.7209647 1.6240158,5.6471458 1.5132874,5.6102364 1.4394685,5.5364175 1.3656496,5.499508 l 0,0 C 1.2918307,5.4256891 1.2549213,5.3518702 1.1811024,5.2780513 1.1072835,5.2411419 1.070374,5.167323 0.99655515,5.0935041 0.9596457,5.0196852 0.92273625,4.9089568 0.84891735,4.8351379 l 0,0 C 0.8120079,4.761319 0.77509845,4.6505907 0.738189,4.5767718 0.70127955,4.5029529 0.70127955,4.3922245 0.6643701,4.3184056 l 0,0 C 0.62746065,4.2076773 0.62746065,4.1338584 0.62746065,4.02313 l 0,-0.036909 c 0,-0.073819 -0.0369094,-0.1476378 -0.0369094,-0.2583662 l 0,0 c 0,-0.1107283 0.0369094,-0.2214567 0.0369094,-0.2952756 l 0,-0.036909 c 0,-0.073819 0.0369095,-0.1476378 0.0369095,-0.2583662 l 0,-0.036909 C 0.70127955,3.0265749 0.738189,2.9158465 0.738189,2.8051182 0.77509845,2.7312993 0.8120079,2.6205709 0.8858268,2.5098426 l 0,0 C 0.92273625,2.3991142 0.9596457,2.3252953 0.99655515,2.2514764 l 0.0369095,-0.073819 c 0.036909,-0.073819 0.073819,-0.1107283 0.1107283,-0.1476378 0.03691,-0.036909 0.073819,-0.036909 0.1107284,0 0,0 0,0 0.036909,0 l 1.3656497,1.3287402 c 0.073819,0.073819 0.1476378,0.073819 0.2214567,0 0.073819,-0.036909 0.1476378,-0.1107283 0.1845472,-0.1476378 l 0.03691,-0.036909 c 0.073819,-0.073819 0.1476378,-0.1476378 0.1845472,-0.2583662 0.073819,-0.073819 0.073819,-0.1845472 0,-0.2214567 L 1.9192914,1.3656496 c -0.03691,-0.036909 -0.03691,-0.1107283 0,-0.1476378 0,0 0,0 0,0 0.036909,-0.036909 0.1107283,-0.073819 0.1845472,-0.1107283 l 0.073819,-0.03691 C 2.2514764,0.99655515 2.3252953,0.9596457 2.3991142,0.92273625 l 0.036909,0 C 2.5098426,0.8858268 2.6205709,0.8120079 2.6943898,0.77509845 l 0,0 C 2.8051182,0.738189 2.9158465,0.738189 3.0265749,0.70127955 l 0.036909,0 C 3.1373032,0.6643701 3.1742127,0.6643701 3.2480316,0.6643701 l 0.073819,-0.0369095 c 0.073819,0 0.1845472,0 0.2952756,-0.0369094 l 0.036909,0 c 0.073819,0 0.1476378,0 0.1845473,0.0369094 l 0.073819,0 c 0.1107283,0 0.1845472,0 0.2952756,0 l 0,0.0369095 c 0.073819,0 0.1845472,0.0369095 0.2583661,0.0369095 0.1107284,0.0369095 0.1845473,0.0738189 0.2583662,0.11072835 l 0.036909,0 c 0.073819,0.0369095 0.1476378,0.11072835 0.2214567,0.1476378 l 0,0 c 0.073819,0.0369094 0.1476378,0.1107283 0.2214567,0.1476378 0.073819,0.073819 0.1476378,0.1476378 0.1845473,0.2214567 l 0.036909,0 c 0.03691,0.073819 0.1107284,0.1476378 0.1476378,0.2214567 0.073819,0.073819 0.1107284,0.1476378 0.1476378,0.2214567 0.03691,0.073819 0.073819,0.1845472 0.1107284,0.2583661 l 0,0 c 0.036909,0.1107284 0.036909,0.1845473 0.073819,0.2952756 0.036909,0.073819 0.036909,0.1845473 0.036909,0.2583662 l 0,0.036909 c 0.03691,0.073819 0.03691,0.1845473 0.03691,0.2583662 0,0.1107283 0,0.2214567 -0.03691,0.332185 l 0,0 c 0,0.1107284 -0.036909,0.1845473 -0.036909,0.2952756 l -0.03691,0.1107284 c 0,0.036909 0,0.036909 -0.036909,0.073819 0,0.073819 -0.073819,0.1107283 -0.1476378,0.1476378 L 4.6875001,4.02313 z"
       inkscape:connector-curvature="0"
       id="path8"
       style="fill:#f2f2f2;fill-opacity:1;fill-rule:evenodd;stroke:none" />
    <path
       d="m 4.7244096,3.9862206 7.7878934,7.5295274 c 0.03691,0.03691 0.07382,0.07382 0.147638,0.03691 0.03691,-0.03691 0.110729,-0.07382 0.184548,-0.110729 l 0,0 c 0.07382,-0.03691 0.110728,-0.07382 0.147637,-0.07382 l 0.03691,0 c 0.07382,-0.03691 0.147638,-0.07382 0.184547,-0.07382 l 0.03691,-0.03691 c 0.03691,0 0.110729,0 0.184548,-0.03691 l 0,0 c 0.07382,0 0.110728,0 0.184547,-0.03691 l 0,0 c 0.07382,0 0.147638,0 0.184547,0 0.07382,0 0.147638,0.03691 0.221457,0.03691 l 0,0 c 0.03691,0 0.110728,0 0.147638,0.03691 l 0,0 c 0.07382,0 0.110728,0.03691 0.184547,0.03691 0.03691,0.03691 0.110728,0.07382 0.147638,0.07382 l 0.07382,0.07382 c 0,0 0.03691,0 0.03691,0 l 0.03691,0.03691 c 0.07382,0.03691 0.110728,0.07382 0.147637,0.110728 l 0,0 c 0.03691,0.07382 0.03691,0.110729 0.07382,0.147638 l 0,0 c 0.03691,0.07382 0.07382,0.110728 0.110729,0.184547 l 0,0 c 0,0.03691 0.03691,0.110729 0.07382,0.147638 l 0,0 c 0,0.07382 0.03691,0.110728 0.03691,0.184547 0,0.03691 0.03691,0.110729 0.03691,0.184548 0,0.07382 -0.03691,0.147637 -0.03691,0.184547 0,0.03691 -0.03691,0.07382 -0.07382,0.07382 -0.03691,0 -0.03691,0 -0.03691,0 L 14.0625,11.811024 c 0,-0.03691 -0.03691,-0.03691 -0.03691,-0.03691 -0.03691,0 -0.03691,0 -0.03691,0.03691 l -0.147637,0.03691 c -0.07382,0.03691 -0.184548,0.07382 -0.258366,0.110729 l 0,0 c -0.110729,0.07382 -0.184548,0.110728 -0.295276,0.184547 l 0,0 c -0.07382,0.03691 -0.147638,0.110728 -0.258366,0.184547 -0.07382,0.07382 -0.147638,0.147638 -0.221457,0.221457 l 0,0 c -0.07382,0.07382 -0.147638,0.147638 -0.184547,0.221457 -0.07382,0.07382 -0.147638,0.184547 -0.184547,0.258366 l 0,0 c -0.07382,0.110728 -0.110729,0.184547 -0.147638,0.295275 -0.03691,0.07382 -0.07382,0.184548 -0.110729,0.295276 -0.03691,0.07382 0,0.184547 0.07382,0.258366 l 0.812008,0.812008 c 0.03691,0 0.03691,0.03691 0,0.07382 0,0 0,0 0,0 l -0.03691,0 c -0.03691,0 -0.110729,0.03691 -0.184547,0.03691 l 0,0 c -0.07382,0 -0.147638,0 -0.184548,-0.03691 l 0,0 c -0.07382,0 -0.110728,-0.03691 -0.184547,-0.03691 -0.03691,0 -0.110728,-0.03691 -0.147638,-0.07382 -0.07382,0 -0.110728,-0.03691 -0.184547,-0.07382 l 0,0 c -0.03691,-0.03691 -0.110728,-0.07382 -0.147638,-0.110729 l 0,0 c -0.03691,0 -0.07382,-0.03691 -0.110728,-0.110728 -0.03691,-0.03691 -0.07382,-0.07382 -0.110728,-0.110728 l 0,-0.03691 c -0.03691,-0.03691 -0.07382,-0.110728 -0.07382,-0.147638 -0.03691,-0.03691 -0.07382,-0.110728 -0.07382,-0.147637 l 0,0 c -0.03691,-0.07382 -0.03691,-0.110729 -0.03691,-0.184548 l 0,0 c 0,-0.07382 -0.03691,-0.110728 -0.03691,-0.184547 0,-0.07382 0,-0.147638 0,-0.184547 l 0,0 c 0,-0.07382 0,-0.147638 0.03691,-0.221457 0,-0.07382 0,-0.110728 0.03691,-0.184547 l 0,-0.03691 c 0,-0.03691 0.03691,-0.110728 0.07382,-0.184547 0,-0.07382 0.03691,-0.110728 0.07382,-0.184547 l 0,-0.03691 c 0.03691,-0.03691 0.07382,-0.110728 0.07382,-0.147637 0.03691,-0.07382 0.03691,-0.110729 0,-0.147638 L 4.3922245,5.0196852 c -0.1845472,-0.1845473 -0.4798228,-0.1845473 -0.6274606,0 0,0 -0.03691,0 -0.03691,0 -0.1476378,0.2214567 -0.1476378,0.5167323 0.03691,0.7012795 L 10.74065,12.438485 c 0.03691,0.03691 0.07382,0.07382 0.03691,0.110728 0,0.07382 -0.03691,0.110728 -0.03691,0.147638 l 0,0.110728 c -0.03691,0.07382 -0.03691,0.184547 -0.07382,0.258366 l 0,0 c 0,0.110729 0,0.221457 0,0.332185 l 0,0 c 0,0.110729 0,0.184548 0,0.295276 l 0,0 c 0,0.110728 0.03691,0.184547 0.03691,0.295275 0.03691,0.07382 0.03691,0.147638 0.07382,0.258367 l 0,0 c 0.03691,0.07382 0.07382,0.184547 0.110729,0.258366 l 0,0 c 0.07382,0.07382 0.110728,0.147638 0.147638,0.258366 l 0,0 c 0.07382,0.07382 0.110728,0.147638 0.184547,0.184547 0.07382,0.07382 0.110728,0.147638 0.184547,0.221457 0.07382,0.03691 0.147638,0.110728 0.221457,0.147638 l 0,0 c 0.07382,0.03691 0.184547,0.110728 0.258366,0.147637 l 0,0 c 0.07382,0.03691 0.147638,0.07382 0.221457,0.07382 l 0.03691,0.03691 c 0.07382,0 0.184547,0.03691 0.258366,0.07382 0.110728,0 0.184547,0 0.295276,0.03691 l 0.03691,0 c 0.07382,0 0.184547,0 0.295276,0 l 0,0 c 0.07382,-0.03691 0.184547,-0.03691 0.258366,-0.03691 l 0.03691,0 c 0.07382,-0.03691 0.184548,-0.03691 0.295276,-0.07382 0.07382,0 0.184547,-0.03691 0.295276,-0.07382 l 0,0 c 0.07382,-0.03691 0.184547,-0.07382 0.295275,-0.147638 0.07382,-0.03691 0.184547,-0.07382 0.258366,-0.147638 l 0.07382,-0.03691 c 0.03691,-0.03691 0.07382,-0.07382 0.147638,-0.110728 0.03691,0 0.03691,-0.07382 0,-0.110729 0,0 0,0 0,0 l -1.402559,-1.32874 c -0.03691,-0.07382 -0.07382,-0.147638 0,-0.221457 0.03691,-0.07382 0.110728,-0.147638 0.147638,-0.221456 l 0.03691,0 c 0.07382,-0.07382 0.147638,-0.147638 0.221457,-0.221457 0.07382,-0.07382 0.184547,-0.07382 0.258366,0 l 1.36565,1.32874 c 0.03691,0.03691 0.110728,0.03691 0.147637,0 0,0 0,0 0,0 l 0.03691,-0.03691 c 0,-0.03691 0.03691,-0.07382 0.03691,-0.110729 l 0.07382,-0.110728 c 0.03691,-0.07382 0.07382,-0.184547 0.147638,-0.258366 l 0,0 c 0.03691,-0.110729 0.07382,-0.184547 0.110728,-0.295276 l 0,0 c 0.03691,-0.110728 0.03691,-0.221457 0.07382,-0.295275 0.03691,-0.110729 0.03691,-0.221457 0.03691,-0.295276 l 0,-0.03691 c 0.03691,-0.07382 0.03691,-0.184548 0.03691,-0.295276 0,-0.07382 0,-0.184547 0,-0.258366 l -0.03691,-0.03691 c 0,-0.110728 0,-0.184547 -0.03691,-0.295275 0,-0.07382 -0.03691,-0.184547 -0.07382,-0.258366 l 0,0 c -0.03691,-0.110729 -0.07382,-0.184548 -0.110728,-0.258367 l 0,0 c -0.03691,-0.07382 -0.07382,-0.184547 -0.147638,-0.258366 l 0,0 c -0.03691,-0.07382 -0.110728,-0.147637 -0.184547,-0.184547 -0.03691,-0.07382 -0.110728,-0.147638 -0.184547,-0.221457 -0.07382,-0.03691 -0.147638,-0.110728 -0.221457,-0.147637 l 0,0 c -0.07382,-0.03691 -0.147638,-0.110729 -0.258366,-0.147638 -0.07382,-0.03691 -0.147638,-0.07382 -0.258366,-0.07382 l 0,0 c -0.07382,-0.03691 -0.184547,-0.07382 -0.258366,-0.07382 -0.110729,-0.03691 -0.184548,-0.03691 -0.295276,-0.03691 l -0.03691,0 c -0.07382,0 -0.147638,0 -0.184548,0 l -0.07382,0 c -0.110728,0 -0.221456,0 -0.295275,0 l -0.07382,0.03691 c -0.07382,0 -0.110728,0 -0.184547,0.03691 l -0.147638,0.03691 c -0.03691,0 -0.07382,0.03691 -0.110728,0.03691 -0.07382,0.03691 -0.110729,0 -0.147638,-0.03691 L 5.7578742,3.690945 C 5.5364175,3.5063977 5.2411419,3.5063977 5.0565946,3.6540355 l -0.332185,0.3321851 z"
       inkscape:connector-curvature="0"
       id="path10"
       style="fill:#f2f2f2;fill-opacity:1;fill-rule:evenodd;stroke:none" />
  </g>
</svg>
