<?xml version="1.0" encoding="UTF-8" standalone="no"?>
<!-- Created with Inkscape (http://www.inkscape.org/) -->

<svg
   xmlns:dc="http://purl.org/dc/elements/1.1/"
   xmlns:cc="http://creativecommons.org/ns#"
   xmlns:rdf="http://www.w3.org/1999/02/22-rdf-syntax-ns#"
   xmlns:svg="http://www.w3.org/2000/svg"
   xmlns="http://www.w3.org/2000/svg"
   xmlns:inkscape="http://www.inkscape.org/namespaces/inkscape"
   version="1.0"
   width="18.360001mm"
   height="18.33mm"
   id="svg2">
  <metadata
     id="metadata112">
    <rdf:RDF>
      <cc:Work
         rdf:about="">
        <dc:format>image/svg+xml</dc:format>
        <dc:type
           rdf:resource="http://purl.org/dc/dcmitype/StillImage" />
      </cc:Work>
    </rdf:RDF>
  </metadata>
  <defs
     id="defs4" />
  <g
     id="g6">
    <path
       d="m 2.5024607,2.5024607 0,5.0049215 61.3102873,0 0,-5.0049215 -61.3102873,0 z"
       inkscape:connector-curvature="0"
       id="path8"
       style="fill:#21b1ff;fill-opacity:1;fill-rule:evenodd;stroke:none" />
    <path
       d="m 2.5024607,7.5073822 0,1.2512303 61.3102873,0 0,-1.2512303 -61.3102873,0 z"
       inkscape:connector-curvature="0"
       id="path10"
       style="fill:#21b1fe;fill-opacity:1;fill-rule:evenodd;stroke:none" />
    <path
       d="m 2.5024607,8.7586125 0,1.2512305 61.3102873,0 0,-1.2512305 -61.3102873,0 z"
       inkscape:connector-curvature="0"
       id="path12"
       style="fill:#20b0fd;fill-opacity:1;fill-rule:evenodd;stroke:none" />
    <path
       d="m 2.5024607,10.009843 0,1.25123 61.3102873,0 0,-1.25123 -61.3102873,0 z"
       inkscape:connector-curvature="0"
       id="path14"
       style="fill:#20affc;fill-opacity:1;fill-rule:evenodd;stroke:none" />
    <path
       d="m 2.5024607,11.261073 0,1.251231 61.3102873,0 0,-1.251231 -61.3102873,0 z"
       inkscape:connector-curvature="0"
       id="path16"
       style="fill:#1faefb;fill-opacity:1;fill-rule:evenodd;stroke:none" />
    <path
       d="m 2.5024607,12.512304 0,1.25123 61.3102873,0 0,-1.25123 -61.3102873,0 z"
       inkscape:connector-curvature="0"
       id="path18"
       style="fill:#1eadf9;fill-opacity:1;fill-rule:evenodd;stroke:none" />
    <path
       d="m 2.5024607,13.763534 0,1.25123 61.3102873,0 0,-1.25123 -61.3102873,0 z"
       inkscape:connector-curvature="0"
       id="path20"
       style="fill:#1eabf7;fill-opacity:1;fill-rule:evenodd;stroke:none" />
    <path
       d="m 2.5024607,15.014764 0,1.251231 61.3102873,0 0,-1.251231 -61.3102873,0 z"
       inkscape:connector-curvature="0"
       id="path22"
       style="fill:#1daaf6;fill-opacity:1;fill-rule:evenodd;stroke:none" />
    <path
       d="m 2.5024607,16.265995 0,1.25123 61.3102873,0 0,-1.25123 -61.3102873,0 z"
       inkscape:connector-curvature="0"
       id="path24"
       style="fill:#1ca9f4;fill-opacity:1;fill-rule:evenodd;stroke:none" />
    <path
       d="m 2.5024607,17.517225 0,1.25123 61.3102873,0 0,-1.25123 -61.3102873,0 z"
       inkscape:connector-curvature="0"
       id="path26"
       style="fill:#1ca7f2;fill-opacity:1;fill-rule:evenodd;stroke:none" />
    <path
       d="m 2.5024607,18.768455 0,1.251231 61.3102873,0 0,-1.251231 -61.3102873,0 z"
       inkscape:connector-curvature="0"
       id="path28"
       style="fill:#1ba6f1;fill-opacity:1;fill-rule:evenodd;stroke:none" />
    <path
       d="m 2.5024607,20.019686 0,1.25123 61.3102873,0 0,-1.25123 -61.3102873,0 z"
       inkscape:connector-curvature="0"
       id="path30"
       style="fill:#1aa5ef;fill-opacity:1;fill-rule:evenodd;stroke:none" />
    <path
       d="m 2.5024607,21.270916 0,1.25123 61.3102873,0 0,-1.25123 -61.3102873,0 z"
       inkscape:connector-curvature="0"
       id="path32"
       style="fill:#19a3ed;fill-opacity:1;fill-rule:evenodd;stroke:none" />
    <path
       d="m 2.5024607,22.522146 0,1.251231 61.3102873,0 0,-1.251231 -61.3102873,0 z"
       inkscape:connector-curvature="0"
       id="path34"
       style="fill:#18a2ec;fill-opacity:1;fill-rule:evenodd;stroke:none" />
    <path
       d="m 2.5024607,23.773377 0,1.25123 61.3102873,0 0,-1.25123 -61.3102873,0 z"
       inkscape:connector-curvature="0"
       id="path36"
       style="fill:#17a1ea;fill-opacity:1;fill-rule:evenodd;stroke:none" />
    <path
       d="m 2.5024607,25.024607 0,1.251231 61.3102873,0 0,-1.251231 -61.3102873,0 z"
       inkscape:connector-curvature="0"
       id="path38"
       style="fill:#179fe8;fill-opacity:1;fill-rule:evenodd;stroke:none" />
    <path
       d="m 2.5024607,26.275838 0,1.25123 61.3102873,0 0,-1.25123 -61.3102873,0 z"
       inkscape:connector-curvature="0"
       id="path40"
       style="fill:#169ee7;fill-opacity:1;fill-rule:evenodd;stroke:none" />
    <path
       d="m 2.5024607,27.527068 0,1.25123 61.3102873,0 0,-1.25123 -61.3102873,0 z"
       inkscape:connector-curvature="0"
       id="path42"
       style="fill:#159de5;fill-opacity:1;fill-rule:evenodd;stroke:none" />
    <path
       d="m 2.5024607,28.778298 0,1.251231 61.3102873,0 0,-1.251231 -61.3102873,0 z"
       inkscape:connector-curvature="0"
       id="path44"
       style="fill:#159be3;fill-opacity:1;fill-rule:evenodd;stroke:none" />
    <path
       d="m 2.5024607,30.029529 0,1.25123 61.3102873,0 0,-1.25123 -61.3102873,0 z"
       inkscape:connector-curvature="0"
       id="path46"
       style="fill:#149ae2;fill-opacity:1;fill-rule:evenodd;stroke:none" />
    <path
       d="m 2.5024607,31.280759 0,1.25123 61.3102873,0 0,-1.25123 -61.3102873,0 z"
       inkscape:connector-curvature="0"
       id="path48"
       style="fill:#1399e1;fill-opacity:1;fill-rule:evenodd;stroke:none" />
    <path
       d="m 2.5024607,32.531989 0,1.251231 61.3102873,0 0,-1.251231 -61.3102873,0 z"
       inkscape:connector-curvature="0"
       id="path50"
       style="fill:#1397df;fill-opacity:1;fill-rule:evenodd;stroke:none" />
    <path
       d="m 2.5024607,33.78322 0,1.25123 61.3102873,0 0,-1.25123 -61.3102873,0 z"
       inkscape:connector-curvature="0"
       id="path52"
       style="fill:#1296de;fill-opacity:1;fill-rule:evenodd;stroke:none" />
    <path
       d="m 2.5024607,35.03445 0,1.25123 61.3102873,0 0,-1.25123 -61.3102873,0 z"
       inkscape:connector-curvature="0"
       id="path54"
       style="fill:#1195dc;fill-opacity:1;fill-rule:evenodd;stroke:none" />
    <path
       d="m 2.5024607,36.28568 0,1.251231 61.3102873,0 0,-1.251231 -61.3102873,0 z"
       inkscape:connector-curvature="0"
       id="path56"
       style="fill:#1193da;fill-opacity:1;fill-rule:evenodd;stroke:none" />
    <path
       d="m 2.5024607,37.536911 0,1.25123 61.3102873,0 0,-1.25123 -61.3102873,0 z"
       inkscape:connector-curvature="0"
       id="path58"
       style="fill:#1092d9;fill-opacity:1;fill-rule:evenodd;stroke:none" />
    <path
       d="m 2.5024607,38.788141 0,1.25123 61.3102873,0 0,-1.25123 -61.3102873,0 z"
       inkscape:connector-curvature="0"
       id="path60"
       style="fill:#0f91d7;fill-opacity:1;fill-rule:evenodd;stroke:none" />
    <path
       d="m 2.5024607,40.039371 0,1.251231 61.3102873,0 0,-1.251231 -61.3102873,0 z"
       inkscape:connector-curvature="0"
       id="path62"
       style="fill:#0e8fd5;fill-opacity:1;fill-rule:evenodd;stroke:none" />
    <path
       d="m 2.5024607,41.290602 0,1.25123 61.3102873,0 0,-1.25123 -61.3102873,0 z"
       inkscape:connector-curvature="0"
       id="path64"
       style="fill:#0d8ed4;fill-opacity:1;fill-rule:evenodd;stroke:none" />
    <path
       d="m 2.5024607,42.541832 0,1.251231 61.3102873,0 0,-1.251231 -61.3102873,0 z"
       inkscape:connector-curvature="0"
       id="path66"
       style="fill:#0c8dd2;fill-opacity:1;fill-rule:evenodd;stroke:none" />
    <path
       d="m 2.5024607,43.793063 0,1.25123 61.3102873,0 0,-1.25123 -61.3102873,0 z"
       inkscape:connector-curvature="0"
       id="path68"
       style="fill:#0c8bd0;fill-opacity:1;fill-rule:evenodd;stroke:none" />
    <path
       d="m 2.5024607,45.044293 0,1.25123 61.3102873,0 0,-1.25123 -61.3102873,0 z"
       inkscape:connector-curvature="0"
       id="path70"
       style="fill:#0b8acf;fill-opacity:1;fill-rule:evenodd;stroke:none" />
    <path
       d="m 2.5024607,46.295523 0,1.251231 61.3102873,0 0,-1.251231 -61.3102873,0 z"
       inkscape:connector-curvature="0"
       id="path72"
       style="fill:#0a89cd;fill-opacity:1;fill-rule:evenodd;stroke:none" />
    <path
       d="m 2.5024607,47.546754 0,1.25123 61.3102873,0 0,-1.25123 -61.3102873,0 z"
       inkscape:connector-curvature="0"
       id="path74"
       style="fill:#0a87cb;fill-opacity:1;fill-rule:evenodd;stroke:none" />
    <path
       d="m 2.5024607,48.797984 0,1.25123 61.3102873,0 0,-1.25123 -61.3102873,0 z"
       inkscape:connector-curvature="0"
       id="path76"
       style="fill:#0986ca;fill-opacity:1;fill-rule:evenodd;stroke:none" />
    <path
       d="m 2.5024607,50.049214 0,1.251231 61.3102873,0 0,-1.251231 -61.3102873,0 z"
       inkscape:connector-curvature="0"
       id="path78"
       style="fill:#0885c8;fill-opacity:1;fill-rule:evenodd;stroke:none" />
    <path
       d="m 2.5024607,51.300445 0,1.25123 61.3102873,0 0,-1.25123 -61.3102873,0 z"
       inkscape:connector-curvature="0"
       id="path80"
       style="fill:#0883c6;fill-opacity:1;fill-rule:evenodd;stroke:none" />
    <path
       d="m 2.5024607,52.551675 0,1.25123 61.3102873,0 0,-1.25123 -61.3102873,0 z"
       inkscape:connector-curvature="0"
       id="path82"
       style="fill:#0782c5;fill-opacity:1;fill-rule:evenodd;stroke:none" />
    <path
       d="m 2.5024607,53.802905 0,1.251231 61.3102873,0 0,-1.251231 -61.3102873,0 z"
       inkscape:connector-curvature="0"
       id="path84"
       style="fill:#0681c3;fill-opacity:1;fill-rule:evenodd;stroke:none" />
    <path
       d="m 2.5024607,55.054136 0,1.25123 61.3102873,0 0,-1.25123 -61.3102873,0 z"
       inkscape:connector-curvature="0"
       id="path86"
       style="fill:#057fc1;fill-opacity:1;fill-rule:evenodd;stroke:none" />
    <path
       d="m 2.5024607,56.305366 0,1.251231 61.3102873,0 0,-1.251231 -61.3102873,0 z"
       inkscape:connector-curvature="0"
       id="path88"
       style="fill:#047ec0;fill-opacity:1;fill-rule:evenodd;stroke:none" />
    <path
       d="m 2.5024607,57.556597 0,1.25123 61.3102873,0 0,-1.25123 -61.3102873,0 z"
       inkscape:connector-curvature="0"
       id="path90"
       style="fill:#037dbe;fill-opacity:1;fill-rule:evenodd;stroke:none" />
    <path
       d="m 2.5024607,58.807827 0,1.25123 61.3102873,0 0,-1.25123 -61.3102873,0 z"
       inkscape:connector-curvature="0"
       id="path92"
       style="fill:#037bbc;fill-opacity:1;fill-rule:evenodd;stroke:none" />
    <path
       d="m 2.5024607,60.059057 0,1.251231 61.3102873,0 0,-1.251231 -61.3102873,0 z"
       inkscape:connector-curvature="0"
       id="path94"
       style="fill:#027abb;fill-opacity:1;fill-rule:evenodd;stroke:none" />
    <path
       d="m 2.5024607,61.310288 0,2.50246 61.3102873,0 0,-2.50246 -61.3102873,0 z"
       inkscape:connector-curvature="0"
       id="path96"
       style="fill:#0179b9;fill-opacity:1;fill-rule:evenodd;stroke:none" />
    <path
       d="m 10.32265,61.388489 -0.312807,-0.0782 45.044293,0 -0.234606,0.0782 2.89347,-0.625615 -0.391009,0.156404 2.424259,-1.564038 -0.39101,0.39101 1.564038,-2.424259 -0.156404,0.391009 0.625615,-2.89347 -0.0782,0.234606 0,-45.044293 0.0782,0.312807 L 60.762874,7.4291803 60.919278,7.8201897 59.35524,5.3959309 59.74625,5.7869404 57.321991,4.2229025 57.713,4.3793063 54.81953,3.7536911 l 0.234606,0 -45.044293,0 0.312807,0 L 7.4291803,4.3793063 7.8201897,4.2229025 5.3959309,5.7869404 5.7869404,5.3959309 4.2229025,7.8201897 4.3793063,7.4291803 3.7536911,10.32265 l 0,-0.312807 0,45.044293 0,-0.234606 L 4.3793063,57.713 4.2229025,57.321991 5.7869404,59.74625 5.3959309,59.35524 7.8201897,60.919278 7.4291803,60.762874 z m -3.440883,1.798644 c -0.1564038,0 -0.3128076,-0.0782 -0.3910095,-0.156404 L 4.0664987,61.466691 C 3.9100949,61.388489 3.7536911,61.232086 3.6754892,61.075682 L 2.1114512,58.651423 C 2.0332493,58.573221 1.9550474,58.416817 1.9550474,58.260414 L 1.3294323,55.366943 c 0,-0.0782 -0.078202,-0.156403 -0.078202,-0.312807 l 0,-45.044293 c 0,-0.078202 0.078202,-0.1564039 0.078202,-0.2346058 L 1.9550474,6.881767 c 0,-0.1564038 0.078202,-0.3128076 0.1564038,-0.3910095 L 3.6754892,4.0664987 C 3.7536911,3.9100949 3.9100949,3.7536911 4.0664987,3.6754892 L 6.4907575,2.1114512 C 6.5689594,2.0332493 6.7253632,1.9550474 6.881767,1.9550474 L 9.7752372,1.3294323 c 0.078202,0 0.1564038,-0.078202 0.2346058,-0.078202 l 45.044293,0 c 0.156404,0 0.234605,0.078202 0.312807,0.078202 l 2.893471,0.6256151 c 0.156403,0 0.312807,0.078202 0.391009,0.1564038 l 2.424259,1.564038 c 0.156404,0.078202 0.312807,0.2346057 0.391009,0.3910095 l 1.564038,2.4242588 c 0.0782,0.078202 0.156404,0.2346057 0.156404,0.3910095 l 0.625615,2.8934702 c 0,0.078202 0,0.1564038 0,0.2346058 l 0,45.044293 c 0,0.156404 0,0.234605 0,0.312807 l -0.625615,2.893471 c 0,0.156403 -0.0782,0.312807 -0.156404,0.391009 l -1.564038,2.424259 c -0.0782,0.156404 -0.234605,0.312807 -0.391009,0.391009 l -2.424259,1.564038 c -0.0782,0.0782 -0.234606,0.156404 -0.391009,0.156404 l -2.893471,0.625615 c -0.0782,0 -0.156403,0 -0.312807,0 l -45.044293,0 c -0.078202,0 -0.1564039,0 -0.2346058,0 z"
       inkscape:connector-curvature="0"
       id="path98"
       style="fill:#3dffb5;fill-opacity:1;fill-rule:nonzero;stroke:none" />
    <path
       d="M 58.964231,12.512304 48.485176,15.953187 52.004262,5.5523347 58.964231,12.512304 z"
       inkscape:connector-curvature="0"
       id="path100"
       style="fill:#ffffff;fill-opacity:1;fill-rule:evenodd;stroke:none" />
    <path
       d="M 58.964231,12.512304 48.485176,15.953187 52.004262,5.5523347 58.964231,12.512304 z"
       inkscape:connector-curvature="0"
       id="path102"
       style="fill:#ffffff;fill-opacity:1;fill-rule:evenodd;stroke:none" />
    <path
       d="m 51.92606,26.275838 -1.094827,-1.173029 -5.239527,5.161325 1.955048,-8.054795 -31.124356,0 1.876846,8.132997 -5.239527,-5.239527 -1.173029,1.173029 6.256152,6.099748 0,19.863281 27.60527,0 0,-19.863281 6.17795,-6.099748 z"
       inkscape:connector-curvature="0"
       id="path104"
       style="fill:#eaeaea;fill-opacity:1;fill-rule:evenodd;stroke:none" />
    <path
       d="m 51.92606,26.275838 -1.094827,-1.173029 -5.239527,5.161325 1.955048,-8.054795 -31.124356,0 1.876846,8.132997 -5.239527,-5.239527 -1.173029,1.173029 6.256152,6.099748 0,19.863281 27.60527,0 0,-19.863281 6.17795,-6.099748 z"
       inkscape:connector-curvature="0"
       id="path106"
       style="fill:none;stroke:#ffffff;stroke-width:2.50246072px;stroke-linecap:round;stroke-linejoin:round;stroke-opacity:1;stroke-dasharray:none" />
    <path
       d="m 19.941484,30.576942 0,1.64224 24.007982,0 0,-1.64224 -24.007982,0 z"
       inkscape:connector-curvature="0"
       id="path108"
       style="fill:#ffffff;fill-opacity:1;fill-rule:evenodd;stroke:none" />
  </g>
</svg>
