<?xml version="1.0" encoding="UTF-8" standalone="no"?>
<!-- Created with Inkscape (http://www.inkscape.org/) -->

<svg
   xmlns:dc="http://purl.org/dc/elements/1.1/"
   xmlns:cc="http://creativecommons.org/ns#"
   xmlns:rdf="http://www.w3.org/1999/02/22-rdf-syntax-ns#"
   xmlns:svg="http://www.w3.org/2000/svg"
   xmlns="http://www.w3.org/2000/svg"
   xmlns:inkscape="http://www.inkscape.org/namespaces/inkscape"
   version="1.0"
   width="7.3299999mm"
   height="8.3999996mm"
   id="svg2">
  <metadata
     id="metadata34">
    <rdf:RDF>
      <cc:Work
         rdf:about="">
        <dc:format>image/svg+xml</dc:format>
        <dc:type
           rdf:resource="http://purl.org/dc/dcmitype/StillImage" />
      </cc:Work>
    </rdf:RDF>
  </metadata>
  <defs
     id="defs4" />
  <g
     id="g6">
    <path
       d="m 1.1811024,22.883859 8.0093506,0"
       inkscape:connector-curvature="0"
       id="path8"
       style="fill:none;stroke:#f2f2f2;stroke-width:1.1811024px;stroke-linecap:round;stroke-linejoin:round;stroke-opacity:1;stroke-dasharray:none" />
    <path
       d="m 7.4557089,22.883859 c 0,0.959646 0.7750984,1.734744 1.7347441,1.734744 0.959646,0 1.734744,-0.775098 1.734744,-1.734744 0,-0.959646 -0.775098,-1.734744 -1.734744,-1.734744 -0.9596457,0 -1.7347441,0.775098 -1.7347441,1.734744"
       inkscape:connector-curvature="0"
       id="path10"
       style="fill:#f2f2f2;fill-opacity:1;fill-rule:evenodd;stroke:none" />
    <path
       d="m 1.1811024,11.368111 8.0093506,0"
       inkscape:connector-curvature="0"
       id="path12"
       style="fill:none;stroke:#f2f2f2;stroke-width:1.1811024px;stroke-linecap:round;stroke-linejoin:round;stroke-opacity:1;stroke-dasharray:none" />
    <path
       d="m 7.4557089,11.368111 c 0,0.959645 0.7750984,1.734744 1.7347441,1.734744 0.959646,0 1.734744,-0.775099 1.734744,-1.734744 0,-0.959646 -0.775098,-1.7347446 -1.734744,-1.7347446 -0.9596457,0 -1.7347441,0.7750986 -1.7347441,1.7347446"
       inkscape:connector-curvature="0"
       id="path14"
       style="fill:#f2f2f2;fill-opacity:1;fill-rule:evenodd;stroke:none" />
    <path
       d="m 1.1811024,17.125985 8.0093506,0"
       inkscape:connector-curvature="0"
       id="path16"
       style="fill:none;stroke:#f2f2f2;stroke-width:1.1811024px;stroke-linecap:round;stroke-linejoin:round;stroke-opacity:1;stroke-dasharray:none" />
    <path
       d="m 7.4557089,17.125985 c 0,0.959645 0.7750984,1.734744 1.7347441,1.734744 0.959646,0 1.734744,-0.775099 1.734744,-1.734744 0,-0.959646 -0.775098,-1.734744 -1.734744,-1.734744 -0.9596457,0 -1.7347441,0.775098 -1.7347441,1.734744"
       inkscape:connector-curvature="0"
       id="path18"
       style="fill:#f2f2f2;fill-opacity:1;fill-rule:evenodd;stroke:none" />
    <path
       d="m 12.696851,4.8351379 c 0,1.8454725 2.805118,3.3218505 6.200787,3.3218505 3.432579,0 6.200788,-1.476378 6.200788,-3.3218505"
       inkscape:connector-curvature="0"
       id="path20"
       style="fill:none;stroke:#f2f2f2;stroke-width:1.1811024px;stroke-linecap:round;stroke-linejoin:round;stroke-opacity:1;stroke-dasharray:none" />
    <path
       d="m 12.696851,8.1569884 c 0,1.8454726 2.805118,3.3587596 6.200787,3.3587596 3.432579,0 6.200788,-1.513287 6.200788,-3.3587596"
       inkscape:connector-curvature="0"
       id="path22"
       style="fill:none;stroke:#f2f2f2;stroke-width:1.1811024px;stroke-linecap:round;stroke-linejoin:round;stroke-opacity:1;stroke-dasharray:none" />
    <path
       d="m 12.696851,11.811024 c 0,1.845472 2.805118,3.32185 6.200787,3.32185 3.432579,0 6.200788,-1.476378 6.200788,-3.32185"
       inkscape:connector-curvature="0"
       id="path24"
       style="fill:none;stroke:#f2f2f2;stroke-width:1.1811024px;stroke-linecap:round;stroke-linejoin:round;stroke-opacity:1;stroke-dasharray:none" />
    <path
       d="m 25.098426,4.5398623 c 0,-1.8454725 -2.768209,-3.3587599 -6.200788,-3.3587599 -3.395669,0 -6.200787,1.5132874 -6.200787,3.3587599"
       inkscape:connector-curvature="0"
       id="path26"
       style="fill:none;stroke:#f2f2f2;stroke-width:1.1811024px;stroke-linecap:round;stroke-linejoin:round;stroke-opacity:1;stroke-dasharray:none" />
    <path
       d="m 12.696851,4.8351379 0,6.9758861"
       inkscape:connector-curvature="0"
       id="path28"
       style="fill:none;stroke:#f2f2f2;stroke-width:1.1811024px;stroke-linecap:round;stroke-linejoin:round;stroke-opacity:1;stroke-dasharray:none" />
    <path
       d="m 25.098426,4.5398623 0,7.2711617"
       inkscape:connector-curvature="0"
       id="path30"
       style="fill:none;stroke:#f2f2f2;stroke-width:1.1811024px;stroke-linecap:round;stroke-linejoin:round;stroke-opacity:1;stroke-dasharray:none" />
  </g>
</svg>
