<?xml version="1.0" encoding="UTF-8" standalone="no"?>
<!-- Created with Inkscape (http://www.inkscape.org/) -->

<svg
   xmlns:dc="http://purl.org/dc/elements/1.1/"
   xmlns:cc="http://creativecommons.org/ns#"
   xmlns:rdf="http://www.w3.org/1999/02/22-rdf-syntax-ns#"
   xmlns:svg="http://www.w3.org/2000/svg"
   xmlns="http://www.w3.org/2000/svg"
   xmlns:inkscape="http://www.inkscape.org/namespaces/inkscape"
   version="1.0"
   width="18mm"
   height="17.969999mm"
   id="svg2">
  <metadata
     id="metadata62">
    <rdf:RDF>
      <cc:Work
         rdf:about="">
        <dc:format>image/svg+xml</dc:format>
        <dc:type
           rdf:resource="http://purl.org/dc/dcmitype/StillImage" />
      </cc:Work>
    </rdf:RDF>
  </metadata>
  <defs
     id="defs4" />
  <g
     id="g6">
    <path
       d="m 17.118999,62.14431 30.016874,0 c 8.285908,0 15.008437,-6.722529 15.008437,-15.008437 l 0,-30.016874 c 0,-8.2859084 -6.722529,-15.0084375 -15.008437,-15.0084375 l -30.016874,0 c -8.2859084,0 -15.0084375,6.7225291 -15.0084375,15.0084375 l 0,30.016874 c 0,8.285908 6.7225291,15.008437 15.0084375,15.008437 z"
       inkscape:connector-curvature="0"
       id="path8"
       style="fill:#0070c0;fill-opacity:1;fill-rule:evenodd;stroke:none" />
    <path
       d="m 17.275337,61.362621 29.860536,0 2.97042,-0.312676 -0.156338,0 2.814082,-0.859858 -0.156338,0.07817 2.501406,-1.407041 -0.07817,0.07817 2.2669,-1.797885 -0.156338,0.156338 1.797885,-2.2669 -0.07817,0.07817 1.407041,-2.501406 -0.07817,0.156338 0.859858,-2.814082 0,0.156338 0.312676,-3.048589 0,-29.938705 -0.312676,-2.892251 0,0.156338 -0.859858,-2.814082 0.07817,0.156338 -1.407041,-2.5014067 0.07817,0.078169 -1.797885,-2.2668994 0.156338,0.1563379 -2.2669,-1.7978857 0.07817,0.078169 -2.501406,-1.4070409 0.156338,0.078169 -2.814082,-0.8598584 0.156338,0 -3.048589,-0.3126757 -29.938705,0 -2.892251,0.3126757 0.156338,0 L 11.569004,4.142954 11.725342,4.0647851 9.2239353,5.471826 9.3021043,5.3936571 7.0352049,7.1915428 7.1915428,7.0352049 5.3936571,9.3021043 5.471826,9.2239353 4.0647851,11.725342 l 0.078169,-0.156338 -0.8598584,2.814082 0,-0.156338 -0.3126757,3.048589 0,29.860536 0.3126757,2.97042 0,-0.156338 0.8598584,2.814082 -0.078169,-0.156338 1.4070409,2.501406 -0.078169,-0.07817 1.7978857,2.2669 -0.1563379,-0.156338 2.2668994,1.797885 -0.078169,-0.07817 2.5014067,1.407041 -0.156338,-0.07817 2.814082,0.859858 -0.156338,0 z m -3.283096,1.328872 c 0,0 -0.07817,0 -0.156338,0 l -2.814082,-0.859859 c 0,-0.07817 -0.07817,-0.07817 -0.156338,-0.07817 L 8.364077,60.346424 c 0,-0.07817 -0.078169,-0.07817 -0.078169,-0.07817 L 6.0190087,58.47037 c -0.078169,-0.07817 -0.078169,-0.07817 -0.1563379,-0.156338 L 4.0647851,56.047133 c 0,0 -0.078169,-0.07817 -0.078169,-0.07817 l -1.407041,-2.501407 c 0,-0.07817 -0.078169,-0.156338 -0.078169,-0.156338 L 1.6415478,50.497138 c 0,-0.07817 0,-0.156338 0,-0.156338 l -0.3126758,-3.204927 0,-30.095043 0.3126758,-3.048589 c 0,0 0,-0.07817 0,-0.156338 l 0.8598584,-2.814082 c 0,0 0.078169,-0.07817 0.078169,-0.156338 l 1.407041,-2.501406 c 0,0 0.078169,-0.078169 0.078169,-0.078169 L 5.8626708,6.0190087 c 0.078169,-0.078169 0.078169,-0.078169 0.1563379,-0.1563379 L 8.285908,4.0647851 c 0,0 0.078169,-0.078169 0.078169,-0.078169 l 2.501406,-1.407041 c 0.07817,0 0.156338,-0.078169 0.156338,-0.078169 l 2.814082,-0.8598584 c 0.07817,0 0.156338,0 0.156338,0 l 3.126758,-0.3126758 30.173212,0 3.048589,0.3126758 c 0,0 0.07817,0 0.156338,0 l 2.814081,0.8598584 c 0,0 0.07817,0.078169 0.156338,0.078169 l 2.501407,1.407041 c 0,0 0.07817,0.078169 0.07817,0.078169 l 2.266899,1.7978857 c 0.07817,0.078169 0.07817,0.078169 0.156338,0.1563379 l 1.797885,2.2668993 c 0,0 0,0.078169 0.07817,0.078169 l 1.407041,2.501406 c 0,0.07817 0,0.156338 0.07817,0.156338 l 0.859859,2.814082 c 0,0.07817 0,0.156338 0,0.156338 l 0.312675,3.126758 0,30.173212 -0.312675,3.048589 c 0,0 0,0.07817 0,0.156338 l -0.859859,2.814081 c -0.07817,0 -0.07817,0.07817 -0.07817,0.156338 l -1.407041,2.501407 c -0.07817,0 -0.07817,0.07817 -0.07817,0.07817 l -1.797885,2.266899 c -0.07817,0.07817 -0.07817,0.07817 -0.156338,0.156338 l -2.266899,1.797885 c 0,0 -0.07817,0 -0.07817,0.07817 l -2.501407,1.407041 c -0.07817,0 -0.156338,0 -0.156338,0.07817 l -2.814081,0.859859 c -0.07817,0 -0.156338,0 -0.156338,0 l -3.204927,0.312675 -30.095043,0 z"
       inkscape:connector-curvature="0"
       id="path10"
       style="fill:#ffffff;fill-opacity:1;fill-rule:nonzero;stroke:none" />
    <path
       d="m 7.4260496,12.819707 6.7225294,0 0,13.366889 -6.7225294,0"
       inkscape:connector-curvature="0"
       id="path12"
       style="fill:none;stroke:#ffffff;stroke-width:2.11056137px;stroke-linecap:round;stroke-linejoin:round;stroke-opacity:1;stroke-dasharray:none" />
    <path
       d="m 14.148579,19.542236 2.18873,0"
       inkscape:connector-curvature="0"
       id="path14"
       style="fill:none;stroke:#ffffff;stroke-width:2.11056137px;stroke-linecap:round;stroke-linejoin:round;stroke-opacity:1;stroke-dasharray:none" />
    <path
       d="m 15.242944,15.008437 8.91126,4.533799 -8.91126,4.45563 0,-8.989429 z"
       inkscape:connector-curvature="0"
       id="path16"
       style="fill:#ffffff;fill-opacity:1;fill-rule:evenodd;stroke:none" />
    <path
       d="m 20.871108,11.959848 7.504218,0 0,15.086606 -7.504218,0"
       inkscape:connector-curvature="0"
       id="path18"
       style="fill:none;stroke:#ffffff;stroke-width:2.11056137px;stroke-linecap:round;stroke-linejoin:round;stroke-opacity:1;stroke-dasharray:none" />
    <path
       d="m 28.375326,19.542236 3.75211,0"
       inkscape:connector-curvature="0"
       id="path20"
       style="fill:none;stroke:#ffffff;stroke-width:2.11056137px;stroke-linecap:round;stroke-linejoin:round;stroke-opacity:1;stroke-dasharray:none" />
    <path
       d="m 7.4260496,36.817572 7.2697114,0 0,14.539424 -7.2697114,0"
       inkscape:connector-curvature="0"
       id="path22"
       style="fill:none;stroke:#ffffff;stroke-width:2.11056137px;stroke-linecap:round;stroke-linejoin:round;stroke-opacity:1;stroke-dasharray:none" />
    <path
       d="m 14.695761,44.087284 3.126758,0"
       inkscape:connector-curvature="0"
       id="path24"
       style="fill:none;stroke:#ffffff;stroke-width:2.11056137px;stroke-linecap:round;stroke-linejoin:round;stroke-opacity:1;stroke-dasharray:none" />
    <path
       d="m 16.728154,39.631654 8.911259,4.45563 -8.911259,4.45563 0,-8.91126 z"
       inkscape:connector-curvature="0"
       id="path26"
       style="fill:#ffffff;fill-opacity:1;fill-rule:evenodd;stroke:none" />
    <path
       d="m 22.043642,35.879545 8.207739,0 0,16.415478 -8.207739,0"
       inkscape:connector-curvature="0"
       id="path28"
       style="fill:none;stroke:#ffffff;stroke-width:2.11056137px;stroke-linecap:round;stroke-linejoin:round;stroke-opacity:1;stroke-dasharray:none" />
    <path
       d="m 30.251381,44.087284 4.064785,0"
       inkscape:connector-curvature="0"
       id="path30"
       style="fill:none;stroke:#ffffff;stroke-width:2.11056137px;stroke-linecap:round;stroke-linejoin:round;stroke-opacity:1;stroke-dasharray:none" />
    <path
       d="m 42.758412,12.5852 0,2.501406 -6.878867,0 0,10.005625 22.512656,0 0,-10.005625 -7.504219,0 0,-2.501406 -8.12957,0 z"
       inkscape:connector-curvature="0"
       id="path32"
       style="fill:none;stroke:#ffffff;stroke-width:2.11056137px;stroke-linecap:round;stroke-linejoin:round;stroke-opacity:1;stroke-dasharray:none" />
    <path
       d="m 43.383764,25.092231 0,-2.266899"
       inkscape:connector-curvature="0"
       id="path34"
       style="fill:none;stroke:#ffffff;stroke-width:2.11056137px;stroke-linecap:round;stroke-linejoin:round;stroke-opacity:1;stroke-dasharray:none" />
    <path
       d="m 48.386576,25.092231 0,-2.501406"
       inkscape:connector-curvature="0"
       id="path36"
       style="fill:none;stroke:#ffffff;stroke-width:2.11056137px;stroke-linecap:round;stroke-linejoin:round;stroke-opacity:1;stroke-dasharray:none" />
    <path
       d="m 53.389388,25.092231 0,-2.657744"
       inkscape:connector-curvature="0"
       id="path38"
       style="fill:none;stroke:#ffffff;stroke-width:2.11056137px;stroke-linecap:round;stroke-linejoin:round;stroke-opacity:1;stroke-dasharray:none" />
    <path
       d="m 45.88517,25.092231 0,-2.501406"
       inkscape:connector-curvature="0"
       id="path40"
       style="fill:none;stroke:#ffffff;stroke-width:2.11056137px;stroke-linecap:round;stroke-linejoin:round;stroke-opacity:1;stroke-dasharray:none" />
    <path
       d="m 50.887982,25.092231 0,-2.266899"
       inkscape:connector-curvature="0"
       id="path42"
       style="fill:none;stroke:#ffffff;stroke-width:2.11056137px;stroke-linecap:round;stroke-linejoin:round;stroke-opacity:1;stroke-dasharray:none" />
    <path
       d="m 40.882357,22.590825 0,2.501406"
       inkscape:connector-curvature="0"
       id="path44"
       style="fill:none;stroke:#ffffff;stroke-width:2.11056137px;stroke-linecap:round;stroke-linejoin:round;stroke-opacity:1;stroke-dasharray:none" />
    <path
       d="m 42.758412,35.879545 0,2.501406 -6.878867,0 0,10.005625 22.512656,0 0,-10.005625 -7.504219,0 0,-2.501406 -8.12957,0 z"
       inkscape:connector-curvature="0"
       id="path46"
       style="fill:none;stroke:#ffffff;stroke-width:2.11056137px;stroke-linecap:round;stroke-linejoin:round;stroke-opacity:1;stroke-dasharray:none" />
    <path
       d="m 43.383764,48.386576 0,-2.266899"
       inkscape:connector-curvature="0"
       id="path48"
       style="fill:none;stroke:#ffffff;stroke-width:2.11056137px;stroke-linecap:round;stroke-linejoin:round;stroke-opacity:1;stroke-dasharray:none" />
    <path
       d="m 48.386576,48.386576 0,-2.501406"
       inkscape:connector-curvature="0"
       id="path50"
       style="fill:none;stroke:#ffffff;stroke-width:2.11056137px;stroke-linecap:round;stroke-linejoin:round;stroke-opacity:1;stroke-dasharray:none" />
    <path
       d="m 53.389388,48.386576 0,-2.735913"
       inkscape:connector-curvature="0"
       id="path52"
       style="fill:none;stroke:#ffffff;stroke-width:2.11056137px;stroke-linecap:round;stroke-linejoin:round;stroke-opacity:1;stroke-dasharray:none" />
    <path
       d="m 45.88517,48.386576 0,-2.501406"
       inkscape:connector-curvature="0"
       id="path54"
       style="fill:none;stroke:#ffffff;stroke-width:2.11056137px;stroke-linecap:round;stroke-linejoin:round;stroke-opacity:1;stroke-dasharray:none" />
    <path
       d="m 50.887982,48.386576 0,-2.266899"
       inkscape:connector-curvature="0"
       id="path56"
       style="fill:none;stroke:#ffffff;stroke-width:2.11056137px;stroke-linecap:round;stroke-linejoin:round;stroke-opacity:1;stroke-dasharray:none" />
    <path
       d="m 40.882357,45.88517 0,2.501406"
       inkscape:connector-curvature="0"
       id="path58"
       style="fill:none;stroke:#ffffff;stroke-width:2.11056137px;stroke-linecap:round;stroke-linejoin:round;stroke-opacity:1;stroke-dasharray:none" />
  </g>
</svg>
