<?xml version="1.0" encoding="UTF-8" standalone="no"?>
<!-- Created with Inkscape (http://www.inkscape.org/) -->

<svg
   xmlns:dc="http://purl.org/dc/elements/1.1/"
   xmlns:cc="http://creativecommons.org/ns#"
   xmlns:rdf="http://www.w3.org/1999/02/22-rdf-syntax-ns#"
   xmlns:svg="http://www.w3.org/2000/svg"
   xmlns="http://www.w3.org/2000/svg"
   xmlns:inkscape="http://www.inkscape.org/namespaces/inkscape"
   version="1.0"
   width="7.6700001mm"
   height="8mm"
   id="svg2">
  <metadata
     id="metadata36">
    <rdf:RDF>
      <cc:Work
         rdf:about="">
        <dc:format>image/svg+xml</dc:format>
        <dc:type
           rdf:resource="http://purl.org/dc/dcmitype/StillImage" />
      </cc:Work>
    </rdf:RDF>
  </metadata>
  <defs
     id="defs4" />
  <g
     id="g6">
    <path
       d="m 1.1811024,21.555119 8.0093506,0"
       inkscape:connector-curvature="0"
       id="path8"
       style="fill:none;stroke:#f2f2f2;stroke-width:1.1811024px;stroke-linecap:round;stroke-linejoin:round;stroke-opacity:1;stroke-dasharray:none" />
    <path
       d="m 7.4557089,21.555119 c 0,0.959645 0.7750984,1.734744 1.7347441,1.734744 0.959646,0 1.734744,-0.775099 1.734744,-1.734744 0,-0.959646 -0.775098,-1.734744 -1.734744,-1.734744 -0.9596457,0 -1.7347441,0.775098 -1.7347441,1.734744"
       inkscape:connector-curvature="0"
       id="path10"
       style="fill:#f2f2f2;fill-opacity:1;fill-rule:evenodd;stroke:none" />
    <path
       d="m 1.1811024,10.03937 8.0093506,0"
       inkscape:connector-curvature="0"
       id="path12"
       style="fill:none;stroke:#f2f2f2;stroke-width:1.1811024px;stroke-linecap:round;stroke-linejoin:round;stroke-opacity:1;stroke-dasharray:none" />
    <path
       d="m 7.4557089,10.03937 c 0,0.959646 0.7750984,1.734745 1.7347441,1.734745 0.959646,0 1.734744,-0.775099 1.734744,-1.734745 0,-0.9596453 -0.775098,-1.7347438 -1.734744,-1.7347438 -0.9596457,0 -1.7347441,0.7750985 -1.7347441,1.7347438"
       inkscape:connector-curvature="0"
       id="path14"
       style="fill:#f2f2f2;fill-opacity:1;fill-rule:evenodd;stroke:none" />
    <path
       d="m 1.1811024,15.797245 8.0093506,0"
       inkscape:connector-curvature="0"
       id="path16"
       style="fill:none;stroke:#f2f2f2;stroke-width:1.1811024px;stroke-linecap:round;stroke-linejoin:round;stroke-opacity:1;stroke-dasharray:none" />
    <path
       d="m 7.4557089,15.797245 c 0,0.959645 0.7750984,1.734744 1.7347441,1.734744 0.959646,0 1.734744,-0.775099 1.734744,-1.734744 0,-0.959646 -0.775098,-1.734745 -1.734744,-1.734745 -0.9596457,0 -1.7347441,0.775099 -1.7347441,1.734745"
       inkscape:connector-curvature="0"
       id="path18"
       style="fill:#f2f2f2;fill-opacity:1;fill-rule:evenodd;stroke:none" />
    <path
       d="m 17.162894,1.1811024 0,1.5132874 -4.133858,0 0,6.0162404 13.545768,0 0,-6.0162404 -4.502953,0 0,-1.5132874 -4.908957,0 z"
       inkscape:connector-curvature="0"
       id="path20"
       style="fill:none;stroke:#f2f2f2;stroke-width:1.1811024px;stroke-linecap:round;stroke-linejoin:round;stroke-opacity:1;stroke-dasharray:none" />
    <path
       d="m 17.531989,8.7106302 0,-1.3656497"
       inkscape:connector-curvature="0"
       id="path22"
       style="fill:none;stroke:#f2f2f2;stroke-width:0.77509844px;stroke-linecap:round;stroke-linejoin:round;stroke-opacity:1;stroke-dasharray:none" />
    <path
       d="m 20.558564,8.7106302 0,-1.5132875"
       inkscape:connector-curvature="0"
       id="path24"
       style="fill:none;stroke:#f2f2f2;stroke-width:0.77509844px;stroke-linecap:round;stroke-linejoin:round;stroke-opacity:1;stroke-dasharray:none" />
    <path
       d="m 23.548229,8.7106302 0,-1.6240158"
       inkscape:connector-curvature="0"
       id="path26"
       style="fill:none;stroke:#f2f2f2;stroke-width:0.77509844px;stroke-linecap:round;stroke-linejoin:round;stroke-opacity:1;stroke-dasharray:none" />
    <path
       d="m 19.045276,8.7106302 0,-1.5132875"
       inkscape:connector-curvature="0"
       id="path28"
       style="fill:none;stroke:#f2f2f2;stroke-width:0.77509844px;stroke-linecap:round;stroke-linejoin:round;stroke-opacity:1;stroke-dasharray:none" />
    <path
       d="m 22.071851,8.7106302 0,-1.3656497"
       inkscape:connector-curvature="0"
       id="path30"
       style="fill:none;stroke:#f2f2f2;stroke-width:0.77509844px;stroke-linecap:round;stroke-linejoin:round;stroke-opacity:1;stroke-dasharray:none" />
    <path
       d="m 16.055611,7.1973427 0,1.5132875"
       inkscape:connector-curvature="0"
       id="path32"
       style="fill:none;stroke:#f2f2f2;stroke-width:0.77509844px;stroke-linecap:round;stroke-linejoin:round;stroke-opacity:1;stroke-dasharray:none" />
  </g>
</svg>
