<?xml version="1.0" encoding="UTF-8" standalone="no"?>
<!-- Created with Inkscape (http://www.inkscape.org/) -->

<svg
   xmlns:dc="http://purl.org/dc/elements/1.1/"
   xmlns:cc="http://creativecommons.org/ns#"
   xmlns:rdf="http://www.w3.org/1999/02/22-rdf-syntax-ns#"
   xmlns:svg="http://www.w3.org/2000/svg"
   xmlns="http://www.w3.org/2000/svg"
   xmlns:inkscape="http://www.inkscape.org/namespaces/inkscape"
   version="1.0"
   width="11.3mm"
   height="11.63mm"
   id="svg2">
  <metadata
     id="metadata64">
    <rdf:RDF>
      <cc:Work
         rdf:about="">
        <dc:format>image/svg+xml</dc:format>
        <dc:type
           rdf:resource="http://purl.org/dc/dcmitype/StillImage" />
      </cc:Work>
    </rdf:RDF>
  </metadata>
  <defs
     id="defs4" />
  <g
     id="g6">
    <path
       d="m 2.5024607,2.5024607 0,3.7536911 30.0295283,0 0,-3.7536911 -30.0295283,0 z"
       inkscape:connector-curvature="0"
       id="path8"
       style="fill:#1eb0ff;fill-opacity:1;fill-rule:evenodd;stroke:none" />
    <path
       d="m 2.5024607,6.2561518 0,1.2512304 30.0295283,0 0,-1.2512304 -30.0295283,0 z"
       inkscape:connector-curvature="0"
       id="path10"
       style="fill:#1daffe;fill-opacity:1;fill-rule:evenodd;stroke:none" />
    <path
       d="m 2.5024607,7.5073822 0,1.2512303 30.0295283,0 0,-1.2512303 -30.0295283,0 z"
       inkscape:connector-curvature="0"
       id="path12"
       style="fill:#1caefc;fill-opacity:1;fill-rule:evenodd;stroke:none" />
    <path
       d="m 2.5024607,8.7586125 0,1.2512305 30.0295283,0 0,-1.2512305 -30.0295283,0 z"
       inkscape:connector-curvature="0"
       id="path14"
       style="fill:#1aacfa;fill-opacity:1;fill-rule:evenodd;stroke:none" />
    <path
       d="m 2.5024607,10.009843 0,1.25123 30.0295283,0 0,-1.25123 -30.0295283,0 z"
       inkscape:connector-curvature="0"
       id="path16"
       style="fill:#19aaf8;fill-opacity:1;fill-rule:evenodd;stroke:none" />
    <path
       d="m 2.5024607,11.261073 0,1.251231 30.0295283,0 0,-1.251231 -30.0295283,0 z"
       inkscape:connector-curvature="0"
       id="path18"
       style="fill:#18a9f7;fill-opacity:1;fill-rule:evenodd;stroke:none" />
    <path
       d="m 2.5024607,12.512304 0,1.25123 30.0295283,0 0,-1.25123 -30.0295283,0 z"
       inkscape:connector-curvature="0"
       id="path20"
       style="fill:#17a8f6;fill-opacity:1;fill-rule:evenodd;stroke:none" />
    <path
       d="m 2.5024607,13.763534 0,1.25123 30.0295283,0 0,-1.25123 -30.0295283,0 z"
       inkscape:connector-curvature="0"
       id="path22"
       style="fill:#16a6f4;fill-opacity:1;fill-rule:evenodd;stroke:none" />
    <path
       d="m 2.5024607,15.014764 0,1.251231 30.0295283,0 0,-1.251231 -30.0295283,0 z"
       inkscape:connector-curvature="0"
       id="path24"
       style="fill:#15a5f2;fill-opacity:1;fill-rule:evenodd;stroke:none" />
    <path
       d="m 2.5024607,16.265995 0,1.25123 30.0295283,0 0,-1.25123 -30.0295283,0 z"
       inkscape:connector-curvature="0"
       id="path26"
       style="fill:#13a3f1;fill-opacity:1;fill-rule:evenodd;stroke:none" />
    <path
       d="m 2.5024607,17.517225 0,1.25123 30.0295283,0 0,-1.25123 -30.0295283,0 z"
       inkscape:connector-curvature="0"
       id="path28"
       style="fill:#12a2ef;fill-opacity:1;fill-rule:evenodd;stroke:none" />
    <path
       d="m 2.5024607,18.768455 0,1.251231 30.0295283,0 0,-1.251231 -30.0295283,0 z"
       inkscape:connector-curvature="0"
       id="path30"
       style="fill:#11a0ed;fill-opacity:1;fill-rule:evenodd;stroke:none" />
    <path
       d="m 2.5024607,20.019686 0,1.25123 30.0295283,0 0,-1.25123 -30.0295283,0 z"
       inkscape:connector-curvature="0"
       id="path32"
       style="fill:#109feb;fill-opacity:1;fill-rule:evenodd;stroke:none" />
    <path
       d="m 2.5024607,21.270916 0,1.25123 30.0295283,0 0,-1.25123 -30.0295283,0 z"
       inkscape:connector-curvature="0"
       id="path34"
       style="fill:#0f9dea;fill-opacity:1;fill-rule:evenodd;stroke:none" />
    <path
       d="m 2.5024607,22.522146 0,1.251231 30.0295283,0 0,-1.251231 -30.0295283,0 z"
       inkscape:connector-curvature="0"
       id="path36"
       style="fill:#0d9ce8;fill-opacity:1;fill-rule:evenodd;stroke:none" />
    <path
       d="m 2.5024607,23.773377 0,1.25123 30.0295283,0 0,-1.25123 -30.0295283,0 z"
       inkscape:connector-curvature="0"
       id="path38"
       style="fill:#0c9ae7;fill-opacity:1;fill-rule:evenodd;stroke:none" />
    <path
       d="m 2.5024607,25.024607 0,1.251231 30.0295283,0 0,-1.251231 -30.0295283,0 z"
       inkscape:connector-curvature="0"
       id="path40"
       style="fill:#0b99e5;fill-opacity:1;fill-rule:evenodd;stroke:none" />
    <path
       d="m 2.5024607,26.275838 0,1.25123 30.0295283,0 0,-1.25123 -30.0295283,0 z"
       inkscape:connector-curvature="0"
       id="path42"
       style="fill:#0a97e3;fill-opacity:1;fill-rule:evenodd;stroke:none" />
    <path
       d="m 2.5024607,27.527068 0,1.25123 30.0295283,0 0,-1.25123 -30.0295283,0 z"
       inkscape:connector-curvature="0"
       id="path44"
       style="fill:#0996e2;fill-opacity:1;fill-rule:evenodd;stroke:none" />
    <path
       d="m 2.5024607,28.778298 0,1.251231 30.0295283,0 0,-1.251231 -30.0295283,0 z"
       inkscape:connector-curvature="0"
       id="path46"
       style="fill:#0895e0;fill-opacity:1;fill-rule:evenodd;stroke:none" />
    <path
       d="m 2.5024607,30.029529 0,1.25123 30.0295283,0 0,-1.25123 -30.0295283,0 z"
       inkscape:connector-curvature="0"
       id="path48"
       style="fill:#0693de;fill-opacity:1;fill-rule:evenodd;stroke:none" />
    <path
       d="m 2.5024607,31.280759 0,1.25123 30.0295283,0 0,-1.25123 -30.0295283,0 z"
       inkscape:connector-curvature="0"
       id="path50"
       style="fill:#0591dd;fill-opacity:1;fill-rule:evenodd;stroke:none" />
    <path
       d="m 2.5024607,32.531989 0,1.251231 30.0295283,0 0,-1.251231 -30.0295283,0 z"
       inkscape:connector-curvature="0"
       id="path52"
       style="fill:#0490db;fill-opacity:1;fill-rule:evenodd;stroke:none" />
    <path
       d="m 2.5024607,33.78322 0,1.25123 30.0295283,0 0,-1.25123 -30.0295283,0 z"
       inkscape:connector-curvature="0"
       id="path54"
       style="fill:#038fda;fill-opacity:1;fill-rule:evenodd;stroke:none" />
    <path
       d="m 2.5024607,35.03445 0,1.25123 30.0295283,0 0,-1.25123 -30.0295283,0 z"
       inkscape:connector-curvature="0"
       id="path56"
       style="fill:#028dd8;fill-opacity:1;fill-rule:evenodd;stroke:none" />
    <path
       d="m 2.8934702,36.28568 30.0295288,0 0,-33.7832193 -30.0295288,0 0,33.7832193 z"
       inkscape:connector-curvature="0"
       id="path58"
       style="fill:none;stroke:#ffffff;stroke-width:2.50246072px;stroke-linecap:round;stroke-linejoin:round;stroke-opacity:1;stroke-dasharray:none" />
    <text
       x="11.886765"
       y="26.025957"
       id="text60"
       xml:space="preserve"
       style="font-size:20.01968575px;font-style:normal;font-weight:normal;text-align:start;text-anchor:start;fill:#ffffff;font-family:Calibri">Ω </text>
  </g>
</svg>
