<?xml version="1.0" encoding="UTF-8" standalone="no"?>
<!-- Created with Inkscape (http://www.inkscape.org/) -->

<svg
   xmlns:dc="http://purl.org/dc/elements/1.1/"
   xmlns:cc="http://creativecommons.org/ns#"
   xmlns:rdf="http://www.w3.org/1999/02/22-rdf-syntax-ns#"
   xmlns:svg="http://www.w3.org/2000/svg"
   xmlns="http://www.w3.org/2000/svg"
   xmlns:inkscape="http://www.inkscape.org/namespaces/inkscape"
   version="1.0"
   width="18.34mm"
   height="18.33mm"
   id="svg2">
  <metadata
     id="metadata120">
    <rdf:RDF>
      <cc:Work
         rdf:about="">
        <dc:format>image/svg+xml</dc:format>
        <dc:type
           rdf:resource="http://purl.org/dc/dcmitype/StillImage" />
      </cc:Work>
    </rdf:RDF>
  </metadata>
  <defs
     id="defs4" />
  <g
     id="g6">
    <path
       d="m 2.4987698,2.4987698 0,4.9975395 61.2198592,0 0,-4.9975395 -61.2198592,0 z"
       inkscape:connector-curvature="0"
       id="path8"
       style="fill:#21b1ff;fill-opacity:1;fill-rule:evenodd;stroke:none" />
    <path
       d="m 2.4987698,7.4963093 0,1.2493849 61.2198592,0 0,-1.2493849 -61.2198592,0 z"
       inkscape:connector-curvature="0"
       id="path10"
       style="fill:#21b1fe;fill-opacity:1;fill-rule:evenodd;stroke:none" />
    <path
       d="m 2.4987698,8.7456942 0,1.2493848 61.2198592,0 0,-1.2493848 -61.2198592,0 z"
       inkscape:connector-curvature="0"
       id="path12"
       style="fill:#20b0fd;fill-opacity:1;fill-rule:evenodd;stroke:none" />
    <path
       d="m 2.4987698,9.995079 0,1.249385 61.2198592,0 0,-1.249385 -61.2198592,0 z"
       inkscape:connector-curvature="0"
       id="path14"
       style="fill:#20affc;fill-opacity:1;fill-rule:evenodd;stroke:none" />
    <path
       d="m 2.4987698,11.244464 0,1.249385 61.2198592,0 0,-1.249385 -61.2198592,0 z"
       inkscape:connector-curvature="0"
       id="path16"
       style="fill:#1faefb;fill-opacity:1;fill-rule:evenodd;stroke:none" />
    <path
       d="m 2.4987698,12.493849 0,1.249385 61.2198592,0 0,-1.249385 -61.2198592,0 z"
       inkscape:connector-curvature="0"
       id="path18"
       style="fill:#1eadf9;fill-opacity:1;fill-rule:evenodd;stroke:none" />
    <path
       d="m 2.4987698,13.743234 0,1.249385 61.2198592,0 0,-1.249385 -61.2198592,0 z"
       inkscape:connector-curvature="0"
       id="path20"
       style="fill:#1eabf7;fill-opacity:1;fill-rule:evenodd;stroke:none" />
    <path
       d="m 2.4987698,14.992619 0,1.249384 61.2198592,0 0,-1.249384 -61.2198592,0 z"
       inkscape:connector-curvature="0"
       id="path22"
       style="fill:#1daaf6;fill-opacity:1;fill-rule:evenodd;stroke:none" />
    <path
       d="m 2.4987698,16.242003 0,1.249385 61.2198592,0 0,-1.249385 -61.2198592,0 z"
       inkscape:connector-curvature="0"
       id="path24"
       style="fill:#1ca9f4;fill-opacity:1;fill-rule:evenodd;stroke:none" />
    <path
       d="m 2.4987698,17.491388 0,1.249385 61.2198592,0 0,-1.249385 -61.2198592,0 z"
       inkscape:connector-curvature="0"
       id="path26"
       style="fill:#1ca7f2;fill-opacity:1;fill-rule:evenodd;stroke:none" />
    <path
       d="m 2.4987698,18.740773 0,1.249385 61.2198592,0 0,-1.249385 -61.2198592,0 z"
       inkscape:connector-curvature="0"
       id="path28"
       style="fill:#1ba6f1;fill-opacity:1;fill-rule:evenodd;stroke:none" />
    <path
       d="m 2.4987698,19.990158 0,1.249385 61.2198592,0 0,-1.249385 -61.2198592,0 z"
       inkscape:connector-curvature="0"
       id="path30"
       style="fill:#1aa5ef;fill-opacity:1;fill-rule:evenodd;stroke:none" />
    <path
       d="m 2.4987698,21.239543 0,1.249385 61.2198592,0 0,-1.249385 -61.2198592,0 z"
       inkscape:connector-curvature="0"
       id="path32"
       style="fill:#19a3ed;fill-opacity:1;fill-rule:evenodd;stroke:none" />
    <path
       d="m 2.4987698,22.488928 0,1.249385 61.2198592,0 0,-1.249385 -61.2198592,0 z"
       inkscape:connector-curvature="0"
       id="path34"
       style="fill:#18a2ec;fill-opacity:1;fill-rule:evenodd;stroke:none" />
    <path
       d="m 2.4987698,23.738313 0,1.249385 61.2198592,0 0,-1.249385 -61.2198592,0 z"
       inkscape:connector-curvature="0"
       id="path36"
       style="fill:#17a1ea;fill-opacity:1;fill-rule:evenodd;stroke:none" />
    <path
       d="m 2.4987698,24.987698 0,1.249384 61.2198592,0 0,-1.249384 -61.2198592,0 z"
       inkscape:connector-curvature="0"
       id="path38"
       style="fill:#179fe8;fill-opacity:1;fill-rule:evenodd;stroke:none" />
    <path
       d="m 2.4987698,26.237082 0,1.249385 61.2198592,0 0,-1.249385 -61.2198592,0 z"
       inkscape:connector-curvature="0"
       id="path40"
       style="fill:#169ee7;fill-opacity:1;fill-rule:evenodd;stroke:none" />
    <path
       d="m 2.4987698,27.486467 0,1.249385 61.2198592,0 0,-1.249385 -61.2198592,0 z"
       inkscape:connector-curvature="0"
       id="path42"
       style="fill:#159de5;fill-opacity:1;fill-rule:evenodd;stroke:none" />
    <path
       d="m 2.4987698,28.735852 0,1.249385 61.2198592,0 0,-1.249385 -61.2198592,0 z"
       inkscape:connector-curvature="0"
       id="path44"
       style="fill:#159be3;fill-opacity:1;fill-rule:evenodd;stroke:none" />
    <path
       d="m 2.4987698,29.985237 0,1.249385 61.2198592,0 0,-1.249385 -61.2198592,0 z"
       inkscape:connector-curvature="0"
       id="path46"
       style="fill:#149ae2;fill-opacity:1;fill-rule:evenodd;stroke:none" />
    <path
       d="m 2.4987698,31.234622 0,1.249385 61.2198592,0 0,-1.249385 -61.2198592,0 z"
       inkscape:connector-curvature="0"
       id="path48"
       style="fill:#1399e1;fill-opacity:1;fill-rule:evenodd;stroke:none" />
    <path
       d="m 2.4987698,32.484007 0,1.249385 61.2198592,0 0,-1.249385 -61.2198592,0 z"
       inkscape:connector-curvature="0"
       id="path50"
       style="fill:#1397df;fill-opacity:1;fill-rule:evenodd;stroke:none" />
    <path
       d="m 2.4987698,33.733392 0,1.249385 61.2198592,0 0,-1.249385 -61.2198592,0 z"
       inkscape:connector-curvature="0"
       id="path52"
       style="fill:#1296de;fill-opacity:1;fill-rule:evenodd;stroke:none" />
    <path
       d="m 2.4987698,34.982777 0,1.249385 61.2198592,0 0,-1.249385 -61.2198592,0 z"
       inkscape:connector-curvature="0"
       id="path54"
       style="fill:#1195dc;fill-opacity:1;fill-rule:evenodd;stroke:none" />
    <path
       d="m 2.4987698,36.232162 0,1.249384 61.2198592,0 0,-1.249384 -61.2198592,0 z"
       inkscape:connector-curvature="0"
       id="path56"
       style="fill:#1193da;fill-opacity:1;fill-rule:evenodd;stroke:none" />
    <path
       d="m 2.4987698,37.481546 0,1.249385 61.2198592,0 0,-1.249385 -61.2198592,0 z"
       inkscape:connector-curvature="0"
       id="path58"
       style="fill:#1092d9;fill-opacity:1;fill-rule:evenodd;stroke:none" />
    <path
       d="m 2.4987698,38.730931 0,1.249385 61.2198592,0 0,-1.249385 -61.2198592,0 z"
       inkscape:connector-curvature="0"
       id="path60"
       style="fill:#0f91d7;fill-opacity:1;fill-rule:evenodd;stroke:none" />
    <path
       d="m 2.4987698,39.980316 0,1.249385 61.2198592,0 0,-1.249385 -61.2198592,0 z"
       inkscape:connector-curvature="0"
       id="path62"
       style="fill:#0e8fd5;fill-opacity:1;fill-rule:evenodd;stroke:none" />
    <path
       d="m 2.4987698,41.229701 0,1.249385 61.2198592,0 0,-1.249385 -61.2198592,0 z"
       inkscape:connector-curvature="0"
       id="path64"
       style="fill:#0d8ed4;fill-opacity:1;fill-rule:evenodd;stroke:none" />
    <path
       d="m 2.4987698,42.479086 0,1.249385 61.2198592,0 0,-1.249385 -61.2198592,0 z"
       inkscape:connector-curvature="0"
       id="path66"
       style="fill:#0c8dd2;fill-opacity:1;fill-rule:evenodd;stroke:none" />
    <path
       d="m 2.4987698,43.728471 0,1.249385 61.2198592,0 0,-1.249385 -61.2198592,0 z"
       inkscape:connector-curvature="0"
       id="path68"
       style="fill:#0c8bd0;fill-opacity:1;fill-rule:evenodd;stroke:none" />
    <path
       d="m 2.4987698,44.977856 0,1.249385 61.2198592,0 0,-1.249385 -61.2198592,0 z"
       inkscape:connector-curvature="0"
       id="path70"
       style="fill:#0b8acf;fill-opacity:1;fill-rule:evenodd;stroke:none" />
    <path
       d="m 2.4987698,46.227241 0,1.249384 61.2198592,0 0,-1.249384 -61.2198592,0 z"
       inkscape:connector-curvature="0"
       id="path72"
       style="fill:#0a89cd;fill-opacity:1;fill-rule:evenodd;stroke:none" />
    <path
       d="m 2.4987698,47.476625 0,1.249385 61.2198592,0 0,-1.249385 -61.2198592,0 z"
       inkscape:connector-curvature="0"
       id="path74"
       style="fill:#0a87cb;fill-opacity:1;fill-rule:evenodd;stroke:none" />
    <path
       d="m 2.4987698,48.72601 0,1.249385 61.2198592,0 0,-1.249385 -61.2198592,0 z"
       inkscape:connector-curvature="0"
       id="path76"
       style="fill:#0986ca;fill-opacity:1;fill-rule:evenodd;stroke:none" />
    <path
       d="m 2.4987698,49.975395 0,1.249385 61.2198592,0 0,-1.249385 -61.2198592,0 z"
       inkscape:connector-curvature="0"
       id="path78"
       style="fill:#0885c8;fill-opacity:1;fill-rule:evenodd;stroke:none" />
    <path
       d="m 2.4987698,51.22478 0,1.249385 61.2198592,0 0,-1.249385 -61.2198592,0 z"
       inkscape:connector-curvature="0"
       id="path80"
       style="fill:#0883c6;fill-opacity:1;fill-rule:evenodd;stroke:none" />
    <path
       d="m 2.4987698,52.474165 0,1.249385 61.2198592,0 0,-1.249385 -61.2198592,0 z"
       inkscape:connector-curvature="0"
       id="path82"
       style="fill:#0782c5;fill-opacity:1;fill-rule:evenodd;stroke:none" />
    <path
       d="m 2.4987698,53.72355 0,1.249385 61.2198592,0 0,-1.249385 -61.2198592,0 z"
       inkscape:connector-curvature="0"
       id="path84"
       style="fill:#0681c3;fill-opacity:1;fill-rule:evenodd;stroke:none" />
    <path
       d="m 2.4987698,54.972935 0,1.249385 61.2198592,0 0,-1.249385 -61.2198592,0 z"
       inkscape:connector-curvature="0"
       id="path86"
       style="fill:#057fc1;fill-opacity:1;fill-rule:evenodd;stroke:none" />
    <path
       d="m 2.4987698,56.22232 0,1.249384 61.2198592,0 0,-1.249384 -61.2198592,0 z"
       inkscape:connector-curvature="0"
       id="path88"
       style="fill:#047ec0;fill-opacity:1;fill-rule:evenodd;stroke:none" />
    <path
       d="m 2.4987698,57.471704 0,1.249385 61.2198592,0 0,-1.249385 -61.2198592,0 z"
       inkscape:connector-curvature="0"
       id="path90"
       style="fill:#037dbe;fill-opacity:1;fill-rule:evenodd;stroke:none" />
    <path
       d="m 2.4987698,58.721089 0,1.249385 61.2198592,0 0,-1.249385 -61.2198592,0 z"
       inkscape:connector-curvature="0"
       id="path92"
       style="fill:#037bbc;fill-opacity:1;fill-rule:evenodd;stroke:none" />
    <path
       d="m 2.4987698,59.970474 0,1.249385 61.2198592,0 0,-1.249385 -61.2198592,0 z"
       inkscape:connector-curvature="0"
       id="path94"
       style="fill:#027abb;fill-opacity:1;fill-rule:evenodd;stroke:none" />
    <path
       d="m 2.4987698,61.219859 0,2.49877 61.2198592,0 0,-2.49877 -61.2198592,0 z"
       inkscape:connector-curvature="0"
       id="path96"
       style="fill:#0179b9;fill-opacity:1;fill-rule:evenodd;stroke:none" />
    <path
       d="m 10.307425,61.297946 -0.312346,-0.07809 44.977856,0 -0.23426,0.07809 2.889203,-0.624693 -0.390433,0.156173 2.420683,-1.561731 -0.390433,0.390433 1.561731,-2.420683 -0.156173,0.390433 0.624693,-2.889203 -0.07809,0.23426 0,-44.977856 0.07809,0.312346 -0.624693,-2.8892023 0.156173,0.3904328 -1.561731,-2.4206832 0.390433,0.3904328 -2.420683,-1.5617311 0.390433,0.1561731 -2.889203,-0.6246925 0.23426,0 -44.977856,0 0.312346,0 L 7.4182227,4.3728471 7.8086555,4.216674 5.3879723,5.7784051 5.7784051,5.3879723 4.216674,7.8086555 4.3728471,7.4182227 3.7481546,10.307425 l 0,-0.312346 0,44.977856 0,-0.23426 0.6246925,2.889203 -0.1561731,-0.390433 1.5617311,2.420683 -0.3904328,-0.390433 2.4206832,1.561731 -0.3904328,-0.156173 z m -3.4358082,1.79599 c -0.1561731,0 -0.3123462,-0.07809 -0.3904327,-0.156173 L 4.0605009,61.376032 C 3.9043278,61.297946 3.7481546,61.141773 3.6700681,60.985599 L 2.108337,58.564916 C 2.0302504,58.48683 1.9521639,58.330657 1.9521639,58.174483 L 1.3274714,55.285281 c 0,-0.07809 -0.078087,-0.156173 -0.078087,-0.312346 l 0,-44.977856 c 0,-0.078087 0.078087,-0.1561731 0.078087,-0.2342596 L 1.9521639,6.8716168 c 0,-0.1561731 0.078086,-0.3123462 0.1561731,-0.3904327 L 3.6700681,4.0605009 C 3.7481546,3.9043278 3.9043278,3.7481546 4.0605009,3.6700681 L 6.4811841,2.108337 C 6.5592706,2.0302504 6.7154437,1.9521639 6.8716168,1.9521639 L 9.7608194,1.3274714 c 0.078086,0 0.1561731,-0.078087 0.2342596,-0.078087 l 44.977856,0 c 0.156173,0 0.234259,0.078087 0.312346,0.078087 l 2.889202,0.6246925 c 0.156174,0 0.312347,0.078086 0.390433,0.1561731 l 2.420683,1.5617311 c 0.156174,0.078086 0.312347,0.2342597 0.390433,0.3904328 l 1.561731,2.4206832 c 0.07809,0.078086 0.156173,0.2342596 0.156173,0.3904327 l 0.624693,2.8892026 c 0,0.078086 0,0.1561731 0,0.2342596 l 0,44.977856 c 0,0.156173 0,0.234259 0,0.312346 l -0.624693,2.889202 c 0,0.156174 -0.07809,0.312347 -0.156173,0.390433 l -1.561731,2.420683 c -0.07809,0.156174 -0.234259,0.312347 -0.390433,0.390433 l -2.420683,1.561731 c -0.07809,0.07809 -0.234259,0.156173 -0.390433,0.156173 l -2.889202,0.624693 c -0.07809,0 -0.156173,0 -0.312346,0 l -44.977856,0 c -0.078087,0 -0.1561731,0 -0.2342596,0 z"
       inkscape:connector-curvature="0"
       id="path98"
       style="fill:#3dffb5;fill-opacity:1;fill-rule:nonzero;stroke:none" />
    <path
       d="m 43.728471,32.484007 11.244464,0"
       inkscape:connector-curvature="0"
       id="path100"
       style="fill:none;stroke:#ffffff;stroke-width:2.49876976px;stroke-linecap:round;stroke-linejoin:round;stroke-opacity:1;stroke-dasharray:none" />
    <path
       d="m 23.191707,52.161819 c 10.854031,0 19.677812,-8.745694 19.677812,-19.677812 0,-10.854031 -8.823781,-19.677812 -19.677812,-19.677812"
       inkscape:connector-curvature="0"
       id="path102"
       style="fill:none;stroke:#ffffff;stroke-width:2.49876976px;stroke-linecap:round;stroke-linejoin:round;stroke-opacity:1;stroke-dasharray:none" />
    <path
       d="m 2.4987698,21.239543 9.4484732,0"
       inkscape:connector-curvature="0"
       id="path104"
       style="fill:none;stroke:#ffffff;stroke-width:2.49876976px;stroke-linecap:round;stroke-linejoin:round;stroke-opacity:1;stroke-dasharray:none" />
    <path
       d="m 8.2771748,21.239543 c 0,2.03025 1.6398177,3.748155 3.6700682,3.748155 2.03025,0 3.670068,-1.717905 3.670068,-3.748155 0,-2.03025 -1.639818,-3.670068 -3.670068,-3.670068 -2.0302505,0 -3.6700682,1.639818 -3.6700682,3.670068"
       inkscape:connector-curvature="0"
       id="path106"
       style="fill:#ffffff;fill-opacity:1;fill-rule:evenodd;stroke:none" />
    <path
       d="m 2.4987698,32.484007 9.4484732,0"
       inkscape:connector-curvature="0"
       id="path108"
       style="fill:none;stroke:#ffffff;stroke-width:2.49876976px;stroke-linecap:round;stroke-linejoin:round;stroke-opacity:1;stroke-dasharray:none" />
    <path
       d="m 8.2771748,32.484007 c 0,2.03025 1.6398177,3.748155 3.6700682,3.748155 2.03025,0 3.670068,-1.717905 3.670068,-3.748155 0,-2.030251 -1.639818,-3.670068 -3.670068,-3.670068 -2.0302505,0 -3.6700682,1.639817 -3.6700682,3.670068"
       inkscape:connector-curvature="0"
       id="path110"
       style="fill:#ffffff;fill-opacity:1;fill-rule:evenodd;stroke:none" />
    <path
       d="m 2.4987698,43.728471 9.4484732,0"
       inkscape:connector-curvature="0"
       id="path112"
       style="fill:none;stroke:#ffffff;stroke-width:2.49876976px;stroke-linecap:round;stroke-linejoin:round;stroke-opacity:1;stroke-dasharray:none" />
    <path
       d="m 8.2771748,43.728471 c 0,2.03025 1.6398177,3.748154 3.6700682,3.748154 2.03025,0 3.670068,-1.717904 3.670068,-3.748154 0,-2.030251 -1.639818,-3.670068 -3.670068,-3.670068 -2.0302505,0 -3.6700682,1.639817 -3.6700682,3.670068"
       inkscape:connector-curvature="0"
       id="path114"
       style="fill:#ffffff;fill-opacity:1;fill-rule:evenodd;stroke:none" />
    <path
       d="M 58.877262,12.493849 48.413664,15.929657 51.927559,5.5441454 58.877262,12.493849 z"
       inkscape:connector-curvature="0"
       id="path116"
       style="fill:#ffffff;fill-opacity:1;fill-rule:evenodd;stroke:none" />
  </g>
</svg>
