<?xml version="1.0" encoding="UTF-8" standalone="no"?>
<!-- Created with Inkscape (http://www.inkscape.org/) -->

<svg
   xmlns:dc="http://purl.org/dc/elements/1.1/"
   xmlns:cc="http://creativecommons.org/ns#"
   xmlns:rdf="http://www.w3.org/1999/02/22-rdf-syntax-ns#"
   xmlns:svg="http://www.w3.org/2000/svg"
   xmlns="http://www.w3.org/2000/svg"
   xmlns:inkscape="http://www.inkscape.org/namespaces/inkscape"
   version="1.0"
   width="8.6700001mm"
   height="10.4mm"
   id="svg2">
  <metadata
     id="metadata118">
    <rdf:RDF>
      <cc:Work
         rdf:about="">
        <dc:format>image/svg+xml</dc:format>
        <dc:type
           rdf:resource="http://purl.org/dc/dcmitype/StillImage" />
      </cc:Work>
    </rdf:RDF>
  </metadata>
  <defs
     id="defs4" />
  <g
     id="g6">
    <path
       d="m 1.1811024,1.1811024 0,2.3622048 28.9370086,0 0,-2.3622048 -28.9370086,0 z"
       inkscape:connector-curvature="0"
       id="path8"
       style="fill:#21b1ff;fill-opacity:1;fill-rule:evenodd;stroke:none" />
    <path
       d="m 1.1811024,3.5433072 0,0.5905512 28.9370086,0 0,-0.5905512 -28.9370086,0 z"
       inkscape:connector-curvature="0"
       id="path10"
       style="fill:#21b1fe;fill-opacity:1;fill-rule:evenodd;stroke:none" />
    <path
       d="m 1.1811024,4.1338584 0,0.5905512 28.9370086,0 0,-0.5905512 -28.9370086,0 z"
       inkscape:connector-curvature="0"
       id="path12"
       style="fill:#20b0fd;fill-opacity:1;fill-rule:evenodd;stroke:none" />
    <path
       d="m 1.1811024,4.7244096 0,0.5905512 28.9370086,0 0,-0.5905512 -28.9370086,0 z"
       inkscape:connector-curvature="0"
       id="path14"
       style="fill:#20affc;fill-opacity:1;fill-rule:evenodd;stroke:none" />
    <path
       d="m 1.1811024,5.3149608 0,0.5905512 28.9370086,0 0,-0.5905512 -28.9370086,0 z"
       inkscape:connector-curvature="0"
       id="path16"
       style="fill:#1faefb;fill-opacity:1;fill-rule:evenodd;stroke:none" />
    <path
       d="m 1.1811024,5.905512 0,0.5905512 28.9370086,0 0,-0.5905512 -28.9370086,0 z"
       inkscape:connector-curvature="0"
       id="path18"
       style="fill:#1eadf9;fill-opacity:1;fill-rule:evenodd;stroke:none" />
    <path
       d="m 1.1811024,6.4960632 0,0.5905512 28.9370086,0 0,-0.5905512 -28.9370086,0 z"
       inkscape:connector-curvature="0"
       id="path20"
       style="fill:#1eabf7;fill-opacity:1;fill-rule:evenodd;stroke:none" />
    <path
       d="m 1.1811024,7.0866144 0,0.5905512 28.9370086,0 0,-0.5905512 -28.9370086,0 z"
       inkscape:connector-curvature="0"
       id="path22"
       style="fill:#1daaf6;fill-opacity:1;fill-rule:evenodd;stroke:none" />
    <path
       d="m 1.1811024,7.6771656 0,0.5905512 28.9370086,0 0,-0.5905512 -28.9370086,0 z"
       inkscape:connector-curvature="0"
       id="path24"
       style="fill:#1ca9f4;fill-opacity:1;fill-rule:evenodd;stroke:none" />
    <path
       d="m 1.1811024,8.2677168 0,0.5905512 28.9370086,0 0,-0.5905512 -28.9370086,0 z"
       inkscape:connector-curvature="0"
       id="path26"
       style="fill:#1ca7f2;fill-opacity:1;fill-rule:evenodd;stroke:none" />
    <path
       d="m 1.1811024,8.858268 0,0.5905512 28.9370086,0 0,-0.5905512 -28.9370086,0 z"
       inkscape:connector-curvature="0"
       id="path28"
       style="fill:#1ba6f1;fill-opacity:1;fill-rule:evenodd;stroke:none" />
    <path
       d="m 1.1811024,9.4488192 0,0.5905508 28.9370086,0 0,-0.5905508 -28.9370086,0 z"
       inkscape:connector-curvature="0"
       id="path30"
       style="fill:#1aa5ef;fill-opacity:1;fill-rule:evenodd;stroke:none" />
    <path
       d="m 1.1811024,10.03937 0,0.590552 28.9370086,0 0,-0.590552 -28.9370086,0 z"
       inkscape:connector-curvature="0"
       id="path32"
       style="fill:#19a3ed;fill-opacity:1;fill-rule:evenodd;stroke:none" />
    <path
       d="m 1.1811024,10.629922 0,0.590551 28.9370086,0 0,-0.590551 -28.9370086,0 z"
       inkscape:connector-curvature="0"
       id="path34"
       style="fill:#18a2ec;fill-opacity:1;fill-rule:evenodd;stroke:none" />
    <path
       d="m 1.1811024,11.220473 0,0.590551 28.9370086,0 0,-0.590551 -28.9370086,0 z"
       inkscape:connector-curvature="0"
       id="path36"
       style="fill:#17a1ea;fill-opacity:1;fill-rule:evenodd;stroke:none" />
    <path
       d="m 1.1811024,11.811024 0,0.590551 28.9370086,0 0,-0.590551 -28.9370086,0 z"
       inkscape:connector-curvature="0"
       id="path38"
       style="fill:#179fe8;fill-opacity:1;fill-rule:evenodd;stroke:none" />
    <path
       d="m 1.1811024,12.401575 0,0.590551 28.9370086,0 0,-0.590551 -28.9370086,0 z"
       inkscape:connector-curvature="0"
       id="path40"
       style="fill:#169ee7;fill-opacity:1;fill-rule:evenodd;stroke:none" />
    <path
       d="m 1.1811024,12.992126 0,0.590552 28.9370086,0 0,-0.590552 -28.9370086,0 z"
       inkscape:connector-curvature="0"
       id="path42"
       style="fill:#159de5;fill-opacity:1;fill-rule:evenodd;stroke:none" />
    <path
       d="m 1.1811024,13.582678 0,0.590551 28.9370086,0 0,-0.590551 -28.9370086,0 z"
       inkscape:connector-curvature="0"
       id="path44"
       style="fill:#159be3;fill-opacity:1;fill-rule:evenodd;stroke:none" />
    <path
       d="m 1.1811024,14.173229 0,0.590551 28.9370086,0 0,-0.590551 -28.9370086,0 z"
       inkscape:connector-curvature="0"
       id="path46"
       style="fill:#149ae2;fill-opacity:1;fill-rule:evenodd;stroke:none" />
    <path
       d="m 1.1811024,14.76378 0,0.590551 28.9370086,0 0,-0.590551 -28.9370086,0 z"
       inkscape:connector-curvature="0"
       id="path48"
       style="fill:#1399e1;fill-opacity:1;fill-rule:evenodd;stroke:none" />
    <path
       d="m 1.1811024,15.354331 0,0.590551 28.9370086,0 0,-0.590551 -28.9370086,0 z"
       inkscape:connector-curvature="0"
       id="path50"
       style="fill:#1397df;fill-opacity:1;fill-rule:evenodd;stroke:none" />
    <path
       d="m 1.1811024,15.944882 0,0.590552 28.9370086,0 0,-0.590552 -28.9370086,0 z"
       inkscape:connector-curvature="0"
       id="path52"
       style="fill:#1296de;fill-opacity:1;fill-rule:evenodd;stroke:none" />
    <path
       d="m 1.1811024,16.535434 0,0.590551 28.9370086,0 0,-0.590551 -28.9370086,0 z"
       inkscape:connector-curvature="0"
       id="path54"
       style="fill:#1195dc;fill-opacity:1;fill-rule:evenodd;stroke:none" />
    <path
       d="m 1.1811024,17.125985 0,0.590551 28.9370086,0 0,-0.590551 -28.9370086,0 z"
       inkscape:connector-curvature="0"
       id="path56"
       style="fill:#1193da;fill-opacity:1;fill-rule:evenodd;stroke:none" />
    <path
       d="m 1.1811024,17.716536 0,0.590551 28.9370086,0 0,-0.590551 -28.9370086,0 z"
       inkscape:connector-curvature="0"
       id="path58"
       style="fill:#1092d9;fill-opacity:1;fill-rule:evenodd;stroke:none" />
    <path
       d="m 1.1811024,18.307087 0,0.590551 28.9370086,0 0,-0.590551 -28.9370086,0 z"
       inkscape:connector-curvature="0"
       id="path60"
       style="fill:#0f91d7;fill-opacity:1;fill-rule:evenodd;stroke:none" />
    <path
       d="m 1.1811024,18.897638 0,0.590552 28.9370086,0 0,-0.590552 -28.9370086,0 z"
       inkscape:connector-curvature="0"
       id="path62"
       style="fill:#0e8fd5;fill-opacity:1;fill-rule:evenodd;stroke:none" />
    <path
       d="m 1.1811024,19.48819 0,0.590551 28.9370086,0 0,-0.590551 -28.9370086,0 z"
       inkscape:connector-curvature="0"
       id="path64"
       style="fill:#0d8ed4;fill-opacity:1;fill-rule:evenodd;stroke:none" />
    <path
       d="m 1.1811024,20.078741 0,0.590551 28.9370086,0 0,-0.590551 -28.9370086,0 z"
       inkscape:connector-curvature="0"
       id="path66"
       style="fill:#0c8dd2;fill-opacity:1;fill-rule:evenodd;stroke:none" />
    <path
       d="m 1.1811024,20.669292 0,0.590551 28.9370086,0 0,-0.590551 -28.9370086,0 z"
       inkscape:connector-curvature="0"
       id="path68"
       style="fill:#0c8bd0;fill-opacity:1;fill-rule:evenodd;stroke:none" />
    <path
       d="m 1.1811024,21.259843 0,0.590551 28.9370086,0 0,-0.590551 -28.9370086,0 z"
       inkscape:connector-curvature="0"
       id="path70"
       style="fill:#0b8acf;fill-opacity:1;fill-rule:evenodd;stroke:none" />
    <path
       d="m 1.1811024,21.850394 0,0.590552 28.9370086,0 0,-0.590552 -28.9370086,0 z"
       inkscape:connector-curvature="0"
       id="path72"
       style="fill:#0a89cd;fill-opacity:1;fill-rule:evenodd;stroke:none" />
    <path
       d="m 1.1811024,22.440946 0,0.590551 28.9370086,0 0,-0.590551 -28.9370086,0 z"
       inkscape:connector-curvature="0"
       id="path74"
       style="fill:#0a87cb;fill-opacity:1;fill-rule:evenodd;stroke:none" />
    <path
       d="m 1.1811024,23.031497 0,0.590551 28.9370086,0 0,-0.590551 -28.9370086,0 z"
       inkscape:connector-curvature="0"
       id="path76"
       style="fill:#0986ca;fill-opacity:1;fill-rule:evenodd;stroke:none" />
    <path
       d="m 1.1811024,23.622048 0,0.590551 28.9370086,0 0,-0.590551 -28.9370086,0 z"
       inkscape:connector-curvature="0"
       id="path78"
       style="fill:#0885c8;fill-opacity:1;fill-rule:evenodd;stroke:none" />
    <path
       d="m 1.1811024,24.212599 0,0.590551 28.9370086,0 0,-0.590551 -28.9370086,0 z"
       inkscape:connector-curvature="0"
       id="path80"
       style="fill:#0883c6;fill-opacity:1;fill-rule:evenodd;stroke:none" />
    <path
       d="m 1.1811024,24.80315 0,0.590551 28.9370086,0 0,-0.590551 -28.9370086,0 z"
       inkscape:connector-curvature="0"
       id="path82"
       style="fill:#0782c5;fill-opacity:1;fill-rule:evenodd;stroke:none" />
    <path
       d="m 1.1811024,25.393701 0,0.590552 28.9370086,0 0,-0.590552 -28.9370086,0 z"
       inkscape:connector-curvature="0"
       id="path84"
       style="fill:#0681c3;fill-opacity:1;fill-rule:evenodd;stroke:none" />
    <path
       d="m 1.1811024,25.984253 0,0.590551 28.9370086,0 0,-0.590551 -28.9370086,0 z"
       inkscape:connector-curvature="0"
       id="path86"
       style="fill:#057fc1;fill-opacity:1;fill-rule:evenodd;stroke:none" />
    <path
       d="m 1.1811024,26.574804 0,0.590551 28.9370086,0 0,-0.590551 -28.9370086,0 z"
       inkscape:connector-curvature="0"
       id="path88"
       style="fill:#047ec0;fill-opacity:1;fill-rule:evenodd;stroke:none" />
    <path
       d="m 1.1811024,27.165355 0,0.590551 28.9370086,0 0,-0.590551 -28.9370086,0 z"
       inkscape:connector-curvature="0"
       id="path90"
       style="fill:#037dbe;fill-opacity:1;fill-rule:evenodd;stroke:none" />
    <path
       d="m 1.1811024,27.755906 0,0.590551 28.9370086,0 0,-0.590551 -28.9370086,0 z"
       inkscape:connector-curvature="0"
       id="path92"
       style="fill:#037bbc;fill-opacity:1;fill-rule:evenodd;stroke:none" />
    <path
       d="m 1.1811024,28.346457 0,0.590552 28.9370086,0 0,-0.590552 -28.9370086,0 z"
       inkscape:connector-curvature="0"
       id="path94"
       style="fill:#027abb;fill-opacity:1;fill-rule:evenodd;stroke:none" />
    <path
       d="m 1.1811024,28.937009 0,1.181102 28.9370086,0 0,-1.181102 -28.9370086,0 z"
       inkscape:connector-curvature="0"
       id="path96"
       style="fill:#0179b9;fill-opacity:1;fill-rule:evenodd;stroke:none" />
    <path
       d="m 4.8720474,28.973918 -0.1476378,-0.03691 21.2598434,0 -0.110729,0.03691 1.36565,-0.295275 -0.184547,0.07382 1.144193,-0.738189 -0.184548,0.184548 0.738189,-1.144193 -0.07382,0.184547 0.295275,-1.36565 -0.03691,0.110729 0,-21.2598434 0.03691,0.1476378 -0.295275,-1.3656497 0.07382,0.1845473 -0.738189,-1.144193 0.184548,0.1845473 -1.144193,-0.738189 0.184547,0.073819 -1.36565,-0.2952756 0.110729,0 -21.2598434,0 0.1476378,0 L 3.5063977,2.0669292 3.690945,1.9931103 2.546752,2.7312993 2.7312993,2.546752 1.9931103,3.690945 2.0669292,3.5063977 1.7716536,4.8720474 l 0,-0.1476378 0,21.2598434 0,-0.110729 0.2952756,1.36565 -0.073819,-0.184547 0.738189,1.144193 -0.1845473,-0.184548 1.144193,0.738189 -0.1845473,-0.07382 z m -1.6240158,0.848917 c -0.073819,0 -0.1476378,-0.03691 -0.1845473,-0.07382 L 1.9192914,29.010828 C 1.8454725,28.973918 1.7716536,28.900099 1.7347441,28.82628 L 0.99655515,27.682087 C 0.9596457,27.645178 0.92273625,27.571359 0.92273625,27.49754 l -0.2952756,-1.36565 c 0,-0.03691 -0.0369094,-0.07382 -0.0369094,-0.147637 l 0,-21.2598434 c 0,-0.03691 0.0369094,-0.073819 0.0369094,-0.1107284 l 0.2952756,-1.3656496 c 0,-0.073819 0.0369095,-0.1476378 0.0738189,-0.1845473 L 1.7347441,1.9192914 C 1.7716536,1.8454725 1.8454725,1.7716536 1.9192914,1.7347441 L 3.0634843,0.99655515 c 0.03691,-0.0369094 0.1107284,-0.0738189 0.1845473,-0.0738189 l 1.3656496,-0.2952756 c 0.03691,0 0.073819,-0.0369094 0.1107284,-0.0369094 l 21.2598434,0 c 0.07382,0 0.110728,0.0369094 0.147637,0.0369094 l 1.36565,0.2952756 c 0.07382,0 0.147638,0.0369095 0.184547,0.0738189 L 28.82628,1.7347441 c 0.07382,0.03691 0.147638,0.1107284 0.184548,0.1845473 l 0.738189,1.1441929 c 0.03691,0.03691 0.07382,0.1107284 0.07382,0.1845473 l 0.295276,1.3656496 c 0,0.03691 0,0.073819 0,0.1107284 l 0,21.2598434 c 0,0.07382 0,0.110728 0,0.147637 l -0.295276,1.36565 c 0,0.07382 -0.03691,0.147638 -0.07382,0.184547 l -0.738189,1.144193 c -0.03691,0.07382 -0.110729,0.147638 -0.184548,0.184548 l -1.144193,0.738189 c -0.03691,0.03691 -0.110728,0.07382 -0.184547,0.07382 l -1.36565,0.295276 c -0.03691,0 -0.07382,0 -0.147637,0 l -21.2598434,0 c -0.03691,0 -0.073819,0 -0.1107284,0 z"
       inkscape:connector-curvature="0"
       id="path98"
       style="fill:#3dffb5;fill-opacity:1;fill-rule:nonzero;stroke:none" />
    <path
       d="m 20.669292,15.354331 5.314961,0"
       inkscape:connector-curvature="0"
       id="path100"
       style="fill:none;stroke:#ffffff;stroke-width:1.1811024px;stroke-linecap:round;stroke-linejoin:round;stroke-opacity:1;stroke-dasharray:none" />
    <path
       d="m 10.962107,24.655512 c 5.130413,0 9.301181,-4.133858 9.301181,-9.301181 0,-5.130413 -4.170768,-9.3011812 -9.301181,-9.3011812"
       inkscape:connector-curvature="0"
       id="path102"
       style="fill:none;stroke:#ffffff;stroke-width:1.1811024px;stroke-linecap:round;stroke-linejoin:round;stroke-opacity:1;stroke-dasharray:none" />
    <path
       d="m 1.1811024,10.03937 4.4660434,0"
       inkscape:connector-curvature="0"
       id="path104"
       style="fill:none;stroke:#ffffff;stroke-width:1.1811024px;stroke-linecap:round;stroke-linejoin:round;stroke-opacity:1;stroke-dasharray:none" />
    <path
       d="m 3.9124017,10.03937 c 0,0.959646 0.7750984,1.771654 1.7347441,1.771654 0.9596457,0 1.7347442,-0.812008 1.7347442,-1.771654 0,-0.9596453 -0.7750985,-1.7347438 -1.7347442,-1.7347438 -0.9596457,0 -1.7347441,0.7750985 -1.7347441,1.7347438"
       inkscape:connector-curvature="0"
       id="path106"
       style="fill:#ffffff;fill-opacity:1;fill-rule:evenodd;stroke:none" />
    <path
       d="m 1.1811024,15.354331 4.4660434,0"
       inkscape:connector-curvature="0"
       id="path108"
       style="fill:none;stroke:#ffffff;stroke-width:1.1811024px;stroke-linecap:round;stroke-linejoin:round;stroke-opacity:1;stroke-dasharray:none" />
    <path
       d="m 3.9124017,15.354331 c 0,0.959646 0.7750984,1.771654 1.7347441,1.771654 0.9596457,0 1.7347442,-0.812008 1.7347442,-1.771654 0,-0.959646 -0.7750985,-1.734744 -1.7347442,-1.734744 -0.9596457,0 -1.7347441,0.775098 -1.7347441,1.734744"
       inkscape:connector-curvature="0"
       id="path110"
       style="fill:#ffffff;fill-opacity:1;fill-rule:evenodd;stroke:none" />
    <path
       d="m 1.1811024,20.669292 4.4660434,0"
       inkscape:connector-curvature="0"
       id="path112"
       style="fill:none;stroke:#ffffff;stroke-width:1.1811024px;stroke-linecap:round;stroke-linejoin:round;stroke-opacity:1;stroke-dasharray:none" />
    <path
       d="m 3.9124017,20.669292 c 0,0.959646 0.7750984,1.771654 1.7347441,1.771654 0.9596457,0 1.7347442,-0.812008 1.7347442,-1.771654 0,-0.959646 -0.7750985,-1.734744 -1.7347442,-1.734744 -0.9596457,0 -1.7347441,0.775098 -1.7347441,1.734744"
       inkscape:connector-curvature="0"
       id="path114"
       style="fill:#ffffff;fill-opacity:1;fill-rule:evenodd;stroke:none" />
  </g>
</svg>
