<?xml version="1.0" encoding="UTF-8" standalone="no"?>
<!-- Created with Inkscape (http://www.inkscape.org/) -->

<svg
   xmlns:dc="http://purl.org/dc/elements/1.1/"
   xmlns:cc="http://creativecommons.org/ns#"
   xmlns:rdf="http://www.w3.org/1999/02/22-rdf-syntax-ns#"
   xmlns:svg="http://www.w3.org/2000/svg"
   xmlns="http://www.w3.org/2000/svg"
   xmlns:inkscape="http://www.inkscape.org/namespaces/inkscape"
   version="1.0"
   width="19.780001mm"
   height="15.86mm"
   id="svg2">
  <metadata
     id="metadata36">
    <rdf:RDF>
      <cc:Work
         rdf:about="">
        <dc:format>image/svg+xml</dc:format>
        <dc:type
           rdf:resource="http://purl.org/dc/dcmitype/StillImage" />
      </cc:Work>
    </rdf:RDF>
  </metadata>
  <defs
     id="defs4" />
  <g
     id="g6">
    <path
       d="m 60.762874,25.415617 0.156404,-0.938423 -2.424259,-0.625615 0,-0.469212 0,-0.312807 0,-0.469212 -0.0782,-0.312807 2.346057,-0.938423 -0.234605,-0.938423 -2.424259,0.312808 -0.156404,-0.39101 -0.156404,-0.312807 -0.234605,-0.39101 -0.156404,-0.312807 1.798643,-1.798644 -0.625615,-0.782019 -2.111451,1.25123 -0.156404,-0.156403 -0.234606,-0.156404 -0.156403,-0.156404 -0.156404,-0.156404 -0.860221,1.016625 0.625615,0.547413 0.547413,0.625615 0.39101,0.782019 0.391009,0.782019 0.234606,0.782019 0.156404,0.860221 0.0782,0.860221 -0.0782,0.938423 -0.156404,0.703817 -0.156404,0.625615 -0.234605,0.625615 -0.39101,0.547414 -0.312807,0.547413 -0.469212,0.547413 -0.391009,0.39101 -0.547414,0.469211 -0.547413,0.312808 -0.547413,0.312807 -0.625615,0.234606 -0.625616,0.234606 -0.703817,0.156403 -0.625615,0.0782 -0.703817,0 -0.703817,-0.0782 -0.547413,-0.0782 -0.547413,-0.156403 -0.469212,-0.234606 -0.469211,-0.156404 -0.469212,-0.312807 -0.469211,-0.234606 -0.39101,-0.312808 -0.391009,-0.391009 -0.782019,0.938423 0.156404,0.156403 0.156404,0.156404 0.156403,0.156404 0.234606,0.0782 -1.016625,2.346057 0.782019,0.469211 1.564038,-1.955047 0.234606,0.0782 0.156404,0.0782 0.156404,0.0782 0.156403,0.0782 0.234606,0.0782 0.156404,0 0.234606,0.0782 0.156403,0 -0.0782,2.580663 1.016624,0.156403 0.625615,-2.50246 0.234606,0 0.234606,0 0.156404,0 0.156403,0 0.234606,0 0.234606,0 0.156404,0 0.156403,-0.0782 0.938423,2.346057 0.938423,-0.234606 -0.312808,-2.502461 0.156404,-0.0782 0.234606,-0.0782 0.156404,-0.0782 0.156403,-0.0782 0.234606,-0.0782 0.156404,-0.0782 0.156404,-0.0782 0.156403,-0.0782 1.798644,1.798644 0.782019,-0.547413 -1.25123,-2.189654 0.0782,-0.156403 0.156403,-0.156404 0.156404,-0.0782 0.156404,-0.156404 0.156404,-0.156404 0.0782,-0.156403 0.0782,-0.156404 0.156403,-0.156404 2.346057,1.016625 0.469212,-0.860221 -1.955048,-1.485836 0.156404,-0.39101 0.156404,-0.391009 0.0782,-0.312808 0.0782,-0.391009 2.50246,0 z"
       inkscape:connector-curvature="0"
       id="path8"
       style="fill:#ffffff;fill-opacity:1;fill-rule:evenodd;stroke:none" />
    <path
       d="m 43.793063,22.600348 0.0782,-0.703817 0.234606,-0.625615 0.312808,-0.625615 0.234605,-0.625615 0.39101,-0.547414 0.469211,-0.469211 0.469212,-0.469211 0.469211,-0.469212 0.547413,-0.312807 0.547414,-0.312808 0.625615,-0.234606 0.625615,-0.234605 0.625615,-0.156404 0.703817,-0.0782 0.703817,0 0.625616,0.0782 0.547413,0.0782 0.469211,0.156404 0.469212,0.156403 0.391009,0.156404 0.39101,0.234606 0.391009,0.234606 0.39101,0.234605 0.391009,0.312808 0.860221,-1.016625 -0.0782,-0.0782 -0.156404,-0.156403 -0.156404,-0.0782 -0.156403,-0.0782 1.016624,-2.267855 -0.782019,-0.547414 -1.564038,1.955048 -0.156403,-0.0782 -0.156404,-0.0782 -0.234606,-0.0782 -0.156404,-0.0782 -0.234605,0 -0.156404,-0.0782 -0.156404,-0.0782 -0.234606,0 0.0782,-2.50246 -1.016624,-0.156404 -0.625616,2.346057 -0.156403,0 -0.234606,0 -0.234606,0 -0.156404,0 -0.234605,0.0782 -0.156404,0 -0.234606,0 -0.156404,0.0782 -0.938422,-2.346057 -0.938423,0.234605 0.312807,2.424259 -0.156403,0.0782 -0.234606,0.0782 -0.156404,0.0782 -0.156404,0.0782 -0.156403,0.156404 -0.234606,0.0782 -0.156404,0.0782 -0.156404,0.0782 -1.720441,-1.798643 -0.782019,0.625615 1.173028,2.111451 -0.156404,0.156404 -0.0782,0.156404 -0.156403,0.156404 -0.156404,0.156403 -0.0782,0.0782 -0.156404,0.156404 -0.156404,0.234606 -0.0782,0.156403 -2.346057,-1.016624 -0.469211,0.782019 1.955047,1.564038 -0.0782,0.312807 -0.156404,0.39101 -0.156404,0.391009 -0.0782,0.39101 -2.502461,-0.0782 -0.156403,1.016625 2.424258,0.625615 0,0.391009 0,0.39101 0,0.391009 0.0782,0.39101 -2.346057,0.938422 0.234606,0.938423 2.502461,-0.312807 0.156404,0.391009 0.156403,0.312808 0.156404,0.391009 0.234606,0.312808 -1.876846,1.720442 0.625616,0.782019 2.189653,-1.251231 0.0782,0.156404 0.156403,0.0782 0.0782,0.0782 0.156404,0.156404 0.782019,-0.938423 -0.547413,-0.547414 -0.469212,-0.625615 -0.312807,-0.703817 -0.312808,-0.703817 -0.234606,-0.782019 -0.156403,-0.782019 0,-0.860221 0.0782,-0.782019 z"
       inkscape:connector-curvature="0"
       id="path10"
       style="fill:#ffffff;fill-opacity:1;fill-rule:evenodd;stroke:none" />
    <path
       d="m 53.881107,24.007983 0,-0.469212 0,-0.391009 -0.0782,-0.469212 -0.156403,-0.391009 -0.156404,-0.469212 -0.234606,-0.312807 -0.312807,-0.312808 -0.312808,-0.312807 -4.613912,5.004921 0.234606,0.234606 0.234605,0.156404 0.234606,0.156403 0.234606,0.156404 0.234605,0.0782 0.234606,0.156404 0.312808,0 0.312807,0.0782 0.625616,0 0.703817,-0.0782 0.625615,-0.234606 0.547413,-0.312807 0.469211,-0.469212 0.39101,-0.469211 0.312808,-0.625615 0.156403,-0.703817 z"
       inkscape:connector-curvature="0"
       id="path12"
       style="fill:#ffffff;fill-opacity:1;fill-rule:evenodd;stroke:none" />
    <path
       d="m 50.987637,20.17609 -0.625615,0 -0.703817,0.0782 -0.625615,0.234606 -0.547414,0.312808 -0.469211,0.469211 -0.391009,0.469211 -0.312808,0.625616 -0.156404,0.703817 0,0.391009 0,0.39101 0,0.391009 0.156404,0.39101 0.0782,0.312807 0.234606,0.312808 0.156403,0.312807 0.234606,0.312808 4.613912,-5.004921 -0.234606,-0.156404 -0.156404,-0.0782 -0.156403,-0.0782 -0.234606,-0.156404 -0.156404,-0.0782 -0.234605,-0.0782 -0.234606,0 -0.234606,-0.0782 z"
       inkscape:connector-curvature="0"
       id="path14"
       style="fill:#ffffff;fill-opacity:1;fill-rule:evenodd;stroke:none" />
    <path
       d="m 35.190854,26.432241 1.798643,-0.782019 -0.234605,-1.25123 -1.955048,-0.0782 -0.0782,-0.234606 -0.0782,-0.234605 -0.0782,-0.234606 -0.0782,-0.312808 -0.0782,-0.156403 -0.156404,-0.312808 -0.0782,-0.234606 -0.156404,-0.234605 1.251231,-1.329433 -0.703817,-1.094826 -1.720442,0.625615 -0.156404,-0.156404 -0.156404,-0.234605 -0.156403,-0.156404 -0.234606,-0.234606 -0.156404,-0.156404 -0.234606,-0.156404 -0.156403,-0.234605 -0.234606,-0.156404 0.625615,-1.720442 -1.016625,-0.703817 -1.329432,1.251231 -0.156404,-0.0782 -0.0782,-0.0782 -0.0782,-0.0782 -0.156404,0 -0.0782,-0.0782 -0.156404,-0.0782 -0.0782,0 -0.156404,-0.0782 -0.782019,1.876846 0.547414,0.312807 0.625615,0.312808 0.469211,0.312807 0.547414,0.39101 0.469211,0.391009 0.469211,0.469212 0.39101,0.547413 0.391009,0.469211 0.312808,0.547414 0.312807,0.547413 0.234606,0.625615 0.234606,0.625615 0.156404,0.625616 0.156403,0.625615 0.0782,0.703817 0,0.703817 -0.0782,0.860221 -0.0782,0.860221 -0.234606,0.860221 -0.312808,0.86022 -0.391009,0.782019 -0.39101,0.703817 -0.547413,0.703818 -0.547413,0.625615 -0.625615,0.547413 -0.703818,0.547413 -0.703817,0.39101 -0.782019,0.391009 -0.782019,0.312808 -0.86022,0.234606 -0.938423,0.0782 -0.860221,0.0782 -0.469211,0 -0.469212,-0.0782 -0.469211,0 -0.469212,-0.0782 -0.391009,-0.156404 -0.39101,-0.0782 -0.469211,-0.156404 -0.391009,-0.156404 -0.703818,1.720442 0.0782,0.0782 0.156404,0 0.156404,0.0782 0.0782,0.0782 0.156404,0 0.0782,0.0782 0.156403,0 0.0782,0.0782 0.0782,1.564038 1.329432,0.312808 0.703817,-1.485836 0.234606,0.0782 0.312808,0 0.234605,0 0.312808,0 0.234606,0 0.234605,0 0.312808,0 0.234606,-0.0782 0.625615,1.407634 1.25123,-0.234606 0.234606,-1.564038 0.234606,-0.0782 0.234605,-0.0782 0.312808,-0.0782 0.234606,-0.0782 0.234605,-0.156404 0.234606,-0.0782 0.234606,-0.156404 0.234605,-0.0782 1.329433,1.251231 1.094826,-0.703817 -0.625615,-1.720442 0.156404,-0.156404 0.234605,-0.156404 0.156404,-0.234605 0.234606,-0.156404 0.156404,-0.234606 0.234605,-0.156404 0.156404,-0.156403 0.156404,-0.234606 1.564038,0.547413 0.703817,-1.016624 -1.016625,-1.251231 0.0782,-0.234605 0.0782,-0.312808 0.156404,-0.156404 0.0782,-0.312807 0.156404,-0.234606 0.0782,-0.234606 0.0782,-0.234606 0.0782,-0.234605 1.720442,-0.156404 0.312808,-1.25123 -1.64224,-0.703817 0.0782,-0.469212 0,-0.547413 0,-0.547413 -0.0782,-0.547414 z"
       inkscape:connector-curvature="0"
       id="path16"
       style="fill:#ffffff;fill-opacity:1;fill-rule:evenodd;stroke:none" />
    <path
       d="m 15.562178,27.527068 0.0782,-0.938423 0.0782,-0.860221 0.234606,-0.860221 0.312808,-0.86022 0.391009,-0.782019 0.39101,-0.703818 0.547413,-0.703817 0.547413,-0.625615 0.625615,-0.547413 0.703817,-0.469211 0.782019,-0.469212 0.782019,-0.391009 0.782019,-0.312808 0.860221,-0.234606 0.860221,-0.0782 0.938423,-0.0782 0.469211,0 0.39101,0.0782 0.469211,0.0782 0.469212,0 0.391009,0.156404 0.469211,0.0782 0.39101,0.156404 0.391009,0.156404 0.782019,-1.876846 -0.0782,-0.0782 -0.156403,0 -0.156404,-0.0782 -0.156404,0 -0.0782,-0.0782 -0.156404,-0.0782 -0.156403,0 -0.0782,-0.0782 0,-1.798644 -1.329433,-0.234606 -0.782019,1.564038 -0.312807,0 -0.234606,0 -0.234606,0 -0.312807,0 -0.234606,0 -0.234605,0 -0.312808,0 -0.312808,0 -0.782019,-1.64224 -1.25123,0.234606 0,1.876846 -0.234606,0.0782 -0.312807,0.0782 -0.234606,0.0782 -0.234606,0.0782 -0.234605,0.0782 -0.312808,0.156404 -0.234606,0.0782 -0.234605,0.156404 -1.407634,-1.329433 -1.094827,0.703817 0.782019,1.798644 -0.234606,0.156404 -0.156404,0.234606 -0.234605,0.156403 -0.156404,0.156404 -0.234606,0.234606 -0.156404,0.156404 -0.156403,0.234605 -0.234606,0.156404 -1.798644,-0.703817 -0.703817,1.016625 1.329433,1.485836 -0.0782,0.234605 -0.156404,0.234606 -0.0782,0.234606 -0.156404,0.234606 -0.0782,0.234605 -0.0782,0.312808 -0.0782,0.234606 -0.0782,0.234605 -1.876846,-0.0782 -0.234606,1.329433 1.64224,0.86022 0,0.469212 0,0.547413 0,0.547413 0,0.547414 -1.64224,0.703817 0.234606,1.329432 1.876846,0 0.0782,0.234606 0.0782,0.312807 0.0782,0.234606 0.0782,0.234606 0.0782,0.234605 0.156404,0.234606 0.0782,0.234606 0.156404,0.234605 -1.173029,1.251231 0.703817,1.094826 1.64224,-0.547413 0.156404,0.234606 0.156404,0.156404 0.234605,0.234605 0.156404,0.156404 0.156404,0.156404 0.234606,0.234606 0.156403,0.156403 0.234606,0.156404 -0.625615,1.64224 1.016625,0.703817 1.407634,-1.173028 0.0782,0.0782 0.156403,0.0782 0.0782,0 0.156404,0.0782 0.0782,0.0782 0.156404,0.0782 0.0782,0 0.156403,0.0782 0.703818,-1.720442 -0.547414,-0.312807 -0.547413,-0.312808 -0.547413,-0.312808 -0.547414,-0.391009 -0.469211,-0.39101 -0.391009,-0.547413 -0.469212,-0.469211 -0.391009,-0.469212 -0.312808,-0.547413 -0.312808,-0.625615 -0.234605,-0.547413 -0.234606,-0.625615 -0.156404,-0.625616 -0.156404,-0.625615 -0.0782,-0.703817 0,-0.625615 z"
       inkscape:connector-curvature="0"
       id="path18"
       style="fill:#ffffff;fill-opacity:1;fill-rule:evenodd;stroke:none" />
    <path
       d="m 28.8565,27.527068 0,-0.703817 -0.156404,-0.625615 -0.234605,-0.625616 -0.312808,-0.547413 -0.391009,-0.469211 -0.469212,-0.469212 -0.547413,-0.391009 -0.547413,-0.312808 -3.519086,8.2112 0.234606,0.0782 0.234606,0.0782 0.156403,0 0.234606,0.0782 0.234606,0.0782 0.234606,0 0.234605,0 0.234606,0 0.469211,0 0.39101,-0.0782 0.391009,-0.0782 0.469212,-0.156403 0.391009,-0.234606 0.312808,-0.156404 0.391009,-0.312808 0.312808,-0.312807 0.312807,-0.234606 0.234606,-0.391009 0.234606,-0.312808 0.156404,-0.469211 0.156403,-0.39101 0.0782,-0.391009 0.0782,-0.469212 0,-0.391009 z"
       inkscape:connector-curvature="0"
       id="path20"
       style="fill:#ffffff;fill-opacity:1;fill-rule:evenodd;stroke:none" />
    <path
       d="m 24.477194,23.06956 -0.469211,0 -0.469212,0.0782 -0.391009,0.0782 -0.469212,0.156403 -0.312807,0.234606 -0.39101,0.234606 -0.391009,0.234605 -0.312808,0.312808 -0.234606,0.234606 -0.312807,0.391009 -0.234606,0.312808 -0.156404,0.469211 -0.156403,0.39101 -0.0782,0.391009 -0.0782,0.469212 0,0.469211 0,0.625615 0.156404,0.625615 0.234605,0.625615 0.312808,0.547414 0.391009,0.547413 0.547414,0.391009 0.469211,0.39101 0.547413,0.312808 3.519086,-8.2112 -0.234606,-0.0782 -0.234606,-0.0782 -0.156404,0 -0.234605,-0.0782 -0.234606,0 -0.156404,-0.0782 -0.234605,0 -0.234606,0 z"
       inkscape:connector-curvature="0"
       id="path22"
       style="fill:#ffffff;fill-opacity:1;fill-rule:evenodd;stroke:none" />
    <path
       d="m 49.736407,38.944545 0,-0.782019 -2.03325,-0.234606 -0.0782,-0.312807 0,-0.39101 -0.0782,-0.312807 -0.0782,-0.312808 1.720441,-1.016625 -0.234605,-0.703817 -2.03325,0.547414 -0.156403,-0.312808 -0.156404,-0.312808 -0.234606,-0.234605 -0.156404,-0.312808 1.251231,-1.564038 -0.547414,-0.625615 -1.642239,1.329432 -0.156404,-0.156404 -0.156404,-0.0782 -0.156404,-0.156404 -0.156404,-0.0782 -0.625615,0.938423 0.547414,0.391009 0.547413,0.469211 0.469211,0.547414 0.39101,0.547413 0.312807,0.625615 0.234606,0.703817 0.156404,0.703817 0,0.782019 0,0.625616 -0.0782,0.547413 -0.156404,0.547413 -0.234606,0.469211 -0.156403,0.547414 -0.312808,0.469211 -0.312808,0.39101 -0.391009,0.391009 -0.39101,0.39101 -0.469211,0.312807 -0.391009,0.312808 -0.547414,0.234605 -0.547413,0.156404 -0.469211,0.156404 -0.625616,0.0782 -0.547413,0.0782 -0.469211,-0.0782 -0.469212,0 -0.469211,-0.156404 -0.391009,-0.0782 -0.39101,-0.156404 -0.391009,-0.234605 -0.39101,-0.156404 -0.391009,-0.312808 -0.547414,0.860221 0.156404,0.156404 0.156404,0.0782 0.156404,0.156404 0.156403,0.0782 -0.547413,2.033249 0.782019,0.312808 1.016625,-1.876846 0.156404,0.0782 0.156403,0 0.156404,0.0782 0.156404,0 0.156404,0 0.156404,0.0782 0.156403,0 0.156404,0 0.312808,2.111451 0.782019,0 0.234605,-2.111451 0.156404,0 0.234606,0 0.156404,-0.0782 0.156404,0 0.156403,0 0.156404,-0.0782 0.156404,0 0.156404,-0.0782 1.016624,1.876846 0.782019,-0.312808 -0.547413,-2.033249 0.156404,-0.0782 0.0782,-0.0782 0.156404,-0.0782 0.156403,-0.0782 0.0782,-0.156404 0.156404,-0.0782 0.156404,-0.0782 0.156404,-0.156403 1.642239,1.329432 0.547414,-0.547413 -1.329433,-1.64224 0.234606,-0.312808 0.234606,-0.234605 0.156404,-0.312808 0.156403,-0.234606 2.03325,0.547414 0.234605,-0.782019 -1.798643,-1.016625 0.156404,-0.312808 0.0782,-0.312807 0,-0.312808 0.0782,-0.312807 2.03325,-0.312808 z"
       inkscape:connector-curvature="0"
       id="path24"
       style="fill:#ffffff;fill-opacity:1;fill-rule:evenodd;stroke:none" />
    <path
       d="m 35.347258,38.631737 0.0782,-0.547413 0.0782,-0.547413 0.0782,-0.547414 0.234606,-0.547413 0.234606,-0.469211 0.234605,-0.469212 0.39101,-0.469211 0.312807,-0.391009 0.469212,-0.39101 0.391009,-0.312808 0.469212,-0.312807 0.547413,-0.234606 0.469211,-0.156404 0.547414,-0.156403 0.547413,-0.0782 0.625615,0 0.39101,0 0.391009,0 0.39101,0.0782 0.391009,0.156403 0.39101,0.0782 0.312807,0.156404 0.39101,0.156404 0.312807,0.234606 0.625615,-0.938423 -0.156403,-0.0782 -0.0782,-0.0782 -0.156404,-0.0782 -0.0782,-0.0782 0.547413,-2.033249 -0.782019,-0.234606 -1.016624,1.720442 -0.156404,0 -0.156404,-0.0782 -0.156404,0 -0.156403,0 -0.156404,-0.0782 -0.156404,0 -0.156404,0 -0.234606,-0.0782 -0.234605,-2.033249 -0.782019,0 -0.312808,2.033249 -0.156404,0.0782 -0.156403,0 -0.156404,0 -0.156404,0.0782 -0.156404,0 -0.156404,0 -0.156403,0.0782 -0.156404,0 -1.016625,-1.720442 -0.782019,0.234606 0.547413,2.033249 -0.156403,0.0782 -0.0782,0.0782 -0.156404,0.0782 -0.156404,0.0782 -0.156404,0.156404 -0.0782,0.0782 -0.156403,0.0782 -0.156404,0.156404 -1.64224,-1.329432 -0.547413,0.625615 1.25123,1.564038 -0.156404,0.312808 -0.234605,0.234605 -0.156404,0.312808 -0.156404,0.312808 -1.955047,-0.547414 -0.312808,0.703817 1.798644,1.016625 -0.0782,0.312808 -0.0782,0.312807 -0.0782,0.312808 0,0.312807 -2.111451,0.312808 0,0.782019 2.111451,0.312808 0,0.312807 0.0782,0.312808 0.0782,0.312807 0.0782,0.312808 -1.798644,1.016625 0.312808,0.782019 1.955047,-0.547414 0.156404,0.234606 0.234606,0.312808 0.156403,0.234605 0.156404,0.312808 -1.25123,1.64224 0.547413,0.547413 1.720442,-1.329432 0.0782,0.0782 0.0782,0.0782 0.0782,0.0782 0.156404,0.0782 0.547414,-0.860221 -0.469212,-0.391009 -0.469211,-0.469211 -0.39101,-0.547414 -0.312807,-0.547413 -0.312808,-0.547413 -0.234606,-0.625616 -0.0782,-0.703817 -0.0782,-0.703817 z"
       inkscape:connector-curvature="0"
       id="path26"
       style="fill:#ffffff;fill-opacity:1;fill-rule:evenodd;stroke:none" />
    <path
       d="m 43.871264,38.631737 0,-0.391009 -0.0782,-0.39101 -0.156404,-0.312807 -0.156404,-0.312808 -0.234606,-0.312807 -0.234605,-0.312808 -0.312808,-0.234606 -0.312808,-0.156403 -3.128075,4.613911 0.234605,0.156404 0.156404,0.156404 0.234606,0.0782 0.234605,0.0782 0.234606,0.0782 0.234606,0.0782 0.234605,0 0.234606,0 0.547413,0 0.547414,-0.234606 0.469211,-0.234606 0.469211,-0.312807 0.312808,-0.469212 0.234606,-0.469211 0.156404,-0.469211 0.0782,-0.625616 z"
       inkscape:connector-curvature="0"
       id="path28"
       style="fill:#ffffff;fill-opacity:1;fill-rule:evenodd;stroke:none" />
    <path
       d="m 41.055996,35.816469 -0.625615,0 -0.469211,0.234606 -0.547414,0.234605 -0.391009,0.312808 -0.312808,0.469211 -0.234605,0.469212 -0.234606,0.547413 0,0.547413 0,0.312808 0.0782,0.312808 0.0782,0.312807 0.156403,0.312808 0.0782,0.234605 0.234606,0.312808 0.234606,0.234606 0.156404,0.156403 3.128075,-4.613911 -0.0782,-0.0782 -0.234606,-0.0782 -0.156404,-0.0782 -0.156404,-0.0782 -0.156404,-0.0782 -0.156403,0 -0.234606,0 -0.156404,0 z"
       inkscape:connector-curvature="0"
       id="path30"
       style="fill:#ffffff;fill-opacity:1;fill-rule:evenodd;stroke:none" />
    <path
       d="m 5.0049214,52.004262 60.0590576,0 0,-43.7148609 -60.0590576,0 0,43.7148609 z"
       inkscape:connector-curvature="0"
       id="path32"
       style="fill:none;stroke:#f2f2f2;stroke-width:7.50738239px;stroke-linecap:round;stroke-linejoin:round;stroke-opacity:1;stroke-dasharray:none" />
  </g>
</svg>
