<?xml version="1.0" encoding="UTF-8" standalone="no"?>
<!-- Created with Inkscape (http://www.inkscape.org/) -->

<svg
   xmlns:dc="http://purl.org/dc/elements/1.1/"
   xmlns:cc="http://creativecommons.org/ns#"
   xmlns:rdf="http://www.w3.org/1999/02/22-rdf-syntax-ns#"
   xmlns:svg="http://www.w3.org/2000/svg"
   xmlns="http://www.w3.org/2000/svg"
   xmlns:inkscape="http://www.inkscape.org/namespaces/inkscape"
   version="1.0"
   width="8.6700001mm"
   height="10.4mm"
   id="svg2">
  <metadata
     id="metadata20">
    <rdf:RDF>
      <cc:Work
         rdf:about="">
        <dc:format>image/svg+xml</dc:format>
        <dc:type
           rdf:resource="http://purl.org/dc/dcmitype/StillImage" />
      </cc:Work>
    </rdf:RDF>
  </metadata>
  <defs
     id="defs4" />
  <g
     id="g6">
    <path
       d="m 4.7244096,29.52756 21.2598434,0 c 1.956201,0 3.543307,-1.587106 3.543307,-3.543307 l 0,-21.2598434 c 0,-1.9562009 -1.587106,-3.5433072 -3.543307,-3.5433072 l -21.2598434,0 c -1.9562009,0 -3.5433072,1.5871063 -3.5433072,3.5433072 l 0,21.2598434 c 0,1.956201 1.5871063,3.543307 3.5433072,3.543307 z"
       inkscape:connector-curvature="0"
       id="path8"
       style="fill:#00b050;fill-opacity:1;fill-rule:evenodd;stroke:none" />
    <path
       d="m 4.7244096,29.52756 21.2598434,0 c 1.956201,0 3.543307,-1.587106 3.543307,-3.543307 l 0,-21.2598434 c 0,-1.9562009 -1.587106,-3.5433072 -3.543307,-3.5433072 l -21.2598434,0 c -1.9562009,0 -3.5433072,1.5871063 -3.5433072,3.5433072 l 0,21.2598434 c 0,1.956201 1.5871063,3.543307 3.5433072,3.543307 z"
       inkscape:connector-curvature="0"
       id="path10"
       style="fill:none;stroke:#ffffff;stroke-width:1.1811024px;stroke-linecap:round;stroke-linejoin:round;stroke-opacity:1;stroke-dasharray:none" />
    <text
       x="10.957493"
       y="24.783398"
       id="text12"
       xml:space="preserve"
       style="font-size:6.49606323px;font-style:normal;font-weight:bold;text-align:start;text-anchor:start;fill:#ffffff;font-family:Franklin Gothic Book">File</text>
    <path
       d="m 15.391241,10.519193 c 1.734744,0 3.174212,-1.4394683 3.174212,-3.2111219 0,0 0,0 0,0 0,-1.7716536 -1.439468,-3.2111222 -3.174212,-3.2111222 0,0 -0.03691,0 -0.03691,0 -1.771653,0 -3.174213,1.4394686 -3.174213,3.2111222 0,0 0,0 0,0 0,1.7716536 1.40256,3.2111219 3.174213,3.2111219 0,0 0.03691,0 0.03691,0 z m 0,-6.8651575 c 1.99311,0 3.654035,1.6240158 3.654035,3.6540356 0,0 0,0 0,0 0,2.0300197 -1.660925,3.6540359 -3.654035,3.6540359 -0.03691,0 -0.03691,0 -0.03691,0 -1.99311,0 -3.654035,-1.6240162 -3.654035,-3.6540359 0,0 0,0 0,0 0,-2.0300198 1.660925,-3.6540356 3.654035,-3.6540356 0,0 0.03691,0 0.03691,0 z m -2.325296,3.6540356 c 0,-0.2583662 0.221457,-0.4429134 0.479823,-0.4429134 l 3.654036,0 c 0.258366,0 0.479822,0.1845472 0.479822,0.4429134 0,0.2583661 -0.221456,0.4798228 -0.479822,0.4798228 l -3.654036,0 c -0.258366,0 -0.479823,-0.2214567 -0.479823,-0.4798228 z"
       inkscape:connector-curvature="0"
       id="path14"
       style="fill:#ffffff;fill-opacity:1;fill-rule:evenodd;stroke:none" />
    <path
       d="m 15.391241,10.519193 c 1.734744,0 3.174212,-1.4394683 3.174212,-3.2111219 0,0 0,0 0,0 0,-1.7716536 -1.439468,-3.2111222 -3.174212,-3.2111222 0,0 -0.03691,0 -0.03691,0 -1.771653,0 -3.174213,1.4394686 -3.174213,3.2111222 0,0 0,0 0,0 0,1.7716536 1.40256,3.2111219 3.174213,3.2111219 0,0 0.03691,0 0.03691,0 z m 0,-6.8651575 c 1.99311,0 3.654035,1.6240158 3.654035,3.6540356 0,0 0,0 0,0 0,2.0300197 -1.660925,3.6540359 -3.654035,3.6540359 -0.03691,0 -0.03691,0 -0.03691,0 -1.99311,0 -3.654035,-1.6240162 -3.654035,-3.6540359 0,0 0,0 0,0 0,-2.0300198 1.660925,-3.6540356 3.654035,-3.6540356 0,0 0.03691,0 0.03691,0 z m -2.325296,3.6540356 c 0,-0.2583662 0.221457,-0.4429134 0.479823,-0.4429134 l 3.654036,0 c 0.258366,0 0.479822,0.1845472 0.479822,0.4429134 0,0.2583661 -0.221456,0.4798228 -0.479822,0.4798228 l -3.654036,0 c -0.258366,0 -0.479823,-0.2214567 -0.479823,-0.4798228 z"
       inkscape:connector-curvature="0"
       id="path16"
       style="fill:none;stroke:#ffffff;stroke-width:0.5905512px;stroke-linecap:butt;stroke-linejoin:miter;stroke-miterlimit:4;stroke-opacity:1;stroke-dasharray:none" />
  </g>
</svg>
