<?xml version="1.0" encoding="UTF-8" standalone="no"?>
<!-- Created with Inkscape (http://www.inkscape.org/) -->

<svg
   xmlns:dc="http://purl.org/dc/elements/1.1/"
   xmlns:cc="http://creativecommons.org/ns#"
   xmlns:rdf="http://www.w3.org/1999/02/22-rdf-syntax-ns#"
   xmlns:svg="http://www.w3.org/2000/svg"
   xmlns="http://www.w3.org/2000/svg"
   xmlns:inkscape="http://www.inkscape.org/namespaces/inkscape"
   version="1.0"
   width="18mm"
   height="17.969999mm"
   id="svg2">
  <metadata
     id="metadata30">
    <rdf:RDF>
      <cc:Work
         rdf:about="">
        <dc:format>image/svg+xml</dc:format>
        <dc:type
           rdf:resource="http://purl.org/dc/dcmitype/StillImage" />
      </cc:Work>
    </rdf:RDF>
  </metadata>
  <defs
     id="defs4" />
  <g
     id="g6">
    <path
       d="m 17.666181,61.362621 29.860537,0 2.97042,-0.312676 -0.156338,0 2.814082,-0.859858 -0.156338,0.07817 2.579575,-1.407041 -0.07817,0.07817 2.18873,-1.797885 -0.156338,0.156338 1.797886,-2.2669 -0.07817,0.07817 1.407041,-2.501406 -0.07817,0.156338 0.859859,-2.814082 0,0.156338 0.312675,-3.048589 0,-29.938705 -0.312675,-2.892251 0,0.156338 -0.859859,-2.814082 0.07817,0.156338 -1.407041,-2.5014067 0.07817,0.078169 -1.797886,-2.2668994 0.156338,0.1563379 -2.18873,-1.7978857 0.07817,0.078169 -2.579575,-1.4070409 0.156338,0.078169 -2.814082,-0.8598584 0.156338,0 -3.048589,-0.3126757 -29.938706,0 -2.892251,0.3126757 0.156338,0 L 11.959848,4.142954 12.116186,4.0647851 9.6147801,5.471826 9.692949,5.3936571 7.4260496,7.1915428 7.5823875,7.0352049 5.7845018,9.3021043 l 0.078169,-0.078169 -1.407041,2.5014067 0.078169,-0.156338 -0.8598584,2.814082 0,-0.156338 -0.3126757,3.048589 0,29.860536 0.3126757,2.97042 0,-0.156338 0.8598584,2.814082 -0.078169,-0.156338 1.407041,2.501406 -0.078169,-0.07817 1.7978857,2.2669 -0.1563379,-0.156338 2.2668994,1.797885 -0.078169,-0.07817 2.5014059,1.407041 -0.156338,-0.07817 2.814082,0.859858 -0.156338,0 z m -3.283095,1.328872 c 0,0 -0.07817,0 -0.156338,0 l -2.814082,-0.859859 c 0,-0.07817 -0.07817,-0.07817 -0.156338,-0.07817 L 8.7549217,60.346424 c 0,-0.07817 -0.078169,-0.07817 -0.078169,-0.07817 L 6.4098534,58.47037 c -0.078169,-0.07817 -0.078169,-0.07817 -0.1563379,-0.156338 L 4.4556298,56.047133 c 0,0 -0.078169,-0.07817 -0.078169,-0.07817 L 2.9704199,53.467557 c 0,-0.07817 -0.078169,-0.156338 -0.078169,-0.156338 L 2.0323925,50.497138 c 0,-0.07817 0,-0.156338 0,-0.156338 l -0.3126757,-3.204927 0,-30.095043 0.3126757,-3.048589 c 0,0 0,-0.07817 0,-0.156338 l 0.8598584,-2.814082 c 0,0 0.078169,-0.07817 0.078169,-0.156338 L 4.3774608,8.364077 c 0,0 0.078169,-0.078169 0.078169,-0.078169 L 6.2535155,6.0190087 c 0.078169,-0.078169 0.078169,-0.078169 0.1563379,-0.1563379 L 8.6767527,4.0647851 c 0,0 0.078169,-0.078169 0.078169,-0.078169 l 2.5014063,-1.407041 c 0.07817,0 0.156338,-0.078169 0.156338,-0.078169 l 2.814082,-0.8598584 c 0.07817,0 0.156338,0 0.156338,0 l 3.126757,-0.3126758 30.173213,0 3.048588,0.3126758 c 0,0 0.07817,0 0.156338,0 l 2.814082,0.8598584 c 0,0 0.07817,0.078169 0.156338,0.078169 l 2.579575,1.407041 c 0,0 0.07817,0.078169 0.07817,0.078169 l 2.188731,1.7978857 c 0.07817,0.078169 0.07817,0.078169 0.156337,0.1563379 L 60.6591,8.285908 c 0,0 0,0.078169 0.07817,0.078169 l 1.407041,2.501406 c 0,0.07817 0,0.156338 0.07817,0.156338 l 0.859858,2.814082 c 0,0.07817 0,0.156338 0,0.156338 l 0.312676,3.126758 0,30.173212 -0.312676,3.048589 c 0,0 0,0.07817 0,0.156338 l -0.859858,2.814081 c -0.07817,0 -0.07817,0.07817 -0.07817,0.156338 l -1.407041,2.501407 c -0.07817,0 -0.07817,0.07817 -0.07817,0.07817 l -1.797886,2.266899 c -0.07817,0.07817 -0.07817,0.07817 -0.156337,0.156338 l -2.188731,1.797885 c 0,0 -0.07817,0.07817 -0.07817,0.07817 l -2.579575,1.407041 c -0.07817,0 -0.156338,0 -0.156338,0.07817 l -2.814082,0.859859 c -0.07817,0 -0.156338,0 -0.156338,0 l -3.204926,0.312675 -30.095044,0 z"
       inkscape:connector-curvature="0"
       id="path8"
       style="fill:#ffffff;fill-opacity:1;fill-rule:nonzero;stroke:none" />
    <path
       d="m 28.766171,17.118999 15.008437,0 0,30.016874 -15.008437,0"
       inkscape:connector-curvature="0"
       id="path10"
       style="fill:none;stroke:#ffffff;stroke-width:2.50140619px;stroke-linecap:round;stroke-linejoin:round;stroke-opacity:1;stroke-dasharray:none" />
    <path
       d="m 43.774608,32.127436 7.504219,0"
       inkscape:connector-curvature="0"
       id="path12"
       style="fill:none;stroke:#ffffff;stroke-width:2.50140619px;stroke-linecap:round;stroke-linejoin:round;stroke-opacity:1;stroke-dasharray:none" />
    <path
       d="m 51.278827,20.871108 0,22.512656"
       inkscape:connector-curvature="0"
       id="path14"
       style="fill:none;stroke:#ffffff;stroke-width:2.50140619px;stroke-linecap:round;stroke-linejoin:round;stroke-opacity:1;stroke-dasharray:none" />
    <path
       d="m 2.5014062,20.871108 9.4584418,0"
       inkscape:connector-curvature="0"
       id="path16"
       style="fill:none;stroke:#ffffff;stroke-width:2.50140619px;stroke-linecap:round;stroke-linejoin:round;stroke-opacity:1;stroke-dasharray:none" />
    <path
       d="m 8.285908,20.871108 c 0,2.032392 1.6415478,3.67394 3.67394,3.67394 2.032393,0 3.673941,-1.641548 3.673941,-3.67394 0,-2.032393 -1.641548,-3.67394 -3.673941,-3.67394 -2.0323922,0 -3.67394,1.641547 -3.67394,3.67394"
       inkscape:connector-curvature="0"
       id="path18"
       style="fill:#ffffff;fill-opacity:1;fill-rule:evenodd;stroke:none" />
    <path
       d="m 2.5014062,32.127436 9.4584418,0"
       inkscape:connector-curvature="0"
       id="path20"
       style="fill:none;stroke:#ffffff;stroke-width:2.50140619px;stroke-linecap:round;stroke-linejoin:round;stroke-opacity:1;stroke-dasharray:none" />
    <path
       d="m 8.285908,32.127436 c 0,2.032392 1.6415478,3.67394 3.67394,3.67394 2.032393,0 3.673941,-1.641548 3.673941,-3.67394 0,-2.032393 -1.641548,-3.673941 -3.673941,-3.673941 -2.0323922,0 -3.67394,1.641548 -3.67394,3.673941"
       inkscape:connector-curvature="0"
       id="path22"
       style="fill:#ffffff;fill-opacity:1;fill-rule:evenodd;stroke:none" />
    <path
       d="m 2.5014062,43.383764 9.4584418,0"
       inkscape:connector-curvature="0"
       id="path24"
       style="fill:none;stroke:#ffffff;stroke-width:2.50140619px;stroke-linecap:round;stroke-linejoin:round;stroke-opacity:1;stroke-dasharray:none" />
    <path
       d="m 8.285908,43.383764 c 0,2.032392 1.6415478,3.67394 3.67394,3.67394 2.032393,0 3.673941,-1.641548 3.673941,-3.67394 0,-2.032393 -1.641548,-3.673941 -3.673941,-3.673941 -2.0323922,0 -3.67394,1.641548 -3.67394,3.673941"
       inkscape:connector-curvature="0"
       id="path26"
       style="fill:#ffffff;fill-opacity:1;fill-rule:evenodd;stroke:none" />
  </g>
</svg>
