<?xml version="1.0" encoding="UTF-8" standalone="no"?>
<!-- Created with Inkscape (http://www.inkscape.org/) -->

<svg
   xmlns:dc="http://purl.org/dc/elements/1.1/"
   xmlns:cc="http://creativecommons.org/ns#"
   xmlns:rdf="http://www.w3.org/1999/02/22-rdf-syntax-ns#"
   xmlns:svg="http://www.w3.org/2000/svg"
   xmlns="http://www.w3.org/2000/svg"
   xmlns:inkscape="http://www.inkscape.org/namespaces/inkscape"
   version="1.0"
   width="9.5299997mm"
   height="17.98mm"
   id="svg2">
  <metadata
     id="metadata14">
    <rdf:RDF>
      <cc:Work
         rdf:about="">
        <dc:format>image/svg+xml</dc:format>
        <dc:type
           rdf:resource="http://purl.org/dc/dcmitype/StillImage" />
      </cc:Work>
    </rdf:RDF>
  </metadata>
  <defs
     id="defs4" />
  <g
     id="g6">
    <path
       d="m 17.360821,2.3460569 c 8.289401,0 15.014765,6.7253632 15.014765,15.0147641 0,8.289401 -6.725364,15.014765 -15.014765,15.014765 -8.2894009,0 -15.0147641,-6.725364 -15.0147641,-15.014765 0,-8.2894009 6.7253632,-15.0147641 15.0147641,-15.0147641"
       inkscape:connector-curvature="0"
       id="path8"
       style="fill:#ecf1f9;fill-opacity:1;fill-rule:evenodd;stroke:none" />
    <path
       d="m 17.360821,2.3460569 c 8.289401,0 15.014765,6.7253632 15.014765,15.0147641 0,8.289401 -6.725364,15.014765 -15.014765,15.014765 -8.2894009,0 -15.0147641,-6.725364 -15.0147641,-15.014765 0,-8.2894009 6.7253632,-15.0147641 15.0147641,-15.0147641 z m -4.1447,29.4039131 -3.3626819,11.886689 0,18.768455 M 8.9932182,29.873125 2.3460569,39.882968 l 0,22.522146 m 15.0147641,-30.029528 0,30.029528 m 4.144701,-30.655144 3.362681,11.886689 0,18.768455 m 0.782019,-32.531989 6.725364,10.009843 0,22.522146"
       inkscape:connector-curvature="0"
       id="path10"
       style="fill:none;stroke:#fafdce;stroke-width:2.11145115px;stroke-linecap:butt;stroke-linejoin:miter;stroke-miterlimit:4;stroke-opacity:1;stroke-dasharray:none" />
  </g>
</svg>
