<?xml version="1.0" encoding="UTF-8" standalone="no"?>
<!-- Created with Inkscape (http://www.inkscape.org/) -->

<svg
   xmlns:dc="http://purl.org/dc/elements/1.1/"
   xmlns:cc="http://creativecommons.org/ns#"
   xmlns:rdf="http://www.w3.org/1999/02/22-rdf-syntax-ns#"
   xmlns:svg="http://www.w3.org/2000/svg"
   xmlns="http://www.w3.org/2000/svg"
   xmlns:inkscape="http://www.inkscape.org/namespaces/inkscape"
   version="1.0"
   width="7.3299999mm"
   height="8.3999996mm"
   id="svg2">
  <metadata
     id="metadata44">
    <rdf:RDF>
      <cc:Work
         rdf:about="">
        <dc:format>image/svg+xml</dc:format>
        <dc:type
           rdf:resource="http://purl.org/dc/dcmitype/StillImage" />
      </cc:Work>
    </rdf:RDF>
  </metadata>
  <defs
     id="defs4" />
  <g
     id="g6">
    <path
       d="m 1.1811024,22.588583 8.0093506,0"
       inkscape:connector-curvature="0"
       id="path8"
       style="fill:none;stroke:#f2f2f2;stroke-width:1.1811024px;stroke-linecap:round;stroke-linejoin:round;stroke-opacity:1;stroke-dasharray:none" />
    <path
       d="m 7.4557089,22.588583 c 0,0.959646 0.7750984,1.771654 1.7347441,1.771654 0.959646,0 1.734744,-0.812008 1.734744,-1.771654 0,-0.959645 -0.775098,-1.734744 -1.734744,-1.734744 -0.9596457,0 -1.7347441,0.775099 -1.7347441,1.734744"
       inkscape:connector-curvature="0"
       id="path10"
       style="fill:#f2f2f2;fill-opacity:1;fill-rule:evenodd;stroke:none" />
    <path
       d="m 1.1811024,11.072835 8.0093506,0"
       inkscape:connector-curvature="0"
       id="path12"
       style="fill:none;stroke:#f2f2f2;stroke-width:1.1811024px;stroke-linecap:round;stroke-linejoin:round;stroke-opacity:1;stroke-dasharray:none" />
    <path
       d="m 7.4557089,11.072835 c 0,0.959646 0.7750984,1.771654 1.7347441,1.771654 0.959646,0 1.734744,-0.812008 1.734744,-1.771654 0,-0.959646 -0.775098,-1.7347442 -1.734744,-1.7347442 -0.9596457,0 -1.7347441,0.7750982 -1.7347441,1.7347442"
       inkscape:connector-curvature="0"
       id="path14"
       style="fill:#f2f2f2;fill-opacity:1;fill-rule:evenodd;stroke:none" />
    <path
       d="m 1.1811024,16.830709 8.0093506,0"
       inkscape:connector-curvature="0"
       id="path16"
       style="fill:none;stroke:#f2f2f2;stroke-width:1.1811024px;stroke-linecap:round;stroke-linejoin:round;stroke-opacity:1;stroke-dasharray:none" />
    <path
       d="m 7.4557089,16.830709 c 0,0.959646 0.7750984,1.771654 1.7347441,1.771654 0.959646,0 1.734744,-0.812008 1.734744,-1.771654 0,-0.959646 -0.775098,-1.734744 -1.734744,-1.734744 -0.9596457,0 -1.7347441,0.775098 -1.7347441,1.734744"
       inkscape:connector-curvature="0"
       id="path18"
       style="fill:#f2f2f2;fill-opacity:1;fill-rule:evenodd;stroke:none" />
    <path
       d="m 16.424705,7.0866144 0.03691,0 0.07382,0 0,-0.03691 0.03691,0 0.03691,-0.036909 0.03691,-0.03691 0,-0.036909 0,-0.073819 0,-0.03691 0,-0.036909 -0.03691,-0.03691 -0.03691,-0.036909 -0.03691,-0.03691 0,0 -0.07382,-0.036909 -0.03691,0 -0.03691,0 -0.03691,0.036909 -0.03691,0 -0.03691,0.03691 -0.03691,0.036909 0,0.03691 -0.03691,0.036909 0,0.03691 0,0.073819 0.03691,0.036909 0,0.03691 0.03691,0.036909 0.03691,0 0.03691,0.03691 0.03691,0 0.03691,0 z"
       inkscape:connector-curvature="0"
       id="path20"
       style="fill:none;stroke:#f2f2f2;stroke-width:0.5905512px;stroke-linecap:round;stroke-linejoin:round;stroke-opacity:1;stroke-dasharray:none" />
    <path
       d="m 20.004922,10.408465 0.03691,-0.03691 0.03691,0 0.03691,0 0.03691,-0.03691 0.03691,-0.03691 0,-0.03691 0.03691,-0.03691 0,-0.07382 0,-0.03691 -0.03691,-0.03691 0,-0.03691 -0.03691,-0.03691 -0.03691,-0.03691 -0.03691,0 -0.03691,0 -0.03691,-0.03691 -0.03691,0.03691 -0.07382,0 -0.03691,0 0,0.03691 -0.03691,0.03691 -0.03691,0.03691 0,0.03691 0,0.03691 0,0.07382 0,0.03691 0.03691,0.03691 0.03691,0.03691 0,0.03691 0.03691,0 0.07382,0 0.03691,0.03691 z"
       inkscape:connector-curvature="0"
       id="path22"
       style="fill:none;stroke:#f2f2f2;stroke-width:0.5905512px;stroke-linecap:round;stroke-linejoin:round;stroke-opacity:1;stroke-dasharray:none" />
    <path
       d="m 17.864174,12.032481 0,1.587106 0.701279,-0.442913 0,0.701279 0.479823,0 0,-0.959646 0.812008,-0.442913 0,1.32874 0.442913,0 0,-1.771653 -2.436023,0 z"
       inkscape:connector-curvature="0"
       id="path24"
       style="fill:none;stroke:#f2f2f2;stroke-width:0.5905512px;stroke-linecap:round;stroke-linejoin:round;stroke-opacity:1;stroke-dasharray:none" />
    <path
       d="m 18.565453,11.589567 0,-0.479823 -0.701279,-0.738189 0,1.218012 0.701279,0 z"
       inkscape:connector-curvature="0"
       id="path26"
       style="fill:none;stroke:#f2f2f2;stroke-width:0.5905512px;stroke-linecap:round;stroke-linejoin:round;stroke-opacity:1;stroke-dasharray:none" />
    <path
       d="m 16.166339,6.1638781 0,-0.5167323 -0.959646,0 0,2.3991143 0.922737,0 2.915846,2.9158469 0,0.62746 0.812008,0 0,-0.66437 -0.03691,0 -0.07382,-0.03691 -0.03691,0 -0.03691,-0.03691 -0.07382,-0.03691 -0.03691,-0.03691 -0.03691,-0.03691 -0.03691,-0.03691 -0.03691,-0.03691 -0.07382,-0.07382 -0.03691,-0.03691 0,-0.07382 -0.03691,-0.07382 -0.03691,-0.07382 0,-0.07382 0,-0.07382 0,-0.147638 0.03691,-0.110728 0.07382,-0.1107283 0.07382,-0.1107284 0.07382,-0.073819 0.07382,-0.073819 0.110728,-0.073819 0.147638,-0.036909 0,-0.4798229 -2.509843,-2.5098426 0,-0.8120079 -0.738189,0 0,0.5167323 0.07382,0.03691 0.03691,0 0.03691,0.036909 0.03691,0 0.07382,0.03691 0.03691,0.036909 0.03691,0.03691 0.03691,0 0.03691,0.073819 0.07382,0.073819 0,0.036909 0.03691,0.073819 0.03691,0.073819 0.03691,0.073819 0,0.073819 0,0.073819 0,0.1107284 -0.03691,0.073819 -0.03691,0.073819 -0.03691,0.1107283 1.845473,1.8085631 0,0.5536417 -2.103839,-2.1038386 -0.03691,0.036909 -0.03691,0.03691 -0.03691,0 -0.07382,0.036909 -0.03691,0 -0.07382,0 -0.03691,0.03691 -0.07382,0 -0.07382,-0.03691 -0.03691,0 -0.07382,0 -0.07382,-0.036909 -0.07382,-0.03691 -0.07382,-0.036909 -0.03691,-0.03691 -0.07382,-0.036909 -0.03691,-0.073819 -0.07382,-0.073819 0,-0.03691 -0.03691,-0.073819 -0.03691,-0.073819 -0.03691,-0.073819 0,-0.073819 0,-0.073819 0,-0.1107283 0.03691,-0.1476378 0.07382,-0.1107284 0.03691,-0.073819 0.07382,-0.1107283 0.07382,-0.073819 0.110728,-0.03691 0.07382,-0.073819 z"
       inkscape:connector-curvature="0"
       id="path28"
       style="fill:none;stroke:#f2f2f2;stroke-width:0.5905512px;stroke-linecap:round;stroke-linejoin:round;stroke-opacity:1;stroke-dasharray:none" />
    <path
       d="m 17.827264,6.3484254 0.812008,0.8120079 0,-1.5132875 -0.812008,0 0,0.7012796 z"
       inkscape:connector-curvature="0"
       id="path30"
       style="fill:none;stroke:#f2f2f2;stroke-width:0.5905512px;stroke-linecap:round;stroke-linejoin:round;stroke-opacity:1;stroke-dasharray:none" />
    <path
       d="m 16.646162,13.877953 -0.516732,-0.03691 0,-1.808563 -1.439469,0 0,-1.181103 -1.402559,0 0,-0.479823 1.402559,0 0,-0.7381886 -1.36565,0 0,-0.4798228 1.36565,0 0,-0.738189 -1.36565,0 0,-0.4798229 1.36565,0 0,-0.7012795 -1.254921,0 -1.439469,3.6909448 0.332185,0.147638 0.295276,0.147638 0.332185,0.147638 0.295275,0.184547 0.295276,0.184547 0.295276,0.221457 0.295275,0.221456 0.258366,0.221457 0.258367,0.221457 0.258366,0.258366 0.221456,0.258366 0.221457,0.258366 0.221457,0.258366 0.221457,0.295276 0.184547,0.295276 0.184547,0.295275 1.254921,-0.738189 0,-1.771653 -0.775098,0 0,1.845472 z"
       inkscape:connector-curvature="0"
       id="path32"
       style="fill:none;stroke:#f2f2f2;stroke-width:0.5905512px;stroke-linecap:round;stroke-linejoin:round;stroke-opacity:1;stroke-dasharray:none" />
    <path
       d="m 21.665847,10.593012 0,0.885827 L 25.50443,9.3011814 25.282973,8.9320869 25.098426,8.5999018 24.876969,8.2308073 24.655512,7.8986223 24.397146,7.5664372 24.17569,7.2342522 23.917323,6.9020671 23.658957,6.6067915 23.400591,6.2746065 23.142225,5.9793309 22.883859,5.6840553 22.588583,5.3887797 22.293308,5.0935041 21.998032,4.7982285 21.702757,4.5398623 21.407481,4.2445867 21.112205,3.9862206 20.78002,3.7278544 20.447835,3.5063977 20.15256,3.2480316 19.820375,3.0265749 19.48819,2.7682087 19.119095,2.546752 18.78691,2.3622048 18.417815,2.1407481 18.08563,1.9562008 17.716536,1.7347441 17.347441,1.5501969 16.978347,1.4025591 16.609252,1.2180118 16.240158,1.070374 15.834154,0.8858268 l -2.214567,5.7947836 1.070374,0 0,-1.5501969 1.439469,0 0,-1.3656496 0.479822,0 0,1.3656496 0.70128,0 0,-1.3656496 0.516732,0 0,1.3656496 0.70128,0 0,-1.3656496 0.479823,0 0,1.3656496 0.701279,0 0,-1.3656496 0.516733,0 0,1.3656496 1.402559,0 0.03691,1.3656497 1.36565,0 0,0.5167323 -1.36565,0 0,0.6643701 1.36565,0 0,0.5167323 -1.36565,0 0,0.7012795 1.36565,0 0,0.5167323 -1.36565,0 0,0.7012793 1.36565,0 0,0.479823 -1.36565,0 z"
       inkscape:connector-curvature="0"
       id="path34"
       style="fill:none;stroke:#f2f2f2;stroke-width:0.5905512px;stroke-linecap:round;stroke-linejoin:round;stroke-opacity:1;stroke-dasharray:none" />
    <path
       d="m 20.669292,8.1569884 0,-0.4798228 0.479823,0 0,-0.738189 -0.959646,0 0,-1.2918308 -1.107283,0 0,1.9192914 1.144193,1.1072835 0,0.7750985 0.03691,0.036909 0.03691,0 0.07382,0.03691 0.03691,0 0.03691,0.036909 0.03691,0.036909 0.03691,0 0.03691,0.036909 0.03691,0.073819 0.03691,0.073819 0.03691,0.03691 0.03691,0.073819 0.03691,0.073819 0,0.073818 0,0.07382 0.03691,0.07382 -0.03691,0.07382 0,0.07382 0,0.07382 -0.03691,0.07382 -0.03691,0.07382 -0.03691,0.03691 -0.03691,0.07382 -0.03691,0.03691 -0.03691,0.03691 -0.03691,0.03691 -0.03691,0.03691 -0.03691,0 -0.03691,0.03691 -0.03691,0.03691 -0.03691,0 -0.03691,0 0,0.701279 0.885827,0 0,-2.2145667 -0.479823,0 0,-0.4798229 0.479823,0 0,-0.738189 -0.479823,0 z"
       inkscape:connector-curvature="0"
       id="path36"
       style="fill:none;stroke:#f2f2f2;stroke-width:0.5905512px;stroke-linecap:round;stroke-linejoin:round;stroke-opacity:1;stroke-dasharray:none" />
    <path
       d="m 21.112205,6.4222443 0,-0.738189 -0.442913,0 0,0.738189 0.442913,0 z"
       inkscape:connector-curvature="0"
       id="path38"
       style="fill:none;stroke:#f2f2f2;stroke-width:0.5905512px;stroke-linecap:round;stroke-linejoin:round;stroke-opacity:1;stroke-dasharray:none" />
    <path
       d="m 15.981792,8.5260829 -0.775099,0 0,0.6643701 0.369095,0 0,0.4429134 -0.369095,0 0,0.7381886 0.369095,0 0,0.516733 -0.369095,0 0,0.66437 0.922737,0 0,-1.8823821 0.516732,0 0,1.9192911 0.738189,0 0,-1.6240155 -1.402559,-1.4394686 z"
       inkscape:connector-curvature="0"
       id="path40"
       style="fill:none;stroke:#f2f2f2;stroke-width:0.5905512px;stroke-linecap:round;stroke-linejoin:round;stroke-opacity:1;stroke-dasharray:none" />
  </g>
</svg>
