<?xml version="1.0" encoding="UTF-8" standalone="no"?>
<!-- Created with Inkscape (http://www.inkscape.org/) -->

<svg
   xmlns:dc="http://purl.org/dc/elements/1.1/"
   xmlns:cc="http://creativecommons.org/ns#"
   xmlns:rdf="http://www.w3.org/1999/02/22-rdf-syntax-ns#"
   xmlns:svg="http://www.w3.org/2000/svg"
   xmlns="http://www.w3.org/2000/svg"
   xmlns:inkscape="http://www.inkscape.org/namespaces/inkscape"
   version="1.0"
   width="10.17mm"
   height="7.4000001mm"
   id="svg2">
  <metadata
     id="metadata178">
    <rdf:RDF>
      <cc:Work
         rdf:about="">
        <dc:format>image/svg+xml</dc:format>
        <dc:type
           rdf:resource="http://purl.org/dc/dcmitype/StillImage" />
      </cc:Work>
    </rdf:RDF>
  </metadata>
  <defs
     id="defs4" />
  <g
     id="g6">
    <path
       d="m 4.7244096,1.1811024 0,1.7716536 10.6299214,0 0,-1.7716536 -10.6299214,0 z"
       inkscape:connector-curvature="0"
       id="path8"
       style="fill:#1eb0ff;fill-opacity:1;fill-rule:evenodd;stroke:none" />
    <path
       d="m 4.7244096,2.952756 0,0.5905512 10.6299214,0 0,-0.5905512 -10.6299214,0 z"
       inkscape:connector-curvature="0"
       id="path10"
       style="fill:#1daffe;fill-opacity:1;fill-rule:evenodd;stroke:none" />
    <path
       d="m 4.7244096,3.5433072 0,0.5905512 10.6299214,0 0,-0.5905512 -10.6299214,0 z"
       inkscape:connector-curvature="0"
       id="path12"
       style="fill:#1caefc;fill-opacity:1;fill-rule:evenodd;stroke:none" />
    <path
       d="m 4.7244096,4.1338584 0,0.5905512 10.6299214,0 0,-0.5905512 -10.6299214,0 z"
       inkscape:connector-curvature="0"
       id="path14"
       style="fill:#1aacfa;fill-opacity:1;fill-rule:evenodd;stroke:none" />
    <path
       d="m 4.7244096,4.7244096 0,0.5905512 10.6299214,0 0,-0.5905512 -10.6299214,0 z"
       inkscape:connector-curvature="0"
       id="path16"
       style="fill:#19aaf8;fill-opacity:1;fill-rule:evenodd;stroke:none" />
    <path
       d="m 4.7244096,5.3149608 0,0.5905512 10.6299214,0 0,-0.5905512 -10.6299214,0 z"
       inkscape:connector-curvature="0"
       id="path18"
       style="fill:#18a9f7;fill-opacity:1;fill-rule:evenodd;stroke:none" />
    <path
       d="m 4.7244096,5.905512 0,0.5905512 10.6299214,0 0,-0.5905512 -10.6299214,0 z"
       inkscape:connector-curvature="0"
       id="path20"
       style="fill:#17a8f6;fill-opacity:1;fill-rule:evenodd;stroke:none" />
    <path
       d="m 4.7244096,6.4960632 0,0.5905512 10.6299214,0 0,-0.5905512 -10.6299214,0 z"
       inkscape:connector-curvature="0"
       id="path22"
       style="fill:#16a6f4;fill-opacity:1;fill-rule:evenodd;stroke:none" />
    <path
       d="m 4.7244096,7.0866144 0,0.5905512 10.6299214,0 0,-0.5905512 -10.6299214,0 z"
       inkscape:connector-curvature="0"
       id="path24"
       style="fill:#15a5f2;fill-opacity:1;fill-rule:evenodd;stroke:none" />
    <path
       d="m 4.7244096,7.6771656 0,0.5905512 10.6299214,0 0,-0.5905512 -10.6299214,0 z"
       inkscape:connector-curvature="0"
       id="path26"
       style="fill:#13a3f1;fill-opacity:1;fill-rule:evenodd;stroke:none" />
    <path
       d="m 4.7244096,8.2677168 0,0.5905512 10.6299214,0 0,-0.5905512 -10.6299214,0 z"
       inkscape:connector-curvature="0"
       id="path28"
       style="fill:#12a2ef;fill-opacity:1;fill-rule:evenodd;stroke:none" />
    <path
       d="m 4.7244096,8.858268 0,0.5905512 10.6299214,0 0,-0.5905512 -10.6299214,0 z"
       inkscape:connector-curvature="0"
       id="path30"
       style="fill:#11a0ed;fill-opacity:1;fill-rule:evenodd;stroke:none" />
    <path
       d="m 4.7244096,9.4488192 0,0.5905508 10.6299214,0 0,-0.5905508 -10.6299214,0 z"
       inkscape:connector-curvature="0"
       id="path32"
       style="fill:#109feb;fill-opacity:1;fill-rule:evenodd;stroke:none" />
    <path
       d="m 4.7244096,10.03937 0,0.590552 10.6299214,0 0,-0.590552 -10.6299214,0 z"
       inkscape:connector-curvature="0"
       id="path34"
       style="fill:#0f9dea;fill-opacity:1;fill-rule:evenodd;stroke:none" />
    <path
       d="m 4.7244096,10.629922 0,0.590551 10.6299214,0 0,-0.590551 -10.6299214,0 z"
       inkscape:connector-curvature="0"
       id="path36"
       style="fill:#0d9ce8;fill-opacity:1;fill-rule:evenodd;stroke:none" />
    <path
       d="m 4.7244096,11.220473 0,0.590551 10.6299214,0 0,-0.590551 -10.6299214,0 z"
       inkscape:connector-curvature="0"
       id="path38"
       style="fill:#0c9ae7;fill-opacity:1;fill-rule:evenodd;stroke:none" />
    <path
       d="m 4.7244096,11.811024 0,0.590551 10.6299214,0 0,-0.590551 -10.6299214,0 z"
       inkscape:connector-curvature="0"
       id="path40"
       style="fill:#0b99e5;fill-opacity:1;fill-rule:evenodd;stroke:none" />
    <path
       d="m 4.7244096,12.401575 0,0.590551 10.6299214,0 0,-0.590551 -10.6299214,0 z"
       inkscape:connector-curvature="0"
       id="path42"
       style="fill:#0a97e3;fill-opacity:1;fill-rule:evenodd;stroke:none" />
    <path
       d="m 4.7244096,12.992126 0,0.590552 10.6299214,0 0,-0.590552 -10.6299214,0 z"
       inkscape:connector-curvature="0"
       id="path44"
       style="fill:#0996e2;fill-opacity:1;fill-rule:evenodd;stroke:none" />
    <path
       d="m 4.7244096,13.582678 0,0.590551 10.6299214,0 0,-0.590551 -10.6299214,0 z"
       inkscape:connector-curvature="0"
       id="path46"
       style="fill:#0895e0;fill-opacity:1;fill-rule:evenodd;stroke:none" />
    <path
       d="m 4.7244096,14.173229 0,0.590551 10.6299214,0 0,-0.590551 -10.6299214,0 z"
       inkscape:connector-curvature="0"
       id="path48"
       style="fill:#0693de;fill-opacity:1;fill-rule:evenodd;stroke:none" />
    <path
       d="m 4.7244096,14.76378 0,0.590551 10.6299214,0 0,-0.590551 -10.6299214,0 z"
       inkscape:connector-curvature="0"
       id="path50"
       style="fill:#0591dd;fill-opacity:1;fill-rule:evenodd;stroke:none" />
    <path
       d="m 4.7244096,15.354331 0,0.590551 10.6299214,0 0,-0.590551 -10.6299214,0 z"
       inkscape:connector-curvature="0"
       id="path52"
       style="fill:#0490db;fill-opacity:1;fill-rule:evenodd;stroke:none" />
    <path
       d="m 4.7244096,15.944882 0,0.590552 10.6299214,0 0,-0.590552 -10.6299214,0 z"
       inkscape:connector-curvature="0"
       id="path54"
       style="fill:#038fda;fill-opacity:1;fill-rule:evenodd;stroke:none" />
    <path
       d="m 4.7244096,16.535434 0,0.590551 10.6299214,0 0,-0.590551 -10.6299214,0 z"
       inkscape:connector-curvature="0"
       id="path56"
       style="fill:#028dd8;fill-opacity:1;fill-rule:evenodd;stroke:none" />
    <path
       d="m 4.7244096,17.125985 10.6299214,0 0,-15.9448826 -10.6299214,0 0,15.9448826 z"
       inkscape:connector-curvature="0"
       id="path58"
       style="fill:none;stroke:#f2f2f2;stroke-width:1.1811024px;stroke-linecap:round;stroke-linejoin:round;stroke-opacity:1;stroke-dasharray:none" />
    <path
       d="m 2.952756,2.952756 0,1.7716536 10.629922,0 0,-1.7716536 -10.629922,0 z"
       inkscape:connector-curvature="0"
       id="path60"
       style="fill:#1eb0ff;fill-opacity:1;fill-rule:evenodd;stroke:none" />
    <path
       d="m 2.952756,4.7244096 0,0.5905512 10.629922,0 0,-0.5905512 -10.629922,0 z"
       inkscape:connector-curvature="0"
       id="path62"
       style="fill:#1daffe;fill-opacity:1;fill-rule:evenodd;stroke:none" />
    <path
       d="m 2.952756,5.3149608 0,0.5905512 10.629922,0 0,-0.5905512 -10.629922,0 z"
       inkscape:connector-curvature="0"
       id="path64"
       style="fill:#1caefc;fill-opacity:1;fill-rule:evenodd;stroke:none" />
    <path
       d="m 2.952756,5.905512 0,0.5905512 10.629922,0 0,-0.5905512 -10.629922,0 z"
       inkscape:connector-curvature="0"
       id="path66"
       style="fill:#1aacfa;fill-opacity:1;fill-rule:evenodd;stroke:none" />
    <path
       d="m 2.952756,6.4960632 0,0.5905512 10.629922,0 0,-0.5905512 -10.629922,0 z"
       inkscape:connector-curvature="0"
       id="path68"
       style="fill:#19aaf8;fill-opacity:1;fill-rule:evenodd;stroke:none" />
    <path
       d="m 2.952756,7.0866144 0,0.5905512 10.629922,0 0,-0.5905512 -10.629922,0 z"
       inkscape:connector-curvature="0"
       id="path70"
       style="fill:#18a9f7;fill-opacity:1;fill-rule:evenodd;stroke:none" />
    <path
       d="m 2.952756,7.6771656 0,0.5905512 10.629922,0 0,-0.5905512 -10.629922,0 z"
       inkscape:connector-curvature="0"
       id="path72"
       style="fill:#17a8f6;fill-opacity:1;fill-rule:evenodd;stroke:none" />
    <path
       d="m 2.952756,8.2677168 0,0.5905512 10.629922,0 0,-0.5905512 -10.629922,0 z"
       inkscape:connector-curvature="0"
       id="path74"
       style="fill:#16a6f4;fill-opacity:1;fill-rule:evenodd;stroke:none" />
    <path
       d="m 2.952756,8.858268 0,0.5905512 10.629922,0 0,-0.5905512 -10.629922,0 z"
       inkscape:connector-curvature="0"
       id="path76"
       style="fill:#15a5f2;fill-opacity:1;fill-rule:evenodd;stroke:none" />
    <path
       d="m 2.952756,9.4488192 0,0.5905508 10.629922,0 0,-0.5905508 -10.629922,0 z"
       inkscape:connector-curvature="0"
       id="path78"
       style="fill:#13a3f1;fill-opacity:1;fill-rule:evenodd;stroke:none" />
    <path
       d="m 2.952756,10.03937 0,0.590552 10.629922,0 0,-0.590552 -10.629922,0 z"
       inkscape:connector-curvature="0"
       id="path80"
       style="fill:#12a2ef;fill-opacity:1;fill-rule:evenodd;stroke:none" />
    <path
       d="m 2.952756,10.629922 0,0.590551 10.629922,0 0,-0.590551 -10.629922,0 z"
       inkscape:connector-curvature="0"
       id="path82"
       style="fill:#11a0ed;fill-opacity:1;fill-rule:evenodd;stroke:none" />
    <path
       d="m 2.952756,11.220473 0,0.590551 10.629922,0 0,-0.590551 -10.629922,0 z"
       inkscape:connector-curvature="0"
       id="path84"
       style="fill:#109feb;fill-opacity:1;fill-rule:evenodd;stroke:none" />
    <path
       d="m 2.952756,11.811024 0,0.590551 10.629922,0 0,-0.590551 -10.629922,0 z"
       inkscape:connector-curvature="0"
       id="path86"
       style="fill:#0f9dea;fill-opacity:1;fill-rule:evenodd;stroke:none" />
    <path
       d="m 2.952756,12.401575 0,0.590551 10.629922,0 0,-0.590551 -10.629922,0 z"
       inkscape:connector-curvature="0"
       id="path88"
       style="fill:#0d9ce8;fill-opacity:1;fill-rule:evenodd;stroke:none" />
    <path
       d="m 2.952756,12.992126 0,0.590552 10.629922,0 0,-0.590552 -10.629922,0 z"
       inkscape:connector-curvature="0"
       id="path90"
       style="fill:#0c9ae7;fill-opacity:1;fill-rule:evenodd;stroke:none" />
    <path
       d="m 2.952756,13.582678 0,0.590551 10.629922,0 0,-0.590551 -10.629922,0 z"
       inkscape:connector-curvature="0"
       id="path92"
       style="fill:#0b99e5;fill-opacity:1;fill-rule:evenodd;stroke:none" />
    <path
       d="m 2.952756,14.173229 0,0.590551 10.629922,0 0,-0.590551 -10.629922,0 z"
       inkscape:connector-curvature="0"
       id="path94"
       style="fill:#0a97e3;fill-opacity:1;fill-rule:evenodd;stroke:none" />
    <path
       d="m 2.952756,14.76378 0,0.590551 10.629922,0 0,-0.590551 -10.629922,0 z"
       inkscape:connector-curvature="0"
       id="path96"
       style="fill:#0996e2;fill-opacity:1;fill-rule:evenodd;stroke:none" />
    <path
       d="m 2.952756,15.354331 0,0.590551 10.629922,0 0,-0.590551 -10.629922,0 z"
       inkscape:connector-curvature="0"
       id="path98"
       style="fill:#0895e0;fill-opacity:1;fill-rule:evenodd;stroke:none" />
    <path
       d="m 2.952756,15.944882 0,0.590552 10.629922,0 0,-0.590552 -10.629922,0 z"
       inkscape:connector-curvature="0"
       id="path100"
       style="fill:#0693de;fill-opacity:1;fill-rule:evenodd;stroke:none" />
    <path
       d="m 2.952756,16.535434 0,0.590551 10.629922,0 0,-0.590551 -10.629922,0 z"
       inkscape:connector-curvature="0"
       id="path102"
       style="fill:#0591dd;fill-opacity:1;fill-rule:evenodd;stroke:none" />
    <path
       d="m 2.952756,17.125985 0,0.590551 10.629922,0 0,-0.590551 -10.629922,0 z"
       inkscape:connector-curvature="0"
       id="path104"
       style="fill:#0490db;fill-opacity:1;fill-rule:evenodd;stroke:none" />
    <path
       d="m 2.952756,17.716536 0,0.590551 10.629922,0 0,-0.590551 -10.629922,0 z"
       inkscape:connector-curvature="0"
       id="path106"
       style="fill:#038fda;fill-opacity:1;fill-rule:evenodd;stroke:none" />
    <path
       d="m 2.952756,18.307087 0,0.590551 10.629922,0 0,-0.590551 -10.629922,0 z"
       inkscape:connector-curvature="0"
       id="path108"
       style="fill:#028dd8;fill-opacity:1;fill-rule:evenodd;stroke:none" />
    <path
       d="m 2.952756,18.897638 10.629922,0 0,-15.944882 -10.629922,0 0,15.944882 z"
       inkscape:connector-curvature="0"
       id="path110"
       style="fill:none;stroke:#f2f2f2;stroke-width:1.1811024px;stroke-linecap:round;stroke-linejoin:round;stroke-opacity:1;stroke-dasharray:none" />
    <path
       d="m 1.1811024,4.7244096 0,1.7716536 10.6299216,0 0,-1.7716536 -10.6299216,0 z"
       inkscape:connector-curvature="0"
       id="path112"
       style="fill:#1eb0ff;fill-opacity:1;fill-rule:evenodd;stroke:none" />
    <path
       d="m 1.1811024,6.4960632 0,0.5905512 10.6299216,0 0,-0.5905512 -10.6299216,0 z"
       inkscape:connector-curvature="0"
       id="path114"
       style="fill:#1daffe;fill-opacity:1;fill-rule:evenodd;stroke:none" />
    <path
       d="m 1.1811024,7.0866144 0,0.5905512 10.6299216,0 0,-0.5905512 -10.6299216,0 z"
       inkscape:connector-curvature="0"
       id="path116"
       style="fill:#1caefc;fill-opacity:1;fill-rule:evenodd;stroke:none" />
    <path
       d="m 1.1811024,7.6771656 0,0.5905512 10.6299216,0 0,-0.5905512 -10.6299216,0 z"
       inkscape:connector-curvature="0"
       id="path118"
       style="fill:#1aacfa;fill-opacity:1;fill-rule:evenodd;stroke:none" />
    <path
       d="m 1.1811024,8.2677168 0,0.5905512 10.6299216,0 0,-0.5905512 -10.6299216,0 z"
       inkscape:connector-curvature="0"
       id="path120"
       style="fill:#19aaf8;fill-opacity:1;fill-rule:evenodd;stroke:none" />
    <path
       d="m 1.1811024,8.858268 0,0.5905512 10.6299216,0 0,-0.5905512 -10.6299216,0 z"
       inkscape:connector-curvature="0"
       id="path122"
       style="fill:#18a9f7;fill-opacity:1;fill-rule:evenodd;stroke:none" />
    <path
       d="m 1.1811024,9.4488192 0,0.5905508 10.6299216,0 0,-0.5905508 -10.6299216,0 z"
       inkscape:connector-curvature="0"
       id="path124"
       style="fill:#17a8f6;fill-opacity:1;fill-rule:evenodd;stroke:none" />
    <path
       d="m 1.1811024,10.03937 0,0.590552 10.6299216,0 0,-0.590552 -10.6299216,0 z"
       inkscape:connector-curvature="0"
       id="path126"
       style="fill:#16a6f4;fill-opacity:1;fill-rule:evenodd;stroke:none" />
    <path
       d="m 1.1811024,10.629922 0,0.590551 10.6299216,0 0,-0.590551 -10.6299216,0 z"
       inkscape:connector-curvature="0"
       id="path128"
       style="fill:#15a5f2;fill-opacity:1;fill-rule:evenodd;stroke:none" />
    <path
       d="m 1.1811024,11.220473 0,0.590551 10.6299216,0 0,-0.590551 -10.6299216,0 z"
       inkscape:connector-curvature="0"
       id="path130"
       style="fill:#13a3f1;fill-opacity:1;fill-rule:evenodd;stroke:none" />
    <path
       d="m 1.1811024,11.811024 0,0.590551 10.6299216,0 0,-0.590551 -10.6299216,0 z"
       inkscape:connector-curvature="0"
       id="path132"
       style="fill:#12a2ef;fill-opacity:1;fill-rule:evenodd;stroke:none" />
    <path
       d="m 1.1811024,12.401575 0,0.590551 10.6299216,0 0,-0.590551 -10.6299216,0 z"
       inkscape:connector-curvature="0"
       id="path134"
       style="fill:#11a0ed;fill-opacity:1;fill-rule:evenodd;stroke:none" />
    <path
       d="m 1.1811024,12.992126 0,0.590552 10.6299216,0 0,-0.590552 -10.6299216,0 z"
       inkscape:connector-curvature="0"
       id="path136"
       style="fill:#109feb;fill-opacity:1;fill-rule:evenodd;stroke:none" />
    <path
       d="m 1.1811024,13.582678 0,0.590551 10.6299216,0 0,-0.590551 -10.6299216,0 z"
       inkscape:connector-curvature="0"
       id="path138"
       style="fill:#0f9dea;fill-opacity:1;fill-rule:evenodd;stroke:none" />
    <path
       d="m 1.1811024,14.173229 0,0.590551 10.6299216,0 0,-0.590551 -10.6299216,0 z"
       inkscape:connector-curvature="0"
       id="path140"
       style="fill:#0d9ce8;fill-opacity:1;fill-rule:evenodd;stroke:none" />
    <path
       d="m 1.1811024,14.76378 0,0.590551 10.6299216,0 0,-0.590551 -10.6299216,0 z"
       inkscape:connector-curvature="0"
       id="path142"
       style="fill:#0c9ae7;fill-opacity:1;fill-rule:evenodd;stroke:none" />
    <path
       d="m 1.1811024,15.354331 0,0.590551 10.6299216,0 0,-0.590551 -10.6299216,0 z"
       inkscape:connector-curvature="0"
       id="path144"
       style="fill:#0b99e5;fill-opacity:1;fill-rule:evenodd;stroke:none" />
    <path
       d="m 1.1811024,15.944882 0,0.590552 10.6299216,0 0,-0.590552 -10.6299216,0 z"
       inkscape:connector-curvature="0"
       id="path146"
       style="fill:#0a97e3;fill-opacity:1;fill-rule:evenodd;stroke:none" />
    <path
       d="m 1.1811024,16.535434 0,0.590551 10.6299216,0 0,-0.590551 -10.6299216,0 z"
       inkscape:connector-curvature="0"
       id="path148"
       style="fill:#0996e2;fill-opacity:1;fill-rule:evenodd;stroke:none" />
    <path
       d="m 1.1811024,17.125985 0,0.590551 10.6299216,0 0,-0.590551 -10.6299216,0 z"
       inkscape:connector-curvature="0"
       id="path150"
       style="fill:#0895e0;fill-opacity:1;fill-rule:evenodd;stroke:none" />
    <path
       d="m 1.1811024,17.716536 0,0.590551 10.6299216,0 0,-0.590551 -10.6299216,0 z"
       inkscape:connector-curvature="0"
       id="path152"
       style="fill:#0693de;fill-opacity:1;fill-rule:evenodd;stroke:none" />
    <path
       d="m 1.1811024,18.307087 0,0.590551 10.6299216,0 0,-0.590551 -10.6299216,0 z"
       inkscape:connector-curvature="0"
       id="path154"
       style="fill:#0591dd;fill-opacity:1;fill-rule:evenodd;stroke:none" />
    <path
       d="m 1.1811024,18.897638 0,0.590552 10.6299216,0 0,-0.590552 -10.6299216,0 z"
       inkscape:connector-curvature="0"
       id="path156"
       style="fill:#0490db;fill-opacity:1;fill-rule:evenodd;stroke:none" />
    <path
       d="m 1.1811024,19.48819 0,0.590551 10.6299216,0 0,-0.590551 -10.6299216,0 z"
       inkscape:connector-curvature="0"
       id="path158"
       style="fill:#038fda;fill-opacity:1;fill-rule:evenodd;stroke:none" />
    <path
       d="m 1.1811024,20.078741 0,0.590551 10.6299216,0 0,-0.590551 -10.6299216,0 z"
       inkscape:connector-curvature="0"
       id="path160"
       style="fill:#028dd8;fill-opacity:1;fill-rule:evenodd;stroke:none" />
    <path
       d="m 1.1811024,20.669292 10.6299216,0 0,-15.9448824 -10.6299216,0 0,15.9448824 z"
       inkscape:connector-curvature="0"
       id="path162"
       style="fill:none;stroke:#f2f2f2;stroke-width:1.1811024px;stroke-linecap:round;stroke-linejoin:round;stroke-opacity:1;stroke-dasharray:none" />
    <path
       d="m 22.699312,7.6033467 c 0,1.8454725 2.768208,3.3587603 6.200787,3.3587603 3.432579,0 6.200788,-1.5132878 6.200788,-3.3587603"
       inkscape:connector-curvature="0"
       id="path164"
       style="fill:none;stroke:#f2f2f2;stroke-width:1.1811024px;stroke-linecap:round;stroke-linejoin:round;stroke-opacity:1;stroke-dasharray:none" />
    <path
       d="m 22.699312,10.962107 c 0,1.808563 2.768208,3.32185 6.200787,3.32185 3.432579,0 6.200788,-1.513287 6.200788,-3.32185"
       inkscape:connector-curvature="0"
       id="path166"
       style="fill:none;stroke:#f2f2f2;stroke-width:1.1811024px;stroke-linecap:round;stroke-linejoin:round;stroke-opacity:1;stroke-dasharray:none" />
    <path
       d="m 22.699312,14.579233 c 0,1.845472 2.768208,3.32185 6.200787,3.32185 3.432579,0 6.200788,-1.476378 6.200788,-3.32185"
       inkscape:connector-curvature="0"
       id="path168"
       style="fill:none;stroke:#f2f2f2;stroke-width:1.1811024px;stroke-linecap:round;stroke-linejoin:round;stroke-opacity:1;stroke-dasharray:none" />
    <path
       d="m 35.100887,7.3080711 c 0,-1.8454725 -2.768209,-3.3218505 -6.200788,-3.3218505 -3.432579,0 -6.200787,1.476378 -6.200787,3.3218505"
       inkscape:connector-curvature="0"
       id="path170"
       style="fill:none;stroke:#f2f2f2;stroke-width:1.1811024px;stroke-linecap:round;stroke-linejoin:round;stroke-opacity:1;stroke-dasharray:none" />
    <path
       d="m 22.699312,7.6033467 0,6.9758863"
       inkscape:connector-curvature="0"
       id="path172"
       style="fill:none;stroke:#f2f2f2;stroke-width:1.1811024px;stroke-linecap:round;stroke-linejoin:round;stroke-opacity:1;stroke-dasharray:none" />
    <path
       d="m 35.100887,7.3080711 0,7.2711619"
       inkscape:connector-curvature="0"
       id="path174"
       style="fill:none;stroke:#f2f2f2;stroke-width:1.1811024px;stroke-linecap:round;stroke-linejoin:round;stroke-opacity:1;stroke-dasharray:none" />
  </g>
</svg>
