<?xml version="1.0" encoding="UTF-8" standalone="no"?>
<!-- Created with Inkscape (http://www.inkscape.org/) -->

<svg
   xmlns:dc="http://purl.org/dc/elements/1.1/"
   xmlns:cc="http://creativecommons.org/ns#"
   xmlns:rdf="http://www.w3.org/1999/02/22-rdf-syntax-ns#"
   xmlns:svg="http://www.w3.org/2000/svg"
   xmlns="http://www.w3.org/2000/svg"
   xmlns:inkscape="http://www.inkscape.org/namespaces/inkscape"
   version="1.0"
   width="4.5mm"
   height="7.8000002mm"
   id="svg2">
  <metadata
     id="metadata26">
    <rdf:RDF>
      <cc:Work
         rdf:about="">
        <dc:format>image/svg+xml</dc:format>
        <dc:type
           rdf:resource="http://purl.org/dc/dcmitype/StillImage" />
      </cc:Work>
    </rdf:RDF>
  </metadata>
  <defs
     id="defs4" />
  <g
     id="g6">
    <path
       d="m 1.1811024,2.3622048 12.4384846,0"
       inkscape:connector-curvature="0"
       id="path8"
       style="fill:none;stroke:#f2f2f2;stroke-width:1.1811024px;stroke-linecap:round;stroke-linejoin:round;stroke-opacity:1;stroke-dasharray:none" />
    <path
       d="m 11.884843,2.3622048 c 0,0.9227362 0.775098,1.7347441 1.734744,1.7347441 0.959646,0 1.734744,-0.8120079 1.734744,-1.7347441 0,-0.9596457 -0.775098,-1.7716536 -1.734744,-1.7716536 -0.959646,0 -1.734744,0.8120079 -1.734744,1.7716536"
       inkscape:connector-curvature="0"
       id="path10"
       style="fill:#f2f2f2;fill-opacity:1;fill-rule:evenodd;stroke:none" />
    <path
       d="m 1.1811024,21.038386 12.4384846,0"
       inkscape:connector-curvature="0"
       id="path12"
       style="fill:none;stroke:#f2f2f2;stroke-width:1.1811024px;stroke-linecap:round;stroke-linejoin:round;stroke-opacity:1;stroke-dasharray:none" />
    <path
       d="m 11.884843,21.038386 c 0,0.959646 0.775098,1.734745 1.734744,1.734745 0.959646,0 1.734744,-0.775099 1.734744,-1.734745 0,-0.959645 -0.775098,-1.734744 -1.734744,-1.734744 -0.959646,0 -1.734744,0.775099 -1.734744,1.734744"
       inkscape:connector-curvature="0"
       id="path14"
       style="fill:#f2f2f2;fill-opacity:1;fill-rule:evenodd;stroke:none" />
    <path
       d="m 1.1811024,8.5629924 12.4384846,0"
       inkscape:connector-curvature="0"
       id="path16"
       style="fill:none;stroke:#f2f2f2;stroke-width:1.1811024px;stroke-linecap:round;stroke-linejoin:round;stroke-opacity:1;stroke-dasharray:none" />
    <path
       d="m 11.884843,8.5629924 c 0,0.9227362 0.775098,1.7347446 1.734744,1.7347446 0.959646,0 1.734744,-0.8120084 1.734744,-1.7347446 0,-0.9596457 -0.775098,-1.7716536 -1.734744,-1.7716536 -0.959646,0 -1.734744,0.8120079 -1.734744,1.7716536"
       inkscape:connector-curvature="0"
       id="path18"
       style="fill:#f2f2f2;fill-opacity:1;fill-rule:evenodd;stroke:none" />
    <path
       d="m 1.1811024,14.76378 12.4384846,0"
       inkscape:connector-curvature="0"
       id="path20"
       style="fill:none;stroke:#f2f2f2;stroke-width:1.1811024px;stroke-linecap:round;stroke-linejoin:round;stroke-opacity:1;stroke-dasharray:none" />
    <path
       d="m 11.884843,14.76378 c 0,0.922736 0.775098,1.734744 1.734744,1.734744 0.959646,0 1.734744,-0.812008 1.734744,-1.734744 0,-0.959646 -0.775098,-1.771654 -1.734744,-1.771654 -0.959646,0 -1.734744,0.812008 -1.734744,1.771654"
       inkscape:connector-curvature="0"
       id="path22"
       style="fill:#f2f2f2;fill-opacity:1;fill-rule:evenodd;stroke:none" />
  </g>
</svg>
