<?xml version="1.0" encoding="UTF-8" standalone="no"?>
<!-- Created with Inkscape (http://www.inkscape.org/) -->

<svg
   xmlns:dc="http://purl.org/dc/elements/1.1/"
   xmlns:cc="http://creativecommons.org/ns#"
   xmlns:rdf="http://www.w3.org/1999/02/22-rdf-syntax-ns#"
   xmlns:svg="http://www.w3.org/2000/svg"
   xmlns="http://www.w3.org/2000/svg"
   xmlns:inkscape="http://www.inkscape.org/namespaces/inkscape"
   version="1.0"
   width="18.01mm"
   height="17.98mm"
   id="svg2">
  <metadata
     id="metadata24">
    <rdf:RDF>
      <cc:Work
         rdf:about="">
        <dc:format>image/svg+xml</dc:format>
        <dc:type
           rdf:resource="http://purl.org/dc/dcmitype/StillImage" />
      </cc:Work>
    </rdf:RDF>
  </metadata>
  <defs
     id="defs4" />
  <g
     id="g6">
    <path
       d="m 17.282619,61.388489 29.873125,0 2.971672,-0.312807 -0.156404,0 2.815269,-0.860221 -0.156404,0.0782 2.502461,-1.407634 -0.0782,0.0782 2.267855,-1.798644 -0.156404,0.156404 1.798644,-2.267855 -0.0782,0.0782 1.407634,-2.502461 -0.0782,0.156404 0.860221,-2.815269 0,0.156404 0.312807,-3.049874 0,-29.951326 -0.312807,-2.893471 0,0.156404 -0.860221,-2.815268 0.0782,0.156404 -1.407634,-2.5024611 0.0782,0.078202 -1.798644,-2.267855 0.156404,0.1564038 -2.267855,-1.7986437 0.0782,0.078202 -2.502461,-1.4076341 0.156404,0.078202 -2.815269,-0.8602209 0.156404,0 -3.049874,-0.3128076 -29.951326,0 -2.893471,0.3128076 0.156404,0 -2.815268,0.8602209 0.156404,-0.078202 -2.5024611,1.4076341 0.078202,-0.078202 -2.267855,1.7986437 0.1564038,-0.1564038 -1.7986437,2.267855 0.078202,-0.078202 -1.4076341,2.5024611 0.078202,-0.156404 -0.8602209,2.815268 0,-0.156404 -0.3128076,3.049874 0,29.873125 0.3128076,2.971672 0,-0.156404 0.8602209,2.815269 -0.078202,-0.156404 1.4076341,2.502461 -0.078202,-0.0782 1.7986437,2.267855 -0.1564038,-0.156404 2.267855,1.798644 -0.078202,-0.0782 2.5024611,1.407634 -0.156404,-0.0782 2.815268,0.860221 -0.156404,0 z m -3.284479,1.329433 c 0,0 -0.0782,0 -0.156404,0 l -2.815268,-0.860221 c 0,-0.0782 -0.0782,-0.0782 -0.156404,-0.0782 L 8.367603,60.371865 c 0,-0.0782 -0.078202,-0.0782 -0.078202,-0.0782 l -2.267855,-1.798644 c -0.078202,-0.0782 -0.078202,-0.0782 -0.1564038,-0.156404 L 4.0664987,56.07076 c 0,0 -0.078202,-0.0782 -0.078202,-0.0782 L 2.5806626,53.490098 c 0,-0.0782 -0.078202,-0.156404 -0.078202,-0.156404 L 1.6422398,50.518426 c 0,-0.0782 0,-0.156404 0,-0.156404 l -0.3128075,-3.206278 0,-30.10773 0.3128075,-3.049874 c 0,0 0,-0.0782 0,-0.156404 l 0.8602209,-2.815268 c 0,0 0.078202,-0.0782 0.078202,-0.156404 L 3.9882968,8.367603 c 0,0 0.078202,-0.078202 0.078202,-0.078202 l 1.7986436,-2.267855 c 0.078202,-0.078202 0.078202,-0.078202 0.1564038,-0.1564038 l 2.267855,-1.7986436 c 0,0 0.078202,-0.078202 0.078202,-0.078202 l 2.502461,-1.4076342 c 0.0782,0 0.156404,-0.078202 0.156404,-0.078202 l 2.815268,-0.8602209 c 0.0782,0 0.156404,0 0.156404,0 l 3.128076,-0.3128075 30.185932,0 3.049874,0.3128075 c 0,0 0.0782,0 0.156404,0 l 2.815268,0.8602209 c 0,0 0.0782,0.078202 0.156404,0.078202 l 2.502461,1.4076342 c 0,0 0.0782,0.078202 0.0782,0.078202 l 2.267855,1.7986436 c 0.0782,0.078202 0.0782,0.078202 0.156404,0.1564038 l 1.798644,2.267855 c 0,0 0,0.078202 0.0782,0.078202 l 1.407634,2.502461 c 0,0.0782 0,0.156404 0.0782,0.156404 l 0.860221,2.815268 c 0,0.0782 0,0.156404 0,0.156404 l 0.312807,3.128076 0,30.185932 -0.312807,3.049874 c 0,0 0,0.0782 0,0.156404 l -0.860221,2.815268 c -0.0782,0 -0.0782,0.0782 -0.0782,0.156404 l -1.407634,2.502461 c -0.0782,0 -0.0782,0.0782 -0.0782,0.0782 l -1.798644,2.267855 c -0.0782,0.0782 -0.0782,0.0782 -0.156404,0.156404 l -2.267855,1.798644 c 0,0 -0.0782,0 -0.0782,0.0782 l -2.502461,1.407634 c -0.0782,0 -0.156404,0 -0.156404,0.0782 l -2.815268,0.860221 c -0.0782,0 -0.156404,0 -0.156404,0 l -3.206278,0.312807 -30.10773,0 z"
       inkscape:connector-curvature="0"
       id="path8"
       style="fill:#ffffff;fill-opacity:1;fill-rule:nonzero;stroke:none" />
    <path
       d="m 19.003061,25.102809 c 0,3.910095 5.865142,7.038171 13.137919,7.038171 7.272776,0 13.137919,-3.128076 13.137919,-7.038171"
       inkscape:connector-curvature="0"
       id="path10"
       style="fill:none;stroke:#ffffff;stroke-width:2.50246072px;stroke-linecap:round;stroke-linejoin:round;stroke-opacity:1;stroke-dasharray:none" />
    <path
       d="m 19.003061,32.14098 c 0,3.910095 5.865142,7.038171 13.137919,7.038171 7.272776,0 13.137919,-3.128076 13.137919,-7.038171"
       inkscape:connector-curvature="0"
       id="path12"
       style="fill:none;stroke:#ffffff;stroke-width:2.50246072px;stroke-linecap:round;stroke-linejoin:round;stroke-opacity:1;stroke-dasharray:none" />
    <path
       d="m 19.003061,39.882968 c 0,3.910095 5.865142,7.03817 13.137919,7.03817 7.272776,0 13.137919,-3.128075 13.137919,-7.03817"
       inkscape:connector-curvature="0"
       id="path14"
       style="fill:none;stroke:#ffffff;stroke-width:2.50246072px;stroke-linecap:round;stroke-linejoin:round;stroke-opacity:1;stroke-dasharray:none" />
    <path
       d="m 45.278899,24.398992 c 0,-3.831893 -5.865143,-7.038171 -13.137919,-7.038171 -7.272777,0 -13.137919,3.206278 -13.137919,7.038171"
       inkscape:connector-curvature="0"
       id="path16"
       style="fill:none;stroke:#ffffff;stroke-width:2.50246072px;stroke-linecap:round;stroke-linejoin:round;stroke-opacity:1;stroke-dasharray:none" />
    <path
       d="m 19.003061,25.102809 0,14.780159"
       inkscape:connector-curvature="0"
       id="path18"
       style="fill:none;stroke:#ffffff;stroke-width:2.50246072px;stroke-linecap:round;stroke-linejoin:round;stroke-opacity:1;stroke-dasharray:none" />
    <path
       d="m 45.278899,24.398992 0,15.483976"
       inkscape:connector-curvature="0"
       id="path20"
       style="fill:none;stroke:#ffffff;stroke-width:2.50246072px;stroke-linecap:round;stroke-linejoin:round;stroke-opacity:1;stroke-dasharray:none" />
  </g>
</svg>
