<?xml version="1.0" encoding="UTF-8" standalone="no"?>
<!-- Created with Inkscape (http://www.inkscape.org/) -->

<svg
   xmlns:dc="http://purl.org/dc/elements/1.1/"
   xmlns:cc="http://creativecommons.org/ns#"
   xmlns:rdf="http://www.w3.org/1999/02/22-rdf-syntax-ns#"
   xmlns:svg="http://www.w3.org/2000/svg"
   xmlns="http://www.w3.org/2000/svg"
   xmlns:inkscape="http://www.inkscape.org/namespaces/inkscape"
   version="1.0"
   width="10.2mm"
   height="10.2mm"
   id="svg2">
  <metadata
     id="metadata28">
    <rdf:RDF>
      <cc:Work
         rdf:about="">
        <dc:format>image/svg+xml</dc:format>
        <dc:type
           rdf:resource="http://purl.org/dc/dcmitype/StillImage" />
      </cc:Work>
    </rdf:RDF>
  </metadata>
  <defs
     id="defs4" />
  <g
     id="g6">
    <path
       d="m 5.5807088,34.768702 -0.132874,0 25.5118122,0 -0.08858,0 1.638779,-0.354331 -0.132874,0.08858 1.373032,-0.885827 -0.132874,0.132874 0.885827,-1.373032 -0.08858,0.132874 0.354331,-1.638779 0,0.08858 0,-25.5118122 0,0.132874 -0.354331,-1.6387796 0.08858,0.1328741 -0.885827,-1.3730316 0.132874,0.132874 -1.373032,-0.8858267 0.132874,0.088583 -1.638779,-0.3543307 0.08858,0 -25.5118122,0 0.132874,0 L 3.9419292,2.0374016 4.0748033,1.948819 2.7017717,2.8346457 2.8346457,2.7017717 1.948819,4.0748033 2.0374016,3.9419292 1.6830709,5.5807088 l 0,-0.132874 0,25.5118122 0,-0.08858 0.3543307,1.638779 -0.088583,-0.132874 0.8858267,1.373032 -0.132874,-0.132874 1.3730316,0.885827 -0.1328741,-0.08858 z m -1.8602363,0.575787 c -0.044291,0 -0.088583,-0.04429 -0.132874,-0.08858 L 2.214567,34.37008 c -0.088583,0 -0.132874,-0.04429 -0.132874,-0.132874 L 1.1958662,32.864174 C 1.1515748,32.819883 1.1072835,32.775591 1.1072835,32.7313 L 0.75295278,31.092521 c 0,-0.04429 0,-0.08858 0,-0.132874 l 0,-25.5118122 c 0,0 0,-0.044291 0,-0.088583 L 1.1072835,3.7204725 c 0,-0.044291 0.044291,-0.088583 0.088583,-0.132874 L 2.081693,2.214567 c 0,-0.088583 0.044291,-0.132874 0.132874,-0.132874 L 3.5875985,1.1958662 c 0.044291,-0.044291 0.088583,-0.088583 0.132874,-0.088583 L 5.3592521,0.75295278 c 0.044291,0 0.088583,0 0.088583,0 l 25.5118122,0 c 0.04429,0 0.08858,0 0.132874,0 L 32.7313,1.1072835 c 0.04429,0 0.08858,0.044291 0.132874,0.088583 l 1.373032,0.8858268 c 0.08858,0 0.132874,0.044291 0.132874,0.132874 l 0.885826,1.3730315 c 0.04429,0.044291 0.08858,0.088583 0.08858,0.132874 l 0.354331,1.6387796 c 0,0.044291 0,0.088583 0,0.088583 l 0,25.5118122 c 0,0.04429 0,0.08858 0,0.132874 L 35.344489,32.7313 c 0,0.04429 -0.04429,0.08858 -0.08858,0.132874 l -0.885826,1.373032 c 0,0.08858 -0.04429,0.132874 -0.132874,0.132874 l -1.373032,0.885826 c -0.04429,0.04429 -0.08858,0.08858 -0.132874,0.08858 l -1.638779,0.354331 c -0.04429,0 -0.08858,0 -0.132874,0 l -25.5118122,0 c 0,0 -0.044291,0 -0.088583,0 z"
       inkscape:connector-curvature="0"
       id="path8"
       style="fill:#ffffff;fill-opacity:1;fill-rule:nonzero;stroke:none" />
    <path
       d="m 11.825788,12.88878 0,17.007874 6.377953,0 0,-17.007874 -6.377953,0 z"
       inkscape:connector-curvature="0"
       id="path10"
       style="fill:none;stroke:#ffffff;stroke-width:1.41732287px;stroke-linecap:round;stroke-linejoin:round;stroke-opacity:1;stroke-dasharray:none" />
    <path
       d="M 11.825788,12.88878 16.077756,8.6368113"
       inkscape:connector-curvature="0"
       id="path12"
       style="fill:none;stroke:#ffffff;stroke-width:1.41732287px;stroke-linecap:round;stroke-linejoin:round;stroke-opacity:1;stroke-dasharray:none" />
    <path
       d="M 18.248032,12.88878 22.455709,8.6811026 16.077756,8.5925199"
       inkscape:connector-curvature="0"
       id="path14"
       style="fill:none;stroke:#ffffff;stroke-width:1.41732287px;stroke-linecap:round;stroke-linejoin:round;stroke-opacity:1;stroke-dasharray:none" />
    <path
       d="m 18.203741,29.896654 4.29626,-4.29626"
       inkscape:connector-curvature="0"
       id="path16"
       style="fill:none;stroke:#ffffff;stroke-width:1.41732287px;stroke-linecap:round;stroke-linejoin:round;stroke-opacity:1;stroke-dasharray:none" />
    <path
       d="m 22.500001,8.6368113 0,16.9635827"
       inkscape:connector-curvature="0"
       id="path18"
       style="fill:none;stroke:#ffffff;stroke-width:1.41732287px;stroke-linecap:round;stroke-linejoin:round;stroke-opacity:1;stroke-dasharray:none" />
    <path
       d="m 13.420276,27.77067 3.188976,0"
       inkscape:connector-curvature="0"
       id="path20"
       style="fill:none;stroke:#ffffff;stroke-width:0.93011814px;stroke-linecap:round;stroke-linejoin:round;stroke-opacity:1;stroke-dasharray:none" />
    <path
       d="m 13.420276,25.644686 3.188976,0"
       inkscape:connector-curvature="0"
       id="path22"
       style="fill:none;stroke:#ffffff;stroke-width:0.93011814px;stroke-linecap:round;stroke-linejoin:round;stroke-opacity:1;stroke-dasharray:none" />
    <path
       d="m 13.420276,23.518701 3.188976,0"
       inkscape:connector-curvature="0"
       id="path24"
       style="fill:none;stroke:#ffffff;stroke-width:0.93011814px;stroke-linecap:round;stroke-linejoin:round;stroke-opacity:1;stroke-dasharray:none" />
  </g>
</svg>
