<?xml version="1.0" encoding="UTF-8" standalone="no"?>
<!-- Created with Inkscape (http://www.inkscape.org/) -->

<svg
   xmlns:dc="http://purl.org/dc/elements/1.1/"
   xmlns:cc="http://creativecommons.org/ns#"
   xmlns:rdf="http://www.w3.org/1999/02/22-rdf-syntax-ns#"
   xmlns:svg="http://www.w3.org/2000/svg"
   xmlns="http://www.w3.org/2000/svg"
   xmlns:inkscape="http://www.inkscape.org/namespaces/inkscape"
   version="1.0"
   width="13.77mm"
   height="14.45mm"
   id="svg2">
  <metadata
     id="metadata26">
    <rdf:RDF>
      <cc:Work
         rdf:about="">
        <dc:format>image/svg+xml</dc:format>
        <dc:type
           rdf:resource="http://purl.org/dc/dcmitype/StillImage" />
      </cc:Work>
    </rdf:RDF>
  </metadata>
  <defs
     id="defs4" />
  <g
     id="g6">
    <path
       d="m 17.126216,47.155744 15.014764,0 c 8.289401,0 15.014764,-6.725363 15.014764,-15.014764 l 0,-15.014764 c 0,-8.2894016 -6.725363,-15.0147648 -15.014764,-15.0147648 l -15.014764,0 c -8.2894016,0 -15.0147648,6.7253632 -15.0147648,15.0147648 l 0,15.014764 c 0,8.289401 6.7253632,15.014764 15.0147648,15.014764 z"
       inkscape:connector-curvature="0"
       id="path8"
       style="fill:#ffc000;fill-opacity:1;fill-rule:evenodd;stroke:none" />
    <path
       d="m 17.282619,46.373725 14.858361,0 2.971672,-0.312807 -0.156404,0 2.815268,-0.860221 -0.156403,0.0782 2.50246,-1.407635 -0.0782,0.0782 2.267856,-1.798643 -0.156404,0.156404 1.798643,-2.267856 -0.0782,0.0782 1.407635,-2.50246 -0.0782,0.156403 0.860221,-2.815268 0,0.156404 0.312807,-3.049874 0,-14.936562 -0.312807,-2.893471 0,0.156404 -0.860221,-2.815268 0.0782,0.156404 -1.407635,-2.5024611 0.0782,0.078202 -1.798643,-2.267855 0.156404,0.1564038 -2.267856,-1.7986437 0.0782,0.078202 -2.50246,-1.4076341 0.156403,0.078202 -2.815268,-0.8602209 0.156404,0 -3.049874,-0.3128076 -14.936562,0 -2.893471,0.3128076 0.156404,0 -2.815268,0.8602209 0.156404,-0.078202 -2.5024611,1.4076341 0.078202,-0.078202 -2.267855,1.7986437 0.1564038,-0.1564038 -1.7986437,2.267855 0.078202,-0.078202 -1.4076341,2.5024611 0.078202,-0.156404 -0.8602209,2.815268 0,-0.156404 -0.3128076,3.049874 0,14.858361 0.3128076,2.971672 0,-0.156404 0.8602209,2.815268 -0.078202,-0.156403 1.4076341,2.50246 -0.078202,-0.0782 1.7986437,2.267856 -0.1564038,-0.156404 2.267855,1.798643 -0.078202,-0.0782 2.5024611,1.407635 -0.156404,-0.0782 2.815268,0.860221 -0.156404,0 z m -3.284479,1.329432 c 0,0 -0.0782,0 -0.156404,0 l -2.815268,-0.86022 c 0,-0.0782 -0.0782,-0.0782 -0.156404,-0.0782 L 8.367603,45.357101 c 0,-0.0782 -0.078202,-0.0782 -0.078202,-0.0782 l -2.267855,-1.798644 c -0.078202,-0.0782 -0.078202,-0.0782 -0.1564038,-0.156404 L 4.0664987,41.055996 c 0,0 -0.078202,-0.0782 -0.078202,-0.0782 l -1.4076342,-2.50246 c 0,-0.0782 -0.078202,-0.156404 -0.078202,-0.156404 L 1.6422398,35.503661 c 0,-0.0782 0,-0.156403 0,-0.156403 l -0.3128075,-3.206278 0,-15.092966 0.3128075,-3.049874 c 0,0 0,-0.0782 0,-0.156404 l 0.8602209,-2.815268 c 0,0 0.078202,-0.0782 0.078202,-0.156404 L 3.9882968,8.367603 c 0,0 0.078202,-0.078202 0.078202,-0.078202 l 1.7986436,-2.267855 c 0.078202,-0.078202 0.078202,-0.078202 0.1564038,-0.1564038 l 2.267855,-1.7986436 c 0,0 0.078202,-0.078202 0.078202,-0.078202 l 2.502461,-1.4076342 c 0.0782,0 0.156404,-0.078202 0.156404,-0.078202 l 2.815268,-0.8602209 c 0.0782,0 0.156404,0 0.156404,0 l 3.128076,-0.3128075 15.171168,0 3.049874,0.3128075 c 0,0 0.0782,0 0.156403,0 l 2.815269,0.8602209 c 0,0 0.0782,0.078202 0.156404,0.078202 l 2.50246,1.4076342 c 0,0 0.0782,0.078202 0.0782,0.078202 l 2.267855,1.7986436 c 0.0782,0.078202 0.0782,0.078202 0.156404,0.1564038 l 1.798644,2.267855 c 0,0 0,0.078202 0.0782,0.078202 l 1.407634,2.502461 c 0,0.0782 0,0.156404 0.0782,0.156404 l 0.86022,2.815268 c 0,0.0782 0,0.156404 0,0.156404 l 0.312808,3.128076 0,15.171168 -0.312808,3.049874 c 0,0 0,0.0782 0,0.156403 l -0.86022,2.815269 c -0.0782,0 -0.0782,0.0782 -0.0782,0.156404 l -1.407634,2.50246 c -0.0782,0 -0.0782,0.0782 -0.0782,0.0782 l -1.798644,2.267855 c -0.0782,0.0782 -0.0782,0.0782 -0.156404,0.156404 l -2.267855,1.798644 c 0,0 -0.0782,0 -0.0782,0.0782 l -2.50246,1.407634 c -0.0782,0 -0.156404,0 -0.156404,0.0782 l -2.815269,0.86022 c -0.0782,0 -0.156403,0 -0.156403,0 l -3.206278,0.312808 -15.092966,0 z"
       inkscape:connector-curvature="0"
       id="path10"
       style="fill:#d8d8d8;fill-opacity:1;fill-rule:nonzero;stroke:none" />
    <text
       x="25.233145"
       y="29.737848"
       id="text12"
       xml:space="preserve"
       style="font-size:15.01476479px;font-style:normal;font-weight:bold;text-align:start;text-anchor:start;fill:#ffffff;font-family:Calibri"> </text>
    <path
       d="m 15.014764,18.924859 19.237667,0 0,-11.1046693 -19.237667,0 0,11.1046693 z"
       inkscape:connector-curvature="0"
       id="path14"
       style="fill:none;stroke:#a5a5a5;stroke-width:2.50246072px;stroke-linecap:round;stroke-linejoin:round;stroke-opacity:1;stroke-dasharray:none" />
    <path
       d="m 18.768455,15.327572 11.261074,0"
       inkscape:connector-curvature="0"
       id="path16"
       style="fill:none;stroke:#a5a5a5;stroke-width:2.50246072px;stroke-linecap:round;stroke-linejoin:round;stroke-opacity:1;stroke-dasharray:none" />
    <path
       d="m 18.768455,11.573881 11.261074,0"
       inkscape:connector-curvature="0"
       id="path18"
       style="fill:none;stroke:#a5a5a5;stroke-width:2.50246072px;stroke-linecap:round;stroke-linejoin:round;stroke-opacity:1;stroke-dasharray:none" />
    <text
       x="19.226873"
       y="27.761915"
       id="text20"
       xml:space="preserve"
       style="font-size:20.01968575px;font-style:normal;font-weight:bold;text-align:start;text-anchor:start;fill:#ffffff;font-family:Calibri">U</text>
    <path
       d="M 13.919938,41.838015 33.079403,24.633598"
       inkscape:connector-curvature="0"
       id="path22"
       style="fill:none;stroke:#ffffff;stroke-width:1.64223981px;stroke-linecap:round;stroke-linejoin:round;stroke-opacity:1;stroke-dasharray:none" />
  </g>
</svg>
