<?xml version="1.0" encoding="UTF-8" standalone="no"?>
<!-- Created with Inkscape (http://www.inkscape.org/) -->

<svg
   xmlns:dc="http://purl.org/dc/elements/1.1/"
   xmlns:cc="http://creativecommons.org/ns#"
   xmlns:rdf="http://www.w3.org/1999/02/22-rdf-syntax-ns#"
   xmlns:svg="http://www.w3.org/2000/svg"
   xmlns="http://www.w3.org/2000/svg"
   xmlns:inkscape="http://www.inkscape.org/namespaces/inkscape"
   version="1.0"
   width="9.6000004mm"
   height="6.1300001mm"
   id="svg2">
  <metadata
     id="metadata26">
    <rdf:RDF>
      <cc:Work
         rdf:about="">
        <dc:format>image/svg+xml</dc:format>
        <dc:type
           rdf:resource="http://purl.org/dc/dcmitype/StillImage" />
      </cc:Work>
    </rdf:RDF>
  </metadata>
  <defs
     id="defs4" />
  <g
     id="g6">
    <path
       d="m 2.1259843,6.0679136 -0.7086614,-0.7086615 4.6505907,0 -0.7086615,0.7086615 0,-4.6505907 0.7086615,0.7086614 -4.6505907,0 0.7086614,-0.7086614 z M 0.70866144,1.4173229 c 0,-0.3543307 0.35433076,-0.70866146 0.70866146,-0.70866146 l 4.6505907,0 c 0.398622,0 0.7086614,0.35433076 0.7086614,0.70866146 l 0,4.6505907 c 0,0.398622 -0.3100394,0.7086614 -0.7086614,0.7086614 l -4.6505907,0 c -0.3543307,0 -0.70866146,-0.3100394 -0.70866146,-0.7086614 z"
       inkscape:connector-curvature="0"
       id="path8"
       style="fill:#ffffff;fill-opacity:1;fill-rule:nonzero;stroke:none" />
    <path
       d="m 9.9655515,6.0679136 4.6062995,0 0,-4.6505907 -4.6062995,0 0,4.6505907 z"
       inkscape:connector-curvature="0"
       id="path10"
       style="fill:none;stroke:#f2f2f2;stroke-width:1.41732287px;stroke-linecap:round;stroke-linejoin:round;stroke-opacity:1;stroke-dasharray:none" />
    <path
       d="m 19.931103,6.0679136 -0.708662,-0.7086615 4.650591,0 -0.708661,0.7086615 0,-4.6505907 0.708661,0.7086614 -4.650591,0 0.708662,-0.7086614 z M 18.51378,1.4173229 c 0,-0.3543307 0.310039,-0.70866146 0.708661,-0.70866146 l 4.650591,0 c 0.398622,0 0.708662,0.35433076 0.708662,0.70866146 l 0,4.6505907 c 0,0.398622 -0.31004,0.7086614 -0.708662,0.7086614 l -4.650591,0 c -0.398622,0 -0.708661,-0.3100394 -0.708661,-0.7086614 z"
       inkscape:connector-curvature="0"
       id="path12"
       style="fill:#ffffff;fill-opacity:1;fill-rule:nonzero;stroke:none" />
    <path
       d="m 29.232284,6.0679136 -0.708661,-0.7086615 4.650591,0 -0.708662,0.7086615 0,-4.6505907 0.708662,0.7086614 -4.650591,0 0.708661,-0.7086614 z M 27.814961,1.4173229 c 0,-0.3543307 0.31004,-0.70866146 0.708662,-0.70866146 l 4.650591,0 c 0.35433,0 0.708661,0.35433076 0.708661,0.70866146 l 0,4.6505907 c 0,0.398622 -0.354331,0.7086614 -0.708661,0.7086614 l -4.650591,0 c -0.398622,0 -0.708662,-0.3100394 -0.708662,-0.7086614 z"
       inkscape:connector-curvature="0"
       id="path14"
       style="fill:#ffffff;fill-opacity:1;fill-rule:nonzero;stroke:none" />
    <path
       d="m 2.1259843,15.369095 -0.7086614,-0.708662 4.6505907,0 -0.7086615,0.708662 0,-4.650591 0.7086615,0.708662 -4.6505907,0 0.7086614,-0.708662 z M 0.70866144,10.718504 c 0,-0.398622 0.35433076,-0.708661 0.70866146,-0.708661 l 4.6505907,0 c 0.398622,0 0.7086614,0.310039 0.7086614,0.708661 l 0,4.650591 c 0,0.398622 -0.3100394,0.708661 -0.7086614,0.708661 l -4.6505907,0 c -0.3543307,0 -0.70866146,-0.310039 -0.70866146,-0.708661 z"
       inkscape:connector-curvature="0"
       id="path16"
       style="fill:#ffffff;fill-opacity:1;fill-rule:nonzero;stroke:none" />
    <path
       d="m 10.674213,15.369095 -0.7086615,-0.708662 4.6062995,0 -0.708662,0.708662 0,-4.650591 0.708662,0.708662 -4.6062995,0 0.7086615,-0.708662 z M 9.25689,10.718504 c 0,-0.398622 0.3100394,-0.708661 0.7086615,-0.708661 l 4.6062995,0 c 0.398622,0 0.708661,0.310039 0.708661,0.708661 l 0,4.650591 c 0,0.398622 -0.310039,0.708661 -0.708661,0.708661 l -4.6062995,0 c -0.3986221,0 -0.7086615,-0.310039 -0.7086615,-0.708661 z"
       inkscape:connector-curvature="0"
       id="path18"
       style="fill:#ffffff;fill-opacity:1;fill-rule:nonzero;stroke:none" />
    <path
       d="m 19.931103,15.369095 -0.708662,-0.708662 4.650591,0 -0.708661,0.708662 0,-4.650591 0.708661,0.708662 -4.650591,0 0.708662,-0.708662 z M 18.51378,10.718504 c 0,-0.398622 0.310039,-0.708661 0.708661,-0.708661 l 4.650591,0 c 0.398622,0 0.708662,0.310039 0.708662,0.708661 l 0,4.650591 c 0,0.398622 -0.31004,0.708661 -0.708662,0.708661 l -4.650591,0 c -0.398622,0 -0.708661,-0.310039 -0.708661,-0.708661 z"
       inkscape:connector-curvature="0"
       id="path20"
       style="fill:#ffffff;fill-opacity:1;fill-rule:nonzero;stroke:none" />
    <path
       d="m 29.232284,15.369095 -0.708661,-0.708662 4.650591,0 -0.708662,0.708662 0,-4.650591 0.708662,0.708662 -4.650591,0 0.708661,-0.708662 z m -1.417323,-4.650591 c 0,-0.398622 0.31004,-0.708661 0.708662,-0.708661 l 4.650591,0 c 0.35433,0 0.708661,0.310039 0.708661,0.708661 l 0,4.650591 c 0,0.398622 -0.354331,0.708661 -0.708661,0.708661 l -4.650591,0 c -0.398622,0 -0.708662,-0.310039 -0.708662,-0.708661 z"
       inkscape:connector-curvature="0"
       id="path22"
       style="fill:#ffffff;fill-opacity:1;fill-rule:nonzero;stroke:none" />
  </g>
</svg>
