<?xml version="1.0" encoding="UTF-8" standalone="no"?>
<!-- Created with Inkscape (http://www.inkscape.org/) -->

<svg
   xmlns:dc="http://purl.org/dc/elements/1.1/"
   xmlns:cc="http://creativecommons.org/ns#"
   xmlns:rdf="http://www.w3.org/1999/02/22-rdf-syntax-ns#"
   xmlns:svg="http://www.w3.org/2000/svg"
   xmlns="http://www.w3.org/2000/svg"
   xmlns:inkscape="http://www.inkscape.org/namespaces/inkscape"
   version="1.0"
   width="22.6mm"
   height="20.799999mm"
   id="svg2">
  <metadata
     id="metadata26">
    <rdf:RDF>
      <cc:Work
         rdf:about="">
        <dc:format>image/svg+xml</dc:format>
        <dc:type
           rdf:resource="http://purl.org/dc/dcmitype/StillImage" />
      </cc:Work>
    </rdf:RDF>
  </metadata>
  <defs
     id="defs4" />
  <g
     id="g6">
    <path
       d="m 74.370004,36.989497 c 0,-7.194574 -5.78694,-12.981514 -12.981515,-12.981514 -7.194574,0 -12.981514,5.78694 -12.981514,12.981514 0,7.116373 5.78694,12.981515 12.981514,12.981515 7.194575,0 12.981515,-5.865142 12.981515,-12.981515"
       inkscape:connector-curvature="0"
       id="path8"
       style="fill:#eaeaea;fill-opacity:1;fill-rule:evenodd;stroke:none" />
    <path
       d="m 77.576282,36.989497 c 0,-8.993218 -7.194574,-16.265994 -16.187793,-16.265994 -8.993218,0 -16.265994,7.272776 -16.265994,16.265994 0,8.915017 7.272776,16.187793 16.265994,16.187793 8.993219,0 16.187793,-7.272776 16.187793,-16.187793 z m -3.206278,0 c 0,-7.194574 -5.78694,-12.981514 -12.981515,-12.981514 -7.194574,0 -12.981514,5.78694 -12.981514,12.981514 0,7.116373 5.78694,12.981515 12.981514,12.981515 7.194575,0 12.981515,-5.865142 12.981515,-12.981515 z"
       inkscape:connector-curvature="0"
       id="path10"
       style="fill:none;stroke:#fafdce;stroke-width:2.50246072px;stroke-linecap:round;stroke-linejoin:round;stroke-opacity:1;stroke-dasharray:none" />
    <path
       d="m 35.03445,36.989497 c 0,-8.993218 -7.272776,-16.265994 -16.265995,-16.265994 -8.9932178,0 -16.2659943,7.272776 -16.2659943,16.265994 0,8.915017 7.2727765,16.187793 16.2659943,16.187793 8.993219,0 16.265995,-7.272776 16.265995,-16.187793"
       inkscape:connector-curvature="0"
       id="path12"
       style="fill:#eaeaea;fill-opacity:1;fill-rule:evenodd;stroke:none" />
    <path
       d="m 35.03445,36.989497 c 0,-8.993218 -7.272776,-16.265994 -16.265995,-16.265994 -8.9932178,0 -16.2659943,7.272776 -16.2659943,16.265994 0,8.915017 7.2727765,16.187793 16.2659943,16.187793 8.993219,0 16.265995,-7.272776 16.265995,-16.187793"
       inkscape:connector-curvature="0"
       id="path14"
       style="fill:none;stroke:#fafdce;stroke-width:2.50246072px;stroke-linecap:round;stroke-linejoin:round;stroke-opacity:1;stroke-dasharray:none" />
    <path
       d="m 18.768455,20.723503 c 0,-18.6120518 29.091106,-21.8183296 39.179151,-9.697035"
       inkscape:connector-curvature="0"
       id="path16"
       style="fill:none;stroke:#fafdce;stroke-width:1.64223981px;stroke-linecap:round;stroke-linejoin:round;stroke-opacity:1;stroke-dasharray:none" />
    <path
       d="M 63.030729,7.7419878 61.388489,20.723503 51.92606,11.573881 63.030729,7.7419878 z"
       inkscape:connector-curvature="0"
       id="path18"
       style="fill:#fafdce;fill-opacity:1;fill-rule:evenodd;stroke:none" />
    <path
       d="m 61.388489,53.17729 c 0,18.612052 -29.091105,21.896532 -39.17915,9.697036"
       inkscape:connector-curvature="0"
       id="path20"
       style="fill:none;stroke:#fafdce;stroke-width:1.64223981px;stroke-linecap:round;stroke-linejoin:round;stroke-opacity:1;stroke-dasharray:none" />
    <path
       d="m 17.126216,66.237007 1.642239,-13.059717 9.46243,9.149622 -11.104669,3.910095 z"
       inkscape:connector-curvature="0"
       id="path22"
       style="fill:#fafdce;fill-opacity:1;fill-rule:evenodd;stroke:none" />
  </g>
</svg>
