<?xml version="1.0" encoding="UTF-8" standalone="no"?>
<!-- Created with Inkscape (http://www.inkscape.org/) -->

<svg
   xmlns:dc="http://purl.org/dc/elements/1.1/"
   xmlns:cc="http://creativecommons.org/ns#"
   xmlns:rdf="http://www.w3.org/1999/02/22-rdf-syntax-ns#"
   xmlns:svg="http://www.w3.org/2000/svg"
   xmlns="http://www.w3.org/2000/svg"
   xmlns:inkscape="http://www.inkscape.org/namespaces/inkscape"
   version="1.0"
   width="10.2mm"
   height="10.2mm"
   id="svg2">
  <metadata
     id="metadata20">
    <rdf:RDF>
      <cc:Work
         rdf:about="">
        <dc:format>image/svg+xml</dc:format>
        <dc:type
           rdf:resource="http://purl.org/dc/dcmitype/StillImage" />
      </cc:Work>
    </rdf:RDF>
  </metadata>
  <defs
     id="defs4" />
  <g
     id="g6">
    <path
       d="m 9.7883861,34.768702 16.9192919,0 1.683071,-0.177166 -0.08858,0 1.594488,-0.487204 -0.08858,0.04429 1.417323,-0.797244 -0.04429,0.04429 1.284449,-1.018701 -0.08858,0.08858 1.018701,-1.284449 -0.04429,0.04429 0.797244,-1.417323 -0.04429,0.08858 0.487204,-1.594488 0,0.08858 0.177166,-1.727362 0,-16.9635836 -0.177166,-1.6387796 0,0.088583 -0.487204,-1.5944882 0.04429,0.088583 -0.797244,-1.4173229 0.04429,0.044291 -1.018701,-1.2844488 0.08858,0.088583 -1.284449,-1.0187009 0.04429,0.044291 -1.417323,-0.7972441 0.08858,0.044291 -1.594488,-0.4872047 0.08858,0 -1.727362,-0.1771654 -16.9635836,0 -1.6387796,0.1771654 0.088583,0 L 6.5551183,2.347441 6.643701,2.3031497 5.2263781,3.1003938 5.2706694,3.0561024 3.9862206,4.0748033 4.0748033,3.9862206 3.0561024,5.2706694 3.1003938,5.2263781 2.3031497,6.643701 2.347441,6.5551183 1.8602363,8.1496065 l 0,-0.088583 -0.1771654,1.7273623 0,16.9192919 0.1771654,1.683071 0,-0.08858 0.4872047,1.594488 -0.044291,-0.08858 0.7972441,1.417323 -0.044291,-0.04429 1.0187009,1.284449 -0.088583,-0.08858 1.2844488,1.018701 -0.044291,-0.04429 1.4173229,0.797244 -0.088583,-0.04429 1.5944882,0.487204 -0.088583,0 z m -1.8602363,0.752953 c 0,0 -0.044291,0 -0.088583,0 L 6.2450789,35.03445 c 0,-0.04429 -0.044291,-0.04429 -0.088583,-0.04429 L 4.7391734,34.192914 c 0,-0.04429 -0.044291,-0.04429 -0.044291,-0.04429 L 3.4104332,33.129922 c -0.044291,-0.04429 -0.044291,-0.04429 -0.088583,-0.08858 L 2.3031497,31.756891 c 0,0 -0.044291,-0.04429 -0.044291,-0.04429 L 1.4616142,30.295276 c 0,-0.04429 -0.044291,-0.08858 -0.044291,-0.08858 L 0.93011814,28.612206 c 0,-0.04429 0,-0.08858 0,-0.08858 l -0.17716536,-1.815945 0,-17.0521659 0.17716536,-1.7273623 c 0,0 0,-0.044291 0,-0.088583 L 1.4173229,6.2450789 c 0,0 0.044291,-0.044291 0.044291,-0.088583 L 2.2588583,4.7391734 c 0,0 0.044291,-0.044291 0.044291,-0.044291 L 3.3218505,3.4104332 c 0.044291,-0.044291 0.044291,-0.044291 0.088583,-0.088583 L 4.694882,2.3031497 c 0,0 0.044291,-0.044291 0.044291,-0.044291 L 6.1564962,1.4616142 c 0.044291,0 0.088583,-0.044291 0.088583,-0.044291 L 7.8395671,0.93011814 c 0.044291,0 0.088583,0 0.088583,0 l 1.7716536,-0.17716536 17.0964576,0 1.727362,0.17716536 c 0,0 0.04429,0 0.08858,0 l 1.594488,0.48720476 c 0,0 0.04429,0.044291 0.08858,0.044291 l 1.417323,0.7972441 c 0,0 0.04429,0.044291 0.04429,0.044291 l 1.284449,1.0187008 c 0.04429,0.044291 0.04429,0.044291 0.08858,0.088583 l 1.018701,1.2844488 c 0,0 0,0.044291 0.04429,0.044291 l 0.797244,1.4173228 c 0,0.044291 0,0.088583 0.04429,0.088583 l 0.487205,1.5944882 c 0,0.044291 0,0.088583 0,0.088583 l 0.177165,1.7716536 0,17.0964576 -0.177165,1.727362 c 0,0 0,0.04429 0,0.08858 l -0.487205,1.594488 c -0.04429,0 -0.04429,0.04429 -0.04429,0.08858 l -0.797244,1.417323 c -0.04429,0 -0.04429,0.04429 -0.04429,0.04429 l -1.018701,1.284449 c -0.04429,0.04429 -0.04429,0.04429 -0.08858,0.08858 l -1.284449,1.018701 c 0,0 -0.04429,0 -0.04429,0.04429 l -1.417323,0.797244 c -0.04429,0 -0.08858,0 -0.08858,0.04429 l -1.594488,0.487205 c -0.04429,0 -0.08858,0 -0.08858,0 l -1.815945,0.177165 -17.0521659,0 z"
       inkscape:connector-curvature="0"
       id="path8"
       style="fill:#ffffff;fill-opacity:1;fill-rule:nonzero;stroke:none" />
    <path
       d="m 22.987205,18.203741 6.377953,0"
       inkscape:connector-curvature="0"
       id="path10"
       style="fill:none;stroke:#ffffff;stroke-width:1.41732287px;stroke-linecap:round;stroke-linejoin:round;stroke-opacity:1;stroke-dasharray:none" />
    <path
       d="m 11.294292,29.365158 c 6.200787,0 11.161417,-5.004921 11.161417,-11.161417 0,-6.156497 -4.96063,-11.161418 -11.161417,-11.161418"
       inkscape:connector-curvature="0"
       id="path12"
       style="fill:none;stroke:#ffffff;stroke-width:1.41732287px;stroke-linecap:round;stroke-linejoin:round;stroke-opacity:1;stroke-dasharray:none" />
    <path
       d="M 30.162402,5.7135828 28.612206,7.3080711"
       inkscape:connector-curvature="0"
       id="path14"
       style="fill:none;stroke:#ffffff;stroke-width:0.93011814px;stroke-linecap:round;stroke-linejoin:round;stroke-opacity:1;stroke-dasharray:none" />
    <path
       d="m 30.649607,8.5039372 -4.916339,1.6387798 1.63878,-4.8720476 3.277559,3.2332678 z"
       inkscape:connector-curvature="0"
       id="path16"
       style="fill:#ffffff;fill-opacity:1;fill-rule:evenodd;stroke:none" />
  </g>
</svg>
