<?xml version="1.0" encoding="UTF-8" standalone="no"?>
<!-- Created with Inkscape (http://www.inkscape.org/) -->

<svg
   xmlns:dc="http://purl.org/dc/elements/1.1/"
   xmlns:cc="http://creativecommons.org/ns#"
   xmlns:rdf="http://www.w3.org/1999/02/22-rdf-syntax-ns#"
   xmlns:svg="http://www.w3.org/2000/svg"
   xmlns="http://www.w3.org/2000/svg"
   xmlns:inkscape="http://www.inkscape.org/namespaces/inkscape"
   version="1.0"
   width="31.08mm"
   height="14.1mm"
   id="svg2">
  <metadata
     id="metadata46">
    <rdf:RDF>
      <cc:Work
         rdf:about="">
        <dc:format>image/svg+xml</dc:format>
        <dc:type
           rdf:resource="http://purl.org/dc/dcmitype/StillImage" />
      </cc:Work>
    </rdf:RDF>
  </metadata>
  <defs
     id="defs4" />
  <g
     id="g6">
    <path
       d="m 2.5024607,47.546754 105.1033493,0 0,-45.0442933 -105.1033493,0 0,45.0442933 z"
       inkscape:connector-curvature="0"
       id="path8"
       style="fill:none;stroke:#ffffff;stroke-width:2.50246072px;stroke-linecap:round;stroke-linejoin:round;stroke-opacity:1;stroke-dasharray:none" />
    <path
       d="m 35.03445,25.024607 c 0,-2.815268 -2.346057,-5.161325 -5.239527,-5.161325 -2.815268,0 -5.161325,2.346057 -5.161325,5.161325 0,2.89347 2.346057,5.239527 5.161325,5.239527 2.89347,0 5.239527,-2.346057 5.239527,-5.239527"
       inkscape:connector-curvature="0"
       id="path10"
       style="fill:#eaeaea;fill-opacity:1;fill-rule:evenodd;stroke:none" />
    <path
       d="m 36.28568,25.024607 c 0,-3.519085 -2.89347,-6.490757 -6.490757,-6.490757 -3.519085,0 -6.490758,2.971672 -6.490758,6.490757 0,3.597287 2.971673,6.490758 6.490758,6.490758 3.597287,0 6.490757,-2.893471 6.490757,-6.490758 z m -1.25123,0 c 0,-2.815268 -2.346057,-5.161325 -5.239527,-5.161325 -2.815268,0 -5.161325,2.346057 -5.161325,5.161325 0,2.89347 2.346057,5.239527 5.161325,5.239527 2.89347,0 5.239527,-2.346057 5.239527,-5.239527 z"
       inkscape:connector-curvature="0"
       id="path12"
       style="fill:none;stroke:#fafdce;stroke-width:2.50246072px;stroke-linecap:round;stroke-linejoin:round;stroke-opacity:1;stroke-dasharray:none" />
    <path
       d="m 19.315869,25.024607 c 0,-3.519085 -2.971672,-6.490757 -6.56896,-6.490757 -3.5190851,0 -6.4907572,2.971672 -6.4907572,6.490757 0,3.597287 2.9716721,6.490758 6.4907572,6.490758 3.597288,0 6.56896,-2.893471 6.56896,-6.490758"
       inkscape:connector-curvature="0"
       id="path14"
       style="fill:#eaeaea;fill-opacity:1;fill-rule:evenodd;stroke:none" />
    <path
       d="m 19.315869,25.024607 c 0,-3.519085 -2.971672,-6.490757 -6.56896,-6.490757 -3.5190851,0 -6.4907572,2.971672 -6.4907572,6.490757 0,3.597287 2.9716721,6.490758 6.4907572,6.490758 3.597288,0 6.56896,-2.893471 6.56896,-6.490758"
       inkscape:connector-curvature="0"
       id="path16"
       style="fill:none;stroke:#fafdce;stroke-width:2.50246072px;stroke-linecap:round;stroke-linejoin:round;stroke-opacity:1;stroke-dasharray:none" />
    <path
       d="m 12.746909,18.53385 c 0,-6.647162 5.943344,-9.3060261 10.870064,-8.132998"
       inkscape:connector-curvature="0"
       id="path18"
       style="fill:none;stroke:#fafdce;stroke-width:1.64223981px;stroke-linecap:round;stroke-linejoin:round;stroke-opacity:1;stroke-dasharray:none" />
    <path
       d="M 27.370664,5.6305366 29.794923,18.53385 18.064638,12.825111 27.370664,5.6305366 z"
       inkscape:connector-curvature="0"
       id="path20"
       style="fill:#fafdce;fill-opacity:1;fill-rule:evenodd;stroke:none" />
    <path
       d="m 29.794923,31.515365 c 0,6.725363 -5.943344,9.384227 -10.791862,8.211199"
       inkscape:connector-curvature="0"
       id="path22"
       style="fill:none;stroke:#fafdce;stroke-width:1.64223981px;stroke-linecap:round;stroke-linejoin:round;stroke-opacity:1;stroke-dasharray:none" />
    <path
       d="m 15.24937,44.418678 -2.502461,-12.903313 11.808487,5.78694 -9.306026,7.116373 z"
       inkscape:connector-curvature="0"
       id="path24"
       style="fill:#fafdce;fill-opacity:1;fill-rule:evenodd;stroke:none" />
    <path
       d="m 50.049214,30.49874 c 0,-1.64224 -1.329432,-2.971672 -2.89347,-2.971672 -1.64224,0 -2.971672,1.329432 -2.971672,2.971672 0,1.720442 1.329432,3.049874 2.971672,3.049874 1.564038,0 2.89347,-1.329432 2.89347,-3.049874 z m 7.976594,0 c 0,-1.64224 -1.329432,-2.971672 -2.971672,-2.971672 -1.564038,0 -2.89347,1.329432 -2.89347,2.971672 0,1.720442 1.329432,3.049874 2.89347,3.049874 1.64224,0 2.971672,-1.329432 2.971672,-3.049874 z m 7.976593,0 c 0,-1.64224 -1.329432,-2.971672 -2.971672,-2.971672 -1.64224,0 -2.89347,1.329432 -2.89347,2.971672 0,1.720442 1.25123,3.049874 2.89347,3.049874 1.64224,0 2.971672,-1.329432 2.971672,-3.049874 z"
       inkscape:connector-curvature="0"
       id="path26"
       style="fill:#00cf80;fill-opacity:1;fill-rule:evenodd;stroke:none" />
    <path
       d="m 50.049214,30.49874 c 0,-1.64224 -1.329432,-2.971672 -2.89347,-2.971672 -1.64224,0 -2.971672,1.329432 -2.971672,2.971672 0,1.720442 1.329432,3.049874 2.971672,3.049874 1.564038,0 2.89347,-1.329432 2.89347,-3.049874 z m 7.976594,0 c 0,-1.64224 -1.329432,-2.971672 -2.971672,-2.971672 -1.564038,0 -2.89347,1.329432 -2.89347,2.971672 0,1.720442 1.329432,3.049874 2.89347,3.049874 1.64224,0 2.971672,-1.329432 2.971672,-3.049874 z m 7.976593,0 c 0,-1.64224 -1.329432,-2.971672 -2.971672,-2.971672 -1.64224,0 -2.89347,1.329432 -2.89347,2.971672 0,1.720442 1.25123,3.049874 2.89347,3.049874 1.64224,0 2.971672,-1.329432 2.971672,-3.049874 z m -4.222902,-2.658865 -2.737066,-4.53571 m -3.988297,4.222903 0,-3.049874 m -6.647161,3.362681 2.737066,-4.53571"
       inkscape:connector-curvature="0"
       id="path28"
       style="fill:none;stroke:#00cf80;stroke-width:1.25123036px;stroke-linecap:round;stroke-linejoin:round;stroke-opacity:1;stroke-dasharray:none" />
    <path
       d="m 62.170508,17.282619 c 0,-3.988296 -3.206277,-7.272776 -7.116372,-7.272776 -3.831893,0 -7.038171,3.28448 -7.038171,7.272776 0,3.988297 3.206278,7.194575 7.038171,7.194575 3.910095,0 7.116372,-3.206278 7.116372,-7.194575 z M 44.731485,37.693315 c 0,-1.329433 -1.094826,-2.346057 -2.346057,-2.346057 -1.25123,0 -2.346057,1.016624 -2.346057,2.346057 0,1.329432 1.094827,2.346056 2.346057,2.346056 1.251231,0 2.346057,-1.016624 2.346057,-2.346056 z m 5.083124,0 c 0,-1.329433 -1.094827,-2.346057 -2.346057,-2.346057 -1.251231,0 -2.346057,1.016624 -2.346057,2.346057 0,1.329432 1.094826,2.346056 2.346057,2.346056 1.25123,0 2.346057,-1.016624 2.346057,-2.346056 z m 5.083123,0 c 0,-1.329433 -1.094827,-2.346057 -2.346057,-2.346057 -1.25123,0 -2.346057,1.016624 -2.346057,2.346057 0,1.329432 1.094827,2.346056 2.346057,2.346056 1.25123,0 2.346057,-1.016624 2.346057,-2.346056 z m 5.083123,0 c 0,-1.329433 -1.094826,-2.346057 -2.346057,-2.346057 -1.25123,0 -2.346057,1.016624 -2.346057,2.346057 0,1.329432 1.094827,2.346056 2.346057,2.346056 1.251231,0 2.346057,-1.016624 2.346057,-2.346056 z m 5.083124,0 c 0,-1.329433 -1.094827,-2.346057 -2.346057,-2.346057 -1.251231,0 -2.346057,1.016624 -2.346057,2.346057 0,1.329432 1.094826,2.346056 2.346057,2.346056 1.25123,0 2.346057,-1.016624 2.346057,-2.346056 z m 5.004921,0 c 0,-1.329433 -1.016625,-2.346057 -2.267855,-2.346057 -1.329432,0 -2.346057,1.016624 -2.346057,2.346057 0,1.329432 1.016625,2.346056 2.346057,2.346056 1.25123,0 2.267855,-1.016624 2.267855,-2.346056 z"
       inkscape:connector-curvature="0"
       id="path30"
       style="fill:#00cf80;fill-opacity:1;fill-rule:evenodd;stroke:none" />
    <path
       d="m 62.170508,17.282619 c 0,-3.988296 -3.206277,-7.272776 -7.116372,-7.272776 -3.831893,0 -7.038171,3.28448 -7.038171,7.272776 0,3.988297 3.206278,7.194575 7.038171,7.194575 3.910095,0 7.116372,-3.206278 7.116372,-7.194575 z M 44.731485,37.693315 c 0,-1.329433 -1.094826,-2.346057 -2.346057,-2.346057 -1.25123,0 -2.346057,1.016624 -2.346057,2.346057 0,1.329432 1.094827,2.346056 2.346057,2.346056 1.251231,0 2.346057,-1.016624 2.346057,-2.346056 z m 5.083124,0 c 0,-1.329433 -1.094827,-2.346057 -2.346057,-2.346057 -1.251231,0 -2.346057,1.016624 -2.346057,2.346057 0,1.329432 1.094826,2.346056 2.346057,2.346056 1.25123,0 2.346057,-1.016624 2.346057,-2.346056 z m 5.083123,0 c 0,-1.329433 -1.094827,-2.346057 -2.346057,-2.346057 -1.25123,0 -2.346057,1.016624 -2.346057,2.346057 0,1.329432 1.094827,2.346056 2.346057,2.346056 1.25123,0 2.346057,-1.016624 2.346057,-2.346056 z m 5.083123,0 c 0,-1.329433 -1.094826,-2.346057 -2.346057,-2.346057 -1.25123,0 -2.346057,1.016624 -2.346057,2.346057 0,1.329432 1.094827,2.346056 2.346057,2.346056 1.251231,0 2.346057,-1.016624 2.346057,-2.346056 z m 5.083124,0 c 0,-1.329433 -1.094827,-2.346057 -2.346057,-2.346057 -1.251231,0 -2.346057,1.016624 -2.346057,2.346057 0,1.329432 1.094826,2.346056 2.346057,2.346056 1.25123,0 2.346057,-1.016624 2.346057,-2.346056 z m 5.004921,0 c 0,-1.329433 -1.016625,-2.346057 -2.267855,-2.346057 -1.329432,0 -2.346057,1.016624 -2.346057,2.346057 0,1.329432 1.016625,2.346056 2.346057,2.346056 1.25123,0 2.267855,-1.016624 2.267855,-2.346056 z m -5.395931,-4.692114 1.876846,2.658864 m -3.831893,-2.111451 0,1.798644 m -6.490758,-2.03325 0.469212,2.189653 m -11.182872,-2.50246 -1.876845,2.658864 m 3.831893,-2.111451 0,1.798644 m 6.490757,-2.03325 -0.469211,2.189653"
       inkscape:connector-curvature="0"
       id="path32"
       style="fill:none;stroke:#00cf80;stroke-width:1.25123036px;stroke-linecap:round;stroke-linejoin:round;stroke-opacity:1;stroke-dasharray:none" />
    <path
       d="m 73.822591,8.2894011 0,29.8731249 30.185929,0 0,-29.8731249 -30.185929,0 z"
       inkscape:connector-curvature="0"
       id="path34"
       style="fill:#ffffff;fill-opacity:1;fill-rule:evenodd;stroke:none" />
    <path
       d="m 73.822591,38.162526 30.185929,0 0,-29.8731249 -30.185929,0 0,29.8731249 z"
       inkscape:connector-curvature="0"
       id="path36"
       style="fill:none;stroke:#89d5ff;stroke-width:2.50246072px;stroke-linecap:round;stroke-linejoin:round;stroke-opacity:1;stroke-dasharray:none" />
    <path
       d="m 79.922339,14.232745 0,17.986437 18.064638,0 0,-17.986437 -18.064638,0 z"
       inkscape:connector-curvature="0"
       id="path38"
       style="fill:#ffffff;fill-opacity:1;fill-rule:evenodd;stroke:none" />
    <path
       d="m 79.922339,32.219182 18.064638,0 0,-17.986437 -18.064638,0 0,17.986437 z"
       inkscape:connector-curvature="0"
       id="path40"
       style="fill:none;stroke:#89d5ff;stroke-width:2.50246072px;stroke-linecap:round;stroke-linejoin:round;stroke-opacity:1;stroke-dasharray:none" />
    <path
       d="m 87.742529,27.683472 7.585584,-14.389149 2.502461,1.798643 -9.227824,18.14284 -8.602209,-8.758612 1.955048,-2.737067 5.78694,5.943345 z"
       inkscape:connector-curvature="0"
       id="path42"
       style="fill:#008cd8;fill-opacity:1;fill-rule:evenodd;stroke:none" />
  </g>
</svg>
