<?xml version="1.0" encoding="UTF-8" standalone="no"?>
<!-- Created with Inkscape (http://www.inkscape.org/) -->

<svg
   xmlns:dc="http://purl.org/dc/elements/1.1/"
   xmlns:cc="http://creativecommons.org/ns#"
   xmlns:rdf="http://www.w3.org/1999/02/22-rdf-syntax-ns#"
   xmlns:svg="http://www.w3.org/2000/svg"
   xmlns="http://www.w3.org/2000/svg"
   xmlns:inkscape="http://www.inkscape.org/namespaces/inkscape"
   version="1.0"
   width="18.360001mm"
   height="18.33mm"
   id="svg2">
  <metadata
     id="metadata18">
    <rdf:RDF>
      <cc:Work
         rdf:about="">
        <dc:format>image/svg+xml</dc:format>
        <dc:type
           rdf:resource="http://purl.org/dc/dcmitype/StillImage" />
      </cc:Work>
    </rdf:RDF>
  </metadata>
  <defs
     id="defs4" />
  <g
     id="g6">
    <path
       d="m 22.522146,43.480255 c 0,-3.28448 -2.658864,-5.943344 -5.865142,-5.943344 -3.206278,0 -5.865142,2.658864 -5.865142,5.943344 0,3.362682 2.658864,6.021546 5.865142,6.021546 3.206278,0 5.865142,-2.658864 5.865142,-6.021546 z m 15.874986,0 c 0,-3.28448 -2.580663,-5.943344 -5.865143,-5.943344 -3.206277,0 -5.78694,2.658864 -5.78694,5.943344 0,3.362682 2.580663,6.021546 5.78694,6.021546 3.28448,0 5.865143,-2.658864 5.865143,-6.021546 z m 15.953187,0 c 0,-3.28448 -2.658865,-5.943344 -5.865143,-5.943344 -3.284479,0 -5.865142,2.658864 -5.865142,5.943344 0,3.362682 2.580663,6.021546 5.865142,6.021546 3.206278,0 5.865143,-2.658864 5.865143,-6.021546 z"
       inkscape:connector-curvature="0"
       id="path8"
       style="fill:#ffffff;fill-opacity:1;fill-rule:evenodd;stroke:none" />
    <path
       d="m 22.522146,43.480255 c 0,-3.28448 -2.658864,-5.943344 -5.865142,-5.943344 -3.206278,0 -5.865142,2.658864 -5.865142,5.943344 0,3.362682 2.658864,6.021546 5.865142,6.021546 3.206278,0 5.865142,-2.658864 5.865142,-6.021546 z m 15.874986,0 c 0,-3.28448 -2.580663,-5.943344 -5.865143,-5.943344 -3.206277,0 -5.78694,2.658864 -5.78694,5.943344 0,3.362682 2.580663,6.021546 5.78694,6.021546 3.28448,0 5.865143,-2.658864 5.865143,-6.021546 z m 15.953187,0 c 0,-3.28448 -2.658865,-5.943344 -5.865143,-5.943344 -3.284479,0 -5.865142,2.658864 -5.865142,5.943344 0,3.362682 2.580663,6.021546 5.865142,6.021546 3.206278,0 5.865143,-2.658864 5.865143,-6.021546 z m -8.445805,-5.317729 -5.474133,-9.149622 m -7.898392,8.524007 0,-6.099748 M 19.237667,38.162526 24.7118,29.012904"
       inkscape:connector-curvature="0"
       id="path10"
       style="fill:none;stroke:#ffffff;stroke-width:2.50246072px;stroke-linecap:round;stroke-linejoin:round;stroke-opacity:1;stroke-dasharray:none" />
    <path
       d="m 46.686533,16.969812 c 0,-7.9765938 -6.334354,-14.4673513 -14.154544,-14.4673513 -7.741988,0 -14.076341,6.4907575 -14.076341,14.4673513 0,7.976593 6.334353,14.467351 14.076341,14.467351 7.82019,0 14.154544,-6.490758 14.154544,-14.467351 z M 11.808487,57.869404 c 0,-2.658864 -2.0332498,-4.770316 -4.6139124,-4.770316 -2.5806627,0 -4.6921139,2.111452 -4.6921139,4.770316 0,2.580663 2.1114512,4.692114 4.6921139,4.692114 2.5806626,0 4.6139124,-2.111451 4.6139124,-4.692114 z m 10.166246,0 c 0,-2.658864 -2.111451,-4.770316 -4.613912,-4.770316 -2.580662,0 -4.692114,2.111452 -4.692114,4.770316 0,2.580663 2.111452,4.692114 4.692114,4.692114 2.502461,0 4.613912,-2.111451 4.613912,-4.692114 z m 10.166247,0 c 0,-2.658864 -2.111451,-4.770316 -4.613912,-4.770316 -2.580663,0 -4.692114,2.111452 -4.692114,4.770316 0,2.580663 2.111451,4.692114 4.692114,4.692114 2.502461,0 4.613912,-2.111451 4.613912,-4.692114 z m 10.166247,0 c 0,-2.658864 -2.111452,-4.770316 -4.692114,-4.770316 -2.502461,0 -4.613912,2.111452 -4.613912,4.770316 0,2.580663 2.111451,4.692114 4.613912,4.692114 2.580662,0 4.692114,-2.111451 4.692114,-4.692114 z m 10.166246,0 c 0,-2.658864 -2.111451,-4.770316 -4.692114,-4.770316 -2.50246,0 -4.613912,2.111452 -4.613912,4.770316 0,2.580663 2.111452,4.692114 4.613912,4.692114 2.580663,0 4.692114,-2.111451 4.692114,-4.692114 z m 10.088045,0 c 0,-2.658864 -2.033249,-4.770316 -4.613912,-4.770316 -2.580663,0 -4.613912,2.111452 -4.613912,4.770316 0,2.580663 2.033249,4.692114 4.613912,4.692114 2.580663,0 4.613912,-2.111451 4.613912,-4.692114 z"
       inkscape:connector-curvature="0"
       id="path12"
       style="fill:#00cf80;fill-opacity:1;fill-rule:evenodd;stroke:none" />
    <path
       d="m 46.686533,16.969812 c 0,-7.9765938 -6.334354,-14.4673513 -14.154544,-14.4673513 -7.741988,0 -14.076341,6.4907575 -14.076341,14.4673513 0,7.976593 6.334353,14.467351 14.076341,14.467351 7.82019,0 14.154544,-6.490758 14.154544,-14.467351 z M 11.808487,57.869404 c 0,-2.658864 -2.0332498,-4.770316 -4.6139124,-4.770316 -2.5806627,0 -4.6921139,2.111452 -4.6921139,4.770316 0,2.580663 2.1114512,4.692114 4.6921139,4.692114 2.5806626,0 4.6139124,-2.111451 4.6139124,-4.692114 z m 10.166246,0 c 0,-2.658864 -2.111451,-4.770316 -4.613912,-4.770316 -2.580662,0 -4.692114,2.111452 -4.692114,4.770316 0,2.580663 2.111452,4.692114 4.692114,4.692114 2.502461,0 4.613912,-2.111451 4.613912,-4.692114 z m 10.166247,0 c 0,-2.658864 -2.111451,-4.770316 -4.613912,-4.770316 -2.580663,0 -4.692114,2.111452 -4.692114,4.770316 0,2.580663 2.111451,4.692114 4.692114,4.692114 2.502461,0 4.613912,-2.111451 4.613912,-4.692114 z m 10.166247,0 c 0,-2.658864 -2.111452,-4.770316 -4.692114,-4.770316 -2.502461,0 -4.613912,2.111452 -4.613912,4.770316 0,2.580663 2.111451,4.692114 4.613912,4.692114 2.580662,0 4.692114,-2.111451 4.692114,-4.692114 z m 10.166246,0 c 0,-2.658864 -2.111451,-4.770316 -4.692114,-4.770316 -2.50246,0 -4.613912,2.111452 -4.613912,4.770316 0,2.580663 2.111452,4.692114 4.613912,4.692114 2.580663,0 4.692114,-2.111451 4.692114,-4.692114 z m 10.088045,0 c 0,-2.658864 -2.033249,-4.770316 -4.613912,-4.770316 -2.580663,0 -4.613912,2.111452 -4.613912,4.770316 0,2.580663 2.033249,4.692114 4.613912,4.692114 2.580663,0 4.613912,-2.111451 4.613912,-4.692114 z m -10.870064,-9.384228 3.831893,5.317729 m -7.663786,-4.301104 -0.0782,3.597287 M 34.799844,49.03259 35.816469,53.490098 M 13.450726,48.485176 9.6188334,53.802905 m 7.6637856,-4.301104 0.0782,3.597287 m 12.981515,-4.066498 -1.016624,4.457508"
       inkscape:connector-curvature="0"
       id="path14"
       style="fill:none;stroke:#00cf80;stroke-width:2.50246072px;stroke-linecap:round;stroke-linejoin:round;stroke-opacity:1;stroke-dasharray:none" />
  </g>
</svg>
