<?xml version="1.0" encoding="UTF-8" standalone="no"?>
<!-- Created with Inkscape (http://www.inkscape.org/) -->

<svg
   xmlns:dc="http://purl.org/dc/elements/1.1/"
   xmlns:cc="http://creativecommons.org/ns#"
   xmlns:rdf="http://www.w3.org/1999/02/22-rdf-syntax-ns#"
   xmlns:svg="http://www.w3.org/2000/svg"
   xmlns="http://www.w3.org/2000/svg"
   xmlns:inkscape="http://www.inkscape.org/namespaces/inkscape"
   version="1.0"
   width="8.6700001mm"
   height="10.4mm"
   id="svg2">
  <metadata
     id="metadata18">
    <rdf:RDF>
      <cc:Work
         rdf:about="">
        <dc:format>image/svg+xml</dc:format>
        <dc:type
           rdf:resource="http://purl.org/dc/dcmitype/StillImage" />
      </cc:Work>
    </rdf:RDF>
  </metadata>
  <defs
     id="defs4" />
  <g
     id="g6">
    <path
       d="m 4.7244096,29.52756 21.2598434,0 c 1.956201,0 3.543307,-1.587106 3.543307,-3.543307 l 0,-21.2598434 c 0,-1.9562009 -1.587106,-3.5433072 -3.543307,-3.5433072 l -21.2598434,0 c -1.9562009,0 -3.5433072,1.5871063 -3.5433072,3.5433072 l 0,21.2598434 c 0,1.956201 1.5871063,3.543307 3.5433072,3.543307 z"
       inkscape:connector-curvature="0"
       id="path8"
       style="fill:#00b050;fill-opacity:1;fill-rule:evenodd;stroke:none" />
    <path
       d="m 4.7244096,29.52756 21.2598434,0 c 1.956201,0 3.543307,-1.587106 3.543307,-3.543307 l 0,-21.2598434 c 0,-1.9562009 -1.587106,-3.5433072 -3.543307,-3.5433072 l -21.2598434,0 c -1.9562009,0 -3.5433072,1.5871063 -3.5433072,3.5433072 l 0,21.2598434 c 0,1.956201 1.5871063,3.543307 3.5433072,3.543307 z"
       inkscape:connector-curvature="0"
       id="path10"
       style="fill:none;stroke:#ffffff;stroke-width:1.1811024px;stroke-linecap:round;stroke-linejoin:round;stroke-opacity:1;stroke-dasharray:none" />
    <text
       x="8.3030405"
       y="24.783398"
       id="text12"
       xml:space="preserve"
       style="font-size:6.49606323px;font-style:normal;font-weight:bold;text-align:start;text-anchor:start;fill:#ffffff;font-family:Franklin Gothic Book">Trace</text>
    <path
       d="m 18.528544,7.7509845 c 0,-1.7347442 -1.402559,-3.1742127 -3.174213,-3.1742127 -1.734744,0 -3.174213,1.4394685 -3.174213,3.1742127 0,1.7716536 1.439469,3.1742125 3.174213,3.1742125 1.771654,0 3.174213,-1.4025589 3.174213,-3.1742125"
       inkscape:connector-curvature="0"
       id="path14"
       style="fill:none;stroke:#ffffff;stroke-width:0.77509844px;stroke-linecap:round;stroke-linejoin:round;stroke-opacity:1;stroke-dasharray:none" />
  </g>
</svg>
