<?xml version="1.0" encoding="UTF-8" standalone="no"?>
<!-- Created with Inkscape (http://www.inkscape.org/) -->

<svg
   xmlns:dc="http://purl.org/dc/elements/1.1/"
   xmlns:cc="http://creativecommons.org/ns#"
   xmlns:rdf="http://www.w3.org/1999/02/22-rdf-syntax-ns#"
   xmlns:svg="http://www.w3.org/2000/svg"
   xmlns="http://www.w3.org/2000/svg"
   xmlns:inkscape="http://www.inkscape.org/namespaces/inkscape"
   version="1.0"
   width="6.6700001mm"
   height="5.4000001mm"
   id="svg2">
  <metadata
     id="metadata32">
    <rdf:RDF>
      <cc:Work
         rdf:about="">
        <dc:format>image/svg+xml</dc:format>
        <dc:type
           rdf:resource="http://purl.org/dc/dcmitype/StillImage" />
      </cc:Work>
    </rdf:RDF>
  </metadata>
  <defs
     id="defs4" />
  <g
     id="g6">
    <path
       d="m 1.1811024,1.1811024 0,1.7716536 21.2598436,0 0,-1.7716536 -21.2598436,0 z"
       inkscape:connector-curvature="0"
       id="path8"
       style="fill:#ffffff;fill-opacity:1;fill-rule:evenodd;stroke:none" />
    <path
       d="m 1.1811024,2.952756 21.2598436,0 0,-1.7716536 -21.2598436,0 0,1.7716536 z"
       inkscape:connector-curvature="0"
       id="path10"
       style="fill:none;stroke:#f2f2f2;stroke-width:1.1811024px;stroke-linecap:round;stroke-linejoin:round;stroke-opacity:1;stroke-dasharray:none" />
    <path
       d="m 1.1811024,15.132874 21.2598436,0 0,-13.9517716 -21.2598436,0 0,13.9517716 z"
       inkscape:connector-curvature="0"
       id="path12"
       style="fill:none;stroke:#f2f2f2;stroke-width:1.1811024px;stroke-linecap:round;stroke-linejoin:round;stroke-opacity:1;stroke-dasharray:none" />
    <path
       d="m 2.952756,7.38189 2.6574804,0 0,-2.6574804 -2.6574804,0 0,2.6574804 z"
       inkscape:connector-curvature="0"
       id="path14"
       style="fill:none;stroke:#f2f2f2;stroke-width:1.1811024px;stroke-linecap:round;stroke-linejoin:round;stroke-opacity:1;stroke-dasharray:none" />
    <path
       d="m 7.8248034,7.38189 2.6574806,0 0,-2.6574804 -2.6574806,0 0,2.6574804 z"
       inkscape:connector-curvature="0"
       id="path16"
       style="fill:none;stroke:#f2f2f2;stroke-width:1.1811024px;stroke-linecap:round;stroke-linejoin:round;stroke-opacity:1;stroke-dasharray:none" />
    <path
       d="m 12.918307,7.38189 2.657481,0 0,-2.6574804 -2.657481,0 0,2.6574804 z"
       inkscape:connector-curvature="0"
       id="path18"
       style="fill:none;stroke:#f2f2f2;stroke-width:1.1811024px;stroke-linecap:round;stroke-linejoin:round;stroke-opacity:1;stroke-dasharray:none" />
    <path
       d="m 18.011812,7.38189 2.65748,0 0,-2.6574804 -2.65748,0 0,2.6574804 z"
       inkscape:connector-curvature="0"
       id="path20"
       style="fill:none;stroke:#f2f2f2;stroke-width:1.1811024px;stroke-linecap:round;stroke-linejoin:round;stroke-opacity:1;stroke-dasharray:none" />
    <path
       d="m 2.952756,12.696851 2.6574804,0 0,-2.657481 -2.6574804,0 0,2.657481 z"
       inkscape:connector-curvature="0"
       id="path22"
       style="fill:none;stroke:#f2f2f2;stroke-width:1.1811024px;stroke-linecap:round;stroke-linejoin:round;stroke-opacity:1;stroke-dasharray:none" />
    <path
       d="m 7.8248034,12.696851 2.6574806,0 0,-2.657481 -2.6574806,0 0,2.657481 z"
       inkscape:connector-curvature="0"
       id="path24"
       style="fill:none;stroke:#f2f2f2;stroke-width:1.1811024px;stroke-linecap:round;stroke-linejoin:round;stroke-opacity:1;stroke-dasharray:none" />
    <path
       d="m 12.918307,12.696851 2.657481,0 0,-2.657481 -2.657481,0 0,2.657481 z"
       inkscape:connector-curvature="0"
       id="path26"
       style="fill:none;stroke:#f2f2f2;stroke-width:1.1811024px;stroke-linecap:round;stroke-linejoin:round;stroke-opacity:1;stroke-dasharray:none" />
    <path
       d="m 18.011812,12.696851 2.65748,0 0,-2.657481 -2.65748,0 0,2.657481 z"
       inkscape:connector-curvature="0"
       id="path28"
       style="fill:none;stroke:#f2f2f2;stroke-width:1.1811024px;stroke-linecap:round;stroke-linejoin:round;stroke-opacity:1;stroke-dasharray:none" />
  </g>
</svg>
