<?xml version="1.0" encoding="UTF-8" standalone="no"?>
<!-- Created with Inkscape (http://www.inkscape.org/) -->

<svg
   xmlns:dc="http://purl.org/dc/elements/1.1/"
   xmlns:cc="http://creativecommons.org/ns#"
   xmlns:rdf="http://www.w3.org/1999/02/22-rdf-syntax-ns#"
   xmlns:svg="http://www.w3.org/2000/svg"
   xmlns="http://www.w3.org/2000/svg"
   xmlns:inkscape="http://www.inkscape.org/namespaces/inkscape"
   version="1.0"
   width="16.5mm"
   height="10.2mm"
   id="svg2">
  <metadata
     id="metadata102">
    <rdf:RDF>
      <cc:Work
         rdf:about="">
        <dc:format>image/svg+xml</dc:format>
        <dc:type
           rdf:resource="http://purl.org/dc/dcmitype/StillImage" />
      </cc:Work>
    </rdf:RDF>
  </metadata>
  <defs
     id="defs4" />
  <g
     id="g6">
    <path
       d="m 0.5905512,0.5905512 0,2.952756 57.2834658,0 0,-2.952756 -57.2834658,0 z"
       inkscape:connector-curvature="0"
       id="path8"
       style="fill:#21b1ff;fill-opacity:1;fill-rule:evenodd;stroke:none" />
    <path
       d="m 0.5905512,3.5433072 0,0.5905512 57.2834658,0 0,-0.5905512 -57.2834658,0 z"
       inkscape:connector-curvature="0"
       id="path10"
       style="fill:#20b0fe;fill-opacity:1;fill-rule:evenodd;stroke:none" />
    <path
       d="m 0.5905512,4.1338584 0,0.5905512 57.2834658,0 0,-0.5905512 -57.2834658,0 z"
       inkscape:connector-curvature="0"
       id="path12"
       style="fill:#20b0fd;fill-opacity:1;fill-rule:evenodd;stroke:none" />
    <path
       d="m 0.5905512,4.7244096 0,0.5905512 57.2834658,0 0,-0.5905512 -57.2834658,0 z"
       inkscape:connector-curvature="0"
       id="path14"
       style="fill:#20affc;fill-opacity:1;fill-rule:evenodd;stroke:none" />
    <path
       d="m 0.5905512,5.3149608 0,0.5905512 57.2834658,0 0,-0.5905512 -57.2834658,0 z"
       inkscape:connector-curvature="0"
       id="path16"
       style="fill:#1faefa;fill-opacity:1;fill-rule:evenodd;stroke:none" />
    <path
       d="m 0.5905512,5.905512 0,0.5905512 57.2834658,0 0,-0.5905512 -57.2834658,0 z"
       inkscape:connector-curvature="0"
       id="path18"
       style="fill:#1eacf9;fill-opacity:1;fill-rule:evenodd;stroke:none" />
    <path
       d="m 0.5905512,6.4960632 0,0.5905512 57.2834658,0 0,-0.5905512 -57.2834658,0 z"
       inkscape:connector-curvature="0"
       id="path20"
       style="fill:#1eabf7;fill-opacity:1;fill-rule:evenodd;stroke:none" />
    <path
       d="m 0.5905512,7.0866144 0,0.5905512 57.2834658,0 0,-0.5905512 -57.2834658,0 z"
       inkscape:connector-curvature="0"
       id="path22"
       style="fill:#1daaf5;fill-opacity:1;fill-rule:evenodd;stroke:none" />
    <path
       d="m 0.5905512,7.6771656 0,0.5905512 57.2834658,0 0,-0.5905512 -57.2834658,0 z"
       inkscape:connector-curvature="0"
       id="path24"
       style="fill:#1ca8f4;fill-opacity:1;fill-rule:evenodd;stroke:none" />
    <path
       d="m 0.5905512,8.2677168 0,0.5905512 57.2834658,0 0,-0.5905512 -57.2834658,0 z"
       inkscape:connector-curvature="0"
       id="path26"
       style="fill:#1ba7f2;fill-opacity:1;fill-rule:evenodd;stroke:none" />
    <path
       d="m 0.5905512,8.858268 0,0.5905512 57.2834658,0 0,-0.5905512 -57.2834658,0 z"
       inkscape:connector-curvature="0"
       id="path28"
       style="fill:#1aa6f0;fill-opacity:1;fill-rule:evenodd;stroke:none" />
    <path
       d="m 0.5905512,9.4488192 0,0.5905508 57.2834658,0 0,-0.5905508 -57.2834658,0 z"
       inkscape:connector-curvature="0"
       id="path30"
       style="fill:#19a4ef;fill-opacity:1;fill-rule:evenodd;stroke:none" />
    <path
       d="m 0.5905512,10.03937 0,0.590552 57.2834658,0 0,-0.590552 -57.2834658,0 z"
       inkscape:connector-curvature="0"
       id="path32"
       style="fill:#19a3ed;fill-opacity:1;fill-rule:evenodd;stroke:none" />
    <path
       d="m 0.5905512,10.629922 0,0.590551 57.2834658,0 0,-0.590551 -57.2834658,0 z"
       inkscape:connector-curvature="0"
       id="path34"
       style="fill:#18a2eb;fill-opacity:1;fill-rule:evenodd;stroke:none" />
    <path
       d="m 0.5905512,11.220473 0,0.590551 57.2834658,0 0,-0.590551 -57.2834658,0 z"
       inkscape:connector-curvature="0"
       id="path36"
       style="fill:#17a0ea;fill-opacity:1;fill-rule:evenodd;stroke:none" />
    <path
       d="m 0.5905512,11.811024 0,0.590551 57.2834658,0 0,-0.590551 -57.2834658,0 z"
       inkscape:connector-curvature="0"
       id="path38"
       style="fill:#179fe8;fill-opacity:1;fill-rule:evenodd;stroke:none" />
    <path
       d="m 0.5905512,12.401575 0,0.590551 57.2834658,0 0,-0.590551 -57.2834658,0 z"
       inkscape:connector-curvature="0"
       id="path40"
       style="fill:#169ee6;fill-opacity:1;fill-rule:evenodd;stroke:none" />
    <path
       d="m 0.5905512,12.992126 0,0.590552 57.2834658,0 0,-0.590552 -57.2834658,0 z"
       inkscape:connector-curvature="0"
       id="path42"
       style="fill:#159ce5;fill-opacity:1;fill-rule:evenodd;stroke:none" />
    <path
       d="m 0.5905512,13.582678 0,0.590551 57.2834658,0 0,-0.590551 -57.2834658,0 z"
       inkscape:connector-curvature="0"
       id="path44"
       style="fill:#159be3;fill-opacity:1;fill-rule:evenodd;stroke:none" />
    <path
       d="m 0.5905512,14.173229 0,0.590551 57.2834658,0 0,-0.590551 -57.2834658,0 z"
       inkscape:connector-curvature="0"
       id="path46"
       style="fill:#149ae2;fill-opacity:1;fill-rule:evenodd;stroke:none" />
    <path
       d="m 0.5905512,14.76378 0,0.590551 57.2834658,0 0,-0.590551 -57.2834658,0 z"
       inkscape:connector-curvature="0"
       id="path48"
       style="fill:#1398e0;fill-opacity:1;fill-rule:evenodd;stroke:none" />
    <path
       d="m 0.5905512,15.354331 0,0.590551 57.2834658,0 0,-0.590551 -57.2834658,0 z"
       inkscape:connector-curvature="0"
       id="path50"
       style="fill:#1397df;fill-opacity:1;fill-rule:evenodd;stroke:none" />
    <path
       d="m 0.5905512,15.944882 0,0.590552 57.2834658,0 0,-0.590552 -57.2834658,0 z"
       inkscape:connector-curvature="0"
       id="path52"
       style="fill:#1296dd;fill-opacity:1;fill-rule:evenodd;stroke:none" />
    <path
       d="m 0.5905512,16.535434 0,0.590551 57.2834658,0 0,-0.590551 -57.2834658,0 z"
       inkscape:connector-curvature="0"
       id="path54"
       style="fill:#1194dc;fill-opacity:1;fill-rule:evenodd;stroke:none" />
    <path
       d="m 0.5905512,17.125985 0,0.590551 57.2834658,0 0,-0.590551 -57.2834658,0 z"
       inkscape:connector-curvature="0"
       id="path56"
       style="fill:#1093da;fill-opacity:1;fill-rule:evenodd;stroke:none" />
    <path
       d="m 0.5905512,17.716536 0,0.590551 57.2834658,0 0,-0.590551 -57.2834658,0 z"
       inkscape:connector-curvature="0"
       id="path58"
       style="fill:#0f92d8;fill-opacity:1;fill-rule:evenodd;stroke:none" />
    <path
       d="m 0.5905512,18.307087 0,0.590551 57.2834658,0 0,-0.590551 -57.2834658,0 z"
       inkscape:connector-curvature="0"
       id="path60"
       style="fill:#0e90d7;fill-opacity:1;fill-rule:evenodd;stroke:none" />
    <path
       d="m 0.5905512,18.897638 0,0.590552 57.2834658,0 0,-0.590552 -57.2834658,0 z"
       inkscape:connector-curvature="0"
       id="path62"
       style="fill:#0e8fd5;fill-opacity:1;fill-rule:evenodd;stroke:none" />
    <path
       d="m 0.5905512,19.48819 0,0.590551 57.2834658,0 0,-0.590551 -57.2834658,0 z"
       inkscape:connector-curvature="0"
       id="path64"
       style="fill:#0d8ed3;fill-opacity:1;fill-rule:evenodd;stroke:none" />
    <path
       d="m 0.5905512,20.078741 0,0.590551 57.2834658,0 0,-0.590551 -57.2834658,0 z"
       inkscape:connector-curvature="0"
       id="path66"
       style="fill:#0c8cd2;fill-opacity:1;fill-rule:evenodd;stroke:none" />
    <path
       d="m 0.5905512,20.669292 0,0.590551 57.2834658,0 0,-0.590551 -57.2834658,0 z"
       inkscape:connector-curvature="0"
       id="path68"
       style="fill:#0c8bd0;fill-opacity:1;fill-rule:evenodd;stroke:none" />
    <path
       d="m 0.5905512,21.259843 0,0.590551 57.2834658,0 0,-0.590551 -57.2834658,0 z"
       inkscape:connector-curvature="0"
       id="path70"
       style="fill:#0b8ace;fill-opacity:1;fill-rule:evenodd;stroke:none" />
    <path
       d="m 0.5905512,21.850394 0,0.590552 57.2834658,0 0,-0.590552 -57.2834658,0 z"
       inkscape:connector-curvature="0"
       id="path72"
       style="fill:#0a88cd;fill-opacity:1;fill-rule:evenodd;stroke:none" />
    <path
       d="m 0.5905512,22.440946 0,0.590551 57.2834658,0 0,-0.590551 -57.2834658,0 z"
       inkscape:connector-curvature="0"
       id="path74"
       style="fill:#0a87cb;fill-opacity:1;fill-rule:evenodd;stroke:none" />
    <path
       d="m 0.5905512,23.031497 0,0.590551 57.2834658,0 0,-0.590551 -57.2834658,0 z"
       inkscape:connector-curvature="0"
       id="path76"
       style="fill:#0986c9;fill-opacity:1;fill-rule:evenodd;stroke:none" />
    <path
       d="m 0.5905512,23.622048 0,0.590551 57.2834658,0 0,-0.590551 -57.2834658,0 z"
       inkscape:connector-curvature="0"
       id="path78"
       style="fill:#0884c8;fill-opacity:1;fill-rule:evenodd;stroke:none" />
    <path
       d="m 0.5905512,24.212599 0,0.590551 57.2834658,0 0,-0.590551 -57.2834658,0 z"
       inkscape:connector-curvature="0"
       id="path80"
       style="fill:#0783c6;fill-opacity:1;fill-rule:evenodd;stroke:none" />
    <path
       d="m 0.5905512,24.80315 0,0.590551 57.2834658,0 0,-0.590551 -57.2834658,0 z"
       inkscape:connector-curvature="0"
       id="path82"
       style="fill:#0682c4;fill-opacity:1;fill-rule:evenodd;stroke:none" />
    <path
       d="m 0.5905512,25.393701 0,0.590552 57.2834658,0 0,-0.590552 -57.2834658,0 z"
       inkscape:connector-curvature="0"
       id="path84"
       style="fill:#0580c3;fill-opacity:1;fill-rule:evenodd;stroke:none" />
    <path
       d="m 0.5905512,25.984253 0,0.590551 57.2834658,0 0,-0.590551 -57.2834658,0 z"
       inkscape:connector-curvature="0"
       id="path86"
       style="fill:#057fc1;fill-opacity:1;fill-rule:evenodd;stroke:none" />
    <path
       d="m 0.5905512,26.574804 0,0.590551 57.2834658,0 0,-0.590551 -57.2834658,0 z"
       inkscape:connector-curvature="0"
       id="path88"
       style="fill:#047ebf;fill-opacity:1;fill-rule:evenodd;stroke:none" />
    <path
       d="m 0.5905512,27.165355 0,0.590551 57.2834658,0 0,-0.590551 -57.2834658,0 z"
       inkscape:connector-curvature="0"
       id="path90"
       style="fill:#037cbe;fill-opacity:1;fill-rule:evenodd;stroke:none" />
    <path
       d="m 0.5905512,27.755906 0,0.590551 57.2834658,0 0,-0.590551 -57.2834658,0 z"
       inkscape:connector-curvature="0"
       id="path92"
       style="fill:#037bbc;fill-opacity:1;fill-rule:evenodd;stroke:none" />
    <path
       d="m 0.5905512,28.346457 0,0.590552 57.2834658,0 0,-0.590552 -57.2834658,0 z"
       inkscape:connector-curvature="0"
       id="path94"
       style="fill:#027aba;fill-opacity:1;fill-rule:evenodd;stroke:none" />
    <path
       d="m 0.5905512,28.937009 0,0.590551 57.2834658,0 0,-0.590551 -57.2834658,0 z"
       inkscape:connector-curvature="0"
       id="path96"
       style="fill:#0178b9;fill-opacity:1;fill-rule:evenodd;stroke:none" />
    <path
       d="m 4.761319,28.973918 -0.1107283,0 49.6063003,0 -0.07382,0 1.36565,-0.295275 -0.184547,0.07382 1.144193,-0.738189 -0.147638,0.147638 0.738189,-1.144193 -0.07382,0.184548 0.295276,-1.36565 0,0.07382 0,-21.2598433 0,0.1107283 -0.295276,-1.3656496 0.07382,0.1845472 -0.738189,-1.1441929 0.147638,0.1476378 -1.144193,-0.738189 0.184547,0.073819 -1.36565,-0.2952756 0.07382,0 -49.6063003,0 0.1107283,0 -1.3656496,0.2952756 0.1845472,-0.073819 -1.1441929,0.738189 0.1476378,-0.1476378 -0.738189,1.1441929 0.073819,-0.1845472 -0.2952756,1.3656496 0,-0.1107283 0,21.2598433 0,-0.07382 0.2952756,1.36565 -0.073819,-0.184548 0.738189,1.144193 -0.1476378,-0.147638 1.1441929,0.738189 -0.1845472,-0.07382 z m -1.5501969,0.70128 c -0.073819,-0.03691 -0.1107283,-0.03691 -0.1845472,-0.07382 L 1.8823819,28.86319 C 1.8454725,28.82628 1.7716536,28.752461 1.7347441,28.715552 L 0.99655515,27.571359 C 0.9596457,27.49754 0.9596457,27.460631 0.92273625,27.386812 l -0.2952756,-1.36565 c 0,-0.03691 0,-0.07382 0,-0.110728 l 0,-21.2598433 c 0,0 0,-0.03691 0,-0.073819 L 0.92273625,3.2111221 C 0.9596457,3.1373032 0.9596457,3.1003938 0.99655515,3.0265749 L 1.7347441,1.8823819 C 1.7716536,1.8454725 1.8454725,1.7716536 1.8823819,1.7347441 L 3.0265749,0.99655515 C 3.1003938,0.9596457 3.1373032,0.9596457 3.2111221,0.92273625 l 1.3656497,-0.2952756 c 0.036909,0 0.073819,0 0.073819,0 l 49.6063003,0 c 0.03691,0 0.07382,0 0.110729,0 l 1.365649,0.2952756 c 0.07382,0.0369095 0.110729,0.0369095 0.184548,0.0738189 l 1.144192,0.73818895 c 0.03691,0.03691 0.110729,0.1107284 0.147638,0.1476378 l 0.738189,1.144193 c 0.03691,0.073819 0.03691,0.1107283 0.07382,0.1845472 l 0.295276,1.3656497 c 0,0.036909 0,0.073819 0,0.073819 l 0,21.2598433 c 0,0.03691 0,0.07382 0,0.110728 l -0.295276,1.36565 c -0.03691,0.07382 -0.03691,0.110728 -0.07382,0.184547 l -0.738189,1.144193 c -0.03691,0.03691 -0.110728,0.110728 -0.147638,0.147638 l -1.144192,0.738189 c -0.07382,0.03691 -0.110729,0.03691 -0.184548,0.07382 l -1.365649,0.295275 c -0.03691,0 -0.07382,0 -0.110729,0 l -49.6063003,0 c 0,0 -0.03691,0 -0.073819,0 z"
       inkscape:connector-curvature="0"
       id="path98"
       style="fill:#0069a2;fill-opacity:1;fill-rule:nonzero;stroke:none" />
  </g>
</svg>
