<?xml version="1.0" encoding="UTF-8" standalone="no"?>
<!-- Created with Inkscape (http://www.inkscape.org/) -->

<svg
   xmlns:dc="http://purl.org/dc/elements/1.1/"
   xmlns:cc="http://creativecommons.org/ns#"
   xmlns:rdf="http://www.w3.org/1999/02/22-rdf-syntax-ns#"
   xmlns:svg="http://www.w3.org/2000/svg"
   xmlns="http://www.w3.org/2000/svg"
   xmlns:inkscape="http://www.inkscape.org/namespaces/inkscape"
   version="1.0"
   width="8.6700001mm"
   height="10.4mm"
   id="svg2">
  <metadata
     id="metadata24">
    <rdf:RDF>
      <cc:Work
         rdf:about="">
        <dc:format>image/svg+xml</dc:format>
        <dc:type
           rdf:resource="http://purl.org/dc/dcmitype/StillImage" />
      </cc:Work>
    </rdf:RDF>
  </metadata>
  <defs
     id="defs4" />
  <g
     id="g6">
    <path
       d="m 4.7244096,29.52756 21.2598434,0 c 1.956201,0 3.543307,-1.587106 3.543307,-3.543307 l 0,-21.2598434 c 0,-1.9562009 -1.587106,-3.5433072 -3.543307,-3.5433072 l -21.2598434,0 c -1.9562009,0 -3.5433072,1.5871063 -3.5433072,3.5433072 l 0,21.2598434 c 0,1.956201 1.5871063,3.543307 3.5433072,3.543307 z"
       inkscape:connector-curvature="0"
       id="path8"
       style="fill:#ffc000;fill-opacity:1;fill-rule:evenodd;stroke:none" />
    <path
       d="m 4.7244096,29.52756 21.2598434,0 c 1.956201,0 3.543307,-1.587106 3.543307,-3.543307 l 0,-21.2598434 c 0,-1.9562009 -1.587106,-3.5433072 -3.543307,-3.5433072 l -21.2598434,0 c -1.9562009,0 -3.5433072,1.5871063 -3.5433072,3.5433072 l 0,21.2598434 c 0,1.956201 1.5871063,3.543307 3.5433072,3.543307 z"
       inkscape:connector-curvature="0"
       id="path10"
       style="fill:none;stroke:#d8d8d8;stroke-width:1.1811024px;stroke-linecap:round;stroke-linejoin:round;stroke-opacity:1;stroke-dasharray:none" />
    <text
       x="15.649607"
       y="17.775721"
       id="text12"
       xml:space="preserve"
       style="font-size:7.08661461px;font-style:normal;font-weight:bold;text-align:start;text-anchor:start;fill:#ffffff;font-family:Franklin Gothic Book"> </text>
    <path
       d="m 9.3011814,14.136319 12.1062996,0 0,-6.9758857 -12.1062996,0 0,6.9758857 z"
       inkscape:connector-curvature="0"
       id="path14"
       style="fill:none;stroke:#ffffff;stroke-width:1.1811024px;stroke-linecap:round;stroke-linejoin:round;stroke-opacity:1;stroke-dasharray:none" />
    <path
       d="m 11.663386,11.884843 7.086615,0"
       inkscape:connector-curvature="0"
       id="path16"
       style="fill:none;stroke:#ffffff;stroke-width:1.1811024px;stroke-linecap:round;stroke-linejoin:round;stroke-opacity:1;stroke-dasharray:none" />
    <path
       d="m 11.663386,9.5226381 7.086615,0"
       inkscape:connector-curvature="0"
       id="path18"
       style="fill:none;stroke:#ffffff;stroke-width:1.1811024px;stroke-linecap:round;stroke-linejoin:round;stroke-opacity:1;stroke-dasharray:none" />
    <text
       x="11.633677"
       y="17.508957"
       id="text20"
       xml:space="preserve"
       style="font-size:9.44881916px;font-style:normal;font-weight:bold;text-align:start;text-anchor:start;fill:#ffffff;font-family:Franklin Gothic Book">U</text>
  </g>
</svg>
