<?xml version="1.0" encoding="UTF-8" standalone="no"?>
<!-- Created with Inkscape (http://www.inkscape.org/) -->

<svg
   xmlns:dc="http://purl.org/dc/elements/1.1/"
   xmlns:cc="http://creativecommons.org/ns#"
   xmlns:rdf="http://www.w3.org/1999/02/22-rdf-syntax-ns#"
   xmlns:svg="http://www.w3.org/2000/svg"
   xmlns="http://www.w3.org/2000/svg"
   xmlns:inkscape="http://www.inkscape.org/namespaces/inkscape"
   version="1.0"
   width="18.360001mm"
   height="12.69mm"
   id="svg2">
  <metadata
     id="metadata122">
    <rdf:RDF>
      <cc:Work
         rdf:about="">
        <dc:format>image/svg+xml</dc:format>
        <dc:type
           rdf:resource="http://purl.org/dc/dcmitype/StillImage" />
      </cc:Work>
    </rdf:RDF>
  </metadata>
  <defs
     id="defs4" />
  <g
     id="g6">
    <path
       d="M 2.5024607,22.522146 32.531989,2.5024607 62.561518,22.522146 32.531989,42.541832 2.5024607,22.522146 z"
       inkscape:connector-curvature="0"
       id="path8"
       style="fill:none;stroke:none" />
    <path
       d="m 2.5024607,2.5024607 0,3.7536911 61.3102873,0 0,-3.7536911 -61.3102873,0 z"
       inkscape:connector-curvature="0"
       id="path10"
       style="fill:#1eb0ff;fill-opacity:1;fill-rule:evenodd;stroke:none" />
    <path
       d="m 2.5024607,6.2561518 0,1.2512304 61.3102873,0 0,-1.2512304 -61.3102873,0 z"
       inkscape:connector-curvature="0"
       id="path12"
       style="fill:#1daffe;fill-opacity:1;fill-rule:evenodd;stroke:none" />
    <path
       d="m 2.5024607,7.5073822 0,1.2512303 61.3102873,0 0,-1.2512303 -61.3102873,0 z"
       inkscape:connector-curvature="0"
       id="path14"
       style="fill:#1daffd;fill-opacity:1;fill-rule:evenodd;stroke:none" />
    <path
       d="m 2.5024607,8.7586125 0,1.2512305 61.3102873,0 0,-1.2512305 -61.3102873,0 z"
       inkscape:connector-curvature="0"
       id="path16"
       style="fill:#1caefc;fill-opacity:1;fill-rule:evenodd;stroke:none" />
    <path
       d="m 2.5024607,10.009843 0,1.25123 61.3102873,0 0,-1.25123 -61.3102873,0 z"
       inkscape:connector-curvature="0"
       id="path18"
       style="fill:#1bacfa;fill-opacity:1;fill-rule:evenodd;stroke:none" />
    <path
       d="m 2.5024607,11.261073 0,1.251231 61.3102873,0 0,-1.251231 -61.3102873,0 z"
       inkscape:connector-curvature="0"
       id="path20"
       style="fill:#1aabf9;fill-opacity:1;fill-rule:evenodd;stroke:none" />
    <path
       d="m 2.5024607,12.512304 0,1.25123 61.3102873,0 0,-1.25123 -61.3102873,0 z"
       inkscape:connector-curvature="0"
       id="path22"
       style="fill:#19aaf8;fill-opacity:1;fill-rule:evenodd;stroke:none" />
    <path
       d="m 2.5024607,13.763534 0,1.25123 61.3102873,0 0,-1.25123 -61.3102873,0 z"
       inkscape:connector-curvature="0"
       id="path24"
       style="fill:#18a9f7;fill-opacity:1;fill-rule:evenodd;stroke:none" />
    <path
       d="m 2.5024607,15.014764 0,1.251231 61.3102873,0 0,-1.251231 -61.3102873,0 z"
       inkscape:connector-curvature="0"
       id="path26"
       style="fill:#17a7f5;fill-opacity:1;fill-rule:evenodd;stroke:none" />
    <path
       d="m 2.5024607,16.265995 0,1.25123 61.3102873,0 0,-1.25123 -61.3102873,0 z"
       inkscape:connector-curvature="0"
       id="path28"
       style="fill:#16a6f4;fill-opacity:1;fill-rule:evenodd;stroke:none" />
    <path
       d="m 2.5024607,17.517225 0,1.25123 61.3102873,0 0,-1.25123 -61.3102873,0 z"
       inkscape:connector-curvature="0"
       id="path30"
       style="fill:#15a5f2;fill-opacity:1;fill-rule:evenodd;stroke:none" />
    <path
       d="m 2.5024607,18.768455 0,1.251231 61.3102873,0 0,-1.251231 -61.3102873,0 z"
       inkscape:connector-curvature="0"
       id="path32"
       style="fill:#14a4f1;fill-opacity:1;fill-rule:evenodd;stroke:none" />
    <path
       d="m 2.5024607,20.019686 0,1.25123 61.3102873,0 0,-1.25123 -61.3102873,0 z"
       inkscape:connector-curvature="0"
       id="path34"
       style="fill:#13a2ef;fill-opacity:1;fill-rule:evenodd;stroke:none" />
    <path
       d="m 2.5024607,21.270916 0,1.25123 61.3102873,0 0,-1.25123 -61.3102873,0 z"
       inkscape:connector-curvature="0"
       id="path36"
       style="fill:#12a1ee;fill-opacity:1;fill-rule:evenodd;stroke:none" />
    <path
       d="m 2.5024607,22.522146 0,1.251231 61.3102873,0 0,-1.251231 -61.3102873,0 z"
       inkscape:connector-curvature="0"
       id="path38"
       style="fill:#11a0ec;fill-opacity:1;fill-rule:evenodd;stroke:none" />
    <path
       d="m 2.5024607,23.773377 0,1.25123 61.3102873,0 0,-1.25123 -61.3102873,0 z"
       inkscape:connector-curvature="0"
       id="path40"
       style="fill:#109feb;fill-opacity:1;fill-rule:evenodd;stroke:none" />
    <path
       d="m 2.5024607,25.024607 0,1.251231 61.3102873,0 0,-1.251231 -61.3102873,0 z"
       inkscape:connector-curvature="0"
       id="path42"
       style="fill:#0f9dea;fill-opacity:1;fill-rule:evenodd;stroke:none" />
    <path
       d="m 2.5024607,26.275838 0,1.25123 61.3102873,0 0,-1.25123 -61.3102873,0 z"
       inkscape:connector-curvature="0"
       id="path44"
       style="fill:#0e9ce9;fill-opacity:1;fill-rule:evenodd;stroke:none" />
    <path
       d="m 2.5024607,27.527068 0,1.25123 61.3102873,0 0,-1.25123 -61.3102873,0 z"
       inkscape:connector-curvature="0"
       id="path46"
       style="fill:#0d9be7;fill-opacity:1;fill-rule:evenodd;stroke:none" />
    <path
       d="m 2.5024607,28.778298 0,1.251231 61.3102873,0 0,-1.251231 -61.3102873,0 z"
       inkscape:connector-curvature="0"
       id="path48"
       style="fill:#0c9ae6;fill-opacity:1;fill-rule:evenodd;stroke:none" />
    <path
       d="m 2.5024607,30.029529 0,1.25123 61.3102873,0 0,-1.25123 -61.3102873,0 z"
       inkscape:connector-curvature="0"
       id="path50"
       style="fill:#0b98e4;fill-opacity:1;fill-rule:evenodd;stroke:none" />
    <path
       d="m 2.5024607,31.280759 0,1.25123 61.3102873,0 0,-1.25123 -61.3102873,0 z"
       inkscape:connector-curvature="0"
       id="path52"
       style="fill:#0a97e3;fill-opacity:1;fill-rule:evenodd;stroke:none" />
    <path
       d="m 2.5024607,32.531989 0,1.251231 61.3102873,0 0,-1.251231 -61.3102873,0 z"
       inkscape:connector-curvature="0"
       id="path54"
       style="fill:#0996e1;fill-opacity:1;fill-rule:evenodd;stroke:none" />
    <path
       d="m 2.5024607,33.78322 0,1.25123 61.3102873,0 0,-1.25123 -61.3102873,0 z"
       inkscape:connector-curvature="0"
       id="path56"
       style="fill:#0895e0;fill-opacity:1;fill-rule:evenodd;stroke:none" />
    <path
       d="m 2.5024607,35.03445 0,1.25123 61.3102873,0 0,-1.25123 -61.3102873,0 z"
       inkscape:connector-curvature="0"
       id="path58"
       style="fill:#0793df;fill-opacity:1;fill-rule:evenodd;stroke:none" />
    <path
       d="m 2.5024607,36.28568 0,1.251231 61.3102873,0 0,-1.251231 -61.3102873,0 z"
       inkscape:connector-curvature="0"
       id="path60"
       style="fill:#0692de;fill-opacity:1;fill-rule:evenodd;stroke:none" />
    <path
       d="m 2.5024607,37.536911 0,1.25123 61.3102873,0 0,-1.25123 -61.3102873,0 z"
       inkscape:connector-curvature="0"
       id="path62"
       style="fill:#0591dc;fill-opacity:1;fill-rule:evenodd;stroke:none" />
    <path
       d="m 2.5024607,38.788141 0,1.25123 61.3102873,0 0,-1.25123 -61.3102873,0 z"
       inkscape:connector-curvature="0"
       id="path64"
       style="fill:#0490db;fill-opacity:1;fill-rule:evenodd;stroke:none" />
    <path
       d="m 2.5024607,40.039371 0,1.251231 61.3102873,0 0,-1.251231 -61.3102873,0 z"
       inkscape:connector-curvature="0"
       id="path66"
       style="fill:#038ed9;fill-opacity:1;fill-rule:evenodd;stroke:none" />
    <path
       d="m 2.5024607,41.290602 0,1.25123 61.3102873,0 0,-1.25123 -61.3102873,0 z"
       inkscape:connector-curvature="0"
       id="path68"
       style="fill:#028dd8;fill-opacity:1;fill-rule:evenodd;stroke:none" />
    <path
       d="m 2.5024607,42.541832 0,1.251231 61.3102873,0 0,-1.251231 -61.3102873,0 z"
       inkscape:connector-curvature="0"
       id="path70"
       style="fill:#018dd8;fill-opacity:1;fill-rule:evenodd;stroke:none" />
    <path
       d="M 2.5024607,22.522146 32.531989,2.5024607 62.561518,22.522146 32.531989,42.541832 2.5024607,22.522146 z"
       inkscape:connector-curvature="0"
       id="path72"
       style="fill:none;stroke:#ffffff;stroke-width:2.50246072px;stroke-linecap:round;stroke-linejoin:round;stroke-opacity:1;stroke-dasharray:none" />
    <path
       d="m 17.517225,6.2561518 0,3.7536912 31.280759,0 0,-3.7536912 -31.280759,0 z"
       inkscape:connector-curvature="0"
       id="path74"
       style="fill:#1eb0ff;fill-opacity:1;fill-rule:evenodd;stroke:none" />
    <path
       d="m 17.517225,10.009843 0,1.25123 31.280759,0 0,-1.25123 -31.280759,0 z"
       inkscape:connector-curvature="0"
       id="path76"
       style="fill:#1daffe;fill-opacity:1;fill-rule:evenodd;stroke:none" />
    <path
       d="m 17.517225,11.261073 0,1.251231 31.280759,0 0,-1.251231 -31.280759,0 z"
       inkscape:connector-curvature="0"
       id="path78"
       style="fill:#1caefc;fill-opacity:1;fill-rule:evenodd;stroke:none" />
    <path
       d="m 17.517225,12.512304 0,1.25123 31.280759,0 0,-1.25123 -31.280759,0 z"
       inkscape:connector-curvature="0"
       id="path80"
       style="fill:#1aacfa;fill-opacity:1;fill-rule:evenodd;stroke:none" />
    <path
       d="m 17.517225,13.763534 0,1.25123 31.280759,0 0,-1.25123 -31.280759,0 z"
       inkscape:connector-curvature="0"
       id="path82"
       style="fill:#19aaf8;fill-opacity:1;fill-rule:evenodd;stroke:none" />
    <path
       d="m 17.517225,15.014764 0,1.251231 31.280759,0 0,-1.251231 -31.280759,0 z"
       inkscape:connector-curvature="0"
       id="path84"
       style="fill:#18a9f7;fill-opacity:1;fill-rule:evenodd;stroke:none" />
    <path
       d="m 17.517225,16.265995 0,1.25123 31.280759,0 0,-1.25123 -31.280759,0 z"
       inkscape:connector-curvature="0"
       id="path86"
       style="fill:#16a7f5;fill-opacity:1;fill-rule:evenodd;stroke:none" />
    <path
       d="m 17.517225,17.517225 0,1.25123 31.280759,0 0,-1.25123 -31.280759,0 z"
       inkscape:connector-curvature="0"
       id="path88"
       style="fill:#15a5f3;fill-opacity:1;fill-rule:evenodd;stroke:none" />
    <path
       d="m 17.517225,18.768455 0,1.251231 31.280759,0 0,-1.251231 -31.280759,0 z"
       inkscape:connector-curvature="0"
       id="path90"
       style="fill:#13a3f1;fill-opacity:1;fill-rule:evenodd;stroke:none" />
    <path
       d="m 17.517225,20.019686 0,1.25123 31.280759,0 0,-1.25123 -31.280759,0 z"
       inkscape:connector-curvature="0"
       id="path92"
       style="fill:#12a2ef;fill-opacity:1;fill-rule:evenodd;stroke:none" />
    <path
       d="m 17.517225,21.270916 0,1.25123 31.280759,0 0,-1.25123 -31.280759,0 z"
       inkscape:connector-curvature="0"
       id="path94"
       style="fill:#11a0ed;fill-opacity:1;fill-rule:evenodd;stroke:none" />
    <path
       d="m 17.517225,22.522146 0,1.251231 31.280759,0 0,-1.251231 -31.280759,0 z"
       inkscape:connector-curvature="0"
       id="path96"
       style="fill:#0f9eeb;fill-opacity:1;fill-rule:evenodd;stroke:none" />
    <path
       d="m 17.517225,23.773377 0,1.25123 31.280759,0 0,-1.25123 -31.280759,0 z"
       inkscape:connector-curvature="0"
       id="path98"
       style="fill:#0e9de9;fill-opacity:1;fill-rule:evenodd;stroke:none" />
    <path
       d="m 17.517225,25.024607 0,1.251231 31.280759,0 0,-1.251231 -31.280759,0 z"
       inkscape:connector-curvature="0"
       id="path100"
       style="fill:#0d9be8;fill-opacity:1;fill-rule:evenodd;stroke:none" />
    <path
       d="m 17.517225,26.275838 0,1.25123 31.280759,0 0,-1.25123 -31.280759,0 z"
       inkscape:connector-curvature="0"
       id="path102"
       style="fill:#0b99e6;fill-opacity:1;fill-rule:evenodd;stroke:none" />
    <path
       d="m 17.517225,27.527068 0,1.25123 31.280759,0 0,-1.25123 -31.280759,0 z"
       inkscape:connector-curvature="0"
       id="path104"
       style="fill:#0a98e4;fill-opacity:1;fill-rule:evenodd;stroke:none" />
    <path
       d="m 17.517225,28.778298 0,1.251231 31.280759,0 0,-1.251231 -31.280759,0 z"
       inkscape:connector-curvature="0"
       id="path106"
       style="fill:#0996e1;fill-opacity:1;fill-rule:evenodd;stroke:none" />
    <path
       d="m 17.517225,30.029529 0,1.25123 31.280759,0 0,-1.25123 -31.280759,0 z"
       inkscape:connector-curvature="0"
       id="path108"
       style="fill:#0794df;fill-opacity:1;fill-rule:evenodd;stroke:none" />
    <path
       d="m 17.517225,31.280759 0,1.25123 31.280759,0 0,-1.25123 -31.280759,0 z"
       inkscape:connector-curvature="0"
       id="path110"
       style="fill:#0692de;fill-opacity:1;fill-rule:evenodd;stroke:none" />
    <path
       d="m 17.517225,32.531989 0,1.251231 31.280759,0 0,-1.251231 -31.280759,0 z"
       inkscape:connector-curvature="0"
       id="path112"
       style="fill:#0591dc;fill-opacity:1;fill-rule:evenodd;stroke:none" />
    <path
       d="m 17.517225,33.78322 0,1.25123 31.280759,0 0,-1.25123 -31.280759,0 z"
       inkscape:connector-curvature="0"
       id="path114"
       style="fill:#038fda;fill-opacity:1;fill-rule:evenodd;stroke:none" />
    <path
       d="m 17.517225,35.03445 0,1.25123 31.280759,0 0,-1.25123 -31.280759,0 z"
       inkscape:connector-curvature="0"
       id="path116"
       style="fill:#028dd8;fill-opacity:1;fill-rule:evenodd;stroke:none" />
    <path
       d="m 17.517225,36.28568 0,1.251231 31.280759,0 0,-1.251231 -31.280759,0 z"
       inkscape:connector-curvature="0"
       id="path118"
       style="fill:#018dd8;fill-opacity:1;fill-rule:evenodd;stroke:none" />
  </g>
</svg>
