<?xml version="1.0" encoding="UTF-8" standalone="no"?>
<!-- Created with Inkscape (http://www.inkscape.org/) -->

<svg
   xmlns:dc="http://purl.org/dc/elements/1.1/"
   xmlns:cc="http://creativecommons.org/ns#"
   xmlns:rdf="http://www.w3.org/1999/02/22-rdf-syntax-ns#"
   xmlns:svg="http://www.w3.org/2000/svg"
   xmlns="http://www.w3.org/2000/svg"
   xmlns:inkscape="http://www.inkscape.org/namespaces/inkscape"
   version="1.0"
   width="6.8299999mm"
   height="6.1999998mm"
   id="svg2">
  <metadata
     id="metadata12">
    <rdf:RDF>
      <cc:Work
         rdf:about="">
        <dc:format>image/svg+xml</dc:format>
        <dc:type
           rdf:resource="http://purl.org/dc/dcmitype/StillImage" />
      </cc:Work>
    </rdf:RDF>
  </metadata>
  <defs
     id="defs4" />
  <g
     id="g6">
    <path
       d="M 12.143209,0.5905512 10.925197,0.6643701 9.8179137,0.77509845 8.7106302,0.92273625 7.6402561,1.1441929 6.643701,1.4025591 5.6840553,1.7716536 4.7982285,2.1407481 3.9862206,2.5836615 3.2480316,3.0634843 2.5836615,3.5433072 1.9931103,4.0969489 1.5132874,4.6875001 1.3287402,4.9827757 1.1441929,5.2780513 0.9596457,5.6102364 0.84891735,5.9424214 0.738189,6.237697 0.70127955,6.5698821 0.5905512,6.9389766 l 0,0.2952756 0.0738189,0.5905512 0.11072835,0.5536417 0.18454725,0.5536418 0.2952756,0.5167323 0.332185,0.4798228 0.406004,0.479823 0.4429134,0.479823 0.5905512,0.442913 0.5536417,0.406004 0.6274607,0.332185 0.738189,0.369095 0.7012795,0.332185 0.7750985,0.258366 0.8489173,0.258366 0.8120079,0.184547 0.9227363,0.221457 -2.4729332,4.244587 5.3887794,-4.02313 0.221457,0 1.144193,-0.03691 1.181102,-0.110728 1.070374,-0.184547 1.107284,-0.184548 0.996555,-0.295275 0.959646,-0.332185 0.885827,-0.369095 0.775098,-0.442913 0.775098,-0.479823 0.627461,-0.516732 0.627461,-0.516733 0.479823,-0.5905509 0.184547,-0.2952756 0.147638,-0.332185 0.184547,-0.2952756 0.110728,-0.3321851 0.110729,-0.332185 0.07382,-0.3321851 0.03691,-0.332185 0,-0.3690945 0,-0.2952756 L 23.585138,6.5698821 23.51132,6.237697 23.400591,5.9424214 23.289863,5.6102364 23.105316,5.2780513 22.957678,4.9827757 22.773131,4.6875001 22.293308,4.0969489 21.665847,3.5433072 21.038386,3.0634843 20.263288,2.5836615 19.48819,2.1407481 18.602363,1.7716536 17.642717,1.4025591 16.646162,1.1441929 15.538878,0.92273625 14.468504,0.77509845 13.287402,0.6643701 12.143209,0.5905512 z"
       inkscape:connector-curvature="0"
       id="path8"
       style="fill:#ffffff;fill-opacity:1;fill-rule:evenodd;stroke:none" />
  </g>
</svg>
