<?xml version="1.0" encoding="UTF-8" standalone="no"?>
<!-- Created with Inkscape (http://www.inkscape.org/) -->

<svg
   xmlns:dc="http://purl.org/dc/elements/1.1/"
   xmlns:cc="http://creativecommons.org/ns#"
   xmlns:rdf="http://www.w3.org/1999/02/22-rdf-syntax-ns#"
   xmlns:svg="http://www.w3.org/2000/svg"
   xmlns="http://www.w3.org/2000/svg"
   xmlns:inkscape="http://www.inkscape.org/namespaces/inkscape"
   version="1.0"
   width="15.18mm"
   height="13.75mm"
   id="svg2">
  <metadata
     id="metadata18">
    <rdf:RDF>
      <cc:Work
         rdf:about="">
        <dc:format>image/svg+xml</dc:format>
        <dc:type
           rdf:resource="http://purl.org/dc/dcmitype/StillImage" />
      </cc:Work>
    </rdf:RDF>
  </metadata>
  <defs
     id="defs4" />
  <g
     id="g6">
    <path
       d="m 19.706878,46.373725 14.858361,0 2.971672,-0.312807 -0.156404,0 2.815268,-0.860221 -0.156404,0.0782 2.502461,-1.407635 -0.0782,0.0782 2.267855,-1.798643 -0.156403,0.156404 1.798643,-2.267856 -0.0782,0.0782 1.407634,-2.50246 -0.0782,0.156403 0.86022,-2.815268 0,0.156404 0.312808,-3.049874 0,-14.936562 -0.312808,-2.893471 0,0.156404 -0.86022,-2.815268 0.0782,0.156404 -1.407634,-2.5024611 0.0782,0.078202 -1.798643,-2.267855 0.156403,0.1564038 -2.267855,-1.7986437 0.0782,0.078202 -2.502461,-1.4076341 0.156404,0.078202 -2.815268,-0.8602209 0.156404,0 -3.049874,-0.3128076 -14.936563,0 -2.89347,0.3128076 0.156404,0 -2.815268,0.8602209 0.156403,-0.078202 -2.580662,1.4076341 0.0782,-0.078202 -2.1896534,1.7986437 0.1564038,-0.1564038 -1.7986437,2.267855 0.078202,-0.078202 -1.4076341,2.5024611 0.078202,-0.156404 -0.8602209,2.815268 0,-0.156404 -0.3128076,3.049874 0,14.858361 0.3128076,2.971672 0,-0.156404 0.8602209,2.815268 -0.078202,-0.156403 1.4076341,2.50246 -0.078202,-0.0782 1.7986437,2.267856 -0.1564038,-0.156404 2.1896534,1.798643 -0.0782,-0.0782 2.580662,1.407635 -0.156403,-0.0782 2.815268,0.860221 -0.156404,0 z m -3.28448,1.329432 c 0,0 -0.0782,0 -0.156403,0 l -2.815269,-0.86022 c 0,-0.0782 -0.0782,-0.0782 -0.156403,-0.0782 L 10.71366,45.357101 c 0,0 -0.0782,-0.0782 -0.0782,-0.0782 L 8.4458049,43.480255 c -0.078202,-0.0782 -0.078202,-0.0782 -0.1564038,-0.156404 L 6.4907575,41.055996 c 0,0 -0.078202,-0.0782 -0.078202,-0.0782 l -1.4076342,-2.50246 c 0,-0.0782 -0.078202,-0.156404 -0.078202,-0.156404 L 4.0664987,35.503661 c 0,-0.0782 0,-0.156403 0,-0.156403 l -0.3128076,-3.206278 0,-15.092966 0.3128076,-3.049874 c 0,0 0,-0.0782 0,-0.156404 l 0.8602208,-2.815268 c 0,0 0.078202,-0.0782 0.078202,-0.156404 L 6.4125556,8.367603 c 0,0 0.078202,-0.078202 0.078202,-0.078202 L 8.2894011,6.0215461 C 8.367603,5.9433442 8.367603,5.9433442 8.4458049,5.8651423 L 10.635458,4.0664987 c 0,0 0.0782,-0.078202 0.0782,-0.078202 l 2.580663,-1.4076342 c 0.0782,0 0.156403,-0.078202 0.156403,-0.078202 l 2.815269,-0.8602209 c 0.0782,0 0.156403,0 0.156403,0 l 3.128076,-0.3128075 15.171168,0 3.049874,0.3128075 c 0,0 0.0782,0 0.156404,0 l 2.815269,0.8602209 c 0,0 0.0782,0.078202 0.156403,0.078202 l 2.502461,1.4076342 c 0,0 0.0782,0.078202 0.0782,0.078202 l 2.267855,1.7986436 c 0.0782,0.078202 0.0782,0.078202 0.156404,0.1564038 l 1.798643,2.267855 c 0,0 0,0.078202 0.0782,0.078202 l 1.407634,2.502461 c 0,0.0782 0,0.156404 0.0782,0.156404 l 0.860221,2.815268 c 0,0.0782 0,0.156404 0,0.156404 l 0.312808,3.128076 0,15.171168 -0.312808,3.049874 c 0,0 0,0.0782 0,0.156403 l -0.860221,2.815269 c -0.0782,0 -0.0782,0.0782 -0.0782,0.156404 l -1.407634,2.50246 c -0.0782,0 -0.0782,0.0782 -0.0782,0.0782 l -1.798643,2.267855 c -0.0782,0.0782 -0.0782,0.0782 -0.156404,0.156404 l -2.267855,1.798644 c 0,0 -0.0782,0 -0.0782,0.0782 l -2.502461,1.407634 c -0.0782,0 -0.156403,0 -0.156403,0.0782 l -2.815269,0.86022 c -0.0782,0 -0.156404,0 -0.156404,0 l -3.206277,0.312808 -15.092967,0 z"
       inkscape:connector-curvature="0"
       id="path8"
       style="fill:#ffffff;fill-opacity:1;fill-rule:nonzero;stroke:none" />
    <text
       x="10.218407"
       y="29.404268"
       id="text10"
       xml:space="preserve"
       style="font-size:16.26599503px;font-style:normal;font-weight:bold;text-align:start;text-anchor:start;fill:#89d5ff;font-family:Calibri">topic</text>
    <path
       d="M 42.229025,5.8651423 39.413756,8.6804106"
       inkscape:connector-curvature="0"
       id="path12"
       style="fill:none;stroke:#ffffff;stroke-width:1.64223981px;stroke-linecap:round;stroke-linejoin:round;stroke-opacity:1;stroke-dasharray:none" />
    <path
       d="m 43.011044,10.791862 -8.602209,2.89347 2.815268,-8.6022087 5.786941,5.7087387 z"
       inkscape:connector-curvature="0"
       id="path14"
       style="fill:#ffffff;fill-opacity:1;fill-rule:evenodd;stroke:none" />
  </g>
</svg>
