<?xml version="1.0" encoding="UTF-8" standalone="no"?>
<!-- Created with Inkscape (http://www.inkscape.org/) -->

<svg
   xmlns:dc="http://purl.org/dc/elements/1.1/"
   xmlns:cc="http://creativecommons.org/ns#"
   xmlns:rdf="http://www.w3.org/1999/02/22-rdf-syntax-ns#"
   xmlns:svg="http://www.w3.org/2000/svg"
   xmlns="http://www.w3.org/2000/svg"
   xmlns:inkscape="http://www.inkscape.org/namespaces/inkscape"
   version="1.0"
   width="7mm"
   height="7.8000002mm"
   id="svg2">
  <metadata
     id="metadata14">
    <rdf:RDF>
      <cc:Work
         rdf:about="">
        <dc:format>image/svg+xml</dc:format>
        <dc:type
           rdf:resource="http://purl.org/dc/dcmitype/StillImage" />
      </cc:Work>
    </rdf:RDF>
  </metadata>
  <defs
     id="defs4" />
  <g
     id="g6">
    <path
       d="m 9.190453,21.887304 7.012795,0 1.40256,-0.147638 -0.07382,0 1.32874,-0.406004 -0.07382,0.03691 1.181102,-0.66437 -0.03691,0.03691 1.070374,-0.848918 -0.07382,0.07382 0.848917,-1.070374 -0.03691,0.03691 0.66437,-1.181103 -0.03691,0.07382 0.406004,-1.32874 0,0.07382 0.147637,-1.439469 0,-7.0497045 -0.147637,-1.3656496 0,0.073819 -0.406004,-1.3287402 0.03691,0.073819 -0.66437,-1.1811024 0.03691,0.036909 -0.848917,-1.070374 0.07382,0.073819 -1.070374,-0.8489174 0.03691,0.036909 -1.181102,-0.6643701 0.07382,0.036909 -1.32874,-0.4060039 0.07382,0 -1.439469,-0.1476378 -7.0497049,0 -1.3656496,0.1476378 0.073819,0 -1.3287402,0.4060039 0.073819,-0.036909 -1.1811024,0.6643701 0.036909,-0.036909 -1.070374,0.8489174 0.073819,-0.073819 -0.8489174,1.070374 0.03691,-0.036909 -0.6643701,1.1811024 0.036909,-0.073819 -0.4060039,1.3287402 0,-0.073819 -0.1476378,1.4394685 0,7.0127956 0.1476378,1.402559 0,-0.07382 0.4060039,1.32874 -0.036909,-0.07382 0.6643701,1.181103 -0.03691,-0.03691 0.8489174,1.070374 -0.073819,-0.07382 1.070374,0.848918 -0.036909,-0.03691 1.1811024,0.66437 -0.073819,-0.03691 1.3287402,0.406004 -0.073819,0 z m -1.5501969,0.62746 c 0,0 -0.036909,0 -0.073819,0 L 6.237697,22.10876 c 0,-0.03691 -0.036909,-0.03691 -0.073819,-0.03691 l -1.1811024,-0.66437 c 0,-0.03691 -0.036909,-0.03691 -0.036909,-0.03691 L 3.8754922,20.521654 c -0.036909,-0.03691 -0.036909,-0.03691 -0.073819,-0.07382 L 2.952756,19.377461 c 0,0 -0.03691,-0.03691 -0.03691,-0.03691 L 2.2514764,18.159449 c 0,-0.03691 -0.036909,-0.07382 -0.036909,-0.07382 L 1.808563,16.75689 c 0,-0.03691 0,-0.07382 0,-0.07382 l -0.1476378,-1.513287 0,-7.1235239 0.1476378,-1.4394686 c 0,0 0,-0.036909 0,-0.073819 L 2.214567,5.2042324 c 0,0 0.036909,-0.036909 0.036909,-0.073819 L 2.9158465,3.9493111 c 0,0 0.03691,-0.036909 0.03691,-0.036909 L 3.8016733,2.8420276 c 0.03691,-0.036909 0.03691,-0.036909 0.073819,-0.073819 L 4.9458663,1.9192914 c 0,0 0.036909,-0.03691 0.036909,-0.03691 L 6.1638781,1.2180118 c 0.03691,0 0.073819,-0.036909 0.073819,-0.036909 L 7.5664372,0.77509845 c 0.03691,0 0.073819,0 0.073819,0 l 1.476378,-0.1476378 7.1604329,0 1.439469,0.1476378 c 0,0 0.03691,0 0.07382,0 l 1.32874,0.40600395 c 0,0 0.03691,0.036909 0.07382,0.036909 l 1.181102,0.6643701 c 0,0 0.03691,0.03691 0.03691,0.03691 L 21.4813,2.7682087 c 0.03691,0.036909 0.03691,0.036909 0.07382,0.073819 l 0.848917,1.0703741 c 0,0 0,0.036909 0.03691,0.036909 l 0.66437,1.1811024 c 0,0.036909 0,0.073819 0.03691,0.073819 l 0.406004,1.3287402 c 0,0.03691 0,0.073819 0,0.073819 l 0.147638,1.476378 0,7.1604335 -0.147638,1.439468 c 0,0 0,0.03691 0,0.07382 l -0.406004,1.32874 c -0.03691,0 -0.03691,0.03691 -0.03691,0.07382 l -0.66437,1.181103 c -0.03691,0 -0.03691,0.03691 -0.03691,0.03691 l -0.848917,1.070374 c -0.03691,0.03691 -0.03691,0.03691 -0.07382,0.07382 l -1.070374,0.848917 c 0,0 -0.03691,0 -0.03691,0.03691 l -1.181102,0.66437 c -0.03691,0 -0.07382,0 -0.07382,0.03691 l -1.32874,0.406004 c -0.03691,0 -0.07382,0 -0.07382,0 l -1.513288,0.147638 -7.1235233,0 z"
       inkscape:connector-curvature="0"
       id="path8"
       style="fill:#ffffff;fill-opacity:1;fill-rule:nonzero;stroke:none" />
    <text
       x="4.8228469"
       y="13.878121"
       id="text10"
       xml:space="preserve"
       style="font-size:7.67716551px;font-style:normal;font-weight:bold;text-align:start;text-anchor:start;fill:#89d5ff;font-family:Franklin Gothic Book">topic</text>
  </g>
</svg>
