<?xml version="1.0" encoding="UTF-8" standalone="no"?>
<!-- Created with Inkscape (http://www.inkscape.org/) -->

<svg
   xmlns:dc="http://purl.org/dc/elements/1.1/"
   xmlns:cc="http://creativecommons.org/ns#"
   xmlns:rdf="http://www.w3.org/1999/02/22-rdf-syntax-ns#"
   xmlns:svg="http://www.w3.org/2000/svg"
   xmlns="http://www.w3.org/2000/svg"
   xmlns:inkscape="http://www.inkscape.org/namespaces/inkscape"
   version="1.0"
   width="22.25mm"
   height="14.1mm"
   id="svg2">
  <metadata
     id="metadata96">
    <rdf:RDF>
      <cc:Work
         rdf:about="">
        <dc:format>image/svg+xml</dc:format>
        <dc:type
           rdf:resource="http://purl.org/dc/dcmitype/StillImage" />
      </cc:Work>
    </rdf:RDF>
  </metadata>
  <defs
     id="defs4" />
  <g
     id="g6">
    <path
       d="m 31.280759,2.5024607 0,46.2955233 1.25123,0 0,-46.2955233 -1.25123,0 z"
       inkscape:connector-curvature="0"
       id="path8"
       style="fill:#3abbe7;fill-opacity:1;fill-rule:evenodd;stroke:none" />
    <path
       d="m 32.531989,2.5024607 0,46.2955233 1.251231,0 0,-46.2955233 -1.251231,0 z"
       inkscape:connector-curvature="0"
       id="path10"
       style="fill:#3fbce8;fill-opacity:1;fill-rule:evenodd;stroke:none" />
    <path
       d="m 33.78322,2.5024607 0,46.2955233 1.25123,0 0,-46.2955233 -1.25123,0 z"
       inkscape:connector-curvature="0"
       id="path12"
       style="fill:#43bde8;fill-opacity:1;fill-rule:evenodd;stroke:none" />
    <path
       d="m 35.03445,2.5024607 0,46.2955233 1.25123,0 0,-46.2955233 -1.25123,0 z"
       inkscape:connector-curvature="0"
       id="path14"
       style="fill:#47bfe9;fill-opacity:1;fill-rule:evenodd;stroke:none" />
    <path
       d="m 36.28568,2.5024607 0,46.2955233 1.251231,0 0,-46.2955233 -1.251231,0 z"
       inkscape:connector-curvature="0"
       id="path16"
       style="fill:#4bc1ea;fill-opacity:1;fill-rule:evenodd;stroke:none" />
    <path
       d="m 37.536911,2.5024607 0,46.2955233 1.25123,0 0,-46.2955233 -1.25123,0 z"
       inkscape:connector-curvature="0"
       id="path18"
       style="fill:#4fc2ea;fill-opacity:1;fill-rule:evenodd;stroke:none" />
    <path
       d="m 38.788141,2.5024607 0,46.2955233 1.25123,0 0,-46.2955233 -1.25123,0 z"
       inkscape:connector-curvature="0"
       id="path20"
       style="fill:#54c4eb;fill-opacity:1;fill-rule:evenodd;stroke:none" />
    <path
       d="m 40.039371,2.5024607 0,46.2955233 1.251231,0 0,-46.2955233 -1.251231,0 z"
       inkscape:connector-curvature="0"
       id="path22"
       style="fill:#58c5eb;fill-opacity:1;fill-rule:evenodd;stroke:none" />
    <path
       d="m 41.290602,2.5024607 0,46.2955233 1.25123,0 0,-46.2955233 -1.25123,0 z"
       inkscape:connector-curvature="0"
       id="path24"
       style="fill:#5dc7ec;fill-opacity:1;fill-rule:evenodd;stroke:none" />
    <path
       d="m 42.541832,2.5024607 0,46.2955233 1.251231,0 0,-46.2955233 -1.251231,0 z"
       inkscape:connector-curvature="0"
       id="path26"
       style="fill:#61c9ec;fill-opacity:1;fill-rule:evenodd;stroke:none" />
    <path
       d="m 43.793063,2.5024607 0,46.2955233 1.25123,0 0,-46.2955233 -1.25123,0 z"
       inkscape:connector-curvature="0"
       id="path28"
       style="fill:#66caed;fill-opacity:1;fill-rule:evenodd;stroke:none" />
    <path
       d="m 45.044293,2.5024607 0,46.2955233 1.25123,0 0,-46.2955233 -1.25123,0 z"
       inkscape:connector-curvature="0"
       id="path30"
       style="fill:#6acbed;fill-opacity:1;fill-rule:evenodd;stroke:none" />
    <path
       d="m 46.295523,2.5024607 0,46.2955233 1.251231,0 0,-46.2955233 -1.251231,0 z"
       inkscape:connector-curvature="0"
       id="path32"
       style="fill:#6ecdee;fill-opacity:1;fill-rule:evenodd;stroke:none" />
    <path
       d="m 47.546754,2.5024607 0,46.2955233 1.25123,0 0,-46.2955233 -1.25123,0 z"
       inkscape:connector-curvature="0"
       id="path34"
       style="fill:#72ceef;fill-opacity:1;fill-rule:evenodd;stroke:none" />
    <path
       d="m 48.797984,2.5024607 0,46.2955233 1.25123,0 0,-46.2955233 -1.25123,0 z"
       inkscape:connector-curvature="0"
       id="path36"
       style="fill:#76d0ef;fill-opacity:1;fill-rule:evenodd;stroke:none" />
    <path
       d="m 50.049214,2.5024607 0,46.2955233 1.251231,0 0,-46.2955233 -1.251231,0 z"
       inkscape:connector-curvature="0"
       id="path38"
       style="fill:#7bd2f0;fill-opacity:1;fill-rule:evenodd;stroke:none" />
    <path
       d="m 51.300445,2.5024607 0,46.2955233 1.25123,0 0,-46.2955233 -1.25123,0 z"
       inkscape:connector-curvature="0"
       id="path40"
       style="fill:#7fd3f0;fill-opacity:1;fill-rule:evenodd;stroke:none" />
    <path
       d="m 52.551675,2.5024607 0,46.2955233 1.25123,0 0,-46.2955233 -1.25123,0 z"
       inkscape:connector-curvature="0"
       id="path42"
       style="fill:#84d4f1;fill-opacity:1;fill-rule:evenodd;stroke:none" />
    <path
       d="m 53.802905,2.5024607 0,46.2955233 1.251231,0 0,-46.2955233 -1.251231,0 z"
       inkscape:connector-curvature="0"
       id="path44"
       style="fill:#88d6f1;fill-opacity:1;fill-rule:evenodd;stroke:none" />
    <path
       d="m 55.054136,2.5024607 0,46.2955233 1.25123,0 0,-46.2955233 -1.25123,0 z"
       inkscape:connector-curvature="0"
       id="path46"
       style="fill:#8dd8f2;fill-opacity:1;fill-rule:evenodd;stroke:none" />
    <path
       d="m 56.305366,2.5024607 0,46.2955233 1.251231,0 0,-46.2955233 -1.251231,0 z"
       inkscape:connector-curvature="0"
       id="path48"
       style="fill:#91d9f2;fill-opacity:1;fill-rule:evenodd;stroke:none" />
    <path
       d="m 57.556597,2.5024607 0,46.2955233 1.25123,0 0,-46.2955233 -1.25123,0 z"
       inkscape:connector-curvature="0"
       id="path50"
       style="fill:#95dbf3;fill-opacity:1;fill-rule:evenodd;stroke:none" />
    <path
       d="m 58.807827,2.5024607 0,46.2955233 1.25123,0 0,-46.2955233 -1.25123,0 z"
       inkscape:connector-curvature="0"
       id="path52"
       style="fill:#99dcf4;fill-opacity:1;fill-rule:evenodd;stroke:none" />
    <path
       d="m 60.059057,2.5024607 0,46.2955233 1.251231,0 0,-46.2955233 -1.251231,0 z"
       inkscape:connector-curvature="0"
       id="path54"
       style="fill:#9ddef4;fill-opacity:1;fill-rule:evenodd;stroke:none" />
    <path
       d="m 61.310288,2.5024607 0,46.2955233 1.25123,0 0,-46.2955233 -1.25123,0 z"
       inkscape:connector-curvature="0"
       id="path56"
       style="fill:#a2e0f5;fill-opacity:1;fill-rule:evenodd;stroke:none" />
    <path
       d="m 62.561518,2.5024607 0,46.2955233 1.25123,0 0,-46.2955233 -1.25123,0 z"
       inkscape:connector-curvature="0"
       id="path58"
       style="fill:#a6e1f5;fill-opacity:1;fill-rule:evenodd;stroke:none" />
    <path
       d="m 63.812748,2.5024607 0,46.2955233 1.251231,0 0,-46.2955233 -1.251231,0 z"
       inkscape:connector-curvature="0"
       id="path60"
       style="fill:#abe2f6;fill-opacity:1;fill-rule:evenodd;stroke:none" />
    <path
       d="m 65.063979,2.5024607 0,46.2955233 1.25123,0 0,-46.2955233 -1.25123,0 z"
       inkscape:connector-curvature="0"
       id="path62"
       style="fill:#afe4f6;fill-opacity:1;fill-rule:evenodd;stroke:none" />
    <path
       d="m 66.315209,2.5024607 0,46.2955233 1.25123,0 0,-46.2955233 -1.25123,0 z"
       inkscape:connector-curvature="0"
       id="path64"
       style="fill:#b4e5f7;fill-opacity:1;fill-rule:evenodd;stroke:none" />
    <path
       d="m 67.566439,2.5024607 0,46.2955233 1.251231,0 0,-46.2955233 -1.251231,0 z"
       inkscape:connector-curvature="0"
       id="path66"
       style="fill:#b8e6f7;fill-opacity:1;fill-rule:evenodd;stroke:none" />
    <path
       d="m 68.81767,2.5024607 0,46.2955233 1.25123,0 0,-46.2955233 -1.25123,0 z"
       inkscape:connector-curvature="0"
       id="path68"
       style="fill:#bce8f8;fill-opacity:1;fill-rule:evenodd;stroke:none" />
    <path
       d="m 70.0689,2.5024607 0,46.2955233 1.25123,0 0,-46.2955233 -1.25123,0 z"
       inkscape:connector-curvature="0"
       id="path70"
       style="fill:#c0eaf9;fill-opacity:1;fill-rule:evenodd;stroke:none" />
    <path
       d="m 71.32013,2.5024607 0,46.2955233 1.251231,0 0,-46.2955233 -1.251231,0 z"
       inkscape:connector-curvature="0"
       id="path72"
       style="fill:#c2eaf9;fill-opacity:1;fill-rule:evenodd;stroke:none" />
    <path
       d="m 72.571361,2.5024607 0,46.2955233 5.004921,0 0,-46.2955233 -5.004921,0 z"
       inkscape:connector-curvature="0"
       id="path74"
       style="fill:#c4ebf9;fill-opacity:1;fill-rule:evenodd;stroke:none" />
    <path
       d="M 31.280759,47.546754 C 53.646502,43.949466 73.744389,34.174229 76.168648,25.806626 76.24685,25.57202 76.325052,25.337415 76.325052,25.024607 75.699437,17.673629 57.713,7.9765935 36.207479,3.4408835 c -1.64224,-0.3128076 -3.28448,-0.6256152 -4.92672,-0.9384228 5.004921,14.6237553 5.004921,30.4987403 0,45.0442933"
       inkscape:connector-curvature="0"
       id="path76"
       style="fill:none;stroke:#ffffff;stroke-width:2.50246072px;stroke-linecap:round;stroke-linejoin:round;stroke-opacity:1;stroke-dasharray:none" />
    <path
       d="m 31.280759,44.887889 -26.2758376,0"
       inkscape:connector-curvature="0"
       id="path78"
       style="fill:none;stroke:#f2f2f2;stroke-width:2.50246072px;stroke-linecap:round;stroke-linejoin:round;stroke-opacity:1;stroke-dasharray:none" />
    <path
       d="m 8.6804106,44.887889 c 0,-2.033249 -1.7204417,-3.675489 -3.6754892,-3.675489 -2.0332493,0 -3.753691,1.64224 -3.753691,3.675489 0,2.033249 1.7204417,3.675489 3.753691,3.675489 1.9550475,0 3.6754892,-1.64224 3.6754892,-3.675489"
       inkscape:connector-curvature="0"
       id="path80"
       style="fill:#f2f2f2;fill-opacity:1;fill-rule:evenodd;stroke:none" />
    <path
       d="m 31.280759,5.2395271 -26.2758376,0"
       inkscape:connector-curvature="0"
       id="path82"
       style="fill:none;stroke:#f2f2f2;stroke-width:2.50246072px;stroke-linecap:round;stroke-linejoin:round;stroke-opacity:1;stroke-dasharray:none" />
    <path
       d="m 8.6804106,5.2395271 c 0,-2.0332493 -1.7204417,-3.6754892 -3.6754892,-3.6754892 -2.0332493,0 -3.753691,1.6422399 -3.753691,3.6754892 0,2.0332494 1.7204417,3.6754892 3.753691,3.6754892 1.9550475,0 3.6754892,-1.6422398 3.6754892,-3.6754892"
       inkscape:connector-curvature="0"
       id="path84"
       style="fill:#f2f2f2;fill-opacity:1;fill-rule:evenodd;stroke:none" />
    <path
       d="m 31.280759,31.74997 -26.2758376,0"
       inkscape:connector-curvature="0"
       id="path86"
       style="fill:none;stroke:#f2f2f2;stroke-width:2.50246072px;stroke-linecap:round;stroke-linejoin:round;stroke-opacity:1;stroke-dasharray:none" />
    <path
       d="m 8.6804106,31.74997 c 0,-2.033249 -1.7204417,-3.675489 -3.6754892,-3.675489 -2.0332493,0 -3.753691,1.64224 -3.753691,3.675489 0,2.03325 1.7204417,3.67549 3.753691,3.67549 1.9550475,0 3.6754892,-1.64224 3.6754892,-3.67549"
       inkscape:connector-curvature="0"
       id="path88"
       style="fill:#f2f2f2;fill-opacity:1;fill-rule:evenodd;stroke:none" />
    <path
       d="m 31.280759,18.612052 -26.2758376,0"
       inkscape:connector-curvature="0"
       id="path90"
       style="fill:none;stroke:#f2f2f2;stroke-width:2.50246072px;stroke-linecap:round;stroke-linejoin:round;stroke-opacity:1;stroke-dasharray:none" />
    <path
       d="m 8.6804106,18.612052 c 0,-2.03325 -1.7204417,-3.67549 -3.6754892,-3.67549 -2.0332493,0 -3.753691,1.64224 -3.753691,3.67549 0,2.033249 1.7204417,3.675489 3.753691,3.675489 1.9550475,0 3.6754892,-1.64224 3.6754892,-3.675489"
       inkscape:connector-curvature="0"
       id="path92"
       style="fill:#f2f2f2;fill-opacity:1;fill-rule:evenodd;stroke:none" />
  </g>
</svg>
