<?xml version="1.0" encoding="UTF-8" standalone="no"?>
<!-- Created with Inkscape (http://www.inkscape.org/) -->

<svg
   xmlns:dc="http://purl.org/dc/elements/1.1/"
   xmlns:cc="http://creativecommons.org/ns#"
   xmlns:rdf="http://www.w3.org/1999/02/22-rdf-syntax-ns#"
   xmlns:svg="http://www.w3.org/2000/svg"
   xmlns="http://www.w3.org/2000/svg"
   xmlns:inkscape="http://www.inkscape.org/namespaces/inkscape"
   version="1.0"
   width="9.5299997mm"
   height="9.5200005mm"
   id="svg2">
  <metadata
     id="metadata58">
    <rdf:RDF>
      <cc:Work
         rdf:about="">
        <dc:format>image/svg+xml</dc:format>
        <dc:type
           rdf:resource="http://purl.org/dc/dcmitype/StillImage" />
      </cc:Work>
    </rdf:RDF>
  </metadata>
  <defs
     id="defs4" />
  <g
     id="g6">
    <path
       d="m 2.5024607,2.5024607 0,2.5024607 31.2807593,0 0,-2.5024607 -31.2807593,0 z"
       inkscape:connector-curvature="0"
       id="path8"
       style="fill:#1eb0ff;fill-opacity:1;fill-rule:evenodd;stroke:none" />
    <path
       d="m 2.5024607,5.0049214 0,1.2512304 31.2807593,0 0,-1.2512304 -31.2807593,0 z"
       inkscape:connector-curvature="0"
       id="path10"
       style="fill:#1daffe;fill-opacity:1;fill-rule:evenodd;stroke:none" />
    <path
       d="m 2.5024607,6.2561518 0,1.2512304 31.2807593,0 0,-1.2512304 -31.2807593,0 z"
       inkscape:connector-curvature="0"
       id="path12"
       style="fill:#1caefd;fill-opacity:1;fill-rule:evenodd;stroke:none" />
    <path
       d="m 2.5024607,7.5073822 0,1.2512303 31.2807593,0 0,-1.2512303 -31.2807593,0 z"
       inkscape:connector-curvature="0"
       id="path14"
       style="fill:#1badfb;fill-opacity:1;fill-rule:evenodd;stroke:none" />
    <path
       d="m 2.5024607,8.7586125 0,1.2512305 31.2807593,0 0,-1.2512305 -31.2807593,0 z"
       inkscape:connector-curvature="0"
       id="path16"
       style="fill:#1aabf9;fill-opacity:1;fill-rule:evenodd;stroke:none" />
    <path
       d="m 2.5024607,10.009843 0,1.25123 31.2807593,0 0,-1.25123 -31.2807593,0 z"
       inkscape:connector-curvature="0"
       id="path18"
       style="fill:#18a9f7;fill-opacity:1;fill-rule:evenodd;stroke:none" />
    <path
       d="m 2.5024607,11.261073 0,1.251231 31.2807593,0 0,-1.251231 -31.2807593,0 z"
       inkscape:connector-curvature="0"
       id="path20"
       style="fill:#17a8f6;fill-opacity:1;fill-rule:evenodd;stroke:none" />
    <path
       d="m 2.5024607,12.512304 0,1.25123 31.2807593,0 0,-1.25123 -31.2807593,0 z"
       inkscape:connector-curvature="0"
       id="path22"
       style="fill:#15a6f4;fill-opacity:1;fill-rule:evenodd;stroke:none" />
    <path
       d="m 2.5024607,13.763534 0,1.25123 31.2807593,0 0,-1.25123 -31.2807593,0 z"
       inkscape:connector-curvature="0"
       id="path24"
       style="fill:#14a4f2;fill-opacity:1;fill-rule:evenodd;stroke:none" />
    <path
       d="m 2.5024607,15.014764 0,1.251231 31.2807593,0 0,-1.251231 -31.2807593,0 z"
       inkscape:connector-curvature="0"
       id="path26"
       style="fill:#13a3f0;fill-opacity:1;fill-rule:evenodd;stroke:none" />
    <path
       d="m 2.5024607,16.265995 0,1.25123 31.2807593,0 0,-1.25123 -31.2807593,0 z"
       inkscape:connector-curvature="0"
       id="path28"
       style="fill:#11a1ee;fill-opacity:1;fill-rule:evenodd;stroke:none" />
    <path
       d="m 2.5024607,17.517225 0,1.25123 31.2807593,0 0,-1.25123 -31.2807593,0 z"
       inkscape:connector-curvature="0"
       id="path30"
       style="fill:#109fec;fill-opacity:1;fill-rule:evenodd;stroke:none" />
    <path
       d="m 2.5024607,18.768455 0,1.251231 31.2807593,0 0,-1.251231 -31.2807593,0 z"
       inkscape:connector-curvature="0"
       id="path32"
       style="fill:#0f9eea;fill-opacity:1;fill-rule:evenodd;stroke:none" />
    <path
       d="m 2.5024607,20.019686 0,1.25123 31.2807593,0 0,-1.25123 -31.2807593,0 z"
       inkscape:connector-curvature="0"
       id="path34"
       style="fill:#0d9ce8;fill-opacity:1;fill-rule:evenodd;stroke:none" />
    <path
       d="m 2.5024607,21.270916 0,1.25123 31.2807593,0 0,-1.25123 -31.2807593,0 z"
       inkscape:connector-curvature="0"
       id="path36"
       style="fill:#0c9ae7;fill-opacity:1;fill-rule:evenodd;stroke:none" />
    <path
       d="m 2.5024607,22.522146 0,1.251231 31.2807593,0 0,-1.251231 -31.2807593,0 z"
       inkscape:connector-curvature="0"
       id="path38"
       style="fill:#0b98e4;fill-opacity:1;fill-rule:evenodd;stroke:none" />
    <path
       d="m 2.5024607,23.773377 0,1.25123 31.2807593,0 0,-1.25123 -31.2807593,0 z"
       inkscape:connector-curvature="0"
       id="path40"
       style="fill:#0996e2;fill-opacity:1;fill-rule:evenodd;stroke:none" />
    <path
       d="m 2.5024607,25.024607 0,1.251231 31.2807593,0 0,-1.251231 -31.2807593,0 z"
       inkscape:connector-curvature="0"
       id="path42"
       style="fill:#0895e0;fill-opacity:1;fill-rule:evenodd;stroke:none" />
    <path
       d="m 2.5024607,26.275838 0,1.25123 31.2807593,0 0,-1.25123 -31.2807593,0 z"
       inkscape:connector-curvature="0"
       id="path44"
       style="fill:#0793df;fill-opacity:1;fill-rule:evenodd;stroke:none" />
    <path
       d="m 2.5024607,27.527068 0,1.25123 31.2807593,0 0,-1.25123 -31.2807593,0 z"
       inkscape:connector-curvature="0"
       id="path46"
       style="fill:#0591dd;fill-opacity:1;fill-rule:evenodd;stroke:none" />
    <path
       d="m 2.5024607,28.778298 0,1.251231 31.2807593,0 0,-1.251231 -31.2807593,0 z"
       inkscape:connector-curvature="0"
       id="path48"
       style="fill:#0490db;fill-opacity:1;fill-rule:evenodd;stroke:none" />
    <path
       d="m 2.5024607,30.029529 0,1.25123 31.2807593,0 0,-1.25123 -31.2807593,0 z"
       inkscape:connector-curvature="0"
       id="path50"
       style="fill:#038ed9;fill-opacity:1;fill-rule:evenodd;stroke:none" />
    <path
       d="m 2.5024607,31.280759 0,1.25123 31.2807593,0 0,-1.25123 -31.2807593,0 z"
       inkscape:connector-curvature="0"
       id="path52"
       style="fill:#018cd7;fill-opacity:1;fill-rule:evenodd;stroke:none" />
    <path
       d="m 2.5024607,32.531989 0,1.251231 31.2807593,0 0,-1.251231 -31.2807593,0 z"
       inkscape:connector-curvature="0"
       id="path54"
       style="fill:#028ed9;fill-opacity:1;fill-rule:evenodd;stroke:none" />
  </g>
</svg>
